<!-- Generated by IcoMoon.io -->
<svg version="1.1" xmlns="http://www.w3.org/2000/svg" width="1251" height="1024" viewBox="0 0 1251 1024">
<title></title>
<g id="icomoon-ignore">
</g>
<path d="M275.443 495.797h-230.076v19.443l191.19 48.608 38.886-68.051zM1049.924 256l19.443 19.443v174.987h-456.911v-42.127q0-45.367-32.405-77.772-25.924-25.924-71.291-25.924-42.127 0-71.291 25.924-32.405 32.405-32.405 77.772v42.127h-362.937v-174.987l19.443-19.443h988.354zM628.658 48.608l217.114 84.253q38.886 16.203 38.886 45.367v32.405h-515.24v-32.405q0-29.165 38.886-45.367l220.354-84.253zM729.114 495.797l32.405 476.354h149.063l-116.658-476.354h-64.81zM337.013 972.152h149.063l25.924-476.354h-64.81l-110.177 476.354zM333.772 495.797l-278.683 476.354h171.747l168.506-476.354h-61.57zM1189.266 165.266h-259.24v45.367h119.899l45.367 19.443 19.443 45.367v174.987h93.975v-265.721l-19.443-19.443zM849.012 495.797l171.747 476.354h174.987l-288.405-476.354h-58.329zM975.392 495.797l38.886 68.051 191.19-48.608v-19.443h-230.076zM677.266 495.797h-110.177l-3.241 476.354h123.139l-9.722-476.354zM1205.468 609.215l-71.291 165.266 71.291 126.38v-291.646zM1049.924 625.418l48.608 81.013 106.937-126.38v-42.127l-155.544 87.494zM200.911 625.418l-155.544-87.494v42.127l106.937 126.38 48.608-81.013zM45.367 609.215v291.646l71.291-126.38-71.291-165.266z"></path>
</svg>
