<!-- Generated by IcoMoon.io -->
<svg version="1.1" xmlns="http://www.w3.org/2000/svg" width="647" height="1024" viewBox="0 0 647 1024">
<title></title>
<g id="icomoon-ignore">
</g>
<path fill="#000" d="M374.696 524.981l73.955 17.065q41.241 14.221 63.999 34.133 32.709 29.867 51.196 78.221 17.065 42.664 19.911 96.708l-7.112 21.335-19.911 8.532h-466.471l-19.911-8.532-7.112-21.335q4.266-54.044 19.911-96.708 17.065-46.93 49.778-76.797 22.753-21.335 65.417-35.557l73.955-17.065q-41.241-17.065-66.841-52.62-27.019-38.398-27.019-83.911 0-62.575 45.511-105.24 45.511-44.088 109.505-39.822 54.044 4.266 92.442 41.241 38.398 38.398 42.664 92.442 4.266 48.354-22.753 89.594-25.601 41.241-71.107 58.31z"></path>
<path fill="#000" d="M317.725 242.584c-36.097 1.045-67.499 14.477-94.121 40.268-0.001 0.001-0.003 0.003-0.004 0.004s-0.001 0.001-0.002 0.002c-30.426 28.525-45.664 63.762-45.664 105.598 0 30.44 9.045 58.523 27.111 84.199v0.002l0.002 0.002c16.831 23.376 38.759 40.752 65.693 52.174l-72.559 16.746c-28.489 9.496-50.36 21.373-65.602 35.666-21.868 19.97-38.504 45.641-49.906 76.99-10.448 28.493-17.092 60.773-19.939 96.84l-0.008 0.102 7.215 21.645 20.213 8.66h466.676l20.211-8.66 7.213-21.639-0.004-0.094c-1.897-36.075-8.544-68.366-19.947-96.867l0.004 0.006c-12.348-32.296-29.456-58.44-51.326-78.41l-0.008-0.008c-15.237-13.334-36.627-24.733-64.166-34.229l-0.025-0.010-72.477-16.723c29.73-11.484 53.075-30.77 69.916-57.902 18.068-27.578 25.686-57.57 22.834-89.908v-0.004c-2.853-36.136-17.134-67.078-42.809-92.752l-0.004-0.004-0.004-0.002c-25.676-24.724-56.615-38.526-92.748-41.379l-0.004-0.002h-0.004c-5.348-0.357-10.601-0.46-15.758-0.311zM317.754 243.582c5.122-0.147 10.34-0.044 15.656 0.311 35.926 2.836 66.614 16.529 92.135 41.104 25.518 25.521 39.677 56.203 42.512 92.121l0.002 0.002v0.002c2.835 32.131-4.717 61.866-22.674 89.275l-0.004 0.006-0.002 0.006c-17.010 27.41-40.614 46.764-70.859 58.105l-0.082 0.029-0.066 0.059-0.76 0.65 74.883 17.279c27.449 9.466 48.723 20.817 63.82 34.029 21.738 19.852 38.756 45.851 51.057 78.023l0.004 0.008c11.347 28.361 17.969 60.515 19.867 96.463l-7.008 21.023-19.609 8.402h-466.266l-19.611-8.403-7.006-21.018c2.845-35.953 9.469-68.115 19.871-96.482v-0.002c11.356-31.222 27.905-56.745 49.646-76.598l0.004-0.004c15.092-14.152 36.828-25.977 65.215-35.441l75.451-17.41-1.445-0.598c-27.414-11.342-49.61-28.819-66.625-52.451l0.002 0.006c-17.959-25.524-26.928-53.383-26.928-83.625 0-41.596 15.102-76.516 45.354-104.875l0.006-0.006c26.466-25.642 57.592-38.962 93.461-39.992z"></path>
</svg>
