<!-- Generated by IcoMoon.io -->
<svg version="1.1" xmlns="http://www.w3.org/2000/svg" width="1398" height="1024" viewBox="0 0 1398 1024">
<title></title>
<g id="icomoon-ignore">
</g>
<path d="M549.647 757.961q15.059 52.706 7.529 105.412l-7.529 67.765 40.157-2.51v-2.51l15.059-193.255-7.529-12.549-12.549-15.059v-148.078l7.529-17.569 5.020-12.549-22.588-228.392q-5.020-35.137 10.039-40.157h30.118l22.588-17.569h55.216l-120.471-10.039-10.039-10.039-15.059-12.549-70.275-7.529h-57.726q-22.588 0-27.608-27.608l-10.039-45.176v-7.529l-5.020-22.588v-2.51q-5.020-22.588 10.039-40.157t37.647-15.059h2.51l25.098-5.020 2.51-5.020v-2.51q7.529-30.118 45.176-27.608h2.51l539.608 57.726q45.176 0 45.176 47.686v35.137l-2.51 15.059v2.51l-15.059 37.647q-20.078 40.157-42.667 37.647l-175.686-17.569-12.549 12.549-17.569 15.059-27.608 2.51q25.098 10.039 25.098 40.157l2.51 180.706 5.020 17.569v2.51l7.529 27.608-10.039 271.059 7.529 15.059 7.529 37.647-10.039 75.294 57.726-5.020-17.569-158.118 10.039-95.373-2.51-97.882 12.549-128-5.020-135.529q-5.020-25.098 22.588-35.137l77.804-15.059 85.333-17.569 55.216-25.098 35.137-2.51 45.176 5.020 15.059 7.529 22.588 32.627 7.529 40.157-5.020 660.079-7.529 40.157 160.628 40.157h-1397.961l175.686-42.667-2.51-32.627-2.51-122.98 27.608-135.529-2.51-248.471-30.118-155.608 7.529-37.647 22.588-32.627 15.059-7.529 85.333 2.51 67.765 40.157 20.078-7.529 50.196-5.020 77.804 25.098q22.588 7.529 22.588 35.137l-2.51 32.627-5.020 102.902v163.137l22.588 158.118v2.51zM660.079 923.608l133.020-7.529 12.549-82.824-2.51-15.059q-15.059-22.588-12.549-32.627l10.039-268.549v-2.51l-5.020-15.059-7.529-32.627-2.51-180.706-20.078-12.549h-122.98l2.51 17.569v2.51l25.098 228.392-12.549 25.098-2.51 2.51h2.51v153.098h-2.51q20.078 5.020 20.078 25.098v2.51l-15.059 193.255zM288.628 266.039l-30.118 158.118 20.078 40.157 12.549 233.412-30.118 120.471 7.529 125.49 115.451-32.627 100.392 15.059q30.118 0 30.118-20.078v-110.431l-12.549-35.137v-2.51q-22.588-77.804-22.588-170.667l7.529-145.569-2.51-85.333 12.549-50.196q0-20.078-17.569-25.098l-37.647 5.020-32.627-2.51-32.627 10.039-17.569 57.726-70.275-85.333zM1054.118 140.549v-35.137l-15.059-15.059-539.608-57.726-10.039 2.51-2.51 2.51-2.51 7.529 5.020 20.078-60.235 7.529h-5.020l-12.549 2.51-2.51 15.059 5.020 22.588v2.51l10.039 10.039h60.235l75.294 7.529 22.588 22.588h2.51l115.451 12.549 122.98 2.51 5.020-7.529q10.039-27.608 27.608-22.588h2.51l175.686 17.569 15.059-5.020 5.020-12.549zM928.628 291.137l-2.51 135.529 95.373 22.588-100.392 65.255-5.020 82.824v82.824q17.569 2.51 17.569 90.353l-7.529 110.431 10.039 30.118 50.196 12.549 95.373-12.549 62.745 17.569q25.098-45.176 22.588-82.824l-30.118-253.49 7.529-85.333 2.51-183.216-37.647-50.196-180.706 17.569z"></path>
</svg>
