<!-- Generated by IcoMoon.io -->
<svg version="1.1" xmlns="http://www.w3.org/2000/svg" width="1014" height="1024" viewBox="0 0 1014 1024">
<title></title>
<g id="icomoon-ignore">
</g>
<path d="M880.64 104.96q15.36-20.48 43.52-17.92l38.4 15.36h2.56l15.36 38.4-15.36 40.96-2.56 2.56-38.4 15.36q-28.16 0-43.52-20.48l-5.12-5.12h-762.88v79.36h-79.36v-220.16h79.36v79.36h762.88l5.12-7.68zM875.52 450.56q-58.88 56.32-61.44 135.68-2.56 64 43.52 145.92 25.6 51.2 0 94.72l-38.4 40.96 2.56-2.56q-84.48 69.12-243.2 115.2h2.56l-53.76 10.24-56.32-10.24h2.56q-158.72-46.080-243.2-115.2l2.56 2.56-38.4-40.96q-25.6-43.52 2.56-94.72 43.52-81.92 43.52-145.92-5.12-76.8-61.44-135.68l-5.12-7.68q43.52-20.48 66.56-66.56 28.16 2.56 56.32-12.8t53.76-48.64l-2.56 2.56 40.96-48.64v-2.56l15.36-2.56h243.2l15.36 2.56 40.96 48.64q25.6 35.84 58.88 51.2l48.64 7.68q25.6 51.2 69.12 69.12l-5.12 7.68zM683.52 588.8l-28.16 35.84-56.32-51.2-33.28-35.84-5.12-38.4 23.040-25.6 17.92-5.12q46.080 0 71.68 53.76 17.92 35.84 10.24 66.56zM706.56 506.88q-38.4-71.68-104.96-71.68l-33.28 7.68-7.68 2.56 20.48-53.76 5.12-17.92h-156.16l5.12 17.92q35.84 61.44 15.36 145.92l-33.28 35.84-76.8 87.040q-17.92 48.64 5.12 94.72 25.6 56.32 102.4 112.64l61.44 7.68 58.88-7.68q76.8-56.32 102.4-112.64 25.6-43.52 5.12-94.72l-2.56-5.12q35.84-17.92 43.52-61.44 10.24-43.52-10.24-87.040z"></path>
<path d="M875.52 450.56l5.12-7.68q-43.52-17.92-69.12-69.12l-48.64-7.68q-33.28-15.36-58.88-51.2l-40.96-48.64-15.36-2.56h-243.2l-15.36 2.56v2.56l-40.96 48.64 2.56-2.56q-25.6 33.28-53.76 48.64t-56.32 12.8q-23.040 46.080-66.56 66.56l5.12 7.68q56.32 58.88 61.44 135.68 0 64-43.52 145.92-28.16 51.2-2.56 94.72l38.4 40.96-2.56-2.56q84.48 69.12 243.2 115.2h-2.56l56.32 10.24 53.76-10.24h-2.56q158.72-46.080 243.2-115.2l-2.56 2.56 38.4-40.96q25.6-43.52 0-94.72-46.080-81.92-43.52-145.92 2.56-79.36 61.44-135.68zM924.16 53.76q33.28-2.56 64 23.040v2.56q25.6 28.16 25.6 61.44 0 38.4-25.6 66.56-30.72 25.6-64 25.6-38.4-2.56-64-25.6h-92.16v125.44l7.68 2.56 43.52 5.12 12.8-2.56 5.12 12.8q25.6 56.32 79.36 69.12l28.16 7.68-46.080 46.080q-51.2 48.64-51.2 112.64 0 58.88 38.4 130.56t0 130.56h-2.56v2.56l-38.4 40.96h-2.56q-89.6 74.24-253.44 122.88h-2.56l-56.32 10.24h-5.12l-58.88-10.24h-2.56q-163.84-48.64-253.44-122.88l-40.96-40.96v-2.56q-40.96-58.88 0-130.56 35.84-71.68 38.4-130.56-2.56-64-51.2-112.64l-43.52-46.080 28.16-7.68q51.2-15.36 74.24-69.12l5.12-12.8 15.36 2.56 46.080-5.12v-2.56l7.68-2.56v-122.88h-143.36v79.36h-145.92v-286.72h145.92v79.36h714.24q25.6-25.6 64-25.6zM880.64 104.96l-5.12 7.68h-762.88v-79.36h-79.36v220.16h79.36v-79.36h762.88l5.12 5.12q15.36 20.48 43.52 20.48l38.4-15.36 2.56-2.56 15.36-40.96-15.36-38.4h-2.56l-38.4-15.36q-28.16-2.56-43.52 17.92z"></path>
</svg>
