<!-- Generated by IcoMoon.io -->
<svg version="1.1" xmlns="http://www.w3.org/2000/svg" width="1301" height="1024" viewBox="0 0 1301 1024">
<title></title>
<g id="icomoon-ignore">
</g>
<path d="M860.943 743.541l6.522 61.962-19.567 130.446-159.796-244.586-166.319-195.669 104.357 260.892-541.35-326.115 52.178-58.701-19.567-3.261 192.408-78.268-9.783 97.834 81.529 6.522 45.656 52.178-22.828-104.357h-48.917l16.306-58.701-29.35-42.395 202.191-35.873-104.357-22.828 114.14-58.701q6.522-13.045-3.261-13.045l-19.567-6.522-75.006-6.522 35.873-9.783 68.484 6.522 22.828 6.522h26.089l179.363-48.917 84.79-6.522 61.962 9.783 42.395 13.045 22.828 13.045-6.522 32.611 65.223-19.567 81.529-6.522 88.051 9.783 26.089 29.35 6.522 61.962-45.656-35.873-91.312-16.306-81.529 9.783-68.484 55.44-32.611 71.745-3.261 71.745 22.828 39.134 29.35 22.828 42.395-26.089-3.261 58.701 29.35-3.261v22.828l48.917-45.656-16.306 84.79 26.089-22.828 26.089 13.045 13.045 16.306 35.873-35.873-9.783 45.656-29.35 61.962-32.611 9.783-68.484-19.567-104.357-9.783v3.261l68.484 19.567-143.49 48.917-192.408-176.102-42.395-19.567-153.274-39.134 130.446 75.006 78.268 78.268 84.79 130.446 52.178 153.274 26.089-88.051h3.261zM828.331 293.503l-94.573 52.178-55.44 6.522-81.529-48.917-13.045-13.045v3.261q0 39.134 22.828 61.962l39.134 32.611 52.178 6.522q32.611 0 65.223-22.828l65.223-78.268zM1249.019 228.28v26.089l-16.306 45.656-3.261 3.261h-3.261l-16.306-32.611q-6.522-16.306 3.261-19.567l6.522-3.261 16.306-3.261 6.522-9.783-6.522 3.261h-9.783l-52.178-26.089h-16.306l-26.089 32.611-6.522 6.522v-6.522l-9.783-42.395-6.522-6.522-45.656 3.261-9.783 13.045-6.522 26.089h-3.261v-3.261l-9.783-16.306-13.045-3.261-39.134 22.828h-3.261v-3.261l9.783-19.567 26.089-26.089 42.395-19.567 130.446 6.522 42.395 19.567 19.567 32.611zM935.949 163.057v-3.261q-107.618 9.783-182.624-42.395l9.783 22.828q16.306 35.873 42.395 55.44v16.306l3.261 9.783h9.783l52.178-16.306 58.701-35.873 6.522-6.522zM939.21 150.012l-3.261-19.567 6.522-42.395-6.522-3.261h-13.045l-78.268 19.567-9.783 6.522 9.783 3.261 42.395 9.783 35.873 16.306 16.306 9.783z"></path>
</svg>
