<!-- Generated by IcoMoon.io -->
<svg version="1.1" xmlns="http://www.w3.org/2000/svg" width="1280" height="1024" viewBox="0 0 1280 1024">
<title></title>
<g id="icomoon-ignore">
</g>
<path d="M199.941 979.319c-0.356-0.593 0.356-4.267 1.541-8.178 2.252-6.874 11.97-34.489 13.748-38.874 0.711-1.896 0.474-2.133-2.015-1.541-1.541 0.356-8.059 1.067-14.341 1.422-11.378 0.83-11.615 0.83-11.615-1.659 0-1.422 0.83-4.148 1.778-6.044 1.778-3.437 1.778-3.556-0.711-3.556-2.133 0-2.37-0.593-2.015-3.2 0.356-1.896 1.067-4.267 1.541-5.333 0.593-1.541 0.356-2.133-0.948-2.133-2.726 0-3.437-3.556-1.422-6.637 2.252-3.556 2.252-3.674-0.593-4.385-1.422-0.356-2.37-1.659-2.37-3.081s-0.593-2.489-1.304-2.489c-2.015 0 0-9.719 2.607-12.563 2.963-3.2 2.844-4.030-0.593-4.030-1.778 0-3.081-0.83-3.437-2.37-0.474-2.015 3.319-6.044 19.319-20.978 14.104-13.037 20.148-19.437 20.622-21.807 0.356-1.778 3.793-6.4 7.822-10.548 7.467-7.585 9.481-11.022 9.481-16.119 0-1.659 1.067-4.978 2.37-7.585s2.37-5.57 2.37-6.637c0-1.067 0.948-3.319 2.252-4.978 1.185-1.778 2.489-5.333 2.963-7.941 1.067-5.452 4.978-13.63 6.637-13.63 0.593 0 3.319-2.963 6.044-6.637 3.2-4.385 6.4-7.23 9.719-8.77 2.726-1.185 6.519-3.674 8.415-5.689 2.252-2.37 5.096-3.911 8.296-4.504 2.607-0.356 7.348-2.015 10.311-3.556 4.504-2.252 6.281-2.489 9.363-1.659 2.726 0.83 4.741 0.593 7.704-0.83 3.319-1.541 4.622-1.659 7.111-0.593 2.607 1.185 3.793 1.067 6.637-0.593 2.963-1.778 4.030-1.778 7.585-0.593 4.385 1.659 8.059 0.593 10.785-3.081 1.067-1.422 2.015-1.541 5.215-0.474 5.215 1.896 13.63 1.778 15.17-0.119 0.711-0.83 4.030-2.844 7.348-4.385 4.030-1.896 5.452-3.081 4.385-3.674-0.83-0.474-9.481-2.607-19.2-4.622-24.059-4.978-29.985-6.756-30.815-9.481-0.948-3.2-6.281-6.281-12.444-7.23-4.267-0.593-5.926-0.356-8.533 1.541-10.311 7.23-38.993 18.015-59.615 22.4-11.378 2.489-16.356 2.844-39.704 2.844-25.719 0-27.141-0.119-38.4-3.319-18.726-5.333-30.459-13.037-37.096-24.296-3.437-5.689-5.333-17.778-3.674-23.348 1.304-4.622-0.83-15.17-4.385-21.333-2.963-5.096-4.267-13.63-3.081-18.37 0.711-2.489-1.067-14.578-4.030-27.022-0.356-1.422-3.911-5.096-8.059-8.059-4.030-2.963-7.822-6.163-8.296-7.111s-2.963-2.726-5.333-3.911c-5.452-2.844-17.422-14.104-18.489-17.541-0.474-1.422-0.237-4.859 0.593-7.704s1.304-6.044 1.185-7.23c-0.119-1.185 0.711-3.556 1.778-5.333 1.185-1.778 2.015-3.556 1.896-4.030-0.119-0.593 0.356-0.948 1.067-0.948 0.593 0 0.948-0.474 0.474-1.067-0.356-0.593 2.607-3.081 6.519-5.57 3.911-2.37 7.111-5.096 7.111-5.926s1.304-2.844 2.844-4.504c2.726-3.081 2.726-3.2 1.185-12.8-2.015-12.681-2.015-12.8 1.067-9.126 1.422 1.778 3.911 3.793 5.57 4.622 1.659 0.948-0.356-1.541-4.385-5.452-5.807-5.57-7.348-7.941-8.059-11.852-1.422-9.126 6.874-18.726 26.43-30.578 21.333-12.919 37.926-20.148 50.607-22.044 3.911-0.593 16.474-2.37 27.852-4.148 36.859-5.57 70.874-4.030 87.348 3.674 6.993 3.437 17.304 12.207 22.044 19.081 2.252 3.319 3.437 6.993 4.385 14.578 2.963 23.822 9.244 56.415 11.852 61.63 2.37 4.622 2.607 6.4 2.015 14.341-0.948 12.444 2.726 43.496 6.163 51.319 2.37 5.215 2.489 6.756 1.422 13.63-1.304 9.007-0.356 16.237 3.2 23.822 3.911 8.178 3.556 21.096-0.83 29.985-3.081 6.519-3.319 8.296-0.474 5.452 0.948-0.948 3.319-0.83 8.889 0.711 4.267 1.067 15.881 2.37 27.022 2.963 24.889 1.422 31.407 2.489 43.852 7.23 12.326 4.622 20.385 11.141 26.311 21.215 6.993 11.852 7.704 17.422 4.622 33.422-3.674 18.963-5.452 21.926-17.067 28.207-10.785 5.807-19.437 7.822-40.652 9.481-11.733 0.948-15.17 0.83-18.37-0.474-3.674-1.541-4.385-1.422-9.6 1.185-7.467 3.793-11.022 3.556-16-0.711-2.963-2.607-4.741-3.437-6.874-2.844-1.541 0.356-3.911 0-5.333-0.711-2.015-1.067-2.963-1.067-4.622 0.474-1.778 1.541-2.726 1.659-5.926 0.593s-4.148-0.948-6.044 0.711c-1.541 1.422-3.2 1.778-5.807 1.185-2.726-0.593-4.385-0.119-6.756 1.659-1.778 1.422-4.622 2.489-6.519 2.489-2.252 0-3.911 1.067-5.452 3.319-3.2 4.622-5.57 12.563-4.741 16.356 0.356 2.015-0.237 5.096-1.541 7.585-1.067 2.252-1.778 4.859-1.541 5.57 0.356 0.83-0.237 2.607-1.185 3.911-1.541 2.252-1.422 3.2 1.304 9.837 3.319 7.941 4.267 17.067 2.489 21.926-0.711 1.896-0.711 4.267 0.119 6.637 0.593 2.015 1.422 6.637 1.896 10.193 0.356 3.556 0.83 8.178 1.067 10.074 0.356 3.319 1.067 9.244 2.252 21.926 1.304 12.326 2.015 18.489 2.607 20.385 0.83 2.726-0.237 3.081-13.63 4.622-9.719 1.185-11.97 1.778-11.97 3.319 0 1.067 0.83 11.259 1.778 22.637s1.422 20.859 1.067 21.215c-0.593 0.593-49.422 7.348-64.83 9.007-4.385 0.474-7.941 0.356-8.296-0.237zM245.807 572.089c0-5.689-0.356-10.667-0.711-11.022-0.356-0.237-2.607-0.948-4.978-1.304l-4.267-0.711v6.519c0 8.77 4.385 18.015 8.178 17.304 1.541-0.356 1.896-2.252 1.778-10.785zM83.319 568.889c-2.015-4.978-3.911-6.281-3.911-2.607 0 2.37 3.2 7.348 4.741 7.348 0.593 0 0.119-2.133-0.83-4.741zM319.881 530.489c-1.067-0.948-1.185-0.83-0.593 0.83 0.356 1.185 0.83 3.911 0.948 5.926 0.119 3.319 0.237 3.319 0.593-0.83 0.356-2.607-0.119-5.096-0.948-5.926zM153.6 516.148c0.948-2.252-0.356-7.704-1.778-7.704-1.659 0-2.607 3.437-1.778 6.637s2.607 3.793 3.556 1.067zM137.956 510.578c-1.659-10.311-4.148-13.274-6.4-7.348-2.607 6.637-0.237 12.326 4.859 12.326 2.015 0 2.133-0.593 1.541-4.978zM174.933 500.267c-0.711-9.363-4.385-20.267-6.756-20.267-4.622 0-3.319 27.141 1.541 31.17 2.015 1.659 2.726 1.778 4.267 0.593 1.422-1.185 1.541-3.319 0.948-11.496zM196.978 503.585c2.252-1.185 2.37-2.015 1.659-11.496-0.83-9.363-3.319-16.83-5.689-16.83-0.474 0-1.659 1.541-2.607 3.319-2.726 5.215 0.237 26.311 3.674 26.311 0.237 0 1.659-0.593 2.963-1.304zM274.489 498.489c0.83-2.37-1.541-15.881-3.911-21.096-2.015-4.859-3.556-5.689-4.741-2.489-0.948 2.489 1.778 21.689 3.437 23.704s4.385 2.015 5.215-0.119zM290.37 486.993c0-4.267-3.2-10.904-4.741-9.956-1.304 0.83-1.541 9.126-0.474 13.274 1.067 4.030 5.215 1.422 5.215-3.319zM216.178 478.104c1.067-2.607-1.541-6.637-3.793-6.163-2.489 0.474-3.437 6.756-1.304 8.059 1.896 1.185 4.267 0.356 5.096-1.896zM253.63 477.748c0-2.844-2.489-7.23-4.148-7.23-2.489 0-3.437 2.844-1.778 5.807 1.304 2.489 5.926 3.556 5.926 1.422zM303.526 461.393c-2.133-4.267-10.667-12.8-14.459-14.933l-4.030-2.133 2.963 2.489c7.467 6.519 11.97 11.022 13.748 13.63 2.252 3.437 3.437 4.030 1.778 0.948z"></path>
<path d="M357.452 665.837c-0.356-1.541-1.659-13.393-3.081-26.43-3.2-31.17-2.607-29.037-8.178-29.037h-4.504l-1.896-16-1.778-15.881 3.793-9.244 3.911-9.244-3.081-29.156c-1.659-16-3.674-29.867-4.385-30.815s-1.659-2.607-2.015-3.674c-0.474-1.185-1.778-2.133-2.963-2.133-2.015 0-2.37-1.896-3.911-17.185l-1.659-17.185 2.963-6.044 3.081-5.926-2.963-26.311c-1.541-14.459-3.319-26.667-4.030-27.022-1.541-1.067-5.57-36.859-4.148-38.519 0.474-0.83 0.593-4.385 0.237-8.178-0.593-5.215-0.474-6.993 0.83-7.822 1.185-0.711 1.185-1.067 0.237-1.067-3.2 0-2.963-0.356 27.496-48 21.452-33.541 30.696-47.407 31.881-48.237 0.711-0.474 23.822-0.948 51.437-0.948 52.741 0 54.756-0.237 46.459-5.096-1.896-1.185-4.504-4.385-5.689-7.23l-2.252-5.096-13.511-0.711c-7.467-0.474-17.185-0.83-21.57-0.83h-8.059l-1.778-4.148c-0.948-2.489-1.896-9.956-2.252-18.963-0.711-14.578-0.593-14.815 2.015-15.289 8.652-1.778 138.43-7.822 167.23-7.822 22.993 0 23.348 0 23.348 2.489 0 3.911-15.17 20.504-25.481 27.852-5.096 3.556-14.815 10.074-21.807 14.222-13.63 8.415-21.452 15.17-21.452 18.489 0 2.015 7.23 2.133 169.6 2.133h169.481l-1.778-2.489c-0.948-1.304-2.726-3.2-4.030-4.148-1.304-0.83-4.622-5.689-7.348-10.667l-4.978-9.126 2.015-22.637c2.252-25.719 2.726-29.156 4.504-29.156 0.711 0 0.948-0.356 0.593-0.711s0.83-2.37 2.726-4.385l3.437-3.793 38.044-0.356c38.756-0.356 41.837 0 40.533 4.148-0.593 1.541 8.059 7.467 10.785 7.467 0.83 0 2.252-0.83 3.081-1.778 1.067-1.304 2.844-1.541 6.993-0.948 2.963 0.356 9.956 0.711 15.526 0.83 5.57 0 11.141 0.711 12.563 1.541 2.37 1.422 6.163 1.422 10.548 0 1.304-0.474 8.415-1.304 15.881-2.015 7.348-0.593 14.104-1.778 15.052-2.489s1.659-2.844 1.659-4.741v-3.437l15.17-0.119c8.296-0.119 17.778-0.119 21.215 0.119 3.319 0.119 7.23-0.356 8.533-1.067 1.659-0.948 2.489-0.948 2.489-0.119 0 0.593 2.133 1.185 4.622 1.185 4.859 0 5.452-0.83 6.044-8.889 0.593-8.415 0.948-10.904 1.541-12.444 0.474-0.948 1.541-6.756 2.489-12.681 0.948-6.044 2.489-11.733 3.437-12.681s2.133-4.741 2.489-8.178c0.474-3.556 1.304-8.059 1.896-9.837 0.948-3.319 0.948-3.319 1.067-0.474 0 1.659-0.474 5.096-1.067 7.585-0.711 3.081-0.593 5.452 0.237 6.993 1.541 2.963 2.607 1.304 3.793-5.689 0.474-2.607 1.422-7.348 2.133-10.43 1.422-5.57 1.304-5.926-1.422-8.059l-2.963-2.252h9.244c4.978 0 9.007 0.356 9.007 0.948-0.356 2.252 0.237 2.726 1.778 1.541 2.844-2.37 2.963 0.119 0.83 14.341-1.422 9.126-1.778 14.222-0.948 15.052 0.711 0.711 0 8.77-2.133 23.348-4.030 26.311-4.267 25.6 8.77 24.533 5.215-0.474 8.889-0.119 10.667 0.711 2.963 1.659 8.415 12.207 8.415 16.356 0 3.437 1.185 6.281 2.607 6.281 1.896 0 4.385 3.793 4.504 6.519 0 1.304 0.83 3.674 1.896 5.215 2.37 3.2 1.659 12.207-1.067 15.289-0.948 1.067-2.133 3.319-2.607 4.978-1.067 3.793-4.030 7.111-6.281 7.111-1.185 0-1.422 0.83-0.83 3.2 4.030 16.356 4.622 44.089 1.304 61.274-1.067 5.807-1.778 11.852-1.304 13.393 0.593 2.607 1.067 2.726 11.852 2.726 9.007 0 11.259 0.356 11.259 1.659 0 2.607-1.067 2.963-10.904 3.2-4.978 0.119-9.719 0.593-10.43 1.067-1.422 0.83 1.185 3.556 20.741 21.333 5.215 4.622 9.363 9.007 9.126 9.6-0.119 0.593 0.474 0.948 1.185 0.83 1.778-0.356 1.896 2.726 0.474 11.852-0.593 4.267-0.474 6.756 0.474 7.822 0.948 1.304 0.474 5.926-2.015 19.793-2.607 14.578-3.674 18.133-5.333 18.607-1.185 0.237-2.133 0.83-2.133 1.067 0 0.356-2.489 13.511-5.452 29.393l-5.452 28.8 2.607 3.437 2.489 3.556-3.081 16.474c-2.015 10.193-3.793 16.83-4.859 17.422-0.948 0.474-1.659 2.015-1.659 3.2 0 1.304-0.83 2.37-1.778 2.37-1.067 0-2.133 0.711-2.37 1.541-1.067 2.963-14.815 77.867-14.815 80.83 0 1.778 0.593 4.148 1.304 5.452 0.948 1.778 0.474 4.859-2.015 13.274-1.778 5.926-3.793 11.378-4.504 12.207-0.83 0.711-3.2 10.904-5.333 22.519s-4.504 23.704-5.096 26.904l-1.185 5.57h-21.215c-25.244 0-23.704 1.422-20.030-18.963 5.689-32.593 14.459-86.756 13.985-87.111-0.237-0.356-8.533-0.83-18.37-1.304-12.8-0.593-18.015-0.474-18.607 0.593-0.593 0.83-5.452 1.304-14.459 1.304-7.467 0-13.511 0.237-13.511 0.474s2.015 5.452 4.622 11.496c2.489 6.163 4.859 13.156 5.333 15.644l0.83 4.385h-55.941c-52.267 0-55.822-0.119-55.111-2.015 0.474-1.185 0.474-1.659-0.119-1.185-0.474 0.474-2.489-4.267-4.504-10.667l-3.674-11.615-4.622-0.711c-2.726-0.474-5.452-1.896-6.874-3.556l-2.252-2.844-464.711-0.83-33.304 33.304-33.422 33.304 1.659 18.37c0.948 10.074 1.422 19.2 0.948 20.148-0.474 1.541-4.030 1.778-21.333 1.778-20.622 0-20.859 0-21.333-2.607zM409.6 561.778c-15.052-0.83-18.726-0.356-18.015 2.252 0.356 1.067 0.948 6.993 1.304 13.156 0.474 6.163 1.185 11.733 1.541 12.326 0.237 0.593 6.519-5.333 13.867-13.037l13.274-14.104-11.97-0.593zM535.467 555.022c-3.081-0.237-8.415-0.237-11.852 0s-0.948 0.356 5.57 0.356c6.519 0 9.363-0.119 6.281-0.356zM458.193 525.274c15.644-16.119 22.163-23.585 20.978-23.941-0.948-0.356-10.074-0.711-20.267-0.593h-18.607l0.474 14.459 0.356 14.459-30.104 0.711-2.37 6.281c-1.896 4.978-2.844 6.163-4.978 6.163-2.607 0-2.726-0.474-4.148-17.422-1.896-23.111-2.133-24.059-5.215-24.059-2.133 0-3.081 1.304-4.741 5.807-2.252 6.519-2.37 12.326-0.474 29.156 1.659 14.222-0.474 13.274 27.378 12.681l19.081-0.474 22.637-23.23zM1119.17 547.674c0.474-0.593-0.711-5.096-2.726-10.074-1.896-4.978-3.556-9.956-3.556-11.022s1.067-6.163 2.489-11.141l2.489-9.244 4.267-0.356c4.859-0.356 6.756-3.793 2.844-4.741-1.304-0.356-12.681-0.711-25.481-0.83l-23.23-0.237-0.711 2.726c-0.356 1.541-1.778 11.022-3.319 21.096-2.607 18.015-2.726 18.37-5.807 18.726-2.607 0.356-3.556-0.593-6.756-6.163l-3.674-6.637h-9.481c-5.215 0-9.481 0.237-9.481 0.474 0 2.133 4.978 10.548 7.941 13.511l3.674 3.793h14.933c9.6 0 15.052 0.474 15.644 1.304 0.948 1.541 38.281 0.356 39.941-1.185zM895.289 547.911c33.896-0.711 34.133-0.711 35.081-3.437 0.593-1.422 1.659-2.844 2.37-3.081 0.948-0.237-0.119-5.333-3.437-16.237-5.096-16.474-5.689-19.674-3.674-20.859 0.711-0.356 1.185-1.541 1.185-2.489 0-1.422-26.785-1.659-201.244-1.659h-201.244l-22.756 22.874c-12.563 12.563-22.756 23.585-22.756 24.296 0 1.067 44.089 1.422 191.17 1.422 105.244 0 206.578-0.356 225.304-0.83zM1027.319 501.452c-1.778-0.593-2.252 0.474-1.304 2.844 0.711 2.133 0.83 2.133 1.541-0.119 0.474-1.185 0.356-2.489-0.237-2.726zM388.859 455.467l3.674-8.059-2.015-23.704c-2.607-31.881-2.726-32-8.296-20.148l-4.385 9.481 2.015 23.704c1.778 20.741 2.963 26.667 4.978 26.667 0.237 0 2.133-3.556 4.030-7.941zM738.489 457.481c0.356-2.963 1.067-18.252 1.541-34.015l0.83-28.8h-202.548l-6.4 6.874c-3.437 3.911-17.659 18.844-31.407 33.422-13.867 14.459-25.244 26.785-25.244 27.378s54.519 0.948 131.2 0.83l131.319-0.356 0.711-5.333zM949.807 460.444c2.37-3.674 6.756-3.911 11.259-0.593 3.081 2.133 4.504 2.252 19.081 1.422l15.881-0.83-11.615-13.037c-6.4-7.111-13.63-15.17-16-17.778s-10.311-11.615-17.778-19.911l-13.511-15.052h-76.207c-41.956 0-76.326 0.119-76.326 0.356-0.593 4.030-3.2 66.844-2.726 67.556 0.237 0.474 37.689 0.83 83.2 0.83h82.844l1.896-2.963zM1111.348 445.037c3.319-9.719 6.163-18.607 6.163-19.793 0.119-1.067-2.37-4.978-5.452-8.889-3.081-3.793-5.689-7.111-5.926-7.348-0.948-1.304-1.896 1.896-4.030 14.815-5.807 35.319-5.926 36.267-3.674 38.044 1.067 0.83 3.081 1.422 4.385 1.185 1.896-0.237 3.556-3.556 8.533-18.015zM1135.17 455.23l1.422-7.585-4.859-6.4c-2.726-3.437-5.096-6.163-5.333-6.044-1.185 1.304-8.652 26.193-8.059 27.141 0.356 0.593 3.911 1.067 7.941 0.83l7.348-0.356 1.541-7.585zM1033.956 458.43c0.356-1.541 2.252-15.289 4.267-30.578s3.911-29.037 4.148-30.459l0.593-2.726h-35.674c-20.267 0-35.437 0.474-35.2 1.067s13.156 15.526 28.8 33.185c17.067 19.319 29.156 32.119 30.459 32.119 1.185 0 2.37-1.067 2.607-2.607zM485.452 415.17l18.726-19.911-20.504-0.356c-11.378-0.119-20.741-0.119-20.859 0-0.593 0.948 2.252 40.059 2.963 40.059 0.474 0 9.363-8.889 19.674-19.793zM1144.178 402.726c1.304-5.215 0.83-8.059-1.541-8.059-3.556 0-5.096 6.4-2.252 9.244 2.015 2.015 2.963 1.778 3.793-1.185zM1044.622 239.763c0.237-1.185 0.83-4.030 1.304-6.281s1.067-5.096 1.304-6.281c0.593-1.896-1.659-2.015-38.993-2.015-39.23 0.119-39.704 0.119-41.956 2.726-1.304 1.422-3.2 4.030-4.267 5.926l-2.015 3.2h-14.222c-13.393 0-16.593 0.711-14.815 3.556 0.474 0.711 20.741 1.185 56.889 1.185 52.504 0 56.178-0.119 56.77-2.015zM536.059 187.615c-1.541-0.237-4.148-0.237-5.926 0-1.896 0.237-0.593 0.474 2.607 0.474 3.319 0 4.741-0.237 3.319-0.474zM566.519 184.889c0-0.711-2.252-0.83-5.57-0.356-7.704 0.948-7.941 1.541-0.593 1.541 3.437 0 6.163-0.474 6.163-1.185zM578.963 183.585c1.541-0.711 0.474-0.83-3.556-0.356-3.2 0.474-6.163 0.948-6.4 1.185-1.067 0.948 7.704 0.237 9.956-0.83zM894.933 175.881c1.067-1.304 0.948-1.659-0.237-1.659-1.778 0.119-5.807 2.726-5.807 3.911s4.622-0.593 6.044-2.252zM884.148 162.37c-1.304-0.83-1.304-1.304-0.119-2.844 0.948-1.067 1.067-1.896 0.356-1.896-1.896 0-2.726 3.674-1.304 5.57 0.83 0.83 1.659 1.304 2.133 0.948 0.356-0.356-0.119-1.185-1.067-1.778zM1135.407 98.726c-0.119-2.844-0.237-3.081-1.304-1.185-0.593 1.067-0.83 2.607-0.474 3.2 1.185 2.015 1.778 1.304 1.778-2.015z"></path>
</svg>
