<!-- Generated by IcoMoon.io -->
<svg version="1.1" xmlns="http://www.w3.org/2000/svg" width="1024" height="1024" viewBox="0 0 1024 1024">
<title></title>
<g id="icomoon-ignore">
</g>
<path fill="#000" d="M557.176 120.471l-27.608-85.333v-2.51q148.078 7.529 266.039 92.863 117.961 87.843 165.647 223.372h-90.353q-42.667-92.863-125.49-155.608-85.333-60.235-188.235-72.784zM973.803 381.49q17.569 62.745 17.569 130.51 0 112.941-50.196 213.333-47.686 97.882-133.020 165.647l-30.118-90.353q60.235-52.706 92.863-128 35.137-75.294 35.137-160.627l-7.529-75.294 75.294-55.216zM961.254 368.941h-341.333l-107.922-328.784-107.922 328.784h-341.333l278.588 200.784-107.922 328.784 278.588-203.294 278.588 203.294-107.922-328.784 278.588-200.784zM702.745 855.843l75.294 55.216q-120.471 80.314-266.039 80.314t-266.039-80.314l75.294-55.216q90.353 50.196 190.745 50.196t190.745-50.196zM278.588 193.255q-82.823 62.745-125.49 155.608h-90.353q47.686-135.529 165.647-223.372 117.961-85.333 266.039-92.863v2.51l-27.608 85.333q-102.902 12.549-188.235 72.784zM125.49 436.706l-7.529 75.294q0 85.333 35.137 160.627 32.627 75.294 92.863 128l-30.118 90.353q-85.333-67.765-133.020-165.647-50.196-100.392-50.196-213.333 0-67.765 17.569-130.51l75.294 55.216z"></path>
<path fill="none" stroke="#000" stroke-width="50.1961" stroke-miterlimit="4" stroke-linecap="square" stroke-linejoin="round" d="M557.176 120.471l-27.608-85.333v-2.51q148.078 7.529 266.039 92.863 117.961 87.843 165.647 223.372h-90.353q-42.667-92.863-125.49-155.608-85.333-60.235-188.235-72.784M973.803 381.49q17.569 62.745 17.569 130.51 0 112.941-50.196 213.333-47.686 97.882-133.020 165.647l-30.118-90.353q60.235-52.706 92.863-128 35.137-75.294 35.137-160.627l-7.529-75.294 75.294-55.216M961.254 368.941l-278.588 200.784 107.922 328.784-278.588-203.294-278.588 203.294 107.922-328.784-278.588-200.784h341.333l107.922-328.784 107.922 328.784h341.333M702.745 855.843l75.294 55.216q-120.471 80.314-266.039 80.314t-266.039-80.314l75.294-55.216q90.353 50.196 190.745 50.196t190.745-50.196M278.588 193.255q-82.823 62.745-125.49 155.608h-90.353q47.686-135.529 165.647-223.372 117.961-85.333 266.039-92.863v2.51l-27.608 85.333q-102.902 12.549-188.235 72.784M125.49 436.706l-7.529 75.294q0 85.333 35.137 160.627 32.627 75.294 92.863 128l-30.118 90.353q-85.333-67.765-133.020-165.647-50.196-100.392-50.196-213.333 0-67.765 17.569-130.51l75.294 55.216"></path>
</svg>
