<!-- Generated by IcoMoon.io -->
<svg version="1.1" xmlns="http://www.w3.org/2000/svg" width="491" height="1024" viewBox="0 0 491 1024">
<title></title>
<g id="icomoon-ignore">
</g>
<path opacity="0.985663" fill="#000" d="M169.365 208.653c-4.949-5.954-1.622-28.704 5.309-36.368 5.747-6.333 16.597-7.232 22.038-1.791 6.004 6.004 4.661 31.708-1.94 37.684-7.075 6.399-20.247 6.642-25.384 0.453zM286.278 217.458c-3.659-3.659-2.215-25.726 2.424-36.816 6.568-15.728 19.87-14.368 26.339 2.682 4.963 13.066 3.983 23.098-2.91 29.992-5.954 5.954-21.553 8.442-25.853 4.143zM298.599 157.233c-9.437-7.433-10.838-19.846-2.711-24.216 11.889-6.368 38.351 13.998 33.761 25.962-2.66 6.93-21.369 5.876-31.050-1.746zM161.431 154.056c-4.602-7.452 22.126-33.090 30.982-29.689 6.873 2.647 6.086 15.236-1.54 24.923-4.664 5.944-9.291 8.178-16.897 8.178-5.754 0-11.402-1.541-12.568-3.411zM203.601 318.492c-13.306-5.314-40.105-27.314-45.156-37.044-9.344-18.047-0.118-19.694 34.213-6.058 27.092 10.771 46.982 11.844 80.683 4.399 40.516-8.968 44.993-9.159 44.993-1.935 0 7.865-15.501 23.783-30.614 31.417-22.555 11.405-66.558 16.23-84.142 9.221zM153.508 1000.936c-4.474-8.371-1.964-81.927 5.034-146.65 4.838-44.789 13.944-152.178 13.897-164.064-0.010-4.32-4.2-9.538-11.588-14.498-35.127-23.554-86.237-84.267-97.219-115.491-3.7-10.479-3.365-13.011 3.468-27.936 11.274-24.585 59.096-70.951 94.998-92.143 31.717-18.713 56.922-38.851 56.922-45.484 0-2.408-8.313-8.562-18.478-13.698-26.446-13.337-39.402-26.014-51.784-50.575-11.849-23.545-35.134-89.885-35.203-100.318-0.016-3.592 3.548-10.415 7.974-15.174 5.58-6.018 7.428-10.638 6.075-15.189-1.058-3.6-3.085-26.842-4.471-51.663-1.787-31.546-4.079-48.065-7.626-54.942-7.753-14.999-6.215-38.059 2.532-38.059 2.111 0 6.374 2.791 9.467 6.203 8.236 9.101 13 7.788 28.138-7.809 15.169-15.605 21.567-18.716 51.407-25.021 27.080-5.71 115.91-14.145 122.475-11.642 2.836 1.096 8.5 9.591 12.628 18.89s12.821 24.793 19.338 34.44c20.323 30.032 22.608 36.547 25.533 73.004 3.361 41.93-0.861 113.81-7.637 130.054-2.681 6.44-8.356 13.127-12.841 15.175-5.517 2.524-11.529 11.032-19.162 27.153-6.126 12.934-15.291 29.3-20.367 36.377-10.479 14.632-31.348 30.685-44.006 33.88-24.655 6.19-7.427 23.663 64.879 65.794 29.602 17.236 60.455 43.418 72.679 61.643 9.539 14.204 10.044 16.344 8.477 35.303-1.815 21.939-13.015 57.818-24.348 78.063-4.292 7.684-13.887 17.23-24.098 23.99-19.594 12.998-29.3 25.979-35.934 48.193-15.784 52.77-40.45 241.568-33.018 252.661 1.502 2.249 15.662 10.777 31.421 18.914l28.679 14.814-19.377 2.032c-45.72 4.776-81.536 1.169-90.036-9.094-2.8-3.392-4.697-25.545-6.384-75.21-3.053-89.658-5.001-109.066-11.048-111.405-9.291-3.575-18.775 22.182-33.532 91.022-13.001 60.596-28.003 112.082-34.944 119.889-6.759 7.61-18.397 6.875-22.848-1.43zM165.634 583.435c0.934-26.584-2.305-44.84-9.801-55.081-3.773-5.15-5.51-5.466-12.473-2.294-9.797 4.464-20.505 21.111-20.433 31.741 0.134 18.958 23.679 53.789 35.249 52.154 6.002-0.86 6.642-3.165 7.481-26.52zM367.506 598.929c5.388-10.35 13.252-47.583 11.33-53.644-2.476-7.8-25.951-21.622-36.696-21.622-7.797 0-8.253 0.851-8.239 14.743 0.015 18.353 5.45 52.56 9.541 60.218 4.020 7.502 20.215 7.699 24.087 0.304zM282.133 311.737c19.761-9.051 36.2-24.296 36.2-33.568 0-7.701-8.074-7.61-35.695 0.48-12.951 3.785-31.347 6.445-45.588 6.579-20.518 0.2-26.766-1.119-44.564-9.464-31.831-14.884-44.379-12.375-33.266 6.69 6.812 11.656 31.469 31.151 45.432 35.892 17.701 6.020 57.231 2.649 77.457-6.634zM309.12 216.393c14.608-7.811 8.29-46.52-7.602-46.52-5.53 0-9.228 2.677-12.574 9.161-4.765 9.217-6.515 34.574-2.665 38.424 3.102 3.102 16.172 2.486 22.819-1.065zM195.551 208.455c5.841-5.842 6.648-32.452 1.161-37.962-5.087-5.087-16.599-4.694-22.058 0.789-5.211 5.211-9.495 29.241-6.576 36.86 2.592 6.745 20.863 6.946 27.495 0.314zM329.648 159.003c4.594-11.977-21.306-32.638-33.042-26.337-11.401 6.091-5.84 23.234 9.345 28.815 9.404 3.46 21.938 2.153 23.72-2.478zM189.073 152.835c2.542-2.542 5.53-8.795 6.648-13.886 3.796-17.336-4.582-20.497-19.97-7.542-11.096 9.346-16.793 18.641-14.083 22.998 2.909 4.706 22.245 3.589 27.405-1.594z"></path>
</svg>
