<!-- Generated by IcoMoon.io -->
<svg version="1.1" xmlns="http://www.w3.org/2000/svg" width="847" height="1024" viewBox="0 0 847 1024">
<title></title>
<g id="icomoon-ignore">
</g>
<path d="M472.991 668.038v-9.752l97.524-29.257q43.886-21.943 80.457-58.514l53.638-82.895q21.943-46.324 24.381-95.086l-9.752-92.648-29.257-80.457-58.514-65.829-73.143-48.762-85.333-24.381v-9.752q80.457 9.752 143.848 58.514l78.019 82.895q31.695 46.324 39.010 104.838 12.19 68.267-4.876 129.219-14.629 58.514-53.638 107.276-36.571 48.762-90.21 78.019-51.2 31.695-112.152 36.571zM499.81 151.162v41.448l-24.381 7.314h-2.438v70.705l24.381-14.629 41.448-2.438 14.629 7.314 36.571 41.448c4.876 19.505 0.813 41.448-4.876 56.076l-7.314 9.752c-8.127 13.003-56.889 58.514-34.133 26.819l-56.076-2.438-14.629-12.19v114.59l2.438 2.438 14.629-39.010h56.076l12.19 36.571 39.010-14.629-12.19-36.571 41.448-34.133 31.695 19.505 21.943-36.571-34.133-21.943 9.752-24.381v-19.505l39.010-7.314-4.876-43.886-41.448 9.752-2.438-2.438-21.943-43.886 26.819-31.695-31.695-29.257-29.257 34.133-9.752-7.314-19.505-7.314-2.438-2.438-14.629-2.438v-41.448h-43.886zM438.857 31.695l-17.067 24.381-4.876 726.552-14.629-2.438-9.752-7.314h-4.876l-9.752 9.752-4.876 9.752 7.314 9.752 7.314 7.314 4.876-2.438 2.438-2.438 14.629-2.438h19.505v141.41l-12.19 9.752-7.314 14.629 12.19 19.505 14.629 4.876 14.629-2.438 19.505-19.505-7.314-14.629-9.752-12.19 2.438-141.41 14.629-2.438 7.314 2.438 14.629 7.314 4.876-2.438 9.752-7.314 2.438-9.752-2.438-4.876-7.314-4.876-2.438-4.876h-9.752l-9.752 7.314-4.876 2.438-9.752-2.438-2.438-4.876v-716.8l-21.943-29.257zM463.238 909.41v-102.4l9.752 2.438 2.438 4.876h7.314q12.19 9.752 17.067 0l17.067-12.19v-2.438l-9.752-29.257-4.876-2.438v-2.438l-9.752-2.438-9.752 2.438q-4.876 0-9.752 7.314v-92.648q85.333-14.629 146.286-58.514 60.952-41.448 97.524-117.029t34.133-151.162q-4.876-75.581-46.324-148.724l24.381 19.505 24.381 31.695 41.448 80.457 12.19 80.457-12.19 82.895 29.257-29.257 12.19-56.076q14.629 51.2-2.438 107.276l-46.324 90.21-7.314 4.876h7.314l4.876-2.438 21.943-9.752 19.505-19.505 9.752-12.19v17.067l-4.876 17.067-12.19 31.695-24.381 24.381-46.324 29.257-46.324 19.505-4.876 2.438 39.010 2.438 41.448-4.876-9.752 9.752-4.876 7.314q-19.505 19.505-48.762 29.257l-51.2 26.819-65.829 17.067h-7.314l21.943 7.314 29.257 4.876h48.762l-107.276 65.829-126.781 29.257zM409.6 70.705v9.752q-121.905 12.19-197.486 107.276-60.952 73.143-60.952 168.229-9.752 114.59 65.829 202.362t192.61 99.962v9.752l-90.21-21.943-82.895-51.2-63.39-82.895-34.133-109.714q-7.314-63.39 12.19-126.781l56.076-99.962 90.21-73.143 112.152-31.695zM392.533 202.362l17.067 21.943v-34.133l-17.067 12.19zM175.543 814.324h46.324l41.448-7.314 14.629-4.876-17.067-2.438-12.19-2.438-63.39-21.943q-31.695-9.752-58.514-29.257l-17.067-14.629-12.19-14.629-4.876-4.876 41.448 4.876h41.448l-14.629-7.314-9.752-2.438-43.886-19.505-36.571-26.819-24.381-26.819-12.19-36.571-2.438-24.381 26.819 29.257 34.133 14.629-39.010-68.267-21.943-73.143 7.314-65.829 2.438 26.819 4.876 26.819 14.629 19.505 19.505 17.067q-21.943-87.771 0-163.352 24.381-73.143 92.648-131.657h2.438l-26.819 53.638-17.067 56.076-2.438 95.086q9.752 80.457 60.952 146.286 73.143 97.524 190.171 117.029l12.19 2.438 12.19 4.876h4.876v92.648l-12.19-7.314-9.752-2.438-9.752 4.876-14.629 14.629v17.067l14.629 14.629 9.752 4.876 9.752-4.876 9.752-2.438 7.314-2.438h2.438v99.962l-126.781-26.819-114.59-68.267zM277.943 282.819l19.505 7.314-4.876 19.505 7.314 7.314 7.314 4.876 4.876 7.314 19.505-12.19 12.19 19.505-19.505 9.752 4.876 26.819 21.943 4.876-4.876 21.943-21.943-4.876-12.19 21.943 14.629 14.629-19.505 17.067-12.19-17.067-24.381 9.752v21.943h-21.943v-21.943l-26.819-9.752-14.629 19.505-19.505-17.067 14.629-17.067-12.19-24.381-21.943 4.876-4.876-19.505 24.381-4.876 4.876-24.381-19.505-12.19 12.19-17.067 17.067 9.752 7.314-7.314 9.752-7.314 4.876-2.438-9.752-21.943 21.943-4.876 9.752 19.505 12.19-2.438 12.19 2.438 7.314-21.943zM373.029 426.667l36.571-17.067v-158.476l-9.752 14.629-7.314 14.629-39.010-7.314-9.752 41.448 41.448 7.314 7.314 46.324-39.010 24.381 19.505 34.133zM295.010 373.029l-9.752-26.819-4.876-4.876-21.943-7.314-21.943 7.314-4.876 4.876-12.19 26.819 12.19 26.819q9.752 12.19 26.819 12.19 14.629 0 26.819-12.19l9.752-26.819zM377.905 446.171l19.505 7.314-4.876 21.943 4.876 2.438h2.438l7.314 9.752 2.438 2.438v119.467l-2.438 2.438-12.19-14.629-26.819 9.752v17.067l-21.943 2.438v-19.505l-26.819-9.752-12.19 14.629-19.505-14.629 14.629-14.629-12.19-24.381-21.943 2.438-4.876-21.943 24.381-2.438 4.876-24.381-19.505-9.752 9.752-21.943 19.505 12.19 4.876-4.876 12.19-9.752h2.438l-7.314-24.381 21.943-4.876 7.314 17.067h24.381l9.752-19.505zM394.972 536.381l-9.752-26.819-4.876-4.876-24.381-7.314-19.505 7.314h-2.438l-2.438 4.876-12.19 26.819 12.19 26.819 24.381 9.752 29.257-9.752 9.752-26.819z"></path>
</svg>
