<!-- Generated by IcoMoon.io -->
<svg version="1.1" xmlns="http://www.w3.org/2000/svg" width="847" height="1024" viewBox="0 0 847 1024">
<title></title>
<g id="icomoon-ignore">
</g>
<path fill="#000" d="M372.594 352.317q-58.297 27.881-58.297 91.248t58.297 93.782v-185.030zM326.97 304.158l45.624-17.743v-114.059q-106.455 22.812-174.891 103.921-70.97 78.574-70.97 190.099 0 106.455 70.97 187.564 68.436 83.644 174.891 98.852v-103.921l-7.604 12.673-40.554-15.208 12.673-50.693v-2.535l-2.535-2.535-43.089-32.951-2.535-2.535-50.693 22.812-20.277-35.485 40.554-30.416 2.535-2.535-2.535-2.535-10.139-58.297v-2.535h-2.535l-48.158-12.673 5.069-43.089 53.228 2.535v-2.535l27.881-50.693 2.535-2.535-2.535-5.069-27.881-32.951 32.951-27.881 38.020 35.485v-2.535zM532.277 443.564q0-63.366-58.297-91.248v185.030q58.297-30.416 58.297-93.782zM557.624 271.208l32.951 27.881-27.881 32.951-2.535 5.069 2.535 2.535 27.881 50.693v2.535h2.535l50.693-2.535 5.069 43.089-48.158 12.673h-2.535v2.535l-12.673 58.297v2.535l2.535 2.535 40.554 30.416-22.812 35.485-48.158-22.812-2.535 2.535-43.089 32.951-2.535 2.535v2.535l12.673 50.693-40.554 15.208-7.604-12.673v103.921q106.455-15.208 177.426-98.852 68.436-81.109 68.436-187.564 0-111.525-68.436-190.099-70.97-81.109-177.426-103.921v114.059l43.089 17.743 5.069 2.535v-2.535l35.485-32.951zM425.822 32.951l15.208 32.951 22.812 58.297q149.545 17.743 248.396 134.337 101.386 114.059 101.386 273.743 0 154.614-101.386 273.743-98.852 114.059-245.861 131.802v12.673l-10.139 30.416-30.416 10.139-30.416-10.139-15.208-30.416v-12.673q-149.545-17.743-245.861-131.802-101.386-119.129-101.386-273.743 0-159.683 103.921-273.743 98.852-116.594 248.396-134.337l22.812-58.297 17.743-32.951z"></path>
</svg>
