<!-- Generated by IcoMoon.io -->
<svg version="1.1" xmlns="http://www.w3.org/2000/svg" width="1024" height="1024" viewBox="0 0 1024 1024">
<title></title>
<g id="icomoon-ignore">
</g>
<path fill="#000" d="M375.733 83.864c-5.215 0.097-10.432 0.193-15.647 0.29-15.997 1.135-33.924-0.964-47.978 8.171-9.267 8.086-7.732 22.339-13.51 32.184-7.209 0.757-14.47 0.803-21.751 0.61-0.863-0.042-1.726-0.078-2.573-0.060-9.223-0.32-18.478-0.98-27.713-1.215-4.571-0.195-9.132-0.241-13.661 0.078-0.903 0.008-1.807 0.012-2.71 0.032-0.056 0.034-0.107 0.078-0.161 0.115-0.219 0.042-0.408 0.115-0.61 0.175-0.241 0.028-0.485 0.048-0.728 0.078-0.105 0.113-0.193 0.233-0.294 0.348-2.591 1.439-3.286 4.835-3.962 8.163-0.334 1.209-0.632 2.434-0.907 3.674-0.26 0.807-0.559 1.567-0.964 2.197-8.688 28.22-14.583 57.808-28.482 84.026-7.223 11.498-23.041 9.040-32.982 16.923-12.364 7.163-21.593 19.546-23.017 34.008-3.284 17.339-4.978 35.994-16.609 50.223-5.129 7.122-8.569 18.514-0.129 24.691 6.082 4.179 13.514 9.678 11.651 18.11-3.137 32.029-9.525 63.673-11.597 95.842-0.795 8.654-1.37 18.591-9.41 23.878-27.862 19.039-60.892 28.548-90.541 44.3-9.967 8.076-6.8 22.874-7.181 34.113-0.439 8.821 3.042 17.917 11.321 22.007 6.923 4.563 2.857 14.225 4.31 20.985 1.338 80.399 2.67 160.841 6.74 241.149-0.066 7.523-8.46 12.472-12.102 18.903-8.004 11.466-19.15 23.16-23.071 36.908-0.097 0.233-0.205 0.459-0.302 0.692-0.414 1.636-0.698 3.318-0.867 5.018-0.314 2.545-0.376 5.157-0.087 7.859 0.769 8.434 5.334 17.713 12.386 21.76 290.672-1.509 581.35-2.276 872.019-4.477 15.631 0.358 31.254 0.354 46.863-0.093 0.042-0.002 0.085-0.002 0.125-0.004 0.002 0 0.002 0 0.004 0 3.306-0.095 6.611-0.209 9.915-0.344 7.153-0.062 14.305-0.107 21.458-0.169 16.766-1.113 34.823 1.35 50.531-5.736 6.221-3.674 11.702-9.951 10.239-17.687 0.006-0.384 0.006-0.771 0.004-1.157 0.624-12.13-2.221-24.894-11.945-33.013-9.050-6.006-3.947-17.538-5.1-26.629 0.835-103.85 2.66-207.69 4.362-311.526 0.056-1.646 0.072-3.372-0.042-5.076 0.042-1.541 0.074-3.082 0.119-4.624-0.491-0.467-0.994-0.921-1.491-1.38-0.875-1.847-2.245-3.432-4.388-4.527-13.253-10.712-27.56-20.063-41.602-29.667-8.517-1.086-19.303 3.481-24.667-5.444-12.225-12.877-26.506-23.693-42.565-31.238-14.207-9.567-17.056-28.363-28.075-40.845-12.134-17.42-29.347-30.411-48.358-39.519-15.46-8.151-30.628-18.933-48.122-21.627-74.355 1.326-148.709 3.302-223.082 2.986-6.444-45.95-7.374-92.537-11.438-138.772-0.020-0.334-0.042-0.666-0.056-1-0.056-0.416-0.095-0.867-0.147-1.29-0.402-4.463-0.827-8.921-1.298-13.376-1.189-12.412-5.169-26.777-18.164-31.538-9.334-5.024-20.967-8.565-24.918-19.518-7.804-14.351-22.244-23.528-37.956-26.973-19.659-6.318-40.272-9.46-59.905-15.601-7.527-7.895-10.798-19.11-19.178-26.373zM380.395 126.96c2.658 1.646 0.117 9.169-1.523 3.553-0.501-1.284-0.223-3.579 1.523-3.553zM390.018 162.339h4.1c13.529 1.314 26.87 4.394 39.992 7.937-0.034 0.044-0.072 0.089-0.107 0.133-5.465 4.843-12.599 9.396-16.297 15.766-0.28 0.461-0.525 0.94-0.752 1.431-0.040 0.085-0.080 0.167-0.119 0.251-0.141 0.318-0.274 0.644-0.39 0.976-0.833 2.139-1.296 4.467-1.179 7.072-4.312 47.201-4.131 94.75-6.525 142.035 7.72 8.792 17.575 16.542 23.767 26.313-7.185 10.317-16.484 19.886-18.247 32.99-1.573 5.764-2.082 12.879-4.251 17.939-23.005-18.104-44.060-39.217-61.739-62.643-1.103-1.587-2.344-3.040-3.664-4.412-0.511-0.688-1.117-1.308-1.853-1.829-6.889-6.406-15.597-11.036-21.86-18.196-13.432-12.997-28.196-25.262-39.672-39.924 3.533-11.052 9.201-21.788 7.815-33.847-0.475-11.867 1.097-24.341-0.724-35.843-8.219-12.183-14.543-27.699-11.492-42.418 4.535-3.36 11.45-1.899 16.84-1.362 6.235 5.169 3.917 15.207 5.589 22.373 1.664 13.796 0.338 30.013 11.36 40.461 5.022 7.273 14.094 12.213 17.078 20.333 2.569 11.714 1.867 27.035 12.464 34.952 0.024 0.014 0.050 0.020 0.074 0.032 0.153 0.139 0.286 0.29 0.445 0.427 0.915 0.469 1.833 0.767 2.752 0.978 0.058 0.014 0.117 0.030 0.175 0.042 1.332 0.288 2.67 0.356 4.012 0.247 7.543-0.097 15.273-4.525 22.914-2.829 3.543 0.306 7.074-0.952 9.368-3.32 0.479-0.451 0.887-0.974 1.223-1.559 0.024-0.038 0.048-0.072 0.072-0.111 0.034-0.064 0.066-0.129 0.101-0.193 0.857-1.503 1.306-3.273 1.143-5.263 0.688-12.553 1.37-25.961-5.539-37.123 3.388-4.42 8.68-8.128 12.263-12.478 0.903-0.871 1.765-1.752 2.495-2.668-0.028-0.31-0.054-0.62-0.082-0.928 0.201-0.396 0.386-0.801 0.549-1.211-2.31-21.417-1.929-43.004-2.096-64.526zM191.911 270.068c8.503-0.443 9.472 10.987 12.973 16.615 6.857 16.412 5.414 34.586 6.438 51.943-10.49-0.694-19.981-6.499-30.56-7.549-8.295 0.771-5.491-9.311-6.682-14.611 0.376-12.211-2.103-25.574 3.275-36.892 3.195-4.98 8.454-9.267 14.555-9.507zM585.882 395.696c-0.69 1.193-1.378 2.386-2.068 3.581-4.69 5.97-8.933 14.368-16.609 16.611-12.671-3.964-24.134-11.15-35.035-18.623 17.79-2.306 35.809-1.288 53.71-1.569zM697.637 397.189c19.742 0.264 39.916-0.41 59.406 1.288-2.857 8.812-5.171 18.562-10.543 26.103-17.89 2.734-36.383 1.006-54.498 1.618-12.090 0.328-25.202-0.416-34.113-9.776-5.909-5.207-13.335-10.102-17.333-16.629 18.611-3.33 38.175-2.026 57.080-2.603zM450.755 408.904c1.326 7.225 2.791 15.86-0.62 22.594-4.507-1.032-1.076-8.48-1.431-11.684 0.676-2.915 0.968-9.905 2.050-10.913zM795.823 411.468c8.476 4.467 16.355 9.977 24.512 14.987-7.643-1.338-18.019 2.362-23.943-3.95-0.581-1.787-1.159-4.064-1.302-6.259 0.034-0.875 0.074-1.748 0.093-2.62 0.119-0.773 0.308-1.511 0.638-2.159zM366.011 433.585c3.046 2.477 6.092 4.958 9.138 7.434 11.098 10.082 25.23 17.027 34.89 28.502 2.314 5.106 2 12.269-0.954 16.935-11.985 3.595-25.164 4.764-37.58 5.509-4.881-1.911-2.38-9.563-3.605-13.754-0.907-14.862-1.302-29.751-1.889-44.626zM450.924 474.903c4.296 1.099 1.050 9.742-1.99 6.929-1.587-2.378-0.964-6.066 1.99-6.929zM91.954 587.145c4.549 0.062 8.41 1.968 6.338 7.796 0.145 65.136-0.153 130.277-1.742 195.397-5.895 8.328-9.505 9.798-8.607-1.831-2.668-66.87-3.386-133.853-4.044-200.785 2.042-0.163 4.072-0.467 6.080-0.495 0.662-0.062 1.326-0.091 1.976-0.082z"></path>
</svg>
