<!-- Generated by IcoMoon.io -->
<svg version="1.1" xmlns="http://www.w3.org/2000/svg" width="1286" height="1024" viewBox="0 0 1286 1024">
<title></title>
<g id="icomoon-ignore">
</g>
<path d="M444.953 560.762h164.572v-188.952l-164.572 188.952zM374.857 341.333h-161.524l161.524 192v-192zM591.238 341.333h-179.81v204.191l179.81-204.191zM646.096 560.762h170.667l-170.667-188.952v188.952zM1069.715 341.333h-182.857v198.095l182.857-198.095zM850.286 341.333h-185.905l185.905 201.143v-201.143zM862.477 57.904h6.095v192h377.905v91.429h-124.952l-204.191 219.429h329.143v51.81h-146.286l18.286 313.905h45.714v57.905h-198.095v-57.905h39.619l18.286-313.905h-347.429l18.286 313.905h42.667v57.905h-198.095v-57.905h42.667l18.286-313.905h-362.667l18.286 313.905h48.762v57.905h-201.143v-57.905h39.619l18.286-313.905h-121.905v-51.81h313.905l-188.952-219.429h-124.952v-91.429h341.334v-149.333l-30.476 3.048-42.667-6.095-18.286-18.286 18.286-18.286 42.667-6.095q45.714 0 57.905 18.286h6.095v176.762h417.524v-161.524l-27.429 3.048-45.714-6.095-18.286-18.286 18.286-18.286 45.714-9.143 57.905 18.286z"></path>
</svg>
