<!-- Generated by IcoMoon.io -->
<svg version="1.1" xmlns="http://www.w3.org/2000/svg" width="1065" height="1024" viewBox="0 0 1065 1024">
<title></title>
<g id="icomoon-ignore">
</g>
<path d="M553.291 754.237q44.043 0 74.323-30.28 33.032-30.28 33.032-74.323v-107.355q0-46.796-33.032-77.075-30.28-33.032-74.323-33.032h-41.29q-44.043 0-74.323 33.032-33.032 30.28-33.032 77.075v107.355q0 41.29 33.032 74.323 30.28 30.28 74.323 30.28h41.29zM1010.237 432.172q27.527 27.527 13.763 60.559l-16.516 19.269-13.763 8.258-16.516 2.753h-11.011l-19.269-8.258-5.505-5.505-377.118-324.817q-11.011-11.011-30.28-11.011l-33.032 11.011-377.118 324.817-35.785 13.763-16.516-2.753-8.258-5.505-19.269-22.022q-16.516-33.032 11.011-60.559l448.688-385.377 16.516-5.505 13.763-2.753h8.258l19.269 8.258 2.753 2.753 445.936 382.624zM523.011 211.957l-118.366 101.85h256l-118.366-101.85-8.258-2.753-11.011 2.753zM699.183 693.677h107.355q-24.774 41.29-11.011 96.344l8.258 16.516h-534.022q22.022-38.538 5.505-85.333l-11.011-27.527h101.85l-5.505-30.28v-22.022h-85.333q13.763-38.538 0-79.828l-13.763-30.28h99.097v-44.043l2.753-8.258h-145.893l126.624-112.86h377.118l129.376 112.86h-148.645l2.753 8.258v44.043h104.602l-2.753 8.258q-24.774 41.29-11.011 93.591l2.753 8.258h-93.591v22.022l-5.505 30.28zM137.634 101.849v209.204l187.183-159.656v-49.548h-187.183zM74.323 627.613l-2.753-5.505q-11.011-33.032 2.753-63.312h13.763q33.032 0 57.806-19.269l33.032-27.527 19.269 8.258 16.516 11.011h5.505q13.763 13.763 22.022 41.29 11.011 35.785-8.258 68.817l-5.505 11.011q-33.032-24.774-71.57-24.774l-35.785 5.505q-19.269 5.505-35.785 19.269l-11.011-24.774zM71.57 781.763q-11.011-38.538 5.505-68.817l2.753-2.753 5.505-8.258 11.011-11.011q13.763-16.516 35.785-22.022l24.774-2.753 41.29 8.258-2.753 2.753h2.753l30.28 24.774 13.763 27.527q11.011 38.538-5.505 68.817l-2.753-2.753q-35.785-24.774-77.075-24.774l-35.785 5.505-44.043 22.022-2.753-11.011-2.753-5.505zM74.323 924.903l-2.753-5.505q-11.011-33.032 5.505-66.065l27.527-27.527 27.527-13.763 24.774-5.505q30.28 0 52.301 19.269l24.774 24.774 5.505 8.258 2.753 11.011q11.011 38.538-8.258 68.817l-49.548 41.29h-2.753l-13.763 2.753h-22.022l-30.28-11.011q-30.28-13.763-41.29-46.796zM264.258 957.936q30.28-44.043 11.011-96.344v-2.753h520.258q-11.011 33.032 0 71.57l33.032 55.054h-583.57l19.269-27.527zM999.226 572.559q11.011 35.785-8.258 68.817l-2.753 11.011q-33.032-24.774-71.57-24.774l-35.785 5.505q-19.269 5.505-35.785 19.269l-5.505-11.011-8.258-19.269q-11.011-33.032 5.505-68.817l19.269-22.022h2.753l22.022-16.516 8.258-2.753 30.28 27.527q24.774 19.269 57.806 19.269h16.516l5.505 13.763zM996.474 723.957l2.753 5.505q11.011 38.538-5.505 68.817l-2.753-2.753q-33.032-24.774-71.57-24.774h-2.753l-35.785 5.505q-24.774 8.258-41.29 22.022l-8.258-16.516q-11.011-35.785 5.505-68.817l8.258-11.011 27.527-24.774 16.516-8.258 16.516-2.753h11.011l41.29 8.258-2.753 2.753h2.753l30.28 27.527 8.258 19.269zM999.226 869.849q11.011 38.538-8.258 68.817l-52.301 41.29-11.011 2.753-8.258 2.753-38.538-8.258v2.753q-33.032-11.011-46.796-49.548l-2.753-11.011q-11.011-33.032 5.505-66.065l27.527-27.527 16.516-11.011 8.258-2.753 27.527-5.505h2.753q24.774 0 49.548 19.269l27.527 35.785 2.753 5.505v2.753z"></path>
</svg>
