<!-- Generated by IcoMoon.io -->
<svg version="1.1" xmlns="http://www.w3.org/2000/svg" width="1418" height="1024" viewBox="0 0 1418 1024">
<title></title>
<g id="icomoon-ignore">
</g>
<path d="M953.825 317.238q0 18.173-7.266 32.693l-9.997 12.699-1.809 1.809q-19.959 20.875-48.129 20.875t-47.213-20.875l-1.809-1.809-9.997-12.699q-8.168-14.543-8.168-32.693 0-16.329 7.266-29.979l12.699-17.245q19.068-19.068 47.213-19.068t48.129 19.068l12.699 17.245q6.367 13.615 6.367 29.979zM1013.75 256.41l-8.168-3.633v-17.245l-1.809-5.439h-12.699l-1.809 5.439v17.245l-7.266 3.633-4.535 9.069v4.535h40.869v-4.535l-4.535-9.069zM1105.45 781.208q0 12.699-12.699 12.699h-766.312q-12.699 0-12.699-12.699v-407.671h12.699q2.737 16.329 16.329 29.063 18.173 18.173 41.769 18.173 24.505 0 42.671-18.173 12.699-12.699 16.329-29.063h382.248l2.737 2.737q23.603 24.505 58.106 24.505t59.019-24.505l1.809-2.737h157.982v407.671zM918.421 499.759l-3.633-13.615-5.439-8.168q-9.997-9.069-22.701-9.069t-21.803 9.069l-6.367 8.168-2.737 13.615 3.633 15.435 4.535 6.367 0.893 0.893q9.069 9.069 21.803 9.069t22.701-9.069l0.893-0.893 4.535-6.367 3.633-15.435zM326.432 280.022h486.664q-9.069 17.245-9.069 38.136 0 21.803 10.9 39.038h-370.443q-0.893-21.803-17.245-38.136-18.173-17.245-42.671-17.245-23.603 0-41.769 17.245-16.329 16.329-17.245 38.136h-11.802v-65.372q0-11.802 12.699-11.802zM1092.738 280.022q12.699 0 12.699 11.802v65.372h-145.282q9.069-17.245 9.069-39.038 0-20.875-9.069-38.136h132.561zM1068.23 617.782q-0.893-5.439-35.407-15.435l-39.953-9.069q-11.802 2.737-18.173 11.802-6.367 9.997-3.633 20.875 2.737 12.699 11.802 19.068l22.701 2.737 34.503-10.9q28.147-10.9 28.147-19.068zM1053.702 618.698q0.893 7.266-48.129 19.959l-14.543-1.809-8.168-12.699q-1.809-7.266 1.809-13.615 4.535-6.367 12.699-7.266l29.979 4.535q25.433 7.266 26.335 10.9zM876.651 690.41v59.936h177.954v-59.936h-177.954zM886.635 701.302v37.239h158.888v-37.239h-158.888zM794.027 574.191q0 62.649-45.403 106.24-43.583 45.403-106.24 45.403t-108.044-45.403q-43.583-43.583-43.583-106.24 0-63.566 43.583-108.044 45.403-43.583 107.142-43.583h0.893q62.649 0 106.24 43.583 45.403 44.499 45.403 108.044zM753.182 574.191q0-46.304-32.693-78.998-32.693-31.777-78.083-31.777t-78.083 31.777l-4.535 6.367q-27.236 29.979-27.236 72.639 0 40.869 26.335 71.742l5.439 5.439q32.693 32.693 78.083 32.693t78.083-32.693q32.693-31.777 32.693-77.174zM806.747 574.191q0-68.112-49.046-117.13-36.323-36.323-82.628-44.499l-33.609-3.633q-68.112 0-117.13 48.129-48.129 49.046-48.129 117.13t48.129 116.214q49.046 48.129 117.13 48.129l33.609-2.737q46.304-9.069 82.628-45.403 49.046-48.129 49.046-116.214zM348.217 233.715h73.541q9.069 0 13.615 6.367 5.439 5.439 5.439 12.699v11.802h-111.677v-11.802l6.367-12.699q5.439-6.367 12.699-6.367zM429.024 360.83l-1.809 9.069q-1.809 11.802-11.802 20.875-12.699 13.615-29.979 13.615-18.173 0-30.87-13.615-9.997-9.069-11.802-20.875l-0.893-9.069v-2.737q0.893-16.329 12.699-28.147 12.699-12.699 30.87-12.699 17.245 0 29.979 12.699 11.802 11.802 13.615 28.147v2.737zM728.653 540.605q0 19.068-13.615 33.609-14.543 13.615-32.693 13.615-19.959 0-33.609-13.615l-2.737-2.737q-11.802-13.615-11.802-30.87 0-18.173 12.699-30.87l1.809-1.809q13.615-14.543 33.609-14.543 18.173 0 32.693 14.543 13.615 13.615 13.615 32.693zM459.896 294.542v45.403h83.544v-45.403h-83.544z"></path>
</svg>
