<!-- Generated by IcoMoon.io -->
<svg version="1.1" xmlns="http://www.w3.org/2000/svg" width="1024" height="1024" viewBox="0 0 1024 1024">
<title></title>
<g id="icomoon-ignore">
</g>
<path fill="#000" d="M695.8 271.6q-27.2-32.4-97.2-25.6-44.8 4-104 41.6-60.8 40.8-110.8 98.8-122.8 146-88 286.4 12.4 55.2 60.8 80.8 36.4 21.6 88 21.6 63.2 0 141.6-75.6 38-36.4 64.8-74l-13.2-26q-24.4 27.2-58.4 54.4-67.2 54-106.4 54-56.8 0-78.4-64.8-21.6-71.6 32.4-174.4 43.2-79.6 96-129.6 50-47.2 80.8-38 14.8 2.8 12.4 14.8-1.6 8.4-13.6 30-21.6 45.6 4 64.8 35.2 26.8 71.6 2.8 35.2-26 35.2-73.2 0-48.4-17.6-68.8zM621.4 121.6l25.6 8q16.4 43.2 47.2 60.8 42 19.2 76 10.8l20 17.6q-5.2 47.2 18.8 74.4 28.4 36.4 65.2 40.4l12 25.6q-25.6 36.8-13.6 76 5.6 40.4 43.2 63.2v27.2q-37.6 22.8-43.2 63.2-12 38 13.6 76l-12 24q-36.8 5.6-65.2 40.8-24 28.4-18.8 75.6l-20 16q-34-8-76 10.8-30.8 17.6-47.2 60.8l-25.6 8q-32.4-21.6-74.4-21.6-39.2 6.8-67.2 38l-27.2-2.8q-21.6-36.4-58-50-43.2-10.8-77.2 5.6l-24-13.6q-5.6-47.2-32.4-68.8-19.2-14.8-34-20.4-20.4-6.8-39.2-5.2l-16-21.6q16-43.2-2.8-77.2-16.4-39.2-54-54l-6.8-25.6q32.4-32.4 29.6-71.6 2.8-40.4-29.6-71.6l6.8-26.8q37.6-12.4 54-52.8 18.8-35.2 2.8-77.2l16-21.6q18.8 1.6 39.2-6.8 14.8-5.2 34-18.8 26.8-21.6 32.4-70l24-12.4q34 16.4 77.2 5.6 36.4-12.4 58-50l27.2-2.8q26.8 31.2 67.2 38 42 1.2 74.4-23.2z"></path>
</svg>
