<!-- Generated by IcoMoon.io -->
<svg version="1.1" xmlns="http://www.w3.org/2000/svg" width="821" height="1024" viewBox="0 0 821 1024">
<title></title>
<g id="icomoon-ignore">
</g>
<path d="M575.34 332.536h-329.897l-15.835-13.196 15.835-18.474h15.835q0-52.784 31.67-92.371l76.536-52.784v-26.392h15.835l15.835-52.784v-42.227h21.113v42.227l13.196 52.784h15.835v26.392q50.144 13.196 79.175 52.784 31.67 39.588 31.67 92.371h10.557l18.474 18.474q0 13.196-15.835 13.196zM150.433 731.052v195.299h36.948v-195.299h-36.948zM343.093 731.052v195.299h34.309v-195.299h-34.309zM282.392 926.351v-195.299h-36.948v195.299h36.948zM274.474 427.547v145.155l29.031-13.196v-131.959h-29.031zM382.68 525.196v-97.65h-26.392v113.485l26.392-15.835zM667.711 926.351v-195.299h-36.948v195.299h36.948zM535.753 731.052v195.299h34.309v-195.299h-34.309zM438.103 731.052v195.299h36.948v-195.299h-36.948zM749.526 926.351q31.67 0 31.67 31.67l-10.557 21.113-21.113 10.557h-683.547q-29.031 0-29.031-31.67t29.031-31.67h23.753v-195.299h-21.113q-29.031 0-29.031-31.67 0-21.113 15.835-26.392h709.938l7.918 7.918 10.557 18.474q0 31.67-31.67 31.67h-23.753v195.299h21.113zM546.309 575.34v-147.794h-29.031v134.598l29.031 13.196zM612.289 369.485q31.67 0 31.67 29.031t-31.67 29.031h-15.835v171.546l63.34 36.948h-504.083l65.979-39.588v-168.907h-13.196q-31.67 0-31.67-29.031t31.67-29.031h403.794zM435.464 427.547v100.289l29.031 13.196v-113.485h-29.031z"></path>
</svg>
