<!-- Generated by IcoMoon.io -->
<svg version="1.1" xmlns="http://www.w3.org/2000/svg" width="1489" height="1024" viewBox="0 0 1489 1024">
<title></title>
<g id="icomoon-ignore">
</g>
<path fill="#000" d="M351.101 646.64q26.931-26.931 26.931-63.956t-26.931-63.956-63.956-26.931q-40.392 0-67.32 26.931t-26.931 63.956 26.931 63.956q26.931 30.296 67.32 30.296 37.024 0 63.956-30.296zM1350.823 582.684q0-37.024-26.931-63.956t-63.956-26.931q-40.392 0-63.956 26.931-30.296 26.931-30.296 63.956t30.296 63.956q23.56 30.296 63.956 30.296 37.024 0 63.956-30.296 26.931-26.931 26.931-63.956zM1199.352 235.983q47.126 43.761 77.421 151.47h3.364q53.854 0 90.887 37.024t37.024 90.887l26.931 228.891-13.466 26.931-23.56 10.101h-40.392l-10.101 3.364h-60.591v107.717l-20.194 16.83h-141.377l-16.83-16.83v-107.717h-679.945v107.717q0 16.83-20.194 16.83h-138.009l-20.194-16.83v-107.717h-60.591l-10.101-3.364h-40.392l-23.56-10.101-13.466-26.931 26.931-228.891q0-53.854 37.024-90.887t90.887-37.024h3.364q30.296-100.98 74.057-144.741 127.911-127.911 434.223-127.911t430.857 121.177zM862.745 212.422q0 23.56-23.56 23.56h-141.377q-23.56 0-23.56-23.56l23.56-20.194h47.126v-23.56q-232.256 3.364-350.073 111.081-63.956 53.854-77.421 124.547l16.83 13.466q188.502-60.591 366.903-70.684h134.64q178.401 10.101 363.532 70.684l20.194-13.466q-13.466-67.32-84.15-124.547-121.177-104.345-350.073-111.081v23.56h53.854l23.56 20.194zM1014.215 505.271l-245.721-10.101-245.721 10.101q-100.98 16.83-100.98 60.591t100.98 77.421l245.721 33.66 245.721-33.66q100.98-33.66 100.98-77.421t-100.98-60.591z"></path>
</svg>
