<!-- Generated by IcoMoon.io -->
<svg version="1.1" xmlns="http://www.w3.org/2000/svg" width="1130" height="1024" viewBox="0 0 1130 1024">
<title></title>
<g id="icomoon-ignore">
</g>
<path d="M317.809 890.143c0.302-2.895 1.297-7.389 2.291-10.083 1.901-4.695 1.901-5.287-2.291-95.33-2.392-49.811-4.293-91.137-4.192-91.741 0-1.599-62.388-1.901-63.393-0.302-0.403 0.603-5.488 0.994-11.984 0.994s-11.581-0.403-11.984-0.994c-0.403-0.603-11.178-0.994-29.053-0.994-21.865 0-28.55-0.302-28.852-1.196-0.201-0.699-1.095-11.077-2.002-23.061l-1.599-21.865 4.796-4.393c2.593-2.392 16.767-14.778 31.546-27.555l26.649-23.263-0.603-11.984c-1.397-28.55-3.197-47.62-4.695-48.716-2.098-1.699-2.795-11.38-0.894-12.878 1.095-0.994 1.297-2.996 0.699-10.486-0.603-8.484-0.504-9.285 1.095-9.285s1.599-0.101 0.101-1.196c-1.196-0.994-1.901-4.192-2.593-12.777-1.599-16.868-1.498-23.061 0.403-22.356 2.002 0.796 1.901-0.302-0.504-3.298-1.498-1.901-2.002-4.091-2.002-8.182 0-9.089-0.994-13.079-3.097-13.079-1.599 0-1.901-0.796-1.901-4.393 0-3.097 0.504-4.595 1.599-4.992 1.196-0.504 1.397-1.599 0.994-5.589-0.504-3.89-0.302-5.186 0.894-5.589 1.699-0.699 2.195-9.882 0.504-10.877-2.291-1.397 1.095-20.367 3.789-21.261 0.699-0.201 1.196 0.201 1.196 0.796 0 1.901 5.089 0.201 8.182-2.795 3.097-2.895 3.497-4.192 1.297-4.192-0.796 0-1.498-0.403-1.498-0.994 0-0.504 0.603-0.994 1.397-0.994 0.699 0 1.901-0.603 2.492-1.397 1.095-1.297 4.091-2.098 11.38-2.895 1.699-0.201 3.789 0.302 4.992 1.297 1.8 1.498 2.098 2.795 2.098 9.882 0.101 9.479-0.603 10.385-7.591 9.781-6.886-0.603-7.886 0.403-7.188 6.584 0.504 3.89 0.302 5.589-0.796 6.391-1.397 1.196-1.297 10.684 0.201 9.781 0.403-0.201 1.498 0.201 2.593 0.894 1.699 1.297 1.699 1.599 0.403 4.091-1.397 2.492-1.297 2.895 0.994 4.896 3.097 2.593 3.497 9.089 0.796 11.883-2.002 1.901-2.392 6.193-0.699 7.288 0.699 0.403 0.796 2.002 0.403 4.293-1.599 9.089-1.699 12.777-0.201 14.174 0.699 0.796 1.699 4.595 2.098 8.384 0.403 3.89 1.196 7.49 1.699 7.983 0.603 0.603 3.593 0.894 6.785 0.699 5.089-0.201 5.891 0 6.391 1.8 0.403 1.397 1.397 2.002 3.298 2.002 4.393 0 15.37 2.098 14.976 2.895-0.302 0.403 0.403 0.699 1.397 0.796 1.095 0.101 2.195-0.201 2.492-0.796 0.403-0.504 1.397-0.504 2.593 0.101 1.297 0.796 5.089 0.699 12.676-0.101 12.475-1.297 30.048-0.603 31.243 1.297 0.603 0.894 0.201 1.397-1.095 1.599-1.095 0.201-2.002 0.994-2.002 1.8 0 1.095-2.002 1.397-9.188 1.498-5.089 0.101-11.782 0-14.778-0.201-9.68-0.699-23.263-0.201-30.45 0.994-9.479 1.599-10.284 1.901-10.977 4.192-0.603 1.8-1.397 2.002-6.785 1.699l-6.193-0.302 0.101 7.886c0.101 5.79 0.603 8.182 1.699 9.089 1.699 1.196 1.901 10.877 0.201 13.674-0.994 1.699-0.504 20.468 0.994 38.031l0.699 8.686h18.869c11.38 0 18.97-0.403 19.366-0.994 0.302-0.603 4.796-0.994 9.982-0.994s9.68 0.403 9.982 0.994c0.403 0.699 39.43 0.994 113.899 0.994 74.773 0 113.204-0.302 113.204-0.994 0-1.397 17.674-1.297 18.467 0.101 0.796 1.095 93.441 1.095 95.233-0.101 0.603-0.302 1.297-4.293 1.699-8.786l0.699-8.283-8.384 0.796c-15.571 1.498-40.332 0.699-51.309-1.599-12.575-2.593-14.879-4.192-15.269-10.684-0.201-2.694-0.699-5.388-1.297-5.992-0.504-0.603-0.603-3.789-0.302-7.188 0.699-6.584-0.796-12.179-3.197-12.179-0.796 0-1.397-0.403-1.397-0.994 0-0.504-2.002-0.994-4.293-0.994-4.992 0-11.682 4.192-14.476 8.988-0.894 1.599-2.492 3.097-3.399 3.399-2.098 0.504-2.492 5.589-0.504 5.589 3.097 0.101 4.091 1.699 2.694 4.896-1.498 3.789-3.99 4.595-13.973 4.595-9.781 0-12.575-0.894-14.476-4.494-1.498-2.895-1.498-3.097 0.894-4.091 3.497-1.599 4.393-6.886 1.095-6.886-1.699 0-5.488-11.178-5.488-16.276 0-2.098 0.894-5.891 1.901-8.484 1.095-2.593 2.195-5.488 2.492-6.391 0.302-0.994 2.002-2.002 3.89-2.291 3.097-0.603 3.497-1.095 4.091-4.695 0.796-4.896 0.302-5.79-3.399-5.79-6.093 0-8.283-3.197-3.399-4.992 1.901-0.796 3.399-0.699 5.589 0.403 1.699 0.894 4.192 1.297 5.891 0.894 2.195-0.403 2.895-0.201 2.895 0.994 0 1.8 4.796 2.996 9.381 2.492 1.901-0.201 3.197 0.302 3.99 1.498 1.599 2.593-0.894 3.789-6.294 3.097-4.293-0.699-4.393-0.603-3.789 1.699 0.403 1.297 0.699 2.694 0.699 2.996 0 0.403 1.599 0.994 3.497 1.297 1.901 0.403 3.497 1.297 3.497 2.002 0 3.097 4.992 5.992 10.977 6.391 7.087 0.504 11.782-1.095 12.575-4.293 0.302-1.297 1.397-2.492 2.492-2.795 2.002-0.504 2.694-5.089 0.894-6.193-1.297-0.796-1.297-14.174 0-14.976 0.603-0.302 0.994-3.69 0.994-7.389 0-4.595 0.504-7.188 1.397-7.983 2.392-2.002 15.471-3.89 31.747-4.595l15.571-0.796 0.796-9.579c0.894-12.475-1.196-53.109-3.593-68.982-5.69-38.532-5.089-67.585 2.392-100.427 4.896-21.664 13.674-40.925 29.947-65.684l8.585-12.978-1.599-5.891c-3.298-12.978 0.796-30.748 9.68-42.227 15.974-20.267 35.838-31.445 46.324-25.755 3.593 1.901 5.488 4.992 5.488 8.887 0 2.291 0.403 2.492 4.992 2.492 6.294 0 12.878 3.097 15.672 7.49 1.8 2.694 3.197 3.593 7.79 4.595s6.294 2.098 9.982 5.992c2.492 2.694 4.494 5.488 4.494 6.391 0 0.994 0.894 1.498 2.895 1.498 7.591 0 13.973 9.781 14.073 21.765 0.101 13.381-6.294 29.745-15.571 40.030-4.494 4.992-16.075 13.079-18.769 13.079-3.197 0-4.595 1.297-4.595 4.091 0 2.895 0 2.895 6.391 2.895h6.487l-0.101 3.298c-0.101 1.699-0.603 3.593-1.196 3.99-0.796 0.603-0.699 0.994 0.201 1.397 2.593 0.994-0.101 2.291-4.896 2.291h-4.896v3.497c0 2.895 0.403 3.497 2.098 3.497 2.002 0 2.098 0.302 1.397 6.487-0.894 8.686 0 12.475 2.895 12.475 2.002 0 2.291 0.504 2.291 4.494 0 2.492-0.403 4.494-0.894 4.494-0.403 0-0.796 5.891-0.796 12.978v12.978h3.497c3.593 0 3.593 0 2.895 3.497l-0.603 3.497h18.467c17.573 0 18.467-0.101 18.97-2.002 0.403-1.599 1.397-2.002 4.494-2.002 3.99 0 4.091 0 4.695-4.393 0.796-4.992 0.201-6.584-2.392-6.584-1.901 0-7.188-5.089-9.089-8.786-2.098-4.192-1.599-12.179 0.994-17.472 3.89-7.79 11.782-11.48 20.861-9.68 5.388 0.994 8.283 0.504 7.983-1.397-0.101-0.603 0.101-1.901 0.504-2.795 0.603-1.397 1.196-1.498 3.197-0.603 2.895 1.397 3.197 4.796 0.403 5.488-2.593 0.699-2.492 1.599 0.504 6.093 4.992 7.389 2.492 21.060-4.896 26.649-1.8 1.397-3.99 2.492-4.896 2.492-1.095 0-1.699 0.796-1.8 2.291 0 1.196-0.201 3.69-0.504 5.488-0.403 3.197-0.302 3.197 3.69 3.197 3.197 0 4.192 0.403 4.595 1.901 0.403 1.599 1.8 2.002 9.479 2.593l8.988 0.699 19.662 12.878c10.78 7.087 20.668 12.878 21.765 12.878 3.399 0 5.69 1.095 4.192 2.098-0.994 0.603-0.994 1.095 0 2.195 0.994 1.297 0.894 1.699-0.603 2.593-1.599 0.894-1.599 1.196-0.302 2.098 0.796 0.504 1.901 1.095 2.392 1.297 0.994 0.302-1.297 4.796-3.097 5.992-0.699 0.403-1.297 1.901-1.297 3.197 0 2.291 0.403 2.492 4.494 2.492 2.996 0 4.992 0.603 6.193 1.8 0.994 0.994 3.789 2.392 6.294 3.097 9.882 2.895 18.668 10.78 26.455 23.562 3.497 5.891 8.786 20.764 9.982 27.951l0.603 3.99-4.494-6.487c-2.492-3.593-5.992-8.585-7.79-11.178-1.8-2.492-4.595-5.69-6.294-6.886l-2.996-2.291 3.399 3.89c9.781 11.581 22.356 34.844 27.854 51.611 1.699 5.089 3.99 14.879 5.186 21.765 1.095 6.886 2.291 13.578 2.593 14.976 0.201 1.397 0.894 10.184 1.397 19.462 0.894 18.366 0 30.45-3.99 51.006-3.497 18.366-13.771 54.808-20.569 72.771-3.497 9.381-6.684 19.071-6.986 21.563-0.504 4.091-0.302 4.595 2.895 7.79l3.593 3.399 1.095-4.091c1.297-4.992 3.298-7.188 5.992-6.487 1.297 0.302 2.195 1.699 2.593 4.091 0.894 4.796-0.201 19.662-2.195 28.348-1.498 6.584-1.498 7.591 0 12.275 4.595 14.577 6.684 41.528 4.695 59.397-1.8 15.773-5.287 26.158-15.169 46.223-2.195 4.293-3.89 8.786-3.89 9.982s-1.196 3.497-2.492 4.992c-2.895 3.298-6.193 3.097-10.877-0.603-3.298-2.694-3.097-4.796 0.994-9.188 3.197-3.497 13.28-25.453 17.573-38.33 3.097-9.479 3.197-9.781 3.197-29.544 0-15.269-0.403-21.664-1.699-27.354-0.994-4.091-2.098-7.886-2.593-8.484s-1.196-3.097-1.599-5.589c-0.994-5.992-1.196-6.193-4.293-4.293-1.498 0.894-2.795 1.8-2.996 1.901s-0.994 5.992-1.8 12.978c-1.8 15.974-3.298 21.966-7.188 27.555-3.89 5.69-11.883 9.479-21.765 10.385l-6.986 0.699-5.488 6.584c-2.996 3.593-6.785 8.887-8.585 11.782-10.684 17.87-23.263 32.439-36.241 42.031-4.695 3.497-8.585 6.487-8.786 6.684-0.302 0.302-2.098 29.745-2.392 40.533-0.201 6.986 0.101 8.887 1.498 10.284 1.498 1.599 2.098 2.996 1.901 4.796-0.101 0.302 0.504 1.196 1.297 1.8 0.894 0.796 1.498 2.996 1.498 5.589v4.393h-66.583c-36.732 0-90.445 0.201-119.59 0.504-29.053 0.302-114.4 0.699-189.474 0.994l-136.662 0.603 0.403-5.287zM836.51 798.301c2.795-2.895 4.896-5.388 4.796-5.488-0.101-0.201-3.399 0.699-7.188 2.002l-6.886 2.195-0.603 9.781 2.392-1.599c1.297-0.894 4.695-3.99 7.49-6.886zM833.812 780.43c10.284-3.399 26.057-13.771 28.55-18.869l1.196-2.492-17.069-0.302c-9.381-0.101-17.17-0.101-17.271 0-0.101 0.201-0.504 5.388-0.796 11.581-0.603 12.275-0.699 12.082 5.388 10.083zM885.322 719.236l8.081-16.176-0.504-6.487-0.504-6.391h-13.578c-9.882 0-13.674 0.403-13.973 1.297-0.504 1.498-22.759 1.699-23.658 0.201-0.302-0.504-2.291-0.994-4.393-0.994h-3.789l-0.699 8.283c-0.302 4.494-0.894 14.577-1.196 22.457l-0.699 14.275 23.464-0.201 23.363-0.101 8.081-16.176zM902.988 611.131l0.603-12.082-3.197-1.095c-6.684-2.195-18.97-3.298-21.463-2.002-4.695 2.492-3.497 4.091 15.169 20.668 4.293 3.89 7.983 6.986 8.081 6.886s0.403-5.69 0.796-12.374zM819.933 612.024c-1.196-1.599-2.895-3.497-3.89-4.293s-0.699-0.101 0.699 2.002c1.397 1.8 2.895 3.89 3.497 4.695 0.504 0.699 1.095 1.095 1.297 0.894s-0.504-1.699-1.599-3.298zM937.030 573.492c1.297-6.886 2.895-17.87 3.399-24.358 0.994-11.48 0.403-43.127-0.796-43.127-0.302 0-2.694 8.384-5.287 18.769l-4.796 18.668 1.498 9.479c0.796 5.186 1.498 13.973 1.498 19.462 0 9.285 0.699 15.073 1.699 14.174 0.201-0.302 1.498-6.093 2.795-13.079zM912.573 562.214c3.197-12.374 3.197-13.079 2.098-21.261-1.297-9.479-12.082-44.222-14.678-47.016-1.498-1.599-1.901-1.699-3.69-0.403-1.297 0.894-4.494 1.498-7.691 1.498-2.996 0-5.992 0.403-6.684 0.796-0.894 0.603-1.699 10.78-2.795 35.435l-1.599 34.642 2.795 2.895c2.492 2.492 3.69 2.795 11.782 3.497 4.992 0.302 10.385 0.994 11.984 1.498 1.699 0.504 3.497 0.994 4.091 0.994 0.603 0.101 2.593-5.589 4.393-12.575zM926.552 506.512c2.795-11.782 2.593-10.486 3.99-22.558 1.901-16.276 1.196-21.664-4.293-33.144-4.992-10.587-15.471-26.359-20.861-31.243-6.391-5.992-10.385-7.691-15.974-7.087-5.79 0.699-5.488 0.603-5.79 3.197-0.603 5.186 0 6.093 5.388 8.686l5.388 2.694v7.087c0 4.192-0.603 8.283-1.397 9.781-0.796 1.599-0.994 2.795-0.403 2.996s0.994 2.098 0.994 4.091c0 4.293-2.593 7.389-7.691 9.089-2.996 1.095-4.293 3.789-4.293 9.089 0 2.593 4.992 4.896 10.385 4.896 3.399 0 4.796 0.504 5.488 1.901 0.603 0.994 3.097 2.895 5.589 4.091 7.49 3.593 13.079 12.275 17.472 26.951 2.195 7.591 2.996 9.381 3.497 8.786 0.201-0.201 1.297-4.293 2.492-9.285zM231.56 494.226c1.196-1.196 1.498-2.098 0.796-2.795-1.095-1.095-4.595 1.699-4.595 3.593 0 1.599 1.8 1.196 3.789-0.796zM654.022 457.897c0-0.699-2.291-2.492-4.992-3.99l-4.992-2.795v-12.374c0-6.886 0.403-13.481 0.894-14.778 0.603-1.599 2.492-2.895 5.992-4.192l5.089-1.8v-6.391c0-8.182-1.8-11.38-6.487-11.38-3.197 0-3.298 0.101-3.99 5.287-1.297 8.887-1.8 9.68-6.886 9.68h-4.393v21.463l0.101 21.362 7.087 0.403c3.89 0.101 8.283 0.403 9.882 0.504s2.694-0.302 2.694-0.994zM916.669 401.288c-3.197-5.891-18.064-15.471-20.367-13.18-0.603 0.603-3.097 1.196-5.589 1.297-3.69 0.101-3.99 0.201-1.297 0.504 1.699 0.201 3.197 0.796 3.197 1.297 0 1.397 6.785 4.595 11.279 5.388 2.098 0.403 5.891 2.002 8.484 3.593s4.796 2.895 4.992 2.895c0.101 0.101-0.201-0.796-0.699-1.8zM653.722 386.522c0.403-0.994 1.095-2.098 1.699-2.492s1.297-4.494 1.397-9.188c0.403-8.081 0.302-8.484-2.195-10.083-3.097-2.098-3.298-3.789-0.504-6.391 1.297-1.196 1.699-2.098 0.994-2.593-0.603-0.302-1.095-1.901-1.095-3.399 0-2.593 0.403-2.895 4.293-3.497 4.494-0.796 9.089-3.197 8.283-4.494-0.302-0.403 0.504-1.8 1.8-2.996l2.392-2.195-2.195-3.99c-1.196-2.195-2.795-3.89-3.789-3.89s-1.8-0.302-1.8-0.699c0-0.504-0.603-1.599-1.397-2.492-1.196-1.599-1.599-1.498-6.193 0.699-7.188 3.593-9.381 3.298-12.179-1.599l-2.392-4.091 4.494-4.293c7.691-7.389 26.359-17.271 29.947-15.873 0.796 0.302 2.098 2.098 3.097 4.091 1.901 3.99 1.8 4.192-5.388 10.877-3.197 2.895-3.298 3.399-2.195 5.891 0.699 1.397 0.994 3.097 0.699 3.497-0.302 0.504 0.403 2.795 1.498 4.992 1.8 3.497 2.392 3.99 4.293 3.399 1.196-0.403 3.097-0.796 4.192-0.796 1.095-0.101 6.093-2.694 11.077-5.79l9.089-5.79h17.17l0.302-3.197c0.302-2.996 0.603-3.298 3.89-3.593l3.69-0.302 0.403-12.676c0.201-6.986 0-12.777-0.403-12.978-0.504-0.201-0.796-2.195-0.796-4.393 0-3.097 0.403-4.091 1.901-4.494 1.901-0.504 3.097-5.992 3.097-14.976 0-3.89 0.201-4.293 2.492-4.293 2.195 0 2.492-0.403 2.492-3.298v-3.298l-7.188-1.297c-15.269-2.694-13.771-2.895-13.771 1.901 0 3.399 0.699 5.186 3.593 8.585 2.195 2.795 3.197 4.896 2.694 5.589-0.403 0.699-0.603 2.291-0.403 3.593 0.101 1.297-0.201 2.895-0.894 3.593-0.699 0.994-0.994 7.188-0.796 19.172l0.302 17.87-2.291 0.302c-1.498 0.201-2.492-0.302-2.996-1.699-0.403-1.095-0.403-11.077-0.101-22.259l0.603-20.267-2.895-4.595c-1.8-2.996-2.795-5.891-2.795-8.484 0-2.195-0.504-4.494-1.196-5.186-1.699-1.699 2.593-10.184 5.287-10.184 1.498 0 1.901 0.699 1.901 3.097 0 3.097 0 3.197 4.192 2.492 2.291-0.403 4.992-1.297 5.891-2.098 0.894-0.894 3.593-1.498 6.684-1.498 4.695 0 5.186-0.201 5.186-2.195s-0.894-2.492-7.79-4.091c-4.992-1.196-8.988-2.895-11.38-4.796s-4.796-2.895-6.986-2.895c-6.684 0-15.974-3.89-21.261-9.089-2.694-2.593-7.188-5.69-9.982-6.886-2.694-1.196-6.193-3.197-7.591-4.595l-2.492-2.392-8.484 12.179c-15.471 22.259-23.464 40.131-28.852 64.186-3.789 16.868-4.992 28.751-4.992 48.112 0 15.974 3.298 48.716 5.089 50.715 0.603 0.504 0.894 0.101 0.894-0.994s0.504-3.593 0.994-5.589c0.994-3.497 1.095-3.497 5.69-3.399 5.388 0.201 5.992 1.196 6.193 10.284l0.101 5.186h3.497c2.492 0 3.789-0.504 4.192-1.699zM670.698 371.543c0.894 0.603 5.891-5.089 5.089-5.79-0.101-0.101-1.297-0.603-2.492-0.894-1.599-0.504-2.291-0.302-2.392 0.603 0 0.699-0.403 0.403-0.894-0.699-0.699-1.699-0.894-1.599-0.894 0.994-0.101 2.392-0.302 2.694-1.196 1.498s-0.994-1.196-0.504 0.302c0.302 0.994 0.603 2.795 0.603 3.99 0 1.699 0.302 1.901 0.894 0.796 0.504-0.699 1.297-1.095 1.8-0.796zM736.877 227.096v-3.399l-5.488 2.098c-5.488 2.195-5.891 3.197-1.498 3.99 6.391 1.095 6.986 0.894 6.986-2.694zM751.654 227.599c10.587-5.388 18.164-15.672 22.259-30.048 2.392-8.384 2.392-15.571-0.101-21.362-2.895-6.886-4.494-5.992-5.79 3.399-0.699 5.089-2.392 10.684-4.494 15.269-3.497 7.591-13.771 20.668-16.276 20.668-0.796 0-1.397 0.994-1.397 2.291 0 1.196-0.302 4.595-0.603 7.49-0.403 2.795-0.403 5.186 0 5.186s3.197-1.297 6.391-2.895zM706.437 218.813c-1.498-2.996-1.699-2.996-4.992-2.002-1.901 0.603-3.197 1.297-2.895 1.599 0.603 0.699 8.786 3.789 9.188 3.593 0.101-0.101-0.504-1.599-1.297-3.197zM726.597 219.311c10.284-3.789 11.682-5.388 13.674-15.471 3.789-18.668 8.988-30.551 15.672-35.536 3.69-2.694 3.69-4.896-0.201-8.081-3.99-3.399-7.188-3.497-6.391-0.302 0.302 1.196-0.302 6.093-1.297 10.684-3.399 14.976-14.073 29.544-27.757 37.934l-7.188 4.393 2.098 4.293c2.392 4.992 3.298 5.089 11.38 2.098zM700.842 208.428c2.996-0.994 3.197-1.498 2.694-4.293-0.302-1.699 0.101-7.389 0.796-12.575 2.996-20.668 13.872-35.334 30.941-41.528l3.097-1.095-3.497-2.195c-3.69-2.195-5.992-2.392-12.179-1.297-3.097 0.603-4.796 2.002-9.479 7.79-3.197 3.99-10.284 12.475-15.773 18.97l-9.982 11.883v8.988c0 11.883 1.901 16.472 6.785 16.472 1.901 0 4.896-0.504 6.584-1.095zM679.978 201.039c0-4.992-1.599-5.992-3.789-2.392-1.196 1.8-1.095 2.392 0.894 4.494 1.196 1.297 2.392 2.392 2.593 2.392s0.302-2.002 0.302-4.494zM718.209 200.645c6.193-4.293 13.973-12.878 17.472-19.071 3.69-6.684 6.487-17.17 5.69-21.060-0.894-3.789-3.298-3.789-9.882 0.302-10.385 6.391-17.674 18.769-19.366 32.943-1.397 10.877-0.699 11.581 6.093 6.886zM756.451 191.258c2.694-5.287 3.399-7.79 3.197-10.977l-0.302-4.192-3.298 4.992c-3.298 4.992-5.589 11.279-6.684 18.265l-0.603 3.69 2.098-2.492c1.095-1.397 3.69-5.589 5.589-9.285zM683.075 173.293c1.498-5.69 9.188-17.674 15.073-23.658 2.895-2.895 7.49-6.391 10.385-7.691 6.684-2.996 7.691-4.293 6.391-7.79-0.894-2.492-1.297-2.593-5.287-2.002-6.093 0.894-14.275 5.287-20.166 10.684-7.288 6.584-15.873 18.366-18.265 24.96-2.195 5.79-3.097 17.371-1.8 21.563 0.699 2.098 1.297 1.699 6.684-4.992 3.298-3.99 6.391-8.988 6.986-11.077z"></path>
</svg>
