<!-- Generated by IcoMoon.io -->
<svg version="1.1" xmlns="http://www.w3.org/2000/svg" width="967" height="1024" viewBox="0 0 967 1024">
<title></title>
<g id="icomoon-ignore">
</g>
<path d="M657.543 267.695h275.492v722.518h-899.249v-816.081h41.584v-140.345h90.964v140.345h241.706v293.685h249.503v-200.122zM709.523 436.63v70.173h176.731v-70.173h-176.731zM886.254 678.335h-176.731v67.574h176.731v-67.574zM886.254 556.183h-176.731v70.173h176.731v-70.173zM610.762 621.157v-41.584h-57.178v41.584h57.178zM532.792 579.574h-54.579v41.584h54.579v-41.584zM532.792 704.325h-54.579v59.777h54.579v-59.777zM610.762 764.102v-59.777h-57.178v59.777h57.178zM532.792 834.274h-54.579v85.767h54.579v-85.767zM610.762 834.274h-57.178v85.767h57.178v-85.767zM886.254 865.462v-67.574h-176.731v67.574h176.731zM197.523 392.447h57.178v-140.345h-57.178v140.345zM96.163 426.234v142.944h57.178v-142.944h-57.178zM153.34 252.102h-57.178v140.345h57.178v-140.345zM298.883 426.234v142.944h54.579v-142.944h-54.579zM353.462 252.102h-54.579v140.345h54.579v-140.345zM197.523 426.234v142.944h57.178v-142.944h-57.178zM460.021 579.574h-57.178v41.584h57.178v-41.584zM402.843 704.325v59.777h57.178v-59.777h-57.178zM254.701 602.965h-57.178v140.345h57.178v-140.345zM298.883 779.696v140.345h54.579v-140.345h-54.579zM298.883 743.31h54.579v-140.345h-54.579v140.345zM96.163 602.965v140.345h57.178v-140.345h-57.178zM96.163 779.696v140.345h57.178v-140.345h-57.178zM460.021 834.274h-57.178v85.767h57.178v-85.767zM254.701 779.696h-57.178v140.345h57.178v-140.345z"></path>
</svg>
