<!-- Generated by IcoMoon.io -->
<svg version="1.1" xmlns="http://www.w3.org/2000/svg" width="853" height="1024" viewBox="0 0 853 1024">
<title></title>
<g id="icomoon-ignore">
</g>
<path d="M82.948 952.308c-0.222-0.753-2.678-24.6-5.468-52.965s-6.665-68.024-8.591-88.106c-2.036-20.082-4.184-44.041-4.826-53.187-4.407-65.962-5.271-78.873-4.74-79.712 0.333-0.42 1.395-0.864 2.481-0.864s2.148-0.222 2.37-0.531c0.333-0.222-0.111-6.134-0.753-13.108-0.753-6.974-1.395-15.367-1.395-18.576l-0.111-5.913 21.28-24.291c24.933-28.587 32.66-37.4 37.931-43.312l3.987-4.296 53.409-0.975c29.34-0.531 53.718-0.642 54.051-0.222 0.42 0.333 2.036 22.674 3.542 49.645l2.901 48.892-3.123 6.888-3.011 6.888 4.629 10.541c5.579 12.467 14.725 33.105 21.391 48.559l4.938 11.269 4.518 82.527c2.37 45.349 4.184 83.058 3.876 83.81-0.222 0.753-6.974 2.567-15.367 4.184-8.282 1.617-39.326 7.838-69.196 13.75-29.871 5.801-65.32 12.887-78.873 15.589s-24.822 4.826-25.045 4.826c-0.222 0-0.531-0.642-0.753-1.284z"></path>
<path d="M645.331 953.172c-36.314-14.725-40.498-16.231-42.115-14.837-1.728 1.395-2.036 1.284-2.901-0.975-0.531-1.395-1.086-1.926-1.086-1.173-0.111 1.506-3.32 1.815-3.32 0.222 0-0.531-0.642-1.086-1.506-1.086-1.284 0-1.395 0.753-0.531 3.432 1.395 5.048 1.284 5.382-1.815 4.938-1.926-0.222-3.234 0.333-4.073 1.815-1.815 3.234-4.073 4.74-7.307 4.826-1.926 0-3.011 0.531-3.011 1.617 0 2.148-3.987 4.073-7.64 3.542-1.617-0.333-2.79-0.111-2.481 0.42 0.333 0.42 1.284 0.864 2.148 0.864 2.481 0 1.173 2.678-1.284 2.79-1.086 0-3.123-0.531-4.407-1.395-1.506-0.864-2.567-0.975-3.011-0.333-0.975 1.617-4.073-1.926-3.32-3.765 0.642-1.815-2.036-2.259-3.123-0.531-1.173 1.815-4.073 1.284-3.32-0.642 0.864-2.37-2.259-5.801-5.159-5.801-2.79 0-4.407-1.086-5.271-3.542-0.42-0.975-1.926-2.37-3.432-2.901s-3.011-1.728-3.32-2.678c-0.42-1.086-1.506-1.395-3.123-0.975s-2.79 0-3.432-0.975c-1.284-2.148-6.776-3.011-7.53-1.086-0.333 0.864-1.284 1.284-2.148 0.975s-2.567 0-3.876 0.642c-3.765 2.148-16.12 2.901-17.404 1.086-0.864-0.975-3.765-1.506-9.677-1.506-7.085-0.111-10.961 0.642-22.564 4.296-7.64 2.37-26.748 8.171-42.448 12.998-15.676 4.74-31.599 9.566-35.45 10.739-3.876 1.284-7.727 2.259-8.702 2.259-0.864 0-7.838-8.591-16.12-19.996-7.949-10.961-16.231-22.453-18.49-25.464-2.148-3.123-5.159-7.307-6.554-9.344s-9.677-13.442-18.379-25.242c-8.591-11.825-17.515-24.18-19.774-27.39l-4.073-5.913-2.37-49.2c-1.395-27.081-2.259-49.422-2.036-49.534 0.222-0.222 39.103-8.48 52.323-11.183l2.567-0.531-0.753-21.588c-0.42-11.825-0.975-21.922-1.284-22.23-1.173-2.036-5.159 0.975-8.591 6.665-3.876 6.221-6.443 8.282-8.171 6.554-1.395-1.395 12.022-27.303 14.504-27.945 2.678-0.642 2.259-2.259-0.864-3.011-4.184-1.086-12.467 2.481-18.379 7.949-8.369 7.64-11.269 16.342-12.244 36.425-0.333 8.369-0.975 15.589-1.284 15.898s-1.395 0.222-2.481-0.111c-1.728-0.753-1.815-2.036-1.173-16.984 0.642-14.837 1.086-17.182 4.518-27.081 3.653-10.319 4.073-11.072 10.739-16.762 5.801-4.938 8.369-6.332 14.614-7.949 6.332-1.728 8.369-2.79 12.022-6.665 2.481-2.481 5.913-7.307 7.727-10.739 2.036-3.876 4.073-6.221 5.468-6.443 1.173-0.222 4.518-2.678 7.307-5.579 6.134-6.221 7.196-6.443 19.441-2.901l8.702 2.567 8.591-2.79 8.591-2.678-0.222-58.988c-0.222-52.434-0.42-59.1-2.036-60.803-1.926-2.148-2.259-8.813-0.642-12.022 1.926-3.542 12.775-8.171 23.649-10.097 10.319-1.815 13.639-2.901 13.108-4.184-0.111-0.333 0.42-2.036 1.173-3.653 0.864-1.617 1.506-5.048 1.395-7.727s0.333-5.801 0.864-6.974c0.642-1.173 1.506-5.271 1.926-9.122 1.086-9.875 3.32-20.527 4.938-23.428 0.753-1.284 1.506-4.518 1.506-6.974 0.111-2.481 0.864-5.579 1.617-6.888 0.864-1.173 1.728-5.048 1.815-8.369 0.333-3.653 0.975-6.554 1.815-7.085 0.975-0.531 1.506-3.234 1.617-7.418 0.111-3.542 0.642-6.974 1.284-7.727 0.531-0.753 1.395-3.123 1.815-5.159s1.926-4.826 3.32-6.134c2.901-2.567 3.542-1.086 0.864 1.926-1.086 1.173-1.617 3.876-1.617 8.060 0 3.432-0.531 6.974-1.284 7.727-0.642 0.753-1.173 4.073-1.284 7.196-0.111 3.234-0.864 6.554-1.617 7.64-0.864 0.975-1.617 4.296-1.617 7.53-0.111 3.432-0.864 6.554-1.815 7.64-1.617 1.926-1.815 2.901-1.926 9.455-0.111 1.728-0.864 3.987-1.728 4.938s-1.617 4.073-1.728 6.974c-0.111 2.901-0.753 6.024-1.395 6.888-1.728 2.036-2.678 9.985-1.506 11.936 0.531 0.864 0.222 2.148-0.753 3.234-0.864 0.975-1.617 4.073-1.617 7.53-0.111 3.234-0.642 6.443-1.395 7.307-0.975 1.284 0 1.395 5.801 0.753 3.876-0.42 13.973-0.975 22.564-1.284s16.009-1.086 16.54-1.506c0.531-0.531 0.42-2.259-0.222-4.073-0.642-1.926-0.642-3.765 0-4.938s0.642-2.901 0-4.826c-0.642-1.728-0.642-3.653-0.111-4.518 1.173-1.926 1.086-12.775-0.222-15.145-0.753-1.284-0.531-3.011 0.753-5.271 1.173-2.481 1.506-4.826 1.086-8.369-0.864-6.134-0.864-8.813 0-15.787 0.333-3.32 0.111-6.443-0.531-7.838-0.975-1.728-0.864-2.901 0.222-5.159 0.975-1.815 1.395-5.271 1.086-8.924-0.222-3.234-0.333-6.665-0.333-7.53 0.111-0.864 0.333-8.171 0.642-16.12 0.222-7.949 0.753-16.873 1.086-19.663 0.42-2.901 0.111-6.443-0.531-8.060-0.975-2.37-0.975-3.765 0.222-6.665 1.284-3.123 1.395-4.629 0.222-9.122-0.864-3.011-1.086-5.801-0.531-6.443 1.173-1.395 1.284-6.554 0.642-26.328-0.333-8.591-0.531-16.342-0.42-17.182 0.111-7.196-0.42-14.504-1.284-16.12-0.753-1.284-0.753-3.011 0-4.826 1.617-4.184 1.284-10.43-0.531-13.22-1.284-1.728-1.395-2.901-0.531-4.407 1.395-2.678 1.395-11.936 0-11.936-1.926 0-3.432 5.69-2.901 10.85 0.42 3.234 0.111 5.69-0.753 6.974-2.036 2.901-2.678 7.727-1.617 11.492 0.753 2.567 0.531 3.765-0.975 5.382-1.395 1.506-1.815 3.987-1.815 9.875 0 4.629-0.642 8.48-1.395 9.455-1.506 1.815-1.926 7.64-0.864 11.269 0.531 1.617 0.333 3.123-0.753 4.296-2.148 2.481-2.901 7.307-1.728 11.381 0.753 2.901 0.753 3.123-0.531 1.506-1.926-2.567-3.876-2.481-3.876 0.222 0 1.506 0.753 2.148 2.259 2.148 1.926 0 2.148 0.222 0.975 1.728-0.864 0.864-1.395 3.653-1.395 6.134 0 3.987-0.333 4.518-2.481 4.518-2.259 0-2.259-0.111-0.753-3.123 1.086-2.148 1.395-4.518 0.864-7.727-0.42-3.432-0.222-5.382 1.173-7.418 1.395-2.148 1.617-4.073 1.086-8.591-0.333-3.32-0.222-6.024 0.42-6.443 1.815-1.086 3.123-7.949 2.148-11.381-0.753-2.481-0.531-3.987 0.864-6.134 1.173-1.815 1.728-5.048 1.815-10.541 0-4.826 0.531-8.369 1.395-9.233 0.642-0.642 1.284-3.432 1.284-5.913 0-3.876 0.333-4.629 1.926-4.407 1.173 0.222 1.815-0.333 1.815-1.815 0-1.173-0.753-2.148-1.617-2.148s-1.506 0.642-1.284 1.395c0.111 0.642-0.222 1.284-0.864 1.284-1.506 0-1.284-1.284 0.642-4.073 0.975-1.506 1.728-4.826 1.728-8.591 0-3.32 0.753-8.282 1.617-10.85 0.753-2.567 1.506-6.974 1.506-9.677s0.222-7.838 0.42-11.381c0.753-7.838 0.642-6.974 0.531-16.12-0.111-13.22 0-15.145 0.975-13.529 1.284 2.036 2.148 0 1.086-2.567-0.531-1.506-0.864-1.728-1.086-0.531-0.111 0.864-0.531-0.531-0.975-3.234s-0.333-5.913 0.111-7.307c1.173-3.011 1.728-15.898 0.753-16.873-0.333-0.333-13.75 3.432-29.648 8.48-28.254 9.035-32.771 10.097-35.252 8.369-5.69-3.653-7.949-18.157-3.32-20.947 1.284-0.864 41.054-13.22 88.328-27.612s86.291-26.439 86.822-26.859c0.42-0.42 0.222-3.234-0.42-6.332-1.815-8.813-0.975-9.875 11.269-13.331 5.69-1.617 11.269-2.901 12.467-2.901 2.567 0 4.938 3.542 5.801 8.924 0.531 2.567 1.284 3.987 2.37 3.987 0.975 0 28.896-8.282 62.111-18.268 33.191-10.097 61.667-18.268 63.284-18.268 3.432 0 7.196 4.518 7.196 8.813 0 5.801-2.678 9.122-8.813 10.961-3.123 0.975-29.871 9.677-59.321 19.243l-53.718 17.626-0.222 4.74c-0.111 2.567 0.222 5.468 0.753 6.554 0.642 1.284 0.531 2.901-0.333 4.826-1.506 3.123-1.506 9.344-0.333 16.984 0.42 2.37 19.551 89.39 42.56 193.394s53.94 243.791 68.666 310.531c14.837 66.826 27.303 122.383 27.834 123.556 0.642 1.617 3.123 2.79 8.591 4.184 6.974 1.815 7.64 2.259 7.64 4.826 0.111 1.506-1.284 23.958-2.901 49.953l-2.901 47.053-53.076 52.323c-29.117 28.698-53.606 52.323-54.248 52.434-0.753 0.111-19.441-7.085-41.585-16.231zM586.231 936.952c1.926-0.111 3.876-0.864 4.073-1.617 0.333-0.975-0.42-1.086-2.79-0.531-1.926 0.333-3.542 0.222-3.987-0.42-0.42-0.753-1.506-0.531-3.234 0.642-3.32 2.481-3.432 4.073-0.222 3.011 1.284-0.42 4.073-0.975 6.134-1.086zM462.342 776.849c-0.531-5.048-1.506-5.69-2.37-1.617-0.531 2.481-1.086 3.123-1.926 2.259-1.815-1.815-3.765-1.395-5.048 0.975-1.086 2.036-0.864 2.148 4.296 2.148h5.468l-0.42-3.765zM491.459 767.283c0.222-0.975-0.222-2.481-0.864-3.32-0.975-1.173-1.617-1.086-3.32 0.642-2.148 2.148-2.148 2.259-0.222 3.653 2.37 1.815 3.987 1.506 4.407-0.975zM492.743 760.309c0-1.284-2.148-2.678-2.901-1.926s0.642 2.901 1.926 2.901c0.531 0 0.975-0.42 0.975-0.975zM470.402 758.692c0.864-1.284 0.111-2.79-1.506-2.79-0.531 0-0.864 0.642-0.531 1.395 0.333 0.864-0.111 1.506-1.086 1.506s-1.395-0.753-1.086-1.926c0.42-1.395-0.333-1.926-3.432-2.259-4.938-0.642-10.85 1.173-8.369 2.481 0.864 0.531 3.432 1.173 5.579 1.506 2.259 0.222 4.296 0.753 4.518 0.975 0.864 0.864 5.159 0.222 5.913-0.864zM444.938 752.668c-0.333-0.531-1.617-1.086-2.79-1.086-1.086 0-2.036 0.531-2.036 1.086 0 0.642 1.284 1.086 2.79 1.086s2.481-0.42 2.036-1.086zM750.618 728.402c-3.011-12.887-7.085-30.735-9.122-39.659-2.036-8.813-9.788-42.646-17.182-75.22-7.53-32.438-15.479-67.27-17.737-77.367-53.298-232.633-60.075-261.837-60.717-262.503-0.222-0.333-0.753 1.506-1.173 3.987-0.975 6.332-3.123 7.196-2.259 0.864 0.42-2.79 0.222-6.221-0.333-7.727-0.753-2.036-0.642-3.432 0.531-5.159 1.284-2.148 1.284-3.32-0.42-10.43-1.173-4.407-4.74-19.885-8.060-34.388-3.234-14.504-8.702-38.153-12.022-52.656s-7.64-33.191-9.566-41.695c-1.815-8.369-3.765-15.589-4.073-16.009-0.42-0.333-10.097 2.259-21.391 5.913-61.025 19.243-75.528 23.958-76.503 24.933-0.642 0.642-0.531 2.148 0.333 3.987 0.864 1.728 1.815 8.060 2.259 14.281 0.531 6.221 1.173 12.775 1.506 14.504 0.642 2.901 0.531 2.901-0.42 0.753-0.531-1.395-1.506-2.148-2.148-1.815-1.617 0.975-1.284 4.826 0.42 4.826 1.173 0 1.395 1.086 0.975 4.296-0.333 2.567 0 5.801 1.086 8.282 1.173 3.011 1.284 4.74 0.531 6.134-0.642 1.173-0.864 4.74-0.42 8.591 0.333 3.542 0.642 7.085 0.531 7.64 0 0.642-0.222 4.073-0.531 7.838-0.42 4.296-0.222 7.307 0.642 8.282 0.864 1.086 0.864 2.036 0 3.653-0.753 1.395-0.753 2.901-0.222 4.073 0.531 1.086 0.642 2.901 0.222 4.073-0.975 2.678-0.111 13.529 1.284 15.256 0.642 0.753 0.531 2.036-0.222 3.432-1.506 2.901-1.086 9.455 0.753 13.331 1.086 2.036 1.173 3.542 0.333 4.938-1.617 3.123-1.284 10.541 0.642 14.281 1.173 2.259 1.395 3.987 0.753 5.579-0.531 1.173-0.531 4.938-0.111 8.171 0.531 3.234 1.173 9.344 1.395 13.442 0.333 4.184 1.086 9.985 1.617 12.887 0.642 3.011 1.284 8.813 1.395 12.887 0.222 4.184 0.975 8.591 1.728 9.985 0.753 1.506 0.975 4.296 0.531 7.53-0.531 4.073-0.222 6.134 1.506 9.455 1.284 2.678 1.815 4.938 1.284 6.332-0.975 2.567-0.111 12.133 1.395 15.034 0.642 1.173 1.284 6.024 1.395 10.739 0.42 11.269 1.086 16.651 2.481 18.046 0.642 0.642 0.642 1.926 0 3.653-1.173 3.123-0.222 10.739 1.815 13.973 1.086 1.728 1.173 3.123 0.42 5.159-1.617 4.296-1.284 9.344 0.975 12.887 1.395 2.37 1.728 3.987 1.086 5.801-0.531 1.395-0.531 4.938 0.222 8.48 0.642 3.432 1.284 8.060 1.395 10.43 0.642 11.072-0.531 9.788 11.183 11.825 7.418 1.284 13.108 3.123 19.551 6.332 8.060 3.876 9.233 4.826 10.627 8.48s1.395 4.518-0.222 7.085c-1.815 3.234-3.542 35.339-4.407 87.464l-0.531 26.55h2.37c1.284 0 5.69 0.753 9.788 1.617 5.579 1.173 7.949 1.284 9.677 0.333 2.678-1.395 9.233-7.418 35.783-32.771 15.898-15.256 19.996-18.576 21.811-18.046 1.173 0.333 2.148 1.506 2.148 2.567 0 1.617-32.771 34.055-40.412 40.189-1.395 1.086-2.567 2.37-2.567 2.901s2.148 4.073 4.826 7.838c3.765 5.468 5.579 7.085 9.035 8.171 7.838 2.259 25.242 11.714 32.24 17.404l6.888 5.579 9.455-5.159 1.926 2.37c1.617 1.815 3.011 2.259 8.060 2.259 8.060-0.111 9.788 1.173 34.277 25.995 14.281 14.392 20.082 20.947 19.663 22.144-0.333 0.975 0.222 3.011 1.284 4.518 2.901 4.296 6.776 17.182 7.53 25.575 0.642 6.665 0.975 7.418 3.432 7.949 1.506 0.42 2.79 0.642 2.901 0.531 0.222-0.111-2.148-10.739-5.048-23.736zM429.348 750.521c0-0.531-1.173-1.086-2.678-1.086s-2.678 0.531-2.678 1.086c0 0.642 1.173 1.086 2.678 1.086s2.678-0.42 2.678-1.086zM743.842 740.116c-0.222-1.728-0.42-0.333-0.42 2.901s0.222 4.629 0.42 3.011c0.222-1.728 0.222-4.296 0-5.913zM519.405 744.83c1.617-1.728 1.926-2.901 1.284-3.987-0.975-1.395-1.086-1.395-1.086 0s-0.111 1.395-1.086 0c-0.864-1.284-1.086-1.086-0.864 1.086 0.222 2.036-0.222 2.79-2.148 3.011-1.284 0.222-2.148 0.864-1.815 1.395 1.086 1.617 3.234 1.086 5.69-1.506zM524.539 743.547c2.37-3.432 1.815-6.974-1.173-6.974-1.284 0-1.395 0.42-0.222 2.901 0.975 2.259 0.975 2.901-0.111 3.32-0.753 0.222-1.815 1.284-2.481 2.481-1.728 3.32 1.284 2.036 3.987-1.728zM449.875 735.177c-1.395-1.395-2.79-0.333-1.728 1.284 0.333 0.642 1.173 0.864 1.815 0.531 0.642-0.42 0.642-1.086-0.111-1.815zM541.104 730.105v-7.53h-3.234c-3.011 0-3.234 0.333-3.234 3.765 0 4.407 3.011 11.269 5.048 11.269 0.975 0 1.395-2.036 1.395-7.53zM427.534 735.906c0.975-1.086-0.42-3.653-2.036-3.653-0.864 0-1.506 0.975-1.506 2.148 0 2.036 2.036 2.901 3.542 1.506zM444.938 733.228c-0.42-0.531-1.395-0.975-2.259-0.975s-1.506-0.42-1.506-1.086c0-0.531-1.926-0.975-4.296-0.753-3.653 0.222-4.296 0.531-4.296 2.567s0.642 2.37 4.629 2.678c4.938 0.333 8.702-0.753 7.727-2.481zM493.274 729.044c1.728-0.642 1.506-0.864-1.284-0.753-1.926 0-3.542 0.42-3.542 0.975 0 1.086 1.926 0.975 4.826-0.222zM523.589 725.81c-0.111-1.284-0.753-2.148-1.815-1.926-0.864 0.111-2.37-0.222-3.234-0.642-1.173-0.753-1.086-0.333 0.333 1.173 0.975 1.173 1.506 2.481 1.086 2.79-0.333 0.42 0.333 0.753 1.617 0.753 1.617 0 2.148-0.642 2.036-2.148zM491.99 724.106c-0.333-1.284-3.234-1.815-5.468-0.975-1.506 0.531-1.506 0.753-0.222 1.617 1.926 1.173 6.024 0.753 5.69-0.642zM465.884 722.267c0-2.036-0.864-2.79-4.296-3.876-4.518-1.284-8.591-0.753-8.591 1.086 0 1.284 8.282 5.159 11.072 5.271 1.173 0 1.815-0.864 1.815-2.481zM402.070 721.847c-0.531-1.728-2.79-22.453-2.79-25.353 0-1.086-27.192-0.333-29.117 0.864-0.753 0.531-0.222 22.033 0.753 25.045 0.222 0.975 4.407 1.284 16.009 1.284 14.504 0 15.676-0.111 15.145-1.815zM515.307 711.862c2.567-2.567 2.567-3.234 0.642-7.949-1.284-3.234-1.926-3.653-7.196-4.184-9.566-1.173-16.342-0.753-20.082 1.173l-3.432 1.926 3.234 2.79c1.728 1.506 3.234 2.567 3.234 2.259 0-0.42 0.975 0.222 2.259 1.395 2.148 1.926 2.259 1.926 6.665-0.42 2.481-1.284 5.048-2.37 5.801-2.37 2.79 0 2.567 2.481-0.333 4.938l-3.123 2.481 5.159 0.111c3.653 0 5.579-0.531 7.196-2.148zM478.882 710.356c0.531 0.333 0.975 0 0.975-0.531 0-1.284-1.173-1.506-5.382-1.173-4.518 0.333-5.048 1.617-1.086 2.148 2.036 0.333 3.987 0.222 4.073-0.222 0.222-0.531 0.864-0.642 1.395-0.222zM541.104 704.863c0-3.876-0.42-6.974-0.975-6.974-2.259 0-5.468 5.801-5.468 9.788s0.222 4.184 3.234 4.184h3.234v-6.974zM716.674 703.801c-1.506-2.036-5.69-5.69-9.122-7.949-6.974-4.74-28.784-15.676-29.538-14.923-0.222 0.333-0.111 2.148 0.222 4.073 0.753 3.32 1.728 3.987 20.193 12.887 10.739 5.271 19.885 9.566 20.305 9.566 0.42 0.111-0.42-1.617-2.036-3.653zM420.535 700.148c-5.382-5.159-6.024-5.468-11.269-5.468-3.123 0-5.69 0.42-5.69 0.975 0 0.642 2.567 1.173 5.69 1.395 4.518 0.222 5.801 0.753 6.554 2.567 0.864 2.036 9.122 7.196 10.097 6.332 0.222-0.111-2.259-2.79-5.382-5.801zM450.295 703.246c-0.333-0.531-0.111-1.086 0.42-1.086 0.642 0 1.173-0.42 1.173-1.086 0-0.531-0.975-1.086-2.259-1.086-1.173 0-1.815-0.42-1.506-1.086 0.333-0.531-0.111-1.086-1.086-1.086s-1.395 0.531-1.086 1.086c0.333 0.642-0.333 1.086-1.506 1.086-3.32 0-2.678 1.617 0.753 1.926 1.617 0.111 3.123 0.753 3.234 1.284 0.222 0.642 0.864 1.086 1.395 1.086 0.642 0 0.753-0.42 0.42-1.086zM459.861 697.136c-2.148-1.506-6.776-3.011-7.307-2.37-0.222 0.222-0.111 2.259 0.111 4.407l0.531 3.987 4.407-2.259c4.184-2.036 4.296-2.259 2.259-3.765zM463.403 694.544c-1.506-0.864-2.37-0.864-3.234 0s-0.333 1.173 2.036 1.173c2.678-0.111 2.901-0.222 1.173-1.173zM670.795 681.016c-0.333-0.222-1.926-0.333-3.653-0.111l-3.011 0.333 3.234 1.815c2.79 1.506 3.234 1.506 3.542 0.111 0.222-0.864 0.222-1.815-0.111-2.148zM562.273 667.043c4.184-3.987 4.629-4.74 2.481-4.073-1.506 0.42-5.159 2.37-8.171 4.407s-6.134 3.653-6.974 3.765c-0.864 0.111-0.333 0.42 1.173 0.864 3.987 1.173 5.69 0.42 11.492-4.938zM585.145 665.649c0-0.864-4.938-3.234-6.888-3.234-1.284 0-7.085 5.382-7.085 6.665 0 0.333 3.123-0.222 6.974-1.086 3.876-0.975 6.974-2.036 6.974-2.37zM604.499 661.353c1.926-0.531 2.259-0.975 1.086-1.395-2.79-0.975-14.195-2.901-17.096-2.901-2.37 0-2.036 0.42 2.567 3.123 5.382 3.123 6.134 3.234 13.442 1.173zM644.577 659.094c-1.815-1.815-12.133-6.332-12.133-5.382 0 2.148 5.382 4.826 12.887 6.443 0.222 0.111-0.111-0.42-0.753-1.086zM619.755 650.725c-0.975-1.815-2.79-3.542-3.987-3.876-13.331-3.765-13.442-3.765-17.935-1.506-2.37 1.173-3.987 2.481-3.542 2.901 0.531 0.642 21.588 5.048 25.995 5.468 0.864 0.111 0.753-0.975-0.531-3.011zM413.673 646.85c-0.753-1.815-2.148-2.148-3.123-0.642-0.333 0.531 0.333 1.284 1.284 1.506 1.086 0.333 2.036 0.531 2.148 0.642 0.111 0 0-0.642-0.333-1.506zM579.035 641.357l3.432-1.815-2.678-0.975c-3.32-1.173-5.382-0.333-5.382 2.37 0 2.567 0.222 2.567 4.629 0.42zM534.747 487.93c0.531-1.728 0.531-3.653 0.111-4.296s-0.864-4.938-0.864-9.455c-0.111-5.382-0.753-9.035-1.815-10.541-1.395-2.036-1.395-2.901-0.222-5.69 1.728-4.073 0.975-8.813-1.815-12.775-1.617-2.259-1.815-3.432-0.864-5.048 1.506-2.901 1.395-11.183-0.222-12.775-0.753-0.753-1.395-4.826-1.395-9.875-0.111-4.74-0.531-8.924-0.864-9.344-0.42-0.333-0.753-2.678-0.753-5.159 0-2.37-0.42-4.826-1.086-5.468s-0.642-2.259-0.111-4.296c1.086-3.876-0.111-12.577-1.926-14.837-0.864-0.975-1.086-2.567-0.531-4.073 1.173-3.765 0.642-10.43-1.086-12.775-1.086-1.506-1.284-4.184-0.975-8.924 0.42-4.407 0.111-7.64-0.753-9.344-0.864-1.395-1.617-5.913-1.728-10.097-0.222-4.073-0.531-9.455-0.864-11.825s-0.864-7.838-1.086-12.244c-0.753-10.85-3.432-17.293-5.382-12.356-0.975 2.567-0.753 10.43 0.333 12.133 0.642 1.086 0.531 2.567-0.333 4.296-0.753 1.506-1.173 4.407-0.975 6.332 0.531 5.468 0.531 9.035-0.222 13.22-0.42 2.259-0.222 4.938 0.42 6.221 0.864 1.617 0.975 2.901 0.111 4.407-0.642 1.173-1.086 4.184-1.086 6.665 0 6.024-0.111 8.591-0.642 16.984-0.222 3.876-0.642 10.961-0.753 15.898-0.222 4.826-0.753 9.122-1.086 9.455s-0.111 1.815 0.42 3.32c0.531 1.617 0.642 3.234 0.111 3.987-0.531 0.642-0.753 3.653-0.531 6.554 0.531 7.418 0.531 6.974-0.531 11.936-0.642 3.123-0.531 5.271 0.42 6.974 1.086 2.036 0.975 2.901-0.222 4.629-1.926 2.901-1.926 6.024 0.222 9.035 1.395 2.148 1.506 3.011 0.42 5.69-1.086 2.481-1.086 4.184-0.111 7.418 0.864 3.011 0.975 4.938 0.111 6.332-0.531 1.173-1.086 4.073-1.086 6.443 0 2.481-0.42 4.407-0.975 4.407-1.086 0-2.567 3.32-1.728 4.073 0.222 0.333 1.173 0 1.926-0.642 1.395-1.173 1.506 2.901 0.333 14.083-0.111 1.617 0 2.901 0.333 2.901 6.024 0.222 19.021 1.506 19.441 1.815 0.222 0.222 2.37 0.333 4.74 0.111 3.653-0.333 4.407-0.753 5.048-3.432zM501.976 479.562c0-2.901-0.333-5.159-0.864-5.159-0.42 0-0.864 2.036-0.864 4.629 0 2.481-0.333 5.69-0.642 7.196-0.531 2.567-0.531 2.567 0.864 0.531 0.753-1.173 1.395-4.407 1.506-7.196zM537.87 480.315c0-0.864-0.42-1.617-1.086-1.617-0.531 0-1.086 0.753-1.086 1.617s0.531 1.617 1.086 1.617c0.642 0 1.086-0.753 1.086-1.617zM452.443 474.403c0.333-0.531 0.333-1.617-0.111-2.259-0.642-1.173-2.481 0.642-2.567 2.567 0 1.086 1.926 0.975 2.678-0.333zM502.84 467.206c0.975-3.876-0.42-11.492-1.926-9.875-0.42 0.42-0.975 7.727-0.753 10.43 0.111 1.926 2.036 1.617 2.678-0.531zM536.586 461.183c0.222-1.284-0.333-1.815-1.815-1.815-1.284 0-2.259 0.642-2.259 1.395 0 3.32 3.432 3.653 4.073 0.42zM455.035 457.64c0.333-1.728 0.111-1.815-1.395-0.531-2.036 1.728-2.259 3.653-0.333 3.123 0.642-0.333 1.506-1.395 1.728-2.567zM506.716 454.937c0-1.284-2.901-1.173-3.765 0.111-1.173 1.815 0.531 3.432 2.259 2.036 0.864-0.642 1.506-1.617 1.506-2.148zM499.186 452.9c0-1.173-0.42-2.148-1.086-2.148-0.531 0-1.086 0.975-1.086 2.148s0.531 2.148 1.086 2.148c0.642 0 1.086-0.975 1.086-2.148zM502.198 444.088l-1.395-2.481-0.333 2.901c-0.222 1.617 0.333 3.987 1.086 5.382l1.395 2.481 0.333-2.901c0.222-1.617-0.333-3.987-1.086-5.382zM459.441 443.137c0-1.284-2.901-1.173-3.765 0.111-1.173 1.815 0.531 3.432 2.259 2.036 0.864-0.642 1.506-1.617 1.506-2.148zM534.661 442.051c0-1.284-0.753-2.036-2.148-2.036-2.259 0-2.567 0.864-1.506 3.653 0.864 2.148 3.653 0.975 3.653-1.617zM505.63 441.631c0-0.864-0.753-1.617-1.617-1.617-1.728 0-2.148 1.284-0.864 2.481 1.173 1.284 2.481 0.864 2.481-0.864zM501.976 439.261c1.617-2.259 1.926-4.629 0.531-4.629-0.531 0-1.506 1.506-2.148 3.234-1.173 3.653-0.531 4.184 1.617 1.395zM500.273 433.571c0-2.259-2.567-3.011-3.765-1.086-0.864 1.506 0.333 3.234 2.259 3.234 0.864 0 1.506-0.975 1.506-2.148zM501.976 429.584c-0.864-1.617-1.617-2.37-1.728-1.617 0 1.815 2.148 5.913 2.901 5.271 0.222-0.333-0.222-1.926-1.173-3.653zM462.453 428.942c0.222-1.086-0.333-1.815-1.173-1.815-1.728 0-3.234 2.567-2.036 3.653 1.086 1.086 2.901 0.111 3.234-1.815zM505.63 427.128c0-1.173-0.753-2.148-1.617-2.148-1.617 0-2.259 2.259-0.864 3.542 1.284 1.395 2.481 0.753 2.481-1.395zM502.84 420.771c0.111-1.815-0.111-3.32-0.531-3.32-1.086 0-2.036 2.901-2.036 6.221 0 3.987 2.259 1.395 2.567-2.901zM532.513 424.005c0-1.086-0.753-2.259-1.617-2.678-1.173-0.42-1.617 0.111-1.617 2.036 0 1.728 0.642 2.678 1.617 2.678 0.864 0 1.617-0.975 1.617-2.036zM500.804 416.365c0.864-1.395-1.506-4.518-2.79-3.653-0.531 0.333-0.975 1.506-0.975 2.678 0 2.148 2.567 2.79 3.765 0.975zM465.884 414.773c1.086-1.284 0.975-1.728-0.531-2.259-1.815-0.753-4.073 1.395-3.123 3.011 0.864 1.284 2.148 1.086 3.653-0.753zM505.63 412.711c0-1.815-1.506-3.123-2.481-2.148-0.864 0.864 0.333 3.653 1.506 3.653 0.531 0 0.975-0.642 0.975-1.506zM502.642 408.638c0.333-0.753 0.642-3.542 0.753-6.221 0.111-3.542-0.111-4.518-0.975-3.653-1.395 1.395-2.259 11.183-0.975 11.183 0.42 0 0.975-0.642 1.173-1.284zM468.674 399.713c1.086-2.79 0-3.987-2.148-2.37-1.173 0.864-1.728 2.036-1.284 2.678 1.086 1.728 2.79 1.617 3.432-0.333zM501.025 395.529c-0.42-0.975-1.173-1.728-1.815-1.728-1.173 0-1.506 3.542-0.333 4.74 1.173 1.086 2.79-1.173 2.148-3.011zM504.679 395.64c-0.753-0.975-0.864-5.801-0.531-13.75 0.531-10.85 0.642-19.774 0.42-23.736 0-0.753 0.333-3.653 0.864-6.332 0.531-2.79 0.531-6.134 0-7.53-0.642-1.506-0.42-3.542 0.333-5.468 0.642-1.617 0.864-4.74 0.531-6.974-0.864-4.826-0.864-5.801 0-12.356 0.333-2.678 0.111-5.913-0.42-6.888-0.642-1.173-0.753-2.678-0.222-3.765 0.864-1.506 1.173-6.332 0.864-14.392-0.111-1.728-0.111-5.913 0-9.122s0-11.936-0.222-19.33c-0.333-7.418-0.531-14.614-0.42-16.12 0.111-3.234 0.111-3.653-0.642-19.33-0.864-17.626-0.864-17.293-0.42-22.033 0.222-2.37-0.222-5.579-0.975-7.196-1.617-3.432-1.815-5.468-0.222-2.678 1.284 2.148 4.184 2.481 4.184 0.531 0-2.259-1.815-4.407-3.011-3.653-0.642 0.333-0.864-1.173-0.531-4.184 0.753-5.69-0.222-9.035-2.036-7.196-0.642 0.642-1.284 4.518-1.395 8.48-0.111 4.073-0.531 8.171-1.086 9.344-0.975 2.148-0.975 3.234-0.222 17.293 0.753 13.973 0.753 13.529 0.111 18.91-0.42 3.542-0.111 6.024 1.086 8.369 1.395 2.678 1.506 3.876 0.531 5.69-0.753 1.395-0.975 4.296-0.531 7.727 0.642 4.74 1.506 21.699 1.506 28.031 0 1.173 0 2.901 0 3.765s0.111 2.567 0.111 3.765c0.111 1.173 0.111 5.271 0.222 9.035 0 3.765 0.42 7.64 0.975 8.591 0.531 1.086 0.531 2.481-0.111 3.432-1.284 2.036-1.173 11.381 0.111 13.973 0.864 1.506 0.753 2.901-0.531 5.159-1.926 3.987-2.036 7.307-0.111 10.85 1.173 2.036 1.284 3.234 0.333 5.382-0.753 1.506-1.173 4.826-1.086 7.53 0.42 7.307 0.42 9.233-0.111 21.478-0.333 8.924 0 12.022 1.395 14.837 0.864 1.926 1.815 3.011 2.036 2.37s-0.111-1.728-0.753-2.481zM529.057 395.751c-0.42-2.901-3.011-3.876-3.011-1.086 0 2.148 0.864 3.432 2.37 3.432 0.531 0 0.864-1.086 0.642-2.37zM500.915 384.346c-1.086-1.086-3.123 1.617-2.259 3.011 0.642 0.975 1.086 0.864 1.815-0.42 0.642-1.086 0.753-2.148 0.42-2.567zM527.131 376.089c0-2.678-2.481-3.765-3.765-1.617-1.086 1.728 0.222 4.296 2.148 4.296 0.975 0 1.617-0.975 1.617-2.678zM507.135 371.349c-0.975-1.086-2.79 1.926-1.926 3.234 0.531 0.975 0.975 0.864 1.506-0.753 0.42-1.086 0.642-2.259 0.42-2.481zM501.779 369.201c0.753-1.173-0.333-4.407-1.506-4.407s-2.259 3.234-1.506 4.407c0.333 0.531 0.975 0.975 1.506 0.975s1.173-0.42 1.506-0.975zM524.762 358.129c-0.42-2.901-2.481-3.653-3.432-1.395-0.864 2.259 0.111 3.765 2.148 3.765 1.086 0 1.506-0.864 1.284-2.37zM508.333 357.266c0-0.753-0.642-1.617-1.284-1.815-0.864-0.333-1.395 0.42-1.395 1.815s0.531 2.148 1.395 1.926c0.642-0.333 1.284-1.173 1.284-1.926zM502.729 350.624c0.642-2.036-0.333-4.073-1.926-4.073s-3.011 2.901-2.036 4.407c0.864 1.395 3.432 1.173 3.987-0.333zM509.395 341.169c0-2.37-3.123-1.926-3.542 0.333-0.333 1.506 0.111 1.926 1.617 1.617 1.086-0.222 1.926-1.086 1.926-1.926zM522.194 338.911c-1.086-1.728-2.567-0.975-2.567 1.284 0 1.926 0.222 2.036 1.617 0.975 0.864-0.753 1.284-1.728 0.975-2.259zM501.223 330.32c-2.259-1.395-3.32 1.506-1.173 3.123 1.506 1.173 1.926 1.086 2.148-0.42 0.222-0.975-0.222-2.148-0.975-2.678zM509.95 326.753c0-2.148-2.036-3.32-3.432-1.926-0.642 0.642-0.753 1.617-0.42 2.259 1.086 1.728 3.876 1.395 3.876-0.333zM502.198 314.619c-0.531-2.678-3.011-3.011-3.011-0.42 0 1.284 0.642 2.259 1.728 2.259 0.975 0 1.506-0.753 1.284-1.815zM519.071 312.138c-0.531-0.864-1.173-0.864-1.815-0.222s-0.753 1.728-0.333 2.37c0.531 0.864 1.173 0.864 1.815 0.222s0.753-1.728 0.333-2.37zM508.974 308.596c-0.975-0.975-1.506-0.864-2.259 0.333s-0.531 2.036 0.864 3.011c1.506 1.173 1.926 1.086 2.148-0.42 0.222-0.975-0.111-2.259-0.753-2.901zM484.683 303.547c0.864-1.395-1.506-4.518-2.79-3.653-0.531 0.333-0.975 1.506-0.975 2.678 0 2.148 2.567 2.79 3.765 0.975zM518.319 295.068c-0.531-2.567-4.073-2.901-4.073-0.333 0 1.086 0.333 2.259 0.642 2.678 1.173 1.173 3.765-0.531 3.432-2.37zM509.95 293.895c0-1.173-0.753-2.148-1.617-2.148-1.617 0-2.259 2.259-0.864 3.542 1.284 1.395 2.481 0.753 2.481-1.395zM513.801 292.587c2.036-3.234-0.42-15.787-2.79-14.281-0.975 0.642-1.284 10.541-0.42 13.75 0.642 2.148 2.148 2.37 3.234 0.531zM487.361 285.28c0-2.79-1.617-3.542-3.234-1.617-1.086 1.284-1.086 1.926 0 3.234 1.617 1.926 3.234 1.173 3.234-1.617zM501.334 286.365c0-1.173-0.42-2.148-1.086-2.148-0.531 0-1.086 0.975-1.086 2.148s0.531 2.148 1.086 2.148c0.642 0 1.086-0.975 1.086-2.148zM509.95 277.33c0-1.617-1.926-3.32-2.79-2.481-0.753 0.753 0.753 3.987 1.815 3.987 0.531 0 0.975-0.642 0.975-1.506zM516.813 277.133c0.864-2.148-0.111-3.653-2.148-3.653-0.864 0-1.506 1.086-1.506 2.678 0 3.011 2.567 3.653 3.653 0.975zM512.739 265.839c-0.333-3.987 0-5.579 1.086-6.024 1.728-0.642 2.036-4.629 0.42-4.629-0.642 0-1.395 0.753-1.617 1.617-0.333 0.864-0.864 2.481-1.284 3.542-0.864 2.259-1.284 12.244-0.531 13.529 1.173 2.036 2.481-2.901 1.926-8.060zM500.804 267.567c0-1.086-0.531-2.148-1.173-2.37-1.395-0.42-2.901 2.567-1.926 4.073 0.975 1.617 3.123 0.42 3.123-1.728zM645.331 268.629c0-0.864-0.42-1.617-1.086-1.617-0.531 0-1.086 0.753-1.086 1.617s0.531 1.617 1.086 1.617c0.642 0 1.086-0.753 1.086-1.617zM489.534 267.011c0-1.173-0.753-2.148-1.617-2.148s-1.617 0.975-1.617 2.148c0 1.173 0.753 2.148 1.617 2.148s1.617-0.975 1.617-2.148zM509.95 267.456c0-1.815-2.37-1.506-3.011 0.42-0.222 0.753 0.333 1.284 1.284 1.284s1.728-0.753 1.728-1.728zM512.097 252.508c-0.111-2.036-0.111-2.036-1.617-0.222-0.753 1.173-1.173 2.79-0.864 3.653 0.531 1.284 0.753 1.284 1.506 0.111 0.531-0.753 0.975-2.37 0.975-3.542zM509.197 249.941c-0.222-1.284 0.111-2.148 0.642-1.728 1.506 0.864 2.567-3.432 1.395-5.579-0.642-1.086-0.642-2.79-0.111-4.407 1.173-2.901 0.111-5.579-1.284-3.32-0.531 0.864-0.864 3.765-0.753 6.443 0 2.901-0.642 6.024-1.728 7.64-1.728 2.567-1.284 4.518 0.864 3.765 0.642-0.222 1.086-1.506 0.975-2.79zM500.692 251.002c0.975-1.506-0.42-4.407-2.036-4.407s-3.011 2.901-2.036 4.407c0.333 0.531 1.173 0.975 2.036 0.975s1.728-0.42 2.036-0.975zM514.245 238.98c0-1.086-0.42-2.036-1.086-2.036-0.531 0-1.086 1.284-1.086 2.79s0.42 2.481 1.086 2.036c0.642-0.333 1.086-1.617 1.086-2.79zM508.641 233.401c0.222-1.086-0.333-1.815-1.284-1.815-1.086 0-1.728 0.975-1.728 2.259 0 2.567 2.481 2.259 3.011-0.42zM494.891 232.648c0-1.173-0.753-2.148-1.617-2.148s-1.617 0.975-1.617 2.148c0 1.173 0.753 2.148 1.617 2.148s1.617-0.975 1.617-2.148zM499.631 232.737c0.975-1.506-0.42-4.407-2.148-4.407-0.864 0-1.506 0.864-1.506 1.926 0 3.123 2.37 4.629 3.653 2.481zM514.245 230.5c0-2.036-1.173-2.79-2.481-1.506-0.864 0.864 0.333 3.653 1.506 3.653 0.531 0 0.975-0.975 0.975-2.148zM511.011 222.107c-0.111-6.974-0.111-7.085-1.728-4.184-1.284 2.481-1.506 7.307-0.531 12.356 0.111 0.222 0.642 0 1.173-0.333 0.642-0.333 1.086-3.876 1.086-7.838zM508.864 215.886c0.642-1.617 0.333-2.148-1.173-2.259-2.37-0.222-3.542 1.284-2.678 3.542 0.864 2.148 2.901 1.506 3.876-1.284zM514.554 213.738c0.975-1.086-0.42-3.653-2.036-3.653-0.864 0-1.506 0.975-1.506 2.148 0 2.036 2.036 2.901 3.542 1.506zM510.591 209.529c0.333-1.395 0.333-5.159 0-8.282s-0.642-6.134-0.642-6.776c-0.111-0.531 0.531-3.123 1.284-5.69 1.086-3.653 1.086-5.159-0.111-8.060-0.753-1.815-1.284-4.073-1.173-4.74 0.42-2.678 0.333-15.034-0.333-21.588-0.531-6.665-1.173-8.702-2.481-7.53-0.531 0.642-0.864 21.922-0.42 33.636 0.111 2.37 0.111 6.024 0.111 8.060s0.42 5.271 1.086 7.085c0.642 2.148 0.642 4.296 0 6.134-1.173 3.011-0.42 10.43 1.086 10.43 0.531 0 1.173-1.173 1.617-2.678zM500.273 197.729c0-0.864-0.42-1.617-1.086-1.617-0.531 0-1.086 0.753-1.086 1.617s0.531 1.617 1.086 1.617c0.642 0 1.086-0.753 1.086-1.617zM514.554 192.989c-0.753-2.901-3.542-1.617-3.542 1.617 0 2.259 0.333 2.481 2.036 1.506 1.284-0.642 1.815-1.815 1.506-3.123zM498.125 184.176c0-1.086-0.42-2.036-0.975-2.036-1.284 0-2.481 3.123-1.617 4.407 0.864 1.506 2.567 0 2.567-2.37zM506.716 180.102c0-2.036-1.815-4.073-2.678-3.123-0.753 0.753 0.753 5.159 1.728 5.159 0.531 0 0.975-0.975 0.975-2.036zM502.198 178.264c0.111-1.506-0.222-2.481-0.864-2.036-1.284 0.753-1.506 4.826-0.222 4.826 0.42 0 0.975-1.173 1.086-2.79zM501.89 163.649c0.222-4.938 0.753-11.492 1.173-14.504 0.42-3.987 0.333-5.69-0.531-5.69-0.642 0-1.173 0.975-1.173 2.259 0 1.173-0.42 3.011-1.086 4.073-1.617 3.123-2.79 22.897-1.506 25.045 1.395 2.259 2.567-2.37 3.123-11.183zM498.125 164.204c0-1.926-1.815-1.728-2.567 0.333-0.864 2.37 0.42 4.296 1.617 2.481 0.531-0.864 0.975-2.148 0.975-2.79zM512.097 156.243c0-1.173-0.42-1.815-1.086-1.506-0.531 0.333-1.086 1.395-1.086 2.259s0.531 1.506 1.086 1.506c0.642 0 1.086-0.975 1.086-2.259zM500.273 146.047c0-1.728-1.728-2.036-2.678-0.42-0.864 1.395 0.42 3.432 1.728 2.678 0.531-0.42 0.975-1.395 0.975-2.259zM644.244 111.771c0-1.728-0.642-2.678-1.617-2.678-1.617 0-2.259 3.32-0.864 4.629 1.395 1.506 2.481 0.642 2.481-1.926zM641.033 103.71c0-3.987-1.173-5.579-2.567-3.32-0.864 1.395 0.531 7.64 1.617 7.64 0.531 0 0.975-1.926 0.975-4.296z"></path>
<path d="M466.97 384.149c0-0.975 0.753-2.79 1.728-4.073 0.864-1.284 1.728-4.826 1.728-7.949 0.111-3.123 0.333-5.048 0.642-4.296 0.531 1.815 3.123 1.617 3.765-0.222 0.864-2.259-1.728-4.184-3.432-2.481-0.864 0.753-0.753 0 0.333-2.148 0.975-1.926 1.728-4.826 1.728-6.554 0-2.259 0.642-3.32 2.148-3.765 2.481-0.642 2.901-3.987 0.531-3.987-0.753 0-2.036 0.864-2.567 1.926-0.642 0.975-1.173 1.284-1.173 0.753 0-0.642 0.864-2.259 1.815-3.765 1.086-1.617 1.815-4.629 1.815-7.949 0-2.901 0.222-4.74 0.42-4.073 0.531 1.617 3.432 1.728 3.432 0.222 0-0.531 0.531-1.086 1.284-1.086 0.642 0 0.333 0.975-0.864 2.259-1.506 1.728-2.036 3.987-2.148 9.035 0 3.987-0.642 7.53-1.395 8.48-0.975 1.173-1.284 3.653-0.975 7.64s0.111 6.332-0.864 7.085c-0.753 0.531-1.617 3.432-2.036 6.332s-1.284 5.159-1.926 5.048c-0.642-0.111-1.728 0.975-2.567 2.481-0.753 1.617-1.395 2.036-1.395 1.086z"></path>
<path d="M519.294 745.163c1.728-1.926 2.036-3.234 1.395-4.296-0.975-1.395-1.086-1.395-1.086 0s-0.111 1.395-1.086 0c-0.864-1.284-1.086-1.086-0.864 0.975 0.222 1.926-0.333 2.79-2.481 3.32-2.567 0.753-2.79 0.531-2.678-2.259 0.111-1.728 0.642-3.123 1.173-3.123 0.642 0 0.642-0.333-0.111-0.864-0.642-0.42-2.036-2.37-3.123-4.184-1.173-1.926-2.481-3.542-2.901-3.542s-0.864-0.753-0.864-1.617c0-4.073 13.862 3.765 16.12 9.035 0.753 1.815 1.173 3.542 0.975 3.653s-1.815 1.395-3.653 2.901l-3.234 2.678 2.37-2.678z"></path>
<path d="M439.668 740.116c-0.42-0.531-1.173-0.864-1.506-0.864-0.42-0.111-3.011-0.42-5.69-0.864-4.296-0.753-4.938-1.173-4.938-3.32 0-1.617 0.864-3.011 2.481-3.765 2.37-1.086 2.567-0.864 2.567 1.506 0 2.259 0.531 2.567 4.629 2.901 2.481 0.222 5.69-0.111 6.974-0.753 2.036-0.753 2.79-0.531 3.542 0.864 0.642 1.086 1.728 1.506 2.79 1.086 1.173-0.42 1.506-0.333 0.975 0.531-0.42 0.753-1.926 1.284-3.432 1.284s-2.37 0.42-2.036 1.086c0.753 1.284-5.159 1.506-6.332 0.333z"></path>
<path d="M489.090 727.538c-3.123-2.481-3.123-2.481-0.531-2.259 1.395 0.111 3.123-0.111 3.653-0.642 1.395-0.975 5.271 1.728 4.407 3.123-0.333 0.642-1.728 0.864-3.011 0.42-1.506-0.333-2.036-0.222-1.506 0.642 1.086 1.815 0.531 1.617-3.011-1.284z"></path>
</svg>
