<!-- Generated by IcoMoon.io -->
<svg version="1.1" xmlns="http://www.w3.org/2000/svg" width="582" height="1024" viewBox="0 0 582 1024">
<title></title>
<g id="icomoon-ignore">
</g>
<path d="M493.037 398.222h-100.233v102.942q0 35.217-35.217 35.217-32.508 0-32.508-35.217v-170.667h-8.127q-24.381 0-43.344-16.254l-16.254-43.344h-32.508q0 32.508 18.963 56.889 21.672 24.381 51.471 32.508v37.926h-203.175q-46.053 0-46.053-37.926v-8.127q0-32.508 46.053-32.508h5.418l-8.127-73.143q0-86.688 59.598-151.704 59.598-59.598 143.577-59.598t140.868 59.598q59.598 62.307 59.598 151.704l-8.127 73.143h5.418q46.053 0 46.053 32.508v8.127q0 37.926-43.344 37.926zM92.106 433.439h197.757v67.725q0 32.508 21.672 51.471 18.963 21.672 46.053 21.672 32.508 0 51.471-21.672 21.672-18.963 21.672-51.471v-67.725h62.307q21.672 0 37.926 16.254l16.254 43.344-16.254 40.635-40.635 18.963h-8.127l-48.762 100.233h-173.376v32.508h159.831l-127.323 260.064-70.434-143.577h81.27v-32.508h-97.524l-89.397-184.212h130.032v-32.508h-151.704q-27.090 0-40.635-18.963-18.963-13.545-18.963-40.635l18.963-43.344q13.545-16.254 37.926-16.254z"></path>
</svg>
