<!-- Generated by IcoMoon.io -->
<svg version="1.1" xmlns="http://www.w3.org/2000/svg" width="1054" height="1024" viewBox="0 0 1054 1024">
<title></title>
<g id="icomoon-ignore">
</g>
<path d="M116.251 93.991l66.783 554.048q-42.048 4.947-71.729 37.101l-37.101-633.198h145.932l4.947 42.048h-108.831zM840.966 645.565l-46.995 7.42-44.522-185.507-54.415-145.932h-116.251l4.947 14.841-9.894-17.314v93.99q39.575 116.251 61.836 286.918-56.889-51.942-98.937-54.415l-42.048-178.087-54.415-145.932h-118.725v2.473l-2.473-4.947v93.99q44.522 131.092 64.309 326.493l-7.42 9.894-32.155-32.155v2.473l-54.415-49.469q-27.208-19.787-54.415-22.261l-61.836-504.58h638.145l64.309 507.053-34.628-4.947zM418.010 353.701l46.995 126.145v-2.473l39.575 170.667-61.836 24.734q-14.841-123.671-42.048-225.082l-32.155-93.99h49.469zM972.058 719.768l27.208 29.681 17.314-4.947-69.256-712.348h-158.299v61.836h89.043l71.729 605.99 22.261 19.787zM707.401 722.242h-2.473v4.947l-2.473-17.314q-12.367-133.565-42.048-242.396l-34.628-113.778h46.995l46.995 126.145v-2.473l44.522 187.981q-32.155 19.787-56.889 56.889zM840.966 677.72l39.575 9.894 66.783 51.942 12.367 12.367 37.101 32.155 2.473 2.473h22.261v54.415h-24.734q-39.575-2.473-101.411-64.309l-24.734-24.734-27.208-19.787h-4.947q-17.314-2.473-32.155 14.841l-4.947 4.947v2.473l-9.894 14.841h-2.473l-4.947 7.42h2.473q-37.101 61.836-101.411 64.309-44.522-2.473-101.411-64.309l-22.261-24.734-12.367-9.894-17.314-9.894h-4.947l-9.894 2.473q-12.367 0-24.734 14.841l-2.473 2.473-14.841 19.787v-2.473l-4.947 7.42h2.473q-37.101 61.836-101.411 64.309-44.522-2.473-101.411-64.309l-22.261-24.734-29.681-19.787h-4.947l-17.314 4.947-19.787 14.841-12.367 17.314-2.473 7.42q-37.101 61.836-103.884 64.309h-19.787v-54.415h19.787q24.734 0 42.048-32.155l7.42-12.367 7.42-7.42q27.208-44.522 74.203-54.415l24.734-2.473 24.734 4.947q17.314 2.473 34.628 14.841l49.469 44.522 46.995 44.522h9.894l37.101-34.628-2.473 2.473 7.42-12.367 2.473-2.473 22.261-27.208q27.208-27.208 64.309-32.155l17.314-2.473 14.841 2.473q39.575 7.42 91.517 59.362l7.42 7.42 39.575 37.101 4.947 2.473h7.42l37.101-34.628v-2.473l4.947-12.367v2.473l34.628-37.101q12.367-12.367 29.681-17.314l42.048-7.42zM840.966 826.126q44.522 0 106.357 61.836l2.473 2.473 46.995 42.048 2.473 2.473h22.261v54.415h-24.734q-39.575-2.473-101.411-64.309l-49.469-44.522-4.947-2.473-4.947 2.473q-17.314 2.473-32.155 19.787l-2.473 2.473-9.894 14.841h-2.473l-4.947 7.42h2.473q-37.101 61.836-101.411 64.309-44.522-2.473-101.411-64.309l-49.469-44.522h-7.42q-34.628 2.473-51.942 39.575v-2.473l-4.947 7.42h2.473q-37.101 61.836-101.411 64.309-44.522-2.473-101.411-64.309l-49.469-44.522-4.947-2.473-7.42 2.473-42.048 32.155-2.473 2.473-2.473 9.894q-37.101 61.836-103.884 64.309h-19.787v-54.415h19.787q24.734 0 42.048-32.155l7.42-12.367 2.473-2.473q37.101-61.836 103.884-61.836 29.681 0 59.362 19.787l49.469 44.522 46.995 44.522h9.894l37.101-34.628-2.473 2.473 7.42-12.367 2.473-2.473q39.575-61.836 103.884-61.836 44.522 0 106.357 61.836l2.473 2.473 44.522 42.048 4.947 2.473h7.42l37.101-34.628v-2.473l4.947-12.367v2.473q39.575-61.836 106.357-61.836z"></path>
</svg>
