<!-- Generated by IcoMoon.io -->
<svg version="1.1" xmlns="http://www.w3.org/2000/svg" width="1186" height="1024" viewBox="0 0 1186 1024">
<title></title>
<g id="icomoon-ignore">
</g>
<path fill="#000" d="M464.282 580.352q30.952 0 51.587-20.635 23.214-23.214 23.214-56.746t-23.214-56.746q-20.635-23.214-51.587-23.214t-51.587 23.214q-23.214 23.214-23.214 56.746t23.214 56.746q20.635 20.635 51.587 20.635zM619.043 699.002l15.476-7.738v-18.055l-28.373-49.008-15.476-7.738-12.897 7.738-28.373 49.008v18.055l15.476 7.738h54.166zM722.217 580.352q30.952 0 51.587-20.635 23.214-23.214 23.214-56.746t-23.214-56.746q-20.635-23.214-51.587-23.214t-51.587 23.214q-23.214 23.214-23.214 56.746t23.214 56.746q20.635 20.635 51.587 20.635zM1160.705 812.494l-7.738 54.166q5.159 20.635-12.897 28.373l-56.746 15.476-10.317 38.69-12.897 38.69-41.27 10.317q-10.317 5.159-64.484-49.008l-2.579-33.531 5.159-36.111 12.897-23.214 2.579-18.055-7.738-15.476-159.919-149.602-23.214-5.159-5.159 2.579q-15.476 7.738-15.476 25.793v85.118l-7.738 18.055-18.055 7.738h-283.728l-18.055-7.738-7.738-18.055v-85.118q0-18.055-12.897-25.793l-7.738-2.579-25.793 5.159-157.34 149.602-10.317 15.476 5.159 18.055 12.897 23.214 5.159 36.111-5.159 33.531-64.484 49.008-41.27-10.317-20.635-77.38-56.746-15.476-12.897-10.317v-18.055l-7.738-54.166 25.793-25.793 30.952-20.635 64.484 20.635 23.214-7.738 147.023-149.602q12.897-12.897 2.579-30.952l-30.952-51.587q-33.531-56.746-38.69-92.856l2.579-64.484 20.635-61.904-5.159-10.317-72.222-82.539-12.897-7.738-15.476 2.579-23.214 15.476-33.531 7.738-30.952-5.159q-54.166-54.166-49.008-64.484l10.317-46.428 36.111-12.897q33.531-7.738 33.531-12.897l12.897-61.904q7.738-18.055 25.793-12.897l51.587-10.317 25.793 28.373 20.635 33.531-18.055 69.642 7.738 23.214 69.642 67.063 20.635 7.738 118.65-82.539 116.071-28.373 2.579-2.579h56.746v2.579l116.071 28.373q69.642 36.111 121.229 82.539l20.635-7.738 69.642-67.063 7.738-23.214-18.055-69.642 20.635-33.531 25.793-28.373 51.587 10.317q18.055-5.159 25.793 12.897l12.897 61.904q0 5.159 33.531 12.897l36.111 12.897 10.317 46.428-49.008 64.484-30.952 5.159-33.531-7.738-23.214-15.476-15.476-2.579-15.476 7.738-69.642 82.539-7.738 10.317 23.214 61.904 2.579 64.484q-5.159 36.111-38.69 92.856l-33.531 51.587v18.055l5.159 12.897 147.023 149.602 20.635 7.738 64.484-20.635 33.531 20.635 25.793 25.793z"></path>
</svg>
