<!-- Generated by IcoMoon.io -->
<svg version="1.1" xmlns="http://www.w3.org/2000/svg" width="1026" height="1024" viewBox="0 0 1026 1024">
<title></title>
<g id="icomoon-ignore">
</g>
<path fill="#000" d="M347.82 809.957l111.886-197.017 53.511 14.594 53.511-12.162 111.886 194.584q-77.834 43.781-165.397 43.781t-165.397-43.781zM216.475 338.090q43.781-77.834 119.183-124.048l121.615 211.611q-51.078 31.62-51.078 92.428v2.432h-238.366v-12.162q0-92.428 48.646-170.261zM513.216 452.408q26.755 0 46.214 19.458 21.891 19.458 21.891 48.646l-21.891 46.214q-19.458 19.458-46.214 19.458t-46.214-19.458l-21.891-46.214q0-29.188 21.891-48.646 19.458-19.458 46.214-19.458zM690.775 214.043q75.401 46.214 121.615 124.048t46.214 170.261v12.162h-235.934v-2.432q0-60.808-53.511-92.428l121.615-211.611zM809.958 216.475q-124.048-124.048-296.741-124.048t-296.741 124.048q-121.615 121.615-121.615 294.309t121.615 296.741q124.048 121.615 296.741 121.615t296.741-121.615q121.615-124.048 121.615-296.741t-121.615-294.309zM513.216 31.62q199.449 0 340.523 141.074 141.074 138.641 141.074 338.090t-141.074 340.523-340.523 141.074-340.523-141.074-141.074-340.523 141.074-338.090q141.074-141.074 340.523-141.074z"></path>
<path fill="none" stroke="#000" stroke-width="48.6461" stroke-miterlimit="3" stroke-linecap="square" stroke-linejoin="miter" d="M513.216 31.62q-199.449 0-340.523 141.074-141.074 138.641-141.074 338.090t141.074 340.523 340.523 141.074 340.523-141.074 141.074-340.523-141.074-338.090q-141.074-141.074-340.523-141.074M809.958 216.475q121.615 121.615 121.615 294.309t-121.615 296.741q-124.048 121.615-296.741 121.615t-296.741-121.615q-121.615-124.048-121.615-296.741t121.615-294.309q124.048-124.048 296.741-124.048t296.741 124.048M690.775 214.043l-121.615 211.611q53.511 31.62 53.511 92.428v2.432h235.934v-12.162q0-92.428-46.214-170.261t-121.615-124.048M513.216 452.408q-26.755 0-46.214 19.458-21.891 19.458-21.891 48.646l21.891 46.214q19.458 19.458 46.214 19.458t46.214-19.458l21.891-46.214q0-29.188-21.891-48.646-19.458-19.458-46.214-19.458M216.475 338.090q-48.646 77.834-48.646 170.261v12.162h238.366v-2.432q0-60.808 51.078-92.428l-121.615-211.611q-75.401 46.214-119.183 124.048M347.82 809.957q77.834 43.781 165.397 43.781t165.397-43.781l-111.886-194.584-53.511 12.162-53.511-14.594-111.886 197.017"></path>
</svg>
