<!-- Generated by IcoMoon.io -->
<svg version="1.1" xmlns="http://www.w3.org/2000/svg" width="1179" height="1024" viewBox="0 0 1179 1024">
<title></title>
<g id="icomoon-ignore">
</g>
<path d="M1005.899 36.202h-106.020v124.121h106.020v-124.121zM175.838 987.798h108.606v-452.525l-106.020-41.374-2.586 493.899zM488.727 460.283l-168.081 142.222v49.131l222.384-191.354h-54.303zM178.424 429.252l87.919-67.232-87.919-33.616v100.848zM284.444 393.050l-90.505 69.818 90.505 33.616v-103.434zM103.434 424.081h38.788v-31.030h-38.788v31.030zM178.424 199.111v59.475l74.99-59.475h-74.99zM281.859 222.384l-90.505 72.404 93.091 36.202-2.586-108.606zM281.859 38.788h-103.434v124.121h103.434v-124.121zM36.202 356.848h106.020v-87.919h-106.020v87.919zM899.879 985.212h106.020v-496.485l-106.020 43.96v452.525zM1005.899 429.252v-106.020l-87.919 36.202 87.919 69.818zM320.646 268.929v87.919h543.030v-87.919h-543.030zM1142.949 356.848v-87.919h-100.848v87.919h100.848zM1075.717 424.081v-31.030h-33.616v31.030h33.616zM899.879 393.050v100.848l85.333-33.616-85.333-67.232zM320.646 424.081h543.030v-31.030h-543.030v31.030zM899.879 222.384v106.020l90.505-36.202-90.505-69.818zM1005.899 196.525h-80.162l80.162 62.061v-62.061zM680.081 460.283h-54.303l237.899 206.869v-46.545l-183.596-160.323z"></path>
</svg>
