<!-- Generated by IcoMoon.io -->
<svg version="1.1" xmlns="http://www.w3.org/2000/svg" width="1124" height="1024" viewBox="0 0 1124 1024">
<title></title>
<g id="icomoon-ignore">
</g>
<path fill="#000" d="M556.026 1007.856c-2.994-8.87-5.607-17.050-5.804-18.176s-0.43-2.048-0.514-2.048c-0.086 0-0.309-0.785-0.492-1.747s-1.109-4.071-2.051-6.912l-1.717-5.165h-26.541c-14.598 0-26.53-0.345-26.517-0.768s4.863-4.223 10.776-8.448c22.861-16.326 31.181-22.55 31.181-23.326 0-0.443-2.554-8.393-5.676-17.667s-5.785-17.552-5.917-18.397c-0.134-0.845-0.6-2.112-1.039-2.816s-0.561-1.28-0.272-1.28c0.29 0-0.143-1.902-0.964-4.224-2.242-6.356-1.943-6.534 3.885-2.337 2.957 2.128 7.957 5.645 11.111 7.814s6.615 4.764 7.691 5.766c3.722 3.469 17.702 13.463 18.83 13.463s15.108-9.995 18.83-13.463c1.074-1.001 4.536-3.596 7.691-5.766s8.153-5.685 11.111-7.814c5.831-4.199 6.127-4.018 3.88 2.351-0.822 2.333-1.513 4.463-1.536 4.736s-0.074 0.614-0.117 0.754c-0.043 0.141-0.253 1.177-0.467 2.304s-2.947 9.635-6.068 18.909c-3.121 9.272-5.676 17.223-5.676 17.667 0 0.776 8.32 7 31.181 23.326 5.914 4.223 10.765 8.025 10.776 8.448 0.014 0.423-11.919 0.768-26.517 0.768h-26.541l-1.717 5.165c-0.943 2.84-1.867 5.951-2.051 6.912s-0.407 1.747-0.492 1.747c-0.086 0-0.319 0.921-0.514 2.048-0.59 3.369-11.206 34.303-11.773 34.303-0.288 0-2.974-7.256-5.968-16.127zM305.894 953.972c0.749-0.903 1.099-2.325 0.779-3.157s-0.134-1.793 0.414-2.132c0.547-0.338 0.778-0.966 0.513-1.395s1.562-9.959 4.060-21.178c2.497-11.219 4.55-20.952 4.562-21.633s-1.939-2.343-4.333-3.697c-2.393-1.353-9.88-5.569-16.639-9.367-13.964-7.848-23.955-14.081-24.018-14.982-0.024-0.336 6.292-1.157 14.036-1.821 32.571-2.792 37.651-3.326 38.28-4.014 0.363-0.398 1.89-6.712 3.394-14.035s3.67-17.229 4.817-22.015c1.146-4.788 2.088-10.203 2.090-12.035 0.009-5.407 1.262-4.655 4.386 2.626 1.615 3.767 5.319 11.917 8.231 18.112s6.582 14.143 8.154 17.664c1.574 3.52 3.374 6.393 4.001 6.384s11.508-1.154 24.18-2.544c12.671-1.391 24.086-2.535 25.368-2.544 1.786-0.014-0.398 2.365-9.382 10.211-6.441 5.625-11.865 10.601-12.056 11.057-0.482 1.162-12.445 12.012-14.526 13.176-1.557 0.87-1.47 1.451 0.947 6.463 4.277 8.864 11.835 26.013 12.202 27.682 0.185 0.845 1.761 4.689 3.501 8.543s3.162 7.18 3.162 7.389c0 0.21-7.026-3.686-15.615-8.658-19.213-11.124-29.157-16.49-30.559-16.49-0.586 0-9.375 7.489-19.528 16.639s-19.208 16.807-20.122 17.014c-1.414 0.319-1.458 0.129-0.298-1.267zM798.020 938.497c-10.137-9.241-18.995-16.827-19.686-16.856-1.554-0.069-10.508 4.719-30.745 16.435-8.589 4.973-15.615 8.869-15.615 8.658s1.424-3.536 3.162-7.389c1.741-3.854 3.315-7.699 3.501-8.543 0.366-1.669 7.925-18.817 12.202-27.682 2.417-5.010 2.502-5.592 0.947-6.463-2.081-1.165-14.044-12.016-14.526-13.176-0.19-0.458-5.615-5.432-12.056-11.057-8.986-7.846-11.168-10.223-9.382-10.211 1.281 0.009 12.696 1.154 25.368 2.544s23.553 2.535 24.18 2.544c0.627 0.009 2.428-2.863 4.001-6.384s5.244-11.469 8.154-17.664c2.912-6.194 6.62-14.356 8.24-18.135s3.17-6.649 3.444-6.375c0.272 0.272 0.627 2.105 0.789 4.071s1.2 7.371 2.306 12.007c1.106 4.638 3.243 14.422 4.745 21.743s3.031 13.637 3.394 14.035c0.629 0.688 5.709 1.22 38.28 4.014 7.744 0.664 14.059 1.483 14.036 1.821-0.066 0.903-10.055 7.134-24.018 14.982-6.759 3.8-14.245 8.015-16.639 9.367s-4.343 3.016-4.333 3.697c0.009 0.681 2.064 10.416 4.562 21.633s4.325 20.748 4.060 21.178c-0.265 0.43-0.034 1.058 0.513 1.395s0.734 1.297 0.414 2.132c-0.32 0.833-0.014 2.201 0.682 3.039 1.015 1.222 0.986 1.514-0.142 1.483-0.773-0.024-9.7-7.601-19.837-16.84zM193.747 797.19c-12.513-20.956-20.86-35.459-20.86-36.244 0-0.492-0.577-1.362-1.28-1.933-1.546-1.253-6.36-0.511-32.864 5.066-10.613 2.233-19.443 3.912-19.621 3.729s6.338-7.704 14.487-16.714c8.146-9.011 15.944-17.814 17.325-19.563l2.513-3.179-4.271-7.573c-2.349-4.165-8.167-14.39-12.93-22.725s-8.404-15.407-8.091-15.72c0.313-0.313 3.248 0.688 6.522 2.224s14.007 6.433 23.85 10.88c17.303 7.821 17.948 8.023 19.455 6.129 4.523-5.684 33.176-37.001 33.851-37.001 0.435 0 0.581 1.728 0.325 3.84-2.244 18.432-5.202 47.961-4.844 48.329 0.595 0.609 24.864 11.809 32.641 15.063 13.54 5.668 15.344 6.648 13.788 7.501-0.824 0.45-4.262 1.376-7.642 2.054-16.878 3.392-41.894 9.25-42.523 9.96-0.65 0.731-4.974 39.593-5.416 48.669-0.103 2.11-0.246 3.838-0.318 3.84s-1.914-2.984-4.096-6.635zM925.83 799.897c-0.454-9.124-4.772-47.856-5.416-48.581-0.631-0.71-25.646-6.57-42.523-9.96-3.378-0.68-6.817-1.603-7.642-2.054-1.559-0.853 0.246-1.835 13.788-7.501 7.775-3.254 32.044-14.453 32.641-15.063 0.359-0.368-2.6-29.894-4.844-48.329-0.257-2.112-0.111-3.84 0.325-3.84 0.676 0 29.328 31.317 33.851 37.001 1.506 1.895 2.152 1.69 19.455-6.129 9.843-4.449 20.575-9.344 23.85-10.88s6.21-2.536 6.522-2.224c0.313 0.313-3.328 7.388-8.091 15.72s-10.581 18.558-12.93 22.725l-4.271 7.573 2.513 3.179c1.383 1.749 9.18 10.551 17.325 19.563s14.665 16.533 14.487 16.714c-0.179 0.183-9.009-1.497-19.621-3.729-26.501-5.577-31.317-6.32-32.864-5.066-0.704 0.57-1.28 1.439-1.28 1.933 0 1.008-23.349 40.999-24.718 42.337-0.202 0.198-0.451-1.326-0.554-3.386zM428.879 623.612v-54.271h77.823v44.031h191.482v64.511h-269.304zM100.184 555.162v-26.465l-23.879-7.838c-13.133-4.311-24.422-7.838-25.087-7.838s-1.208-0.461-1.208-1.024c0-0.562 0.543-1.024 1.208-1.024s11.953-3.527 25.087-7.838l23.879-7.838v-26.465c0-14.556 0.362-26.465 0.802-26.465s7.682 9.644 16.088 21.43c8.408 11.787 15.533 21.292 15.837 21.125 1.984-1.096 48.553-15.968 49.234-15.725 0.467 0.168-6.016 9.866-14.407 21.551l-15.258 21.247 15.258 21.247c8.391 11.686 14.874 21.385 14.407 21.551-0.682 0.245-47.25-14.628-49.234-15.725-0.303-0.168-7.43 9.339-15.837 21.125s-15.648 21.43-16.088 21.43c-0.442 0-0.802-11.909-0.802-26.465zM1006.914 560.199c-8.408-11.787-15.533-21.292-15.837-21.125-1.984 1.096-48.553 15.968-49.234 15.725-0.467-0.168 6.016-9.865 14.407-21.551l15.258-21.247-15.258-21.247c-8.391-11.686-14.874-21.385-14.407-21.551 0.682-0.245 47.25 14.628 49.234 15.725 0.303 0.168 7.43-9.339 15.837-21.125s15.648-21.43 16.088-21.43c0.442 0 0.802 11.909 0.802 26.465v26.465l23.879 7.838c13.133 4.311 24.422 7.838 25.087 7.838s1.208 0.461 1.208 1.024c0 0.562-0.544 1.024-1.208 1.024s-11.953 3.527-25.087 7.838l-23.879 7.838v26.465c0 14.556-0.362 26.465-0.802 26.465s-7.682-9.644-16.088-21.43zM428.879 544.765v-8.191h269.304v16.384h-269.304zM428.879 510.463v-8.704h269.304v17.407h-269.304zM428.879 476.16v-8.191h269.304v16.384h-269.304zM428.879 397.315v-54.271h269.304v64.511h-191.482v44.031h-77.823zM195.292 341.906c-8.663-9.636-16.452-18.403-17.309-19.479-1.506-1.895-2.152-1.69-19.455 6.129-9.843 4.449-20.575 9.344-23.85 10.88s-6.21 2.536-6.522 2.224c-0.313-0.313 3.328-7.388 8.091-15.72s10.581-18.558 12.93-22.725l4.271-7.573-2.513-3.179c-1.383-1.749-9.18-10.551-17.325-19.563s-14.665-16.533-14.487-16.714c0.179-0.183 9.009 1.497 19.621 3.729 26.501 5.577 31.317 6.32 32.864 5.066 0.704-0.57 1.28-1.439 1.28-1.933 0-1.008 23.349-40.999 24.718-42.337 0.202-0.198 0.451 1.326 0.554 3.386 0.454 9.124 4.772 47.856 5.416 48.581 0.631 0.71 25.646 6.57 42.523 9.96 3.378 0.68 6.817 1.603 7.642 2.054 1.559 0.853-0.246 1.835-13.788 7.501-7.775 3.254-32.044 14.453-32.641 15.063-0.359 0.368 2.6 29.894 4.844 48.329 0.257 2.112 0.111 3.84-0.325 3.84s-7.879-7.884-16.542-17.523zM911.831 355.588c2.244-18.432 5.202-47.961 4.844-48.329-0.595-0.609-24.864-11.809-32.641-15.063-13.54-5.668-15.344-6.648-13.788-7.501 0.824-0.45 4.262-1.376 7.642-2.054 16.878-3.392 41.894-9.25 42.523-9.96 0.645-0.725 4.962-39.455 5.416-48.581 0.103-2.060 0.353-3.585 0.554-3.386 1.369 1.339 24.718 41.329 24.718 42.337 0 0.492 0.576 1.362 1.28 1.933 1.546 1.253 6.36 0.51 32.864-5.066 10.613-2.233 19.443-3.912 19.621-3.729s-6.338 7.704-14.487 16.714c-8.146 9.011-15.944 17.814-17.325 19.563l-2.513 3.179 4.271 7.573c2.349 4.165 8.167 14.39 12.93 22.725s8.404 15.407 8.091 15.72c-0.313 0.313-3.248-0.688-6.522-2.224s-14.007-6.433-23.85-10.88c-17.303-7.821-17.948-8.023-19.455-6.129-4.523 5.684-33.176 37.001-33.851 37.001-0.435 0-0.581-1.728-0.325-3.84zM334.4 205.131c-0.264-0.461-0.506-2.247-0.541-3.975s-0.989-7.025-2.125-11.776c-1.134-4.751-3.292-14.628-4.794-21.949s-3.031-13.637-3.394-14.035c-0.629-0.688-5.709-1.22-38.28-4.014-7.744-0.664-14.059-1.483-14.036-1.821 0.066-0.903 10.055-7.134 24.018-14.982 6.759-3.8 14.245-8.015 16.639-9.367s4.343-3.016 4.333-3.697c-0.011-0.681-2.064-10.416-4.562-21.633s-4.325-20.748-4.060-21.178c0.265-0.43 0.034-1.058-0.513-1.395s-0.734-1.297-0.414-2.132c0.32-0.833-0.031-2.255-0.779-3.157-1.159-1.395-1.113-1.585 0.298-1.267 0.913 0.207 9.967 7.862 20.122 17.014s18.942 16.639 19.528 16.639c1.401 0 11.344-5.366 30.559-16.49 8.589-4.973 15.615-8.869 15.615-8.658s-1.424 3.536-3.162 7.389c-1.741 3.854-3.315 7.699-3.501 8.543-0.366 1.669-7.925 18.817-12.202 27.682-2.417 5.010-2.502 5.592-0.947 6.463 2.081 1.165 14.044 12.016 14.526 13.176 0.19 0.458 5.615 5.432 12.056 11.057 8.986 7.846 11.168 10.223 9.382 10.211-1.281-0.008-12.696-1.154-25.368-2.544s-23.553-2.535-24.18-2.544c-0.627-0.009-2.416 2.863-3.977 6.384s-4.158 9.097-5.773 12.393c-1.615 3.296-5.3 11.359-8.188 17.919-5.876 13.341-5.63 12.884-6.286 11.739zM785.767 198.881c-1.621-3.78-5.329-11.94-8.24-18.135s-6.582-14.143-8.154-17.664c-1.574-3.52-3.374-6.393-4.001-6.384s-11.508 1.154-24.18 2.544c-12.671 1.391-24.086 2.535-25.368 2.544-1.786 0.013 0.398-2.365 9.382-10.211 6.441-5.625 11.865-10.601 12.056-11.057 0.482-1.161 12.445-12.012 14.526-13.176 1.557-0.87 1.47-1.451-0.947-6.463-4.277-8.864-11.835-26.013-12.202-27.682-0.185-0.845-1.761-4.689-3.501-8.543s-3.162-7.18-3.162-7.389c0-0.21 7.026 3.686 15.615 8.658 19.213 11.124 29.157 16.49 30.559 16.49 0.586 0 9.375-7.489 19.528-16.639s19.208-16.807 20.122-17.014c1.414-0.319 1.458-0.129 0.298 1.267-0.749 0.903-1.099 2.325-0.779 3.157s0.134 1.793-0.414 2.132c-0.547 0.338-0.778 0.966-0.513 1.395s-1.562 9.959-4.060 21.178c-2.497 11.219-4.55 20.952-4.562 21.633s1.939 2.343 4.333 3.697c2.393 1.353 9.88 5.569 16.639 9.367 13.964 7.848 23.955 14.081 24.018 14.982 0.024 0.336-6.292 1.157-14.036 1.821-32.571 2.792-37.651 3.326-38.28 4.014-0.363 0.398-1.89 6.712-3.394 14.035s-3.638 17.107-4.745 21.743c-1.106 4.638-2.144 10.041-2.306 12.007s-0.517 3.8-0.789 4.071c-0.272 0.272-1.822-2.597-3.444-6.375zM518.989 132.331c0-0.546 0.673-2.898 1.496-5.231s1.513-4.463 1.536-4.736c0.023-0.273 0.074-0.614 0.117-0.754s0.253-1.177 0.467-2.304c0.216-1.127 2.947-9.635 6.068-18.909s5.676-17.223 5.676-17.667c0-0.776-8.32-7-31.181-23.326-5.914-4.223-10.765-8.025-10.776-8.448s11.919-0.768 26.517-0.768h26.541l1.717-5.165c0.943-2.84 1.867-5.951 2.051-6.912s0.407-1.747 0.492-1.747c0.086 0 0.319-0.921 0.514-2.048 0.59-3.369 11.206-34.303 11.773-34.303s11.183 30.935 11.773 34.303c0.197 1.127 0.43 2.048 0.514 2.048s0.309 0.785 0.492 1.747c0.185 0.961 1.109 4.071 2.051 6.912l1.717 5.165h26.541c14.598 0 26.53 0.345 26.517 0.768s-4.863 4.223-10.776 8.448c-22.861 16.325-31.181 22.55-31.181 23.326 0 0.443 2.554 8.393 5.676 17.667s5.785 17.552 5.917 18.397c0.134 0.845 0.6 2.112 1.039 2.816s0.561 1.28 0.272 1.28c-0.29 0 0.143 1.902 0.964 4.224 2.242 6.356 1.943 6.534-3.885 2.337-2.957-2.128-7.957-5.645-11.111-7.814s-6.615-4.764-7.691-5.766c-3.722-3.469-17.702-13.463-18.83-13.463s-15.108 9.995-18.83 13.463c-1.074 1.001-4.536 3.596-7.691 5.766s-8.153 5.685-11.111 7.814c-2.957 2.128-5.375 3.424-5.375 2.88z"></path>
</svg>
