<!-- Generated by IcoMoon.io -->
<svg version="1.1" xmlns="http://www.w3.org/2000/svg" width="1027" height="1024" viewBox="0 0 1027 1024">
<title></title>
<g id="icomoon-ignore">
</g>
<path d="M513.283 51.328q10.266 53.895 46.195 118.055 59.028 105.223 159.118 161.684l-205.313 20.531-207.88-20.531q148.852-79.559 207.88-279.739zM674.967 138.587q141.153 71.86 292.571 120.622-46.195 30.797-148.852 51.328-197.614-76.992-287.439-259.208 61.594 46.195 143.719 87.258zM341.333 844.351q84.692 56.461 184.782 56.461 94.957 0 169.383-59.028l-61.594-110.356-138.586 15.398-56.461-5.133-97.524 102.657zM759.659 600.541l-5.133 2.566h-2.566l-15.398-7.699q-2.566-25.664-23.098-25.664h-5.133l-20.531 12.832-5.133 12.832 2.566 23.098-5.133 46.195 38.496 156.551 12.832-12.832 64.16-2.566q-41.063 64.16-107.789 102.657l-7.699 2.566-76.992 30.797-76.992 7.699-79.559-7.699q-41.063-10.266-84.692-30.797l-7.699-2.566q-76.992-38.496-118.055-100.090l64.16 2.566 17.965 15.398 51.328-107.789h-2.566q-25.664-43.629-17.965-76.992l23.098-35.93 15.398-10.266 92.391 10.266h10.266l43.629-2.566 25.664-7.699 10.266-23.098 51.328-56.461 35.93-25.664 43.629-15.398h2.566l15.398 10.266 30.797 30.797 30.797 61.594-20.531 23.098zM341.333 941.875q92.391 43.629 184.782 43.629 89.825 0 171.95-41.063l7.699-2.566h171.95l56.461 48.762h-844.351l56.461-48.762h195.048zM533.815 564.612v-143.719h-43.629v148.852l43.629-5.133zM64.16 264.341q146.286-53.895 284.872-125.754l146.286-87.258q-94.957 182.216-287.439 259.208-105.223-20.531-143.719-46.195zM202.747 639.038l2.566-15.398q0-25.664 20.531-48.762v2.566q25.664-30.797 59.028-30.797l51.328 10.266-20.531 20.531h-12.832q-23.098 5.133-33.363 20.531h-2.566l-15.398 35.93-48.762 5.133z"></path>
</svg>
