<!-- Generated by IcoMoon.io -->
<svg version="1.1" xmlns="http://www.w3.org/2000/svg" width="990" height="1024" viewBox="0 0 990 1024">
<title></title>
<g id="icomoon-ignore">
</g>
<path fill="#000" d="M839.583 390.673l-29.118 12.133-12.133 26.692q0 16.986 12.133 29.118t29.118 12.133l26.692-12.133 12.133-29.118-12.133-26.692-26.692-12.133zM536.265 281.479q41.251 38.825 41.251 92.209 0 46.104-29.118 82.502t-72.796 46.104l131.033 14.559-167.431 55.81q-206.256 77.649-407.659 189.27v-201.403l135.886-43.678 230.521-16.986q-38.825-14.559-60.663-48.531-26.692-33.972-26.692-77.649 0-55.81 38.825-92.209 38.825-41.251 94.635-41.251t92.209 41.251zM594.502 55.81h-82.502v133.46h118.9l-36.398-133.46zM834.73 92.209h33.972v118.9l50.957 4.853 38.825 160.152-16.986 21.839h-7.28l-36.398-50.957q-26.692-19.412-58.237-19.412-33.972 0-60.663 19.412t-36.398 50.957h-138.313l2.427-24.265q0-67.943-48.531-114.047-46.104-48.531-114.047-48.531-53.384 0-92.209 29.118v-208.682h252.36l67.943 157.725 162.578 14.559v-111.621zM788.625 480.455q-21.839-21.839-21.839-50.957t21.839-50.957 50.957-21.839 50.957 21.839 21.839 50.957-21.839 50.957-50.957 21.839-50.957-21.839zM742.521 524.133l-169.858 135.886q-196.55 169.858-322.73 332.436h-218.389v-92.209q215.962-174.711 276.626-211.109 206.256-131.033 434.351-165.005zM769.213 672.151q-82.502 177.137-131.033 320.303h-228.095q213.535-337.289 429.498-468.322l-70.37 148.019zM941.497 992.455h-177.137l70.37-228.095q50.957-152.872 106.768-240.227v468.322zM490.161 330.009q-19.412-19.412-46.104-19.412t-46.104 19.412q-16.986 16.986-16.986 43.678t16.986 46.104q19.412 16.986 46.104 16.986t46.104-16.986q16.986-19.412 16.986-46.104t-16.986-43.678z"></path>
<path fill="none" stroke="#000" stroke-width="48.5308" stroke-miterlimit="4" stroke-linecap="square" stroke-linejoin="round" d="M834.73 92.209v111.621l-162.578-14.559-67.943-157.725h-252.36v208.682q38.825-29.118 92.209-29.118 67.943 0 114.047 48.531 48.531 46.104 48.531 114.047l-2.427 24.265h138.313q9.706-31.545 36.398-50.957t60.663-19.412q31.545 0 58.237 19.412l36.398 50.957h7.28l16.986-21.839-38.825-160.152-50.957-4.853v-118.9h-33.972M594.502 55.81l36.398 133.46h-118.9v-133.46h82.502M536.265 281.479q-36.398-41.251-92.209-41.251t-94.635 41.251q-38.825 36.398-38.825 92.209 0 43.678 26.692 77.649 21.839 33.972 60.663 48.531l-230.521 16.986-135.886 43.678v201.403q201.403-111.621 407.659-189.27l167.431-55.81-131.033-14.559q43.678-9.706 72.796-46.104t29.118-82.502q0-53.384-41.251-92.209M839.583 390.673l26.692 12.133 12.133 26.692-12.133 29.118-26.692 12.133q-16.986 0-29.118-12.133t-12.133-29.118l12.133-26.692 29.118-12.133M941.497 992.455v-468.322q-55.81 87.355-106.768 240.227l-70.37 228.095h177.137M769.213 672.151l70.37-148.019q-215.962 131.033-429.498 468.322h228.095q48.531-143.166 131.033-320.303M742.521 524.133q-228.095 33.972-434.351 165.005-60.663 36.398-276.626 211.109v92.209h218.389q126.18-162.578 322.73-332.436l169.858-135.886"></path>
</svg>
