<!-- Generated by IcoMoon.io -->
<svg version="1.1" xmlns="http://www.w3.org/2000/svg" width="1024" height="1024" viewBox="0 0 1024 1024">
<title></title>
<g id="icomoon-ignore">
</g>
<path d="M289.641 733.322l-65.932-66.773v-107.803l217.074-217.069 0.003 29.512c0.002 26.993 0.151 29.756 1.76 32.37 1.565 2.549 28.117 29.11 142.728 142.787 17.94 17.793 33.794 33.006 35.229 33.803 2.142 1.191 7.854 1.499 32.072 1.738l29.461 0.29-217.917 217.922-108.54-0.004z"></path>
<path d="M552.868 469.442l-80.714-80.166 0.051-79.037 42.443-42.409 27.094-2.383 23.497 8.36c25.286 8.996 29.744 9.831 35.098 6.565 2.764-1.685 37.859-38.375 47.329-49.479 6.288-7.374 7.079-14.911 2.189-20.864-3.263-3.973-7.17-16.544-10.134-32.584-1.432-7.752-1.219-24.579 0.375-29.062 3.058-8.63 13.354-20.97 20.639-24.734 1.695-0.879 11.036-2.777 20.757-4.22l17.674-2.626 27.888 8.904 121.703 114.043 24.014 28.5c15.107 17.926 24.416 29.767 25.1 31.925 0.596 1.884 2.489 5.995 4.21 9.14 5.624 10.273 5.636 10.738 0.929 30.811-2.305 9.807-5.131 20.382-6.284 23.498-2.075 5.593-6.176 11.016-9.881 13.060-1.046 0.581-13.044 1.972-26.656 3.097-24.277 2.007-24.894 2.011-31.893 0.29-9.349-2.291-12.145-3.452-16.319-6.762-3.803-3.013-9.172-4.155-14.668-3.123-2.928 0.549-7.665 4.692-29.246 25.582-25.435 24.617-28.314 28.055-28.314 33.748 0 1.477 4.302 14.846 9.557 29.717 10.57 29.89 12.751 39.215 10.115 43.246-0.877 1.335-11.333 12.505-23.244 24.82l-21.655 22.394-80.924-0.082z"></path>
<path d="M118.896 731.98c-0.046-3.116-0.583-14.986-1.19-26.382l-1.104-20.714 21.891-40.929 53.801-53.775v76.351l-24.516 23.671c-13.485 13.016-29.982 29.019-36.658 35.555l-12.142 11.891z"></path>
<path d="M254.543 885.2c-1.63-0.675-114.236-115.057-116.164-117.996l-1.694-2.585 10.942-10.58c6.021-5.821 22.023-21.293 35.552-34.385l24.61-23.805 118.664 119.961-34.943 34.989c-19.22 19.241-35.157 34.953-35.426 34.911s-0.956-0.267-1.541-0.51z"></path>
<path d="M308.92 906.028c-13.612-0.754-24.951-1.569-25.191-1.798s15.824-16.692 35.696-36.569l36.132-36.14h77.114l-53.826 53.855-20.952 11.159c-11.522 6.135-21.689 11.091-22.588 11.017s-12.781-0.757-26.392-1.517z"></path>
</svg>
