<!-- Generated by IcoMoon.io -->
<svg version="1.1" xmlns="http://www.w3.org/2000/svg" width="1251" height="1024" viewBox="0 0 1251 1024">
<title></title>
<g id="icomoon-ignore">
</g>
<path fill="#000" d="M682.666 763.345v-173.77h-527.515v173.77h527.515zM1089.163 589.576h-263.757v173.77h263.757v-173.77zM1210.181 456.145v83.782h-52.751v443.733h-406.497v-105.503h-266.86v105.503h-394.085v-443.733h-49.648v-83.782h961.939v-192.388h49.648v-71.37h-49.648v-34.133h49.648v-71.37h-49.648v-46.545h68.267v415.806h139.636z"></path>
<path fill="none" stroke="#000" stroke-width="62.0606" stroke-miterlimit="4" stroke-linecap="square" stroke-linejoin="round" d="M1210.181 456.145h-139.636v-415.806h-68.267v46.545h49.648v71.37h-49.648v34.133h49.648v71.37h-49.648v192.388h-961.939v83.782h49.648v443.733h394.085v-105.503h266.86v105.503h406.497v-443.733h52.751v-83.782M1089.163 589.576v173.77h-263.757v-173.77h263.757M682.666 763.345h-527.515v-173.77h527.515v173.77"></path>
</svg>
