<!-- Generated by IcoMoon.io -->
<svg version="1.1" xmlns="http://www.w3.org/2000/svg" width="1024" height="1024" viewBox="0 0 1024 1024">
<title></title>
<g id="icomoon-ignore">
</g>
<path d="M864.829 830.342l-161.824-116.725-13.264-42.446 191.005-159.171-164.477 61.016-31.834-74.28-42.446-21.223 122.031-122.031 156.518-5.306-180.394-26.528-225.492-87.544-103.461 37.14-42.446-21.223 26.528-47.751 132.642-79.585-148.56 55.71-161.824-45.098q124.684-100.808 291.813-100.808 198.964 0 339.565 140.601 140.601 137.948 140.601 334.259 0 183.047-124.684 320.995zM34.487 509.347q0-212.228 159.171-355.482l108.767 55.71-82.238 127.337-58.363-7.959 58.363 31.834 169.782-10.611 76.933 66.321-31.834-74.28 58.363-7.959 111.42 37.14-71.627 92.85-313.036 50.404 366.093 26.528 66.321 50.404-55.71 66.321h-98.155l74.28 53.057-172.435 90.197 212.228-47.751 225.492 103.461q-137.948 132.642-328.953 132.642-196.311 0-336.912-140.601-137.948-140.601-137.948-339.565z"></path>
</svg>
