<!-- Generated by IcoMoon.io -->
<svg version="1.1" xmlns="http://www.w3.org/2000/svg" width="1435" height="1024" viewBox="0 0 1435 1024">
<title></title>
<g id="icomoon-ignore">
</g>
<path d="M850.381 698.020l-28.346 14.173q38.976 14.173 38.976 49.606l-17.716 35.433-38.976 17.716-38.976-17.716-17.716-35.433 3.543-10.63-99.211 56.692 56.692 85.038q42.519 28.346 95.668 28.346 63.779 0 113.384-49.606 46.062-46.062 46.062-109.841l-14.173-63.779h-99.211zM1279.114 56.692l7.087-10.63 17.716 10.63v3.543h3.543l24.803 21.26 49.606 109.841q14.173 21.26 0 28.346v24.803l-14.173 3.543-10.63-7.087v-3.543l-134.644 88.581-170.076 106.298v265.744h-46.062l7.087 63.779q0 88.581-56.692 152.36-63.779 63.779-152.36 63.779-70.865 0-124.014-35.433-53.149-38.976-77.952-102.754l-216.138 127.557h-340.152v-60.235q14.173-42.519 56.692-42.519 35.433 0 56.692 42.519h3.543l145.273-46.062 81.495-109.841-46.062 17.716q-24.803 10.63-46.062-17.716l-14.173-31.889q-28.346 3.543-42.519-24.803-17.716-24.803 3.543-53.149l-14.173-31.889-3.543-28.346 17.716-17.716q248.028-138.187 627.156-308.263l403.931-177.163v-3.543l3.543-17.716z"></path>
</svg>
