<!-- Generated by IcoMoon.io -->
<svg version="1.1" xmlns="http://www.w3.org/2000/svg" width="1024" height="1024" viewBox="0 0 1024 1024">
<title></title>
<g id="icomoon-ignore">
</g>
<path fill="#000" d="M279.687 98.821c-3.962-3.968-7.201-7.36-7.201-7.538 0-0.401 15.764-12.78 15.965-12.538 0.080 0.097 2.934 3.34 6.341 7.208 3.581 4.064 6.129 7.381 6.037 7.856-0.137 0.716-8.885 8.519-12.632 11.267l-1.306 0.959z"></path>
<path fill="#000" d="M276.162 100.884c-7.116-7.125-8.249-8.477-8.249-9.836 0-1.45 0.783-2.176 9.749-9.035 8.255-6.316 9.984-7.435 11.286-7.306 1.308 0.129 2.613 1.467 8.79 9.013 6.054 7.395 7.254 9.136 7.254 10.525 0 1.515-0.686 2.254-7.699 8.282-7.696 6.617-7.699 6.618-10.291 6.618h-2.594z"></path>
<path fill="#000" d="M168.271 128.157c-8.274-4.147-11.090-6.024-11.090-7.388 0-0.691 29.957-22.292 30.915-22.292 0.75 0 2.242 2.159 6.118 8.859 2.819 4.872 5.126 9.072 5.126 9.336 0 0.53-4.050 3.645-13.968 10.74-3.631 2.599-6.832 4.899-7.111 5.112s-4.775-1.752-9.99-4.367z"></path>
<path fill="#000" d="M172.082 134.235c-10.597-5.585-20.506-10.998-20.695-11.305-0.12-0.193-0.064-1.080 0.123-1.971 0.299-1.423 2.427-3.137 17.561-14.141 15.414-11.208 18.871-13.422 20.96-13.422 0.937 0 13.982 23.16 13.791 24.484-0.117 0.812-3.486 3.5-12.094 9.654-13.86 9.909-13.676 9.845-19.647 6.699z"></path>
<path fill="#000" d="M243.356 157.992c-0.741-0.819-0.84-2.63-0.84-15.148v-14.22l7.34-3.391c6.523-3.014 7.685-3.391 10.449-3.391 3.004 0 3.237 0.098 6.883 2.905l3.773 2.905-0.017 8.667-7.484 7.714c-5.606 5.779-8.81 8.614-12.773 11.302-2.909 1.974-5.56 3.587-5.89 3.587s-0.979-0.418-1.441-0.929z"></path>
<path fill="#000" d="M240.31 163.58c-0.748-0.828-0.84-2.897-0.84-18.988v-18.059l14.134-7.738 12.532 0.006 3.556 2.836c1.955 1.559 3.633 2.911 3.726 3.003s0.569 2.007 1.057 4.253l0.887 4.085-2.074 4.822c-2.072 4.821-2.077 4.827-9.381 11.574-5.426 5.014-9.019 7.831-13.957 10.943-3.658 2.304-7.133 4.191-7.725 4.191s-1.455-0.418-1.918-0.929zM257.5 150.288c0.505-0.558 0.804-1.017 0.666-1.017s-0.667 0.457-1.174 1.017c-0.505 0.558-0.804 1.017-0.666 1.017s0.667-0.457 1.174-1.017z"></path>
<path fill="#000" d="M336.056 137.198c0.282-0.68 10.386-9.705 16.534-14.769l5.694-4.69 53.883-0.981 8.508 4.32c7.535 3.824 8.815 4.663 11.188 7.324l2.678 3.006-1.409 0.274c-3.757 0.73-24.63 1.983-52.204 3.135-27.279 1.14-36.803 1.701-43.094 2.54-1.073 0.143-1.874 0.072-1.777-0.157z"></path>
<path fill="#000" d="M330.664 140.161c-0.27-0.437 0.427-4.513 0.823-4.813 0.095-0.072 5.673-4.838 12.396-10.589l12.225-10.46 59.379-0.237 7.215 3.796c5.677 2.986 8.302 4.744 12.309 8.24 4.793 4.181 5.093 4.559 5.093 6.389 0 2.226 0.193 2.137-6.603 3.045-3.254 0.435-96.152 5.104-101.547 5.104-0.549 0-1.13-0.214-1.291-0.476z"></path>
<path fill="#000" d="M399.365 165.375c-3.255-3.012-3.441-3.313-4.23-6.829l-0.825-3.678 6.858-7.883 32.293-3.623c26.393-2.962 32.421-3.505 32.987-2.97 0.583 0.547 0.106 2.415-2.964 11.624-3.109 9.326-3.823 11.009-4.757 11.213-2.883 0.633-8.48 1.417-23.523 3.301-13.102 1.64-17.918 2.039-24.381 2.021l-8.053-0.023z"></path>
<path fill="#000" d="M400.739 171.082c-4.278-1.915-4.71-2.253-6.73-5.245l-2.159-3.198v-10.563l2.159-3.163c3.572-5.234 3.23-5.157 42.633-9.532 33.071-3.672 33.18-3.681 34.282-2.685l1.105 0.998-4.835 14.297c-2.66 7.862-4.928 14.392-5.044 14.509-0.413 0.424-45.805 6.023-51.253 6.322l-5.588 0.307z"></path>
<path fill="#000" d="M369.402 195.875c-1.285-3.143-3.151-7.6-4.147-9.905l-1.81-4.191 1.631-0.005c7.604-0.020 44.976-2.3 57.946-3.534 8.902-0.848 16.945-1.54 17.875-1.54h1.687l-0.753 2.159c-0.415 1.188-2.203 4.102-3.976 6.476-3.221 4.315-3.224 4.319-10.517 8.201-6.955 3.701-7.717 3.98-16.333 5.968l-9.036 2.086h-30.229z"></path>
<path fill="#000" d="M373.148 204.651c-2.325-0.494-4.429-1.102-4.677-1.35-0.89-0.89-9.121-21.807-9.125-23.188-0.002-0.776 0.282-1.504 0.631-1.617s8.406-0.452 17.904-0.756c12.586-0.402 23.95-1.158 41.905-2.789l24.635-2.237 1.425 1.353c0.801 0.761 1.328 1.72 1.205 2.192-0.12 0.461-1.843 3.801-3.826 7.42l-3.606 6.579-6.331 4.194c-5.974 3.957-6.829 4.353-15.123 6.985l-8.79 2.791-14.476 0.689c-17.466 0.833-16.529 0.843-21.751-0.267z"></path>
<path fill="#000" d="M308.14 187.379c-3.962-0.959-7.315-2.496-7.066-3.241 0.083-0.249 3.456-3.16 7.496-6.469 5.711-4.677 7.683-6.018 8.868-6.027s3.107 1.246 8.636 5.636c3.912 3.107 7.179 5.825 7.264 6.040 0.274 0.703-9.178 3.502-14.498 4.291-6.143 0.912-5.959 0.915-10.697-0.231z"></path>
<path fill="#000" d="M301.877 188.888c-4.729-2.406-4.902-2.555-5.143-4.418-0.309-2.382-0.697-1.985 9.749-10l8.346-6.405 5.656 0.011 8.636 6.738c8.491 6.626 8.633 6.768 8.458 8.502-0.097 0.97-0.365 2.114-0.594 2.543-0.237 0.443-3.723 1.819-8.035 3.176l-7.618 2.395-14.56-0.051z"></path>
<path fill="#000" d="M198.626 177.712c-3.251-4.222-5.792-7.869-5.647-8.102 0.387-0.625 12.416-9.164 12.911-9.164 0.231 0 0.58 3.371 0.776 7.493 0.313 6.6 0.228 8.065-0.717 12.301-0.589 2.644-1.149 4.886-1.243 4.98s-2.83-3.285-6.080-7.507z"></path>
<path fill="#000" d="M196.943 181.731c-5.285-6.961-8.569-11.735-8.647-12.571-0.112-1.213 0.739-1.95 8.488-7.346 8.121-5.656 8.737-5.99 10.792-5.842l2.18 0.157 0.267 36.825h-4.557z"></path>
<path fill="#000" d="M141.689 163.426c-4.47-0.53-13.338-1.504-19.707-2.166s-11.724-1.345-11.899-1.522c-0.176-0.176 0.041-4.342 0.479-9.258 0.602-6.748 0.998-9.139 1.615-9.757 1.342-1.342 12.296 1.623 21.758 5.89l7.529 3.394 5.828 5.9c4.489 4.545 5.828 6.21 5.828 7.25 0 1.635 0.103 1.632-11.428 0.267z"></path>
<path fill="#000" d="M145.246 166.996c-4.47-0.218-14.434-1.068-22.143-1.886-16.655-1.77-16.715-1.791-16.713-6.119 0.003-6.637 1.317-19.761 2.276-22.742 0.327-1.018 10.591 1.172 19.817 4.23 7.981 2.644 9.108 3.177 14.892 7.038 6.051 4.038 6.381 4.354 10.033 9.594 3.456 4.961 3.774 5.631 3.774 7.933v2.515l-1.905-0.081c-1.048-0.045-5.561-0.26-10.033-0.479z"></path>
<path fill="#000" d="M92.524 233.358c-2.992-4.317-5.438-8.079-5.438-8.358 0-0.56 21.45-15.284 22.265-15.284 0.281 0 2.471 3.422 4.867 7.605 3.103 5.413 4.353 8.085 4.337 9.27-0.020 1.57-0.533 2.030-9.1 8.141-5.519 3.937-9.552 6.476-10.287 6.476-0.985 0-2.211-1.447-6.646-7.85z"></path>
<path fill="#000" d="M89.645 235.788l-6.785-9.99 0.717-1.95c0.639-1.74 2.025-2.844 12.887-10.26l12.172-8.31 2.052 0.87c1.905 0.808 2.424 1.536 7.257 10.187 5.508 9.858 6.222 12.142 4.317 13.815-0.49 0.429-5.642 4.122-11.45 8.205-9.063 6.372-10.832 7.426-12.471 7.426h-1.91z"></path>
<path fill="#000" d="M146.462 244.051c-2.346-0.7-4.69-1.816-5.968-2.844l-2.105-1.692v-3.57c0-3.499 0.069-3.686 3.413-9.304 2.406-4.044 3.531-5.522 3.815-5.016 0.483 0.862 4.785 18.423 5.263 21.49 0.186 1.188 0.137 2.144-0.108 2.123s-2.184-0.553-4.309-1.186z"></path>
<path fill="#000" d="M141.064 245.894l-4.69-2.367-1.268-3.768c-1.25-3.721-1.257-3.81-0.433-7.128 0.624-2.512 1.852-4.93 4.866-9.582l4.032-6.222h4.822l3.594 14.604c4.344 17.652 4.436 16.905-2.053 16.86-3.937-0.028-4.451-0.167-8.868-2.396z"></path>
<path fill="#000" d="M178.516 266.879v-9.884l2.159-0.555c1.188-0.306 3.318-0.879 4.733-1.277s11.93-2.672 23.366-5.054c11.436-2.384 21.077-4.439 21.426-4.568 1.087-0.402 0.714 0.755-1.612 5.016-1.717 3.145-3.424 5.259-7.239 8.965-4.46 4.334-5.692 5.207-11.595 8.21-5.532 2.814-8.269 3.82-16.874 6.197-5.648 1.561-11.193 2.837-12.318 2.837h-2.047z"></path>
<path fill="#000" d="M175.739 266.733c0.2-7.194 0.435-13.16 0.521-13.258s3.087-0.822 6.667-1.607c3.58-0.786 14.407-3.162 24.063-5.281 14.789-3.246 18.289-3.854 22.223-3.854h4.668v6.785l-8.382 12.362-16.255 10.792-11.266 3.57c-11.157 3.536-11.32 3.57-16.935 3.57h-5.669z"></path>
<path fill="#000" d="M180.329 379.774c0.828-2.346 3.076-39.792 3.687-61.429l0.34-12.006 18.579 18.174-1.183 33.776-5.714 13.11-5.832 5.254c-5.664 5.103-5.901 5.254-8.232 5.254h-2.399z"></path>
<path fill="#000" d="M176.375 383.84c-0.661-0.996-0.61-1.637 0.472-5.968 1.113-4.456 1.333-7.594 2.688-38.376 0.811-18.438 1.486-34.61 1.498-35.936l0.023-2.413h2.084c2.045 0 2.287 0.206 12.825 10.984 5.907 6.041 10.887 11.241 11.065 11.556s-0.103 7.658-0.624 16.317c-0.946 15.72-0.951 15.759-3.092 23.261l-2.144 7.516-13.603 14.175h-5.226c-4.818 0-5.284-0.087-5.967-1.116z"></path>
<path fill="#000" d="M145.5 382.022c0-0.203 0.351-2.198 0.78-4.432s1.657-11.27 2.731-20.081c1.823-14.961 2.056-16.224 3.536-19.155 1.378-2.73 1.835-3.205 3.519-3.659 4.241-1.141 5.268-1.179 8.205-0.288l2.956 0.895 4.624 9.778-1.227 16.762c-0.675 9.219-1.232 17.368-1.238 18.107l-0.012 1.345-6.222 0.29c-3.422 0.159-8.793 0.405-11.936 0.547s-5.714 0.092-5.714-0.112z"></path>
<path fill="#000" d="M142.96 380.218c0-4.359 3-28.609 4.802-38.83 0.706-3.999 0.882-4.359 3.684-7.491l2.942-3.29h5.516c5.162 0 5.702 0.098 8.389 1.531l2.873 1.531 4.68 12.493-1.437 14.951c-0.79 8.224-1.448 16.952-1.459 19.396l-0.022 4.445h-29.968z"></path>
<path fill="#000" d="M131.247 371.124c-1.743-2.021-5.337-6.925-7.986-10.901l-4.816-7.228 0.663-2.178c0.418-1.372 0.772-6.551 0.956-13.986l0.293-11.808 9.142 8.272c5.028 4.549 9.141 8.492 9.138 8.76s-0.306 6.317-0.672 13.441c-0.546 10.616-0.861 13.525-1.738 16.127-0.589 1.746-1.238 3.174-1.442 3.174s-1.794-1.653-3.538-3.673z"></path>
<path fill="#000" d="M130.274 375.939c-1.706-1.886-5.719-7.2-8.916-11.81l-5.814-8.382-0.014-36.318h5.363l22.12 22.203-0.299 2.487c-0.165 1.367-0.861 8.428-1.547 15.692s-1.456 14.007-1.71 14.984c-0.254 0.978-0.603 2.406-0.775 3.174-0.29 1.292-0.5 1.397-2.809 1.397-2.437 0-2.571-0.081-5.599-3.428z"></path>
<path fill="#000" d="M129.589 280.067c-4.42-2.655-8.191-4.832-8.382-4.835s-0.652-0.203-1.026-0.44c-0.524-0.332 0.41-2.19 4.013-7.992 2.582-4.158 4.973-7.865 5.313-8.237 0.505-0.553 1.944 0.285 7.851 4.571 3.979 2.887 7.532 5.463 7.895 5.726 0.514 0.371-0.106 2.002-2.806 7.365-1.907 3.789-3.773 7.289-4.146 7.78-0.625 0.822-1.299 0.518-8.714-3.937z"></path>
<path fill="#000" d="M125.59 282.49c-7.030-4.28-9.103-5.786-9.513-6.914-0.482-1.325-0.045-2.256 5.433-11.546l5.957-10.104 2.186-0.009c2.025-0.008 2.852 0.494 11.302 6.882 7.674 5.8 9.116 7.098 9.116 8.199 0 0.962-8.137 16.738-9.492 18.402-0.1 0.122-1.49 0.299-3.092 0.393-2.909 0.17-2.914 0.168-11.899-5.302z"></path>
<path fill="#000" d="M570.763 127.811c-2.805-7.825-6.827-20.254-6.623-20.458 0.441-0.441 18.481 1.451 19.075 2.002 0.505 0.466 0.318 2.348-0.914 9.203-0.851 4.74-1.897 9.704-2.326 11.030l-0.778 2.413h-6.933z"></path>
<path fill="#000" d="M569.336 134.477c-0.741-1.199-9.866-29.072-9.866-30.137 0-1.001 0.257-1.291 1.143-1.288 2.997 0.006 21.248 2.097 23.483 2.689l2.53 0.67-0.161 5.826c-0.114 4.094-0.65 8.163-1.805 13.684l-1.645 7.858-3.265 0.34c-5.652 0.588-10.178 0.742-10.415 0.359z"></path>
<path fill="#000" d="M688.74 162.456c-9.423-4.977-23.961-10.572-48.080-18.501-13.037-4.286-21.383-7.287-22.011-7.914-1.009-1.007-1.006-1.024 1.017-8.968 1.115-4.376 2.387-8.408 2.828-8.957 0.787-0.979 1.169-0.881 19.225 4.941 16.853 5.435 19.25 6.353 28.15 10.787 9.546 4.757 9.821 4.939 14.721 9.755 4.267 4.195 5.346 5.61 7.427 9.733 1.339 2.654 2.702 6.079 3.028 7.61s0.723 3.304 0.881 3.937c0.159 0.633 0.094 1.132-0.147 1.107s-3.408-1.614-7.039-3.533z"></path>
<path fill="#000" d="M692.197 168.119c-4.805-3.519-31.144-13.79-55.52-21.651-11.874-3.829-21.987-7.172-22.477-7.431s-0.889-0.92-0.889-1.469c0-2.187 5.689-23.133 6.511-23.969 0.815-0.831 1.609-0.652 14.827 3.343 7.68 2.321 19.336 6.286 25.901 8.812 11.087 4.262 12.466 4.938 19.374 9.473 6.958 4.568 7.671 5.189 11.034 9.604 4.292 5.636 7.222 12.201 8.442 18.918 0.457 2.515 0.946 4.972 1.088 5.46 0.225 0.776-0.118 0.886-2.697 0.867-2.604-0.020-3.269-0.253-5.594-1.957z"></path>
<path fill="#000" d="M638.906 210.216c-4.78-1.33-11.695-3.358-15.365-4.507s-9.671-3.026-13.335-4.174l-6.662-2.084 0.341-2.569c0.327-2.465 3.647-15.904 4.117-16.663 0.466-0.755 8.428 1.794 26.54 8.494 15.375 5.687 38.665 15.471 40.406 16.974 0.237 0.204-0.815 1.291-2.339 2.417-4.27 3.154-10.463 4.68-18.664 4.598-5.921-0.059-6.935-0.226-15.040-2.482z"></path>
<path fill="#000" d="M622.047 209.011c-13.93-4.478-21.336-7.098-22.040-7.803l-1.060-1.060 2.901-11.626c1.596-6.395 3.089-11.93 3.318-12.299 0.814-1.316 7.17 0.532 28.716 8.349 14.407 5.228 25.251 9.526 33.401 13.243l12.067 5.503-0.292 1.802c-0.744 4.591-0.346 4.169-7.103 7.535l-6.338 3.157-22.592-0.058z"></path>
<path fill="#000" d="M750.418 238.59c-27.368-21.331-53.449-37.022-85.247-51.285-13.104-5.878-17.522-8.096-19.406-9.743l-2.44-2.131-0.045-7.647 6.027-5.305h12.31l22.196 10.853c19.978 9.768 23.755 11.819 37.793 20.531 12.242 7.596 18.896 12.172 30.929 21.259 8.433 6.369 17.814 13.857 20.848 16.638l5.516 5.058v3.090c0 2.82-0.2 3.388-2.297 6.514l-2.297 3.424h-9.449z"></path>
<path fill="#000" d="M761.884 252.25c-1.397-0.873-7.111-5.287-12.699-9.811-6.874-5.564-15.731-11.961-27.39-19.78-17.164-11.511-17.313-11.598-39.111-22.63-13.165-6.663-25.070-12.318-29.886-14.195l-8.006-3.12-5.898-7.563 1.427-9.373 6.076-6.193 15.561-1.196 52.179 25.773 19.169 12.759c15.541 10.343 21.704 14.805 32.561 23.57l13.392 10.811 3.795 8.865-3.205 9.619-3.753 2.060c-3.511 1.927-4.008 2.058-7.714 2.025-3.522-0.031-4.242-0.21-6.5-1.621z"></path>
<path fill="#000" d="M794.646 237.128c-16.733-16.489-21.152-20.534-30.614-28.038l-11.058-8.77 1.66-0.75c1.115-0.504 3.896-0.809 8.455-0.929l6.793-0.179 7.683 2.671c7.058 2.454 8.255 3.062 14.724 7.479 6.18 4.222 8.859 6.582 21.933 19.337l14.892 14.529-6.941 6.985c-3.818 3.842-7.173 6.974-7.457 6.96s-9.315-8.696-20.070-19.293z"></path>
<path fill="#000" d="M790.329 238.64c-20.456-19.987-23.911-23.14-32.888-30.009-9.52-7.284-10.033-7.763-10.033-9.381 0-1.35 0.237-1.76 1.143-1.971 6.386-1.483 9.343-1.787 17.373-1.787h8.799l9.473 4.552c12.236 5.881 16.414 9.119 34.706 26.897l13.841 13.452v2.169c0 2.113-0.204 2.378-7.936 10.312-7.412 7.605-8.057 8.141-9.778 8.12-1.734-0.022-3.19-1.339-24.699-22.355z"></path>
<path fill="#000" d="M753 284.481c-14.922-15.249-15.408-15.81-19.036-21.981-3.388-5.761-3.828-6.835-4.885-11.916-1.060-5.093-1.102-5.864-0.49-8.749 0.369-1.74 0.89-3.165 1.155-3.165 0.954 0 22.26 18.642 37.617 32.912l15.637 14.53-6.996 7.010c-3.848 3.856-7.151 7.010-7.343 7.010s-7.239-7.042-15.661-15.65z"></path>
<path fill="#000" d="M749.944 287.050l-16.348-16.635-3.829-7.619c-3.446-6.854-3.923-8.168-4.75-13.087-0.836-4.963-0.853-5.831-0.189-9.396 1.227-6.584 1.040-6.214 3.162-6.213 1.646 0.002 2.931 0.806 9.768 6.113 4.33 3.361 17.186 14.618 28.567 25.014 19.717 18.010 20.695 18.986 20.698 20.686 0.005 1.628-0.694 2.48-8.001 9.778l-8.006 7.993h-4.724z"></path>
<path fill="#000" d="M827.433 368.1c-4.733-2.161-6.383-3.26-11.069-7.381-4.933-4.337-6.807-6.561-17.974-21.328-6.857-9.068-12.39-16.545-12.296-16.617s3.324-2.797 7.178-6.055c4.378-3.701 7.427-5.92 8.127-5.914 0.903 0.008 4.047 4.283 16.16 21.969 8.845 12.914 16.772 25.096 19.247 29.577 2.314 4.191 4.303 7.791 4.42 8s-1.688 0.36-4.010 0.334c-3.937-0.044-4.595-0.218-9.783-2.585z"></path>
<path fill="#000" d="M824.784 371.032c-4.301-2.016-6.83-3.631-10.464-6.685-4.309-3.62-6.132-5.804-18.074-21.654-13.115-17.405-13.282-17.658-13.282-20.087v-2.459l7.869-6.448c7.376-6.044 8.035-6.469 10.549-6.763l2.68-0.315 14.264 20.5c9.941 14.287 16.27 23.983 20.885 31.989l6.621 11.489-2.014 3.18-13.361-0.090z"></path>
<path fill="#000" d="M880.468 347.269c-3.921-8.439-17.939-30.247-30.38-47.261-7.286-9.964-11.788-16.57-11.788-17.29 0-1.077 2.853-3.645 13.536-12.183l1.123-0.898 12.041 16.897c11.671 16.38 12.203 17.231 17.306 27.769l5.265 10.871v19.013l-2.159 3.876c-1.188 2.131-2.297 3.876-2.466 3.876s-1.283-2.102-2.477-4.671z"></path>
<path fill="#000" d="M877.52 349.781c-4.733-9.76-18.545-31.241-31.598-49.143-12.131-16.638-12.195-16.737-12.187-18.497 0.005-0.862 0.176-1.813 0.38-2.116s4.298-3.673 9.097-7.493c6.595-5.248 9.077-6.943 10.17-6.943 1.322 0 2.515 1.512 13.919 17.65 10.904 15.43 13.137 18.929 17.748 27.809l5.276 10.159 0.943 22.050-6.364 14.777h-1.692c-1.682 0-1.712-0.042-5.694-8.254z"></path>
<path fill="#000" d="M845.487 358.301l-11.674-23.607 0.371-2.678c0.518-3.739 1.339-4.805 5.207-6.768l3.378-1.713 9.842 3.299 3.637 4.403c5.089 6.16 12.742 20.195 19.332 35.453 2.961 6.855 5.383 13.084 5.383 13.841v1.377h-23.804z"></path>
<path fill="#000" d="M852.925 382.543c-7.555-17.154-11.66-25.586-16.308-33.501l-5.43-9.247v-6.166c0-7.477 0.432-8.447 4.874-10.937 2.936-1.646 3.354-1.735 8.057-1.735h4.959l8.573 5.179 5.546 8.296c4.964 7.426 6.327 10.015 13.004 24.713 6.74 14.833 9.256 21.627 9.323 25.179 0.009 0.494-3.475 0.635-15.762 0.635h-15.775z"></path>
<path fill="#000" d="M927.277 494.701c-0.621-0.659-1.104-1.835-1.104-2.677 0-1.342 0.904-2.201 8.508-8.079 6.504-5.030 8.866-6.581 10.033-6.593 1.512-0.014 1.525 0.008 1.646 3.032 0.067 1.676 0.497 5.056 0.956 7.51s0.731 4.565 0.606 4.688c-0.125 0.125-3.411 0.694-7.304 1.264s-7.878 1.26-8.857 1.531c-2.61 0.722-3.26 0.624-4.482-0.678z"></path>
<path fill="#000" d="M923.654 493.21l0.020-5.714 9.2-6.857c13.841-10.318 12.187-9.329 14.208-8.486l1.737 0.727 3.205 20.712-1.116 1.085c-1.509 1.469-16.473 4.253-22.831 4.25l-4.445-0.003z"></path>
<path fill="#000" d="M919.356 613.846c0.171-0.769 0.525-2.197 0.784-3.174s1.149-10.349 1.977-20.826c1.3-16.434 1.508-21.644 1.511-37.968l0.005-18.921h19.809v39.635l-1.846 10.279c-1.788 9.962-1.936 10.461-4.816 16.219-2.959 5.92-2.99 5.959-8.899 11.048-4.532 3.905-6.272 5.107-7.385 5.107-1.325 0-1.428-0.125-1.143-1.397z"></path>
<path fill="#000" d="M914.904 621.074c-0.145-0.145 0.047-2.031 0.427-4.191s1.386-9.184 2.237-15.609c1.374-10.386 1.654-14.839 2.526-40.127 0.539-15.645 0.985-29.416 0.99-30.603l0.008-2.159h25.226l0.68 1.269c0.571 1.068 0.499 5.603-0.451 28.571l-1.13 27.302-2.317 7.619c-2.282 7.507-2.382 7.708-6.788 13.715l-4.471 6.096-6.723 4.191c-4.746 2.958-7.198 4.191-8.336 4.191-0.887 0-1.732-0.118-1.877-0.263z"></path>
<path fill="#000" d="M869.143 600.736l-4.967-5.129-4.911-14.142-0.589-17.778c-0.324-9.778-0.709-18.935-0.857-20.349l-0.268-2.571 10.14-7.809h10.734l0.005 3.937c0.003 2.166-0.345 15.823-0.772 30.349-0.659 22.422-0.939 27.296-1.851 32.254-0.591 3.213-1.215 5.96-1.386 6.105s-2.548-2.044-5.279-4.866z"></path>
<path fill="#000" d="M866.885 603.941l-5.684-5.714-4.969-13.715-0.616-23.582c-0.507-19.398-0.497-23.651 0.048-23.966 0.366-0.212 2.823-1.885 5.461-3.72l4.797-3.335h16.565l-0.012 8.508c-0.008 4.679-0.674 20.622-1.483 35.428-1.269 23.218-1.626 27.491-2.596 31.061-1.046 3.849-1.232 4.163-2.644 4.445-2.788 0.558-3.159 0.332-8.87-5.41z"></path>
<path fill="#000" d="M856.695 713.64c-2.521-2.554-2.649-2.813-2.649-5.368 0-2.35 0.759-4.347 6.083-16.012 8.141-17.833 16.247-41.574 21.437-62.796 3.205-13.107 3.815-16.493 6.448-35.81l2.908-21.334 1.846-2.844c1.77-2.727 1.975-2.872 4.972-3.508 2.735-0.58 3.461-0.557 5.815 0.186 2.568 0.809 2.777 1.012 4.573 4.431l1.883 3.583-1.62 14.568c-1.49 13.408-2.024 16.409-6.687 37.679-4.397 20.050-5.711 25.131-9.927 38.35-4.521 14.18-5.394 16.384-12.563 31.732l-7.703 16.493-2.764 1.662c-2.37 1.425-3.238 1.664-6.083 1.665l-3.319 0.002z"></path>
<path fill="#000" d="M862.172 720.371c-0.978-0.175-3.492-1.116-5.588-2.092-3.622-1.688-3.854-1.901-4.701-4.28-0.594-1.667-0.89-3.994-0.889-6.972l0.003-4.47 6.149-13.054c8.478-18.001 14.922-37.061 20.985-62.071 4.018-16.574 4.392-18.611 6.89-37.564l2.641-20.040 6.634-7.412h11.448l6.967 7.189-0.173 4.152c-0.095 2.284-0.476 9.409-0.845 15.834l-0.672 11.682-5.076 23.397c-4.894 22.553-5.299 24.074-11.241 42.159-5.787 17.616-6.607 19.707-13.422 34.22l-7.259 15.458-5.037 2.089c-3.957 1.642-5.419 2.022-6.816 1.773z"></path>
<path fill="#000" d="M818.871 725.671c-5.94-3.866-7.493-5.111-7.493-6.006 0-0.621 4.57-8.848 10.154-18.283 9.788-16.535 10.36-17.374 15.832-23.222 5.148-5.502 6.161-6.327 10.851-8.843 4.658-2.499 5.483-2.775 8.294-2.775 2.275 0 3.121 0.186 3.121 0.683 0 2.044-3.154 8.714-13.958 29.515-14.39 27.706-17.585 33.5-18.565 33.674-0.412 0.073-4.119-2.061-8.24-4.744z"></path>
<path fill="#000" d="M827.324 734.669c-0.868-0.173-5.84-2.937-11.048-6.141-9.301-5.725-9.47-5.859-9.47-7.563 0-1.333 2.423-5.929 10.45-19.824 10.137-17.546 10.633-18.293 16.551-24.945 6.087-6.843 6.113-6.863 11.885-9.775 5.781-2.915 5.787-2.917 11.61-3.251l5.826-0.332 0.282 1.219c1.017 4.397 1.115 4.149-10.837 27.631-9.088 17.856-23.149 43.705-23.587 43.362-0.047-0.037-0.795-0.209-1.664-0.38z"></path>
<path fill="#000" d="M872.231 761.899l-7.973-4.205 9.694-19.035c9.013-17.695 21.393-45.093 22.773-50.395 0.31-1.19 0.784-3.020 1.057-4.068 0.394-1.523 0.733-1.905 1.69-1.905 1.052 0 1.478 0.702 3.516 5.795 1.837 4.59 2.484 7.045 3.115 11.81l0.797 6.015-4.44 20.826-18.916 39.111-1.67 0.129c-1.261 0.097-3.615-0.898-9.643-4.077z"></path>
<path fill="#000" d="M870.427 765.289l-9.27-4.86v-2.247c0-1.907 1.573-5.393 10.396-23.034 10.862-21.719 19.431-41.237 22.65-51.589l1.894-6.096 5.441-0.27 7.331 14.493 0.973 18.727-4.839 19.895-19.293 39.6-3.006 0.12c-2.906 0.115-3.315-0.042-12.276-4.74z"></path>
<path fill="#000" d="M801.974 841.563l-0.9-4.284 1.977-2.245c1.088-1.235 5.538-5.993 9.889-10.574s13.926-15.756 21.275-24.836c7.351-9.080 13.431-16.587 13.512-16.682 0.125-0.147 14.842 10 16.153 11.135 0.242 0.209-5.016 6.985-11.682 15.054-9.535 11.543-13.94 16.403-20.644 22.773-8.458 8.039-8.57 8.121-14.73 10.999-5.815 2.717-6.451 2.901-10.079 2.92l-3.871 0.020z"></path>
<path fill="#000" d="M799.969 846.82c-0.776-1.978-1.832-5.229-2.343-7.223-0.879-3.419-0.884-3.681-0.065-4.626 0.477-0.55 5.948-6.35 12.158-12.886 8.060-8.484 14.883-16.378 23.843-27.586 10.107-12.644 12.786-15.701 13.754-15.701 0.709 0 5.248 2.763 11.057 6.73 9.629 6.576 9.855 6.771 9.863 8.508 0.008 1.584-1.484 3.578-13.675 18.286-11.579 13.968-14.836 17.552-21.178 23.291-6.888 6.235-8.020 7.045-13.977 10.031-5.89 2.951-6.978 3.318-11.913 4.011-2.986 0.419-5.583 0.762-5.769 0.762s-0.974-1.62-1.751-3.598z"></path>
<path fill="#000" d="M784.007 786.291c-0.234-0.628-1.635-4.81-3.115-9.294-3.539-10.723-3.932-9.584 7.535-21.818l8.793-9.381 3.107 1.568c3.38 1.706 11.389 7.922 11.171 8.668-0.251 0.857-26.119 31.396-26.595 31.396-0.259 0-0.663-0.514-0.896-1.143z"></path>
<path fill="#000" d="M780.72 788.068c-0.705-2.166-2.551-7.909-4.1-12.763l-2.817-8.826 1.938-2.731c1.065-1.501 5.91-7.073 10.765-12.381 11.166-12.204 9.615-11.913 20.843-3.935l8.042 5.714 0.027 2.105c0.025 2.017-0.513 2.753-12.993 17.778-17.29 20.815-15.527 18.975-18.19 18.975h-2.231z"></path>
<path fill="#000" d="M795.268 820.813c-0.686-1.506-6.238-19.413-6.238-20.121 0-0.29 1.388-1.45 3.084-2.576 2.901-1.927 3.305-2.049 6.818-2.049h3.734l2.325 2.722c2.318 2.714 2.325 2.733 2.325 6.579v3.859l-5.41 6.246c-2.975 3.435-5.564 6.31-5.755 6.386s-0.588-0.394-0.884-1.046z"></path>
<path fill="#000" d="M792.588 824.775c-1.718-4.518-7.114-23.313-7.114-24.778 0-1.635 0.316-2.013 3.807-4.543 3.645-2.641 4.016-2.789 8.681-3.428l4.874-0.669 8.544 8.5v4.052c0 4.021-0.023 4.091-2.886 8.901-1.587 2.666-4.607 6.734-6.712 9.038-3.778 4.138-3.856 4.191-6.271 4.191-2.136 0-2.505-0.159-2.925-1.263z"></path>
<path fill="#000" d="M667.726 934.104c-2.323-5.053-4.152-9.237-4.063-9.298s6.841-3.149 15.008-6.865l14.849-6.752 8.263 5.82c6.693 4.713 8.293 6.073 8.422 7.151 0.151 1.263-0.423 1.623-11.071 6.95-11.431 5.72-25.584 12.201-26.615 12.187-0.313-0.005-2.47-4.141-4.793-9.194z"></path>
<path fill="#000" d="M664.954 936.826c-3.72-8.372-4.453-10.449-4.434-12.569l0.023-2.54 15.26-6.73c12.918-5.697 15.648-6.73 17.795-6.73 2.454 0 2.85 0.228 12.437 7.175l9.902 7.175-0.304 4.498-20.244 9.877c-19.017 9.28-20.418 9.877-23.112 9.875l-2.867-0.002z"></path>
<path fill="#000" d="M643.309 879.482c-1.158-3.255-2.025-5.999-1.924-6.099s2.95 1.929 6.334 4.507c5.521 4.208 6.076 4.772 5.415 5.505-0.703 0.778-4.872 2.007-6.807 2.007-0.703 0-1.391-1.35-3.017-5.918z"></path>
<path fill="#000" d="M639.683 879.777l-3.703-10.195 2.605-2.605 1.444 1.002c0.794 0.552 5.387 3.79 10.206 7.197l8.762 6.196v1.977c0 1.919-0.078 2.007-2.666 2.981-1.467 0.552-4.238 1.596-6.155 2.321s-4.231 1.319-5.139 1.319h-1.651z"></path>
<path fill="#000" d="M551.313 906.468c0-0.147 0.904-2.031 2.011-4.191 1.759-3.433 2.666-4.485 7.239-8.391 4.54-3.879 6.063-4.833 11.576-7.264 5.962-2.627 7.496-3.040 25.143-6.766 12.922-2.728 18.994-3.81 19.432-3.464 0.351 0.278 1.782 4.064 3.177 8.417 2.222 6.925 2.446 8.006 1.799 8.653-0.407 0.407-7.664 2.311-16.13 4.23-24.223 5.494-54.249 10.352-54.249 8.776z"></path>
<path fill="#000" d="M548.265 906.722c0-2.543 0.334-3.721 1.975-6.985 1.776-3.53 2.549-4.412 7.666-8.751 3.129-2.654 5.956-4.973 6.278-5.154s3.907-1.604 7.962-3.163c6.456-2.48 9.655-3.307 25.72-6.637 17.806-3.692 18.405-3.781 20.326-3.026l1.98 0.778 3.388 10.761c3.252 10.327 3.352 10.797 2.484 11.674-1.132 1.144-32.026 8.009-50.852 11.299-11.108 1.941-13.94 2.262-19.937 2.262h-6.989z"></path>
<path fill="#000" d="M568.257 965.008c-4.287-1.514-5.079-2.025-10.285-6.638-3.103-2.749-5.641-5.167-5.641-5.374s4.172-0.78 9.27-1.275c11.283-1.096 41.424-6.732 57.38-10.731 6.066-1.52 12.050-2.764 13.297-2.764h2.267l0.758 2.666c4.169 14.683 4.147 14.573 3.092 15.566-0.67 0.63-6.637 2.231-18.76 5.034l-17.778 4.111-10.159 0.292c-5.588 0.161-12.101 0.396-14.476 0.522-3.896 0.209-4.771 0.070-8.962-1.409z"></path>
<path fill="#000" d="M571.123 969.28c-8.204-2.172-12.574-4.651-18.969-10.756-4.788-4.571-5.412-5.365-5.412-6.882 0-2.044-0.547-1.882 10.159-2.998 14.067-1.466 32.302-4.735 55.562-9.959l22.8-5.122 1.149 1.188c0.808 0.836 2.094 4.47 4.337 12.259 3.149 10.934 3.177 11.083 2.209 12.050-0.725 0.725-6.25 2.181-21.297 5.608-19.565 4.457-20.693 4.654-30.475 5.33-13.461 0.931-13.883 0.917-20.064-0.72z"></path>
<path fill="#000" d="M458.535 937.921l-16.334-2.724-3.258-2.078c-3.244-2.069-3.262-2.092-4.107-5.61l-0.848-3.531 4.624-6.953 3.667-0.627c3.244-0.555 4.439-0.502 10.354 0.452 3.678 0.594 11.969 1.76 18.427 2.593l11.741 1.512h58.693l18.498-2.789c10.174-1.534 19.992-2.792 21.816-2.794l3.318-0.005 5.809 5.871v6.681l-7.267 6.458-34.159 5.265-28.177 0.564c-44.553 0.892-43.534 0.929-62.798-2.284z"></path>
<path fill="#000" d="M481.070 944.009c-10.146-0.837-18.738-1.897-28.060-3.458-13.357-2.237-13.448-2.262-15.692-4.099-1.241-1.017-3.071-2.844-4.068-4.060l-1.812-2.211v-10.527l2.953-2.923c2.788-2.758 3.18-2.968 6.985-3.751l4.030-0.828 30.477 4.832 54.857 1.515 16.255-2.342c10.39-1.497 20.628-2.63 28.377-3.143l12.122-0.801 6.52 6.458-0.287 3.556c-0.157 1.955-0.407 4.927-0.553 6.603l-0.267 3.048-9.183 6.035-14.047 2.203c-13.282 2.083-15.542 2.284-41.476 3.697-15.086 0.822-28.571 1.473-29.968 1.45s-9.121-0.588-17.164-1.252zM477.524 940.459c-0.168-0.168-0.606-0.187-0.973-0.041-0.405 0.162-0.285 0.282 0.307 0.307 0.535 0.022 0.836-0.098 0.667-0.267z"></path>
<path fill="#000" d="M462.679 907.543c-26.088-5.118-46.484-9.811-47.69-10.974-0.94-0.906-0.915-1.088 1.188-8.714 1.271-4.607 2.546-8.199 3.124-8.795 0.973-1.002 1.057-0.987 19.13 3.495 17.642 4.376 18.388 4.612 26.499 8.372l8.346 3.87 5.496 6.035c5.229 5.742 5.496 6.143 5.496 8.254 0 2.091-0.081 2.217-1.397 2.181-0.769-0.020-9.853-1.696-20.19-3.725z"></path>
<path fill="#000" d="M450.235 908.771c-30.472-6.522-38.666-8.494-39.711-9.552-0.801-0.812-0.663-1.579 2.208-12.295 2.962-11.062 3.835-13.207 5.373-13.207 0.401 0 9.679 2.297 20.62 5.103 18.918 4.853 20.305 5.29 28.317 8.923 8.4 3.807 8.438 3.832 13.040 8.484 5.971 6.035 8.251 10.039 8.251 14.485v3.132l-7.493-0.064c-7.452-0.062-7.616-0.090-30.603-5.009z"></path>
<path fill="#000" d="M432.202 967.677c-12.597-2.334-32.064-6.86-33.473-7.783-0.767-0.504-1.321-1.339-1.321-1.997 0-0.622 0.711-4.691 1.579-9.044 1.202-6.023 1.804-8.053 2.521-8.5 0.761-0.476 3.615 0.053 14.802 2.739 17.773 4.267 47.555 10.059 58.212 11.322 4.559 0.539 8.386 1.080 8.508 1.2s-2.102 2.236-4.938 4.701c-4.905 4.262-5.412 4.563-10.377 6.174-4.459 1.447-6.392 1.768-13.255 2.206-11.105 0.708-13.539 0.597-22.257-1.018z"></path>
<path fill="#000" d="M433.471 971.65c-1.257-0.253-10.171-2.203-19.809-4.334-16.86-3.729-20.801-4.967-20.82-6.537-0.006-0.447 3.851-19.181 4.807-23.355 0.569-2.484 1.458-2.378 22.111 2.629 13.907 3.372 24.392 5.561 36.315 7.582 12.744 2.161 30.399 4.805 32.128 4.813 0.070 0 0.126 0.896 0.126 1.991 0 1.858-0.313 2.281-4.699 6.347-3.876 3.594-5.811 4.924-11.048 7.599l-6.349 3.243-15.238 0.24c-8.382 0.133-16.267 0.034-17.524-0.218z"></path>
<path fill="#000" d="M354.994 946.776c-9.298-3.817-33.919-14.206-34.207-14.434-0.097-0.076-0.033-0.784 0.142-1.573 0.253-1.14 1.958-2.586 8.347-7.077l8.031-5.644 16.462 6.579c9.055 3.619 16.553 6.668 16.663 6.776 0.254 0.248-5.929 18.093-6.433 18.567-0.204 0.192-4.258-1.246-9.007-3.195z"></path>
<path fill="#000" d="M340.169 944.698c-22.96-9.928-26.050-11.646-25.377-14.117 0.232-0.85 3.575-3.651 10.569-8.862 5.627-4.191 10.483-7.683 10.793-7.759s8.79 3.156 18.844 7.184c14.456 5.792 18.417 7.575 18.93 8.522 0.575 1.062 0.226 2.499-3.073 12.627l-3.723 11.428-2.769 0.122c-2.586 0.114-4.183-0.49-24.198-9.142z"></path>
<path fill="#000" d="M381.028 888.564c-1.327-0.441-2.403-0.934-2.39-1.094 0.039-0.494 8.857-6.548 9-6.179 0.248 0.639-1.91 6.311-2.758 7.248-0.965 1.066-0.728 1.065-3.854 0.025z"></path>
<path fill="#000" d="M379.249 891.927l-4.699-2.103 0.037-4.169 6.86-4.953c5.524-3.988 7.201-4.953 8.615-4.953h1.757v2.427c0 1.511-0.831 4.916-2.2 9.016l-2.2 6.589-1.737 0.125c-1.147 0.083-3.329-0.588-6.434-1.978z"></path>
<path fill="#000" d="M81.625 513.431c-4.033-0.327-7.108-0.797-7.102-1.084 0.005-0.279 0.304-1.994 0.664-3.809s1.734-11.415 3.051-21.334c2.32-17.457 2.432-18.037 3.536-18.196 0.803-0.115 3.673 1.681 9.736 6.096l8.597 6.258 0.028 2.54c0.025 2.286-4.595 28.941-5.097 29.407-0.613 0.569-7.164 0.628-13.414 0.122z"></path>
<path fill="#000" d="M77.308 516.336c-0.698-0.106-2.242-0.316-3.428-0.469l-2.159-0.279 0.017-4.668c0.011-2.911 1.124-12.365 2.959-25.112 2.689-18.69 3.045-20.555 4.15-21.729 0.664-0.708 1.494-1.176 1.844-1.041 2.203 0.845 18.795 13.096 23.437 17.306 0.538 0.486 0.087 3.659-2.423 17.064-1.696 9.055-3.21 17.094-3.368 17.862l-0.284 1.397-9.738-0.069c-5.355-0.037-10.309-0.156-11.007-0.26z"></path>
<path fill="#000" d="M145.118 520.533l-5.079-0.566-0.147-4.987c-0.12-4.117-0.025-4.916 0.552-4.571 2.46 1.47 14.071 10.056 14.071 10.404 0 0.533-2.872 0.447-9.396-0.279z"></path>
<path fill="#000" d="M155.415 525.266c-0.692-0.404-15.467-2.452-17.996-2.496-0.323-0.006-0.926-1.002-1.339-2.217-0.653-1.916-0.659-2.802-0.055-6.73 1.308-8.474 1.063-7.825 2.942-7.825 1.342 0 3.87 1.542 12.675 7.739l10.999 7.739v4.33l-3.174-0.016c-1.746-0.008-3.569-0.245-4.052-0.527z"></path>
<path fill="#000" d="M95.65 623.28l-6.801-5-3.556-6.154c-3.166-5.479-3.803-7.055-5.798-14.362l-2.24-8.208-0.979-19.047c-0.538-10.477-0.984-19.677-0.99-20.444l-0.009-1.397h20.271l0.285 1.651c1.417 8.216 1.793 13.876 1.793 26.958 0 17.329 1.715 37.438 3.899 45.696 0.723 2.733 1.227 5.047 1.121 5.14s-3.254-2.080-6.994-4.83z"></path>
<path fill="#000" d="M96.185 628.164l-7.282-4.216-4.473-6.529c-4.195-6.126-4.648-7.049-7.3-14.911l-2.827-8.382-1.291-15.77c-0.711-8.673-1.291-19.588-1.291-24.254v-8.484h27.856l0.281 3.174c0.154 1.746 0.628 14.261 1.054 27.809 0.767 24.399 0.794 24.76 2.8 37.587 1.115 7.123 2.030 14.153 2.035 15.619 0.008 2.443-0.087 2.663-1.135 2.619-0.628-0.027-4.42-1.944-8.425-4.264z"></path>
<path fill="#000" d="M143.683 613.091c-0.861-6.788-3.572-44.387-4.217-58.459l-0.343-7.493h7.125c5.056 0 7.755-0.223 9.3-0.767 1.196-0.423 2.297-0.647 2.443-0.499s0.555 8.98 0.904 19.629c0.63 19.211 0.625 19.435-0.569 29.172l-1.204 9.811-4.152 7.39c-2.282 4.064-4.442 7.39-4.796 7.39s-1.317 0.134-2.139 0.299l-1.495 0.299z"></path>
<path fill="#000" d="M142.071 623.713c-1.313-2.912-3.274-22.304-4.813-47.62-0.825-13.55-1.614-25.915-1.756-27.48-0.167-1.832-0.037-3.131 0.362-3.645 0.494-0.639 3.043-0.979 12.677-1.69 6.631-0.49 12.173-0.775 12.313-0.633s0.73 9.61 1.31 21.044c1.046 20.645 1.046 20.851 0.080 30.183l-0.973 9.396-3.148 6.857c-2.919 6.358-3.45 7.162-7.303 11.048-3.748 3.781-4.344 4.191-6.079 4.191-1.679 0-2.019-0.21-2.669-1.651z"></path>
<path fill="#000" d="M157.144 725.556l-4.219-3.428-6.127-12.19c-8.383-16.677-20.55-47.265-26.769-67.302-4.4-14.175-4.56-14.875-7.702-33.598l-3.209-19.122 1.76-4.172c1.712-4.060 1.827-4.199 4.286-5.131 1.389-0.527 3.67-0.959 5.065-0.957l2.54 0.003 5.708 7.393 1.615 10.103c2.719 17.002 7.775 37.271 14.228 57.045l5.678 17.401 21.786 44.32v3.891c0 3.835-0.028 3.918-1.905 5.708-1.746 1.664-5.761 3.47-7.714 3.47-0.441 0-2.702-1.543-5.022-3.428z"></path>
<path fill="#000" d="M155.211 729.196c-3.572-2.77-3.7-2.951-9.485-13.573-11.018-20.229-26.258-59.427-32.528-83.666-2.042-7.897-3.541-15.463-5.394-27.251l-2.566-16.319 4.835-10.005 9.651-2.948 3.302 1.163c1.816 0.641 3.591 1.391 3.943 1.668s1.794 2.412 3.202 4.743l2.56 4.239 0.99 8.664c0.836 7.312 1.826 12.003 6.345 30.063 4.877 19.49 5.834 22.695 10.734 35.919 4.735 12.778 6.559 16.88 15.215 34.2 9.242 18.494 9.835 19.85 9.835 22.51 0 2.141-0.416 3.729-1.707 6.525-1.67 3.612-1.785 3.731-5.137 5.301-2.786 1.303-4.061 1.603-6.801 1.592-3.305-0.012-3.442-0.069-6.992-2.82z"></path>
<path fill="#000" d="M138.735 766.444c-6.701-11.168-11.331-19.574-14.548-26.414l-4.719-10.033v-21.863l1.615-3.924c1.905-4.632 2.281-5.195 3.472-5.195 0.683 0 1.43 1.433 3.11 5.968 2.831 7.639 17.939 34.999 29.373 53.192 4.518 7.187 8.141 13.126 8.053 13.194-1.752 1.369-16.066 11.456-16.258 11.456-0.147 0-4.69-7.371-10.097-16.381z"></path>
<path fill="#000" d="M135.232 767.772c-7.611-12.633-12-20.516-14.541-26.124-3.477-7.671-3.7-8.392-4.952-16.104l-1.311-8.073 1.33-7.069c1.244-6.612 1.528-7.423 4.393-12.53 3.078-5.485 3.926-6.228 5.772-5.056 0.337 0.214 2.643 4.953 5.125 10.531 5.988 13.459 14.172 28.291 27.131 49.165 13.581 21.875 13.448 19.293 1.398 27.503-8.009 5.455-8.764 5.856-11.019 5.853l-2.421-0.005z"></path>
<path fill="#000" d="M184.769 719.094c-8.969-18.515-12.862-27.134-14.844-32.873-1.478-4.278-2.693-7.917-2.7-8.088-0.033-0.751 7.722 1.631 11.419 3.506 3.74 1.899 4.581 2.647 10.664 9.495l6.603 7.432 8.254 17.078c4.54 9.393 8.247 17.437 8.238 17.876s-0.295 1.154-0.635 1.589c-0.672 0.859-13.796 9.124-14.445 9.097-0.218-0.009-5.867-11.309-12.554-25.112z"></path>
<path fill="#000" d="M193.558 745.62c-7.028-13.745-23.604-48.691-26.136-55.102-2.911-7.37-3.257-8.622-3.257-11.81v-3.566h9.666l11.921 6.007 12.126 13.55 9.556 19.474c6.31 12.856 9.556 20.022 9.556 21.086 0 1.55-0.357 1.826-9.13 7.066-7.543 4.506-9.484 5.454-11.164 5.454-1.882 0-2.117-0.162-3.138-2.159z"></path>
<path fill="#000" d="M233.754 788.154c-9.080-9.9-16.507-18.227-16.507-18.506s2.951-3.117 6.557-6.308c6.257-5.536 6.624-5.778 8.028-5.29 0.981 0.341 5.581 5.224 13.826 14.671l12.356 14.158-2.919 9.085c-3.16 9.838-3.325 10.235-4.228 10.207-0.332-0.009-8.034-8.118-17.112-18.018z"></path>
<path fill="#000" d="M232.452 792.426c-17.329-18.946-20.393-22.656-19.859-24.047 0.143-0.374 3.581-3.647 7.638-7.27 6.871-6.136 7.597-6.645 10.577-7.396 1.76-0.443 3.34-0.645 3.513-0.449s6.286 7.39 13.587 15.988c12.851 15.132 13.274 15.7 13.257 17.778-0.009 1.261-1.543 6.752-3.717 13.321l-3.7 11.175-1.774 0.151c-1.738 0.15-2.134-0.242-19.521-19.251zM234.26 759.776c0-0.106-0.401-0.505-0.889-0.889-0.806-0.631-0.823-0.614-0.192 0.192 0.664 0.847 1.080 1.115 1.080 0.697z"></path>
<path fill="#000" d="M224.376 857.179c-5.424-1.104-6.866-1.649-13.461-5.087-8.502-4.432-7.293-3.361-30.085-26.724-13.955-14.306-14.228-14.626-13.473-15.778 1.002-1.529 14.596-13.371 15.023-13.085 0.179 0.12 4.526 5.148 9.66 11.175 6.115 7.176 15.379 17.030 26.858 28.561l17.524 17.605-1.213 2.205c-1.517 2.756-2.392 2.848-10.831 1.129z"></path>
<path fill="#000" d="M225.626 861.193c-4.718-0.53-13.118-3.74-19.63-7.502l-6.632-3.832-17.51-17.65c-15.394-15.517-17.613-17.953-18.361-20.148-0.468-1.374-0.851-2.775-0.851-3.115s3.753-4.071 8.339-8.291l8.339-7.674h5.447l8.62 10.277c5.878 7.008 14.638 16.361 27.541 29.401 21.553 21.783 20.453 20.135 17.279 25.909l-1.642 2.986-4.581-0.081c-2.519-0.045-5.382-0.171-6.359-0.281z"></path>
<path fill="#000" d="M229.883 829.751l-10.098-10.472-0.449-4.163c-0.424-3.927-0.379-4.273 0.775-6.098 0.956-1.509 1.891-2.184 4.258-3.067l3.032-1.132 3.573 1.2c3.38 1.137 3.919 1.551 9.973 7.669l6.4 6.467-3.257 10.033c-1.791 5.518-3.449 10.033-3.683 10.033s-4.97-4.711-10.525-10.472z"></path>
<path fill="#000" d="M228.007 833.206l-11.071-11.079-0.995-3.885c-0.992-3.871-0.992-3.899 0.025-7.569 0.867-3.129 1.42-4.088 3.672-6.369l2.652-2.685 4.588 0.008c4.439 0.006 4.716 0.076 8.494 2.159 3.14 1.731 5.104 3.411 10.036 8.583l6.13 6.431-2.574 8.045c-1.416 4.425-3.265 10.159-4.108 12.744l-1.534 4.699h-2.122c-2.086 0-2.303-0.181-13.193-11.079z"></path>
<path fill="#000" d="M872.591 393.386c-76.873-0.011-161.368 0.242-192.265 0.761l-39.658 0.667-42.294 57.55c-86.807 118.11-207.975 283.020-294.057 400.22-24.725 33.662-47.58 64.712-64.481 87.618-8.45 11.453-15.413 20.868-20.375 27.553-2.48 3.343-4.46 6.004-5.873 7.889s-2.543 3.327-2.32 3.060c-1.032 1.227-1.915 2.379-2.615 3.436-0.349 0.529-0.649 0.999-0.97 1.687-0.161 0.343-0.345 0.706-0.508 1.5s-0.75 2.825 1.481 5.056v0.003c0.002 0.002 1.963 1.306 2.697 1.461s1.232 0.128 1.603 0.095c0.744-0.067 1.055-0.196 1.308-0.284 0.505-0.175 0.678-0.282 0.85-0.373 0.345-0.181 0.544-0.306 0.789-0.461 0.49-0.31 1.070-0.706 1.876-1.264 1.612-1.115 4.071-2.862 7.694-5.472 7.248-5.221 19.144-13.882 37.916-27.614 37.547-27.464 102.593-75.206 212.806-156.151 12.633-9.278 23.612-17.175 31.555-22.725 3.972-2.775 7.192-4.967 9.431-6.422 0.44-0.285 0.635-0.396 0.995-0.622 0.201 0.133 0.278 0.178 0.502 0.327 1.991 1.33 4.93 3.344 8.709 5.973 7.558 5.257 18.5 12.978 32.28 22.775 27.563 19.594 66.488 47.495 112.54 80.697 42.58 30.7 81.316 58.582 109.434 78.773 14.058 10.095 25.461 18.268 33.364 23.911 3.952 2.822 7.027 5.011 9.13 6.497 1.052 0.744 1.86 1.31 2.427 1.702 0.284 0.196 0.502 0.348 0.697 0.479 0.097 0.065 0.178 0.118 0.326 0.209 0.073 0.044 0.145 0.095 0.376 0.214 0.115 0.059 0.237 0.136 0.653 0.285s5.402-1.021 5.402-1.023c1.766-1.562 1.706-2.77 1.784-3.372s0.048-0.898 0.033-1.141c-0.033-0.486-0.087-0.716-0.136-0.956-0.097-0.482-0.207-0.906-0.366-1.483-0.318-1.155-0.823-2.839-1.617-5.401-1.587-5.122-4.326-13.701-8.887-27.814-9.121-28.225-25.514-78.549-54.425-167.2l-51.167-156.895 0.366-0.373c-0.72 0.731-0.092 0.097 0.373-0.267s1.151-0.89 2.028-1.556c1.754-1.331 4.277-3.229 7.473-5.614 6.392-4.769 15.478-11.5 26.577-19.694 22.2-16.389 52.463-38.629 85.423-62.759 65.931-48.266 133.476-97.713 150.097-109.881 8.335-6.102 15.91-11.754 21.431-15.966 2.76-2.106 5-3.848 6.603-5.139 0.801-0.645 1.434-1.168 1.955-1.628 0.26-0.231 0.483-0.43 0.77-0.728 0.143-0.15 0.299-0.304 0.558-0.653s1.105-0.334 1.105-3.29c0-0.005-2.42-4.551-3.060-4.858s-0.898-0.343-1.113-0.394c-0.432-0.103-0.597-0.112-0.77-0.134-0.345-0.044-0.597-0.056-0.914-0.075-0.633-0.037-1.441-0.067-2.488-0.097-2.095-0.059-5.112-0.111-8.969-0.161-7.713-0.098-18.768-0.184-32.226-0.249-26.916-0.134-63.427-0.204-101.865-0.209zM872.588 404.139c38.425 0.005 74.929 0.075 101.815 0.209 12.228 0.061 21.721 0.139 29.236 0.225-5.175 3.919-11.238 8.464-18.417 13.72-16.623 12.169-84.165 61.616-150.096 109.881-32.97 24.136-63.242 46.382-85.459 62.784-11.108 8.201-20.201 14.939-26.619 19.728-3.209 2.395-5.751 4.303-7.551 5.669-0.9 0.683-1.611 1.23-2.147 1.649s-0.51 0.278-1.411 1.194l-4.95 5.031 53.192 163.106c28.911 88.652 45.306 138.98 54.418 167.175 3.196 9.889 4.579 14.292 6.205 19.424-7.875-5.625-19.024-13.617-32.888-23.573-28.108-20.184-66.846-48.063-109.42-78.759-46.064-33.213-85-61.125-112.596-80.742-13.798-9.808-24.76-17.539-32.376-22.836-3.807-2.649-6.774-4.687-8.873-6.090-1.049-0.702-1.874-1.239-2.533-1.648-0.329-0.204-0.605-0.373-0.934-0.55-0.164-0.089-0.334-0.179-0.625-0.306s-0.293-0.476-2.242-0.476c-2.337 0-2.273 0.451-2.719 0.658s-0.82 0.415-1.239 0.655c-0.839 0.482-1.826 1.099-3.035 1.886-2.423 1.575-5.7 3.809-9.729 6.623-8.056 5.628-19.081 13.558-31.764 22.873-110.213 80.945-175.259 128.69-212.791 156.142-10.157 7.431-14.014 10.21-20.489 14.922 3.826-5.173 6.985-9.432 11.93-16.136 16.908-22.915 39.767-53.97 64.495-87.637 86.082-117.196 207.25-282.107 294.055-400.217l39.142-53.256 34.334-0.578c30.625-0.516 115.23-0.767 192.078-0.758z"></path>
<path fill="#000" d="M520.831 31.591c-0.002 0-3.316 1.098-3.753 1.522s-0.582 0.661-0.706 0.842c-0.246 0.362-0.312 0.508-0.377 0.639-0.133 0.26-0.181 0.385-0.239 0.525-0.117 0.279-0.221 0.547-0.349 0.889-0.257 0.684-0.599 1.625-1.034 2.85-0.87 2.452-2.113 6.027-3.695 10.628-3.163 9.2-7.682 22.486-13.219 38.878-11.077 32.786-26.241 77.997-42.823 127.728l-59.070 177.16-55.058 0.136c-32.421 0.081-118.561 0.426-191.445 0.764l-149.037 0.692 145.921 105.128c110.639 79.709 145.751 105.067 176.095 127.167 0.037 0.027 0.072 0.075 0.114 0.111-0.055-0.111-0.012-0.011-0.892 2.9-1.14 3.77-3.235 10.38-6.967 21.914-7.463 23.066-21.473 65.866-47.611 145.645-21.785 66.489-43.688 133.359-48.679 148.607-2.499 7.636-4.771 14.686-6.422 19.914-0.826 2.613-1.497 4.766-1.969 6.331-0.237 0.783-0.421 1.416-0.561 1.916-0.070 0.251-0.129 0.463-0.186 0.694s-0.198-0.207-0.198 1.514c0 0.992 0.129 1.922 0.692 3.067s2.050 3.294 5.167 3.294c1.291 0 2.972-0.814 3.539-1.269s0.795-0.734 1.084-1.063c0.575-0.658 1.249-1.511 2.456-3.089 2.415-3.156 6.857-9.106 15.337-20.575 16.96-22.935 50.040-67.885 114.878-156.003 160.241-217.772 233.83-317.691 267.295-363.638 16.733-22.974 23.347-32.293 26.069-36.65 0.681-1.090 1.127-1.833 1.531-2.789 0.203-0.479 0.429-1.002 0.536-1.978s-0.076-2.817-1.23-4.228c-0.089-0.108-0.179-0.123-0.27-0.22-0.225-0.703-0.494-1.543-0.864-2.68-0.829-2.549-2.016-6.174-3.517-10.731-3.001-9.114-7.253-21.959-12.352-37.336-10.199-30.753-23.796-71.633-37.586-113.023-27.581-82.782-55.804-167.23-59.456-177.607-1.473-4.186-2.901-7.987-4.050-10.82-0.574-1.416-1.070-2.574-1.52-3.517-0.225-0.471-0.421-0.872-0.725-1.367-0.151-0.248-0.306-0.511-0.703-0.964s-0.709-1.908-4.15-1.908zM521.186 51.992c0.237 0.659 0.412 1.060 0.653 1.745 3.332 9.467 31.816 94.66 59.394 177.434 13.79 41.387 27.387 82.267 37.583 113.012 5.098 15.372 9.347 28.213 12.345 37.315 1.498 4.551 2.685 8.165 3.506 10.689 0.41 1.263 0.73 2.253 0.948 2.939 0.108 0.341 0.064 0.167 0.128 0.394-2.273 3.605-8.82 12.912-25.315 35.559-33.417 45.88-107.027 145.824-267.269 363.597-64.84 88.118-97.92 133.074-114.863 155.984-0.39 0.527-0.327 0.435-0.7 0.939 0.239-0.733 0.382-1.194 0.625-1.939 4.987-15.238 26.894-82.111 48.679-148.601 26.139-79.78 40.146-122.574 47.623-145.684 3.739-11.556 5.842-18.18 7.030-22.114s1.657-4.738 1.611-7.078c-0.053-2.705-1.004-3.683-1.826-4.791s-1.779-2.075-2.97-2.942c-30.372-22.12-65.501-47.488-176.143-127.198l-119.103-85.809 115.987-0.536c72.88-0.338 159.031-0.683 191.424-0.764l62.784-0.159 61.514-184.49c16.578-49.722 31.741-94.922 42.812-127.687 5.535-16.383 10.045-29.657 13.197-38.822 0.148-0.432 0.203-0.578 0.345-0.992zM639.162 399.763c0.369 0.143 0.826 0.408 1.045 0.452-0.262-0.069-0.591-0.2-1.045-0.452z"></path>
<path stroke="#000" fill="#000" stroke-width="26.3268" stroke-miterlimit="4" stroke-linecap="butt" stroke-linejoin="miter" d="M706.984 892.282c-152.533-109.792-185.039-132.609-188.929-132.609-3.958 0-21.379 12.448-166.524 118.983-61.564 45.188-112.175 81.923-112.466 81.631s20.835-29.547 46.948-65.015c26.113-35.466 117.776-160.166 203.695-277.111l156.215-212.627 123.554-1.246c67.955-0.684 148.323-0.77 178.599-0.189l55.044 1.055-26.527 19.585c-14.591 10.772-69.746 51.236-122.567 89.921-103.43 75.749-145.193 106.699-146.222 108.364-0.359 0.578 4.199 15.884 10.125 34.011 52.41 160.312 102.689 315.603 102.304 315.973-0.259 0.248-51.22-36.078-113.249-80.727z"></path>
<path stroke="#000" fill="#000" stroke-width="26.3268" stroke-miterlimit="4" stroke-linecap="butt" stroke-linejoin="miter" d="M228.573 948.869c0-0.583 22.023-68.443 48.941-150.799s50.575-154.77 52.572-160.92c3.299-10.156 3.436-11.483 1.484-14.46-2.267-3.461-25.619-20.533-193.952-141.799l-104.605-75.356 152.015-0.868c83.608-0.477 166.893-0.962 185.077-1.077l33.062-0.209 14.192-42.74c51.193-154.17 103.428-307.795 104.322-306.811 1.444 1.592 113.472 338.231 113.472 340.978 0 1.21-3.689 7.353-8.196 13.648-24.811 34.653-393.22 535.893-396.437 539.373-1.070 1.157-1.946 1.626-1.946 1.043z"></path>
</svg>
