<!-- Generated by IcoMoon.io -->
<svg version="1.1" xmlns="http://www.w3.org/2000/svg" width="1024" height="1024" viewBox="0 0 1024 1024">
<title></title>
<g id="icomoon-ignore">
</g>
<path fill="#000" d="M368.834 254.787h-58.237v114.047h58.237v-114.047zM465.896 254.787h-50.957v114.047h50.957v-114.047zM262.067 254.787h-53.384v114.047h53.384v-114.047zM832.303 798.332h-14.559l-104.341 7.28q-58.237 14.559-58.237 63.090 0 67.943 162.578 50.957 111.621-12.133 111.621-60.663l-19.412-36.398q-19.412-14.559-50.957-21.839v70.37h-26.692v-72.796zM582.37 121.327l276.626-89.782v723.109q75.223 14.559 106.768 41.251 46.104 38.825 9.706 106.768-16.986 31.545-89.782 58.237l-160.152 29.118q-157.725 7.28-262.066-2.427-131.033-12.133-254.787-58.237-143.166-50.957-172.284-133.46-36.398-101.915 152.872-177.137 179.564-72.796 349.422-14.559 97.062 36.398 160.152 97.062l26.692 19.412q31.545 21.839 67.943 26.692l38.825 2.427v-543.545l-249.934-84.929zM553.251 242.654v12.133h-43.678v114.047h33.972v80.076l-201.403-26.692-211.109 24.265v-77.649h33.972v-114.047h-43.678v-12.133h-14.559v-16.986l230.521-94.635 230.521 94.635v16.986h-14.559z"></path>
<path fill="none" stroke="#000" stroke-width="48.5308" stroke-miterlimit="4" stroke-linecap="square" stroke-linejoin="round" d="M553.251 242.654h14.559v-16.986l-230.521-94.635-230.521 94.635v16.986h14.559v12.133h43.678v114.047h-33.972v77.649l211.109-24.265 201.403 26.692v-80.076h-33.972v-114.047h43.678v-12.133M582.37 121.327l249.934 84.929v543.545l-38.825-2.427q-36.398-4.853-67.943-26.692l-26.692-19.412q-63.090-60.663-160.152-97.062-169.858-58.237-349.422 14.559-189.27 75.223-152.872 177.137 29.118 82.502 172.284 133.46 123.754 46.104 254.787 58.237 104.341 9.706 262.066 2.427l160.152-29.118q72.796-26.692 89.782-58.237 36.398-67.943-9.706-106.768-31.545-26.692-106.768-41.251v-723.109l-276.626 89.782M832.303 798.332v72.796h26.692v-70.37q31.545 7.28 50.957 21.839l19.412 36.398q0 48.531-111.621 60.663-162.578 16.986-162.578-50.957 0-48.531 58.237-63.090l104.341-7.28h14.559M262.067 254.787v114.047h-53.384v-114.047h53.384M465.896 254.787v114.047h-50.957v-114.047h50.957M368.834 254.787v114.047h-58.237v-114.047h58.237"></path>
</svg>
