<!-- Generated by IcoMoon.io -->
<svg version="1.1" xmlns="http://www.w3.org/2000/svg" width="1024" height="1024" viewBox="0 0 1024 1024">
<title></title>
<g id="icomoon-ignore">
</g>
<path fill="#000" d="M677.557 337.245v260.599h131.832v-260.599h-131.832zM640.766 668.359h-260.599v260.599h260.599v-260.599zM579.449 337.245h-134.898v260.599h134.898v-260.599zM984.143 984.143h-944.287v-766.467l459.88-177.82 484.407 177.82v766.467zM211.545 337.245v260.599h131.832v-260.599h-131.832z"></path>
<path fill="none" stroke="#000" stroke-width="61.3174" stroke-miterlimit="4" stroke-linecap="square" stroke-linejoin="round" d="M677.557 337.245v260.599h131.832v-260.599h-131.832M640.766 668.359h-260.599v260.599h260.599v-260.599M579.449 337.245h-134.898v260.599h134.898v-260.599M984.143 984.143h-944.287v-766.467l459.88-177.82 484.407 177.82v766.467M211.545 337.245v260.599h131.832v-260.599h-131.832"></path>
</svg>
