<!-- Generated by IcoMoon.io -->
<svg version="1.1" xmlns="http://www.w3.org/2000/svg" width="1024" height="1024" viewBox="0 0 1024 1024">
<title></title>
<g id="icomoon-ignore">
</g>
<path d="M244.469 241.75c-26.26 0-46.666 6.644-60.406 20.391s-20.375 34.163-20.375 60.422v349.438c0 26.259 6.62 46.673 20.359 60.422s34.158 20.391 60.422 20.391h551.687c26.271 0 46.694-6.626 60.438-20.375s20.375-34.179 20.375-60.438v-349.438c0-26.259-6.632-46.675-20.375-60.422s-34.162-20.391-60.438-20.391zM244.469 249.75h551.687c24.941 0 42.924 6.186 54.781 18.047s18.031 29.84 18.031 54.766v349.438c0 24.925-6.172 42.918-18.031 54.781s-29.845 18.031-54.781 18.031h-551.687c-24.928 0-42.895-6.168-54.75-18.031s-18.031-29.856-18.031-54.781v-349.438c0-24.925 6.175-42.904 18.031-54.766s29.825-18.047 54.75-18.047z"></path>
<path d="M733.438 268.625c-35.063 0-65.682 12.445-91.094 36.953l-0.047 0.062-0.047 0.047c-24.543 25.413-36.969 56.033-36.969 91.125 0 35.053 12.439 65.282 37.016 89.859 25.402 25.402 56.046 38.297 91.141 38.297 35.042 0 65.287-12.885 89.812-38.25l0.048-0.047c25.394-24.563 38.297-54.787 38.297-89.859 0-35.118-12.903-65.778-38.297-91.172-24.554-24.554-54.797-37.016-89.859-37.016zM733.438 276.625c33.193 0 60.997 11.466 84.203 34.672 24.094 24.094 35.953 52.33 35.953 85.516 0 33.161-11.845 60.904-35.906 84.156l-0.096 0.094c-23.218 24.058-51.004 35.906-84.156 35.906-33.161 0-61.382-11.851-85.484-35.953-23.231-23.231-34.672-51.016-34.672-84.203 0-33.221 11.449-61.46 34.703-85.547 0.005-0.005 0.010-0.010 0.016-0.016 24.069-23.166 52.294-34.625 85.438-34.625z"></path>
<path d="M299.016 514.406l-21.297 5.672-9.75 16.219 9.75 16.266 21.297 5.672h283.922l19.687-5.25-1.031-3.875 3.437 2.062 8.922-14.875-9.75-16.219-21.266-5.672zM300.062 522.406h281.828l17.125 4.563 5.609 9.344-5.609 9.359-17.125 4.563h-281.828l-17.141-4.563-5.609-9.359 5.609-9.344z"></path>
<path d="M299 598.859l-21.281 5.687-9.75 16.266 9.75 16.234 21.297 5.672h283.922l21.25-5.672 9.766-16.234-9.75-16.266-20.766-5.531-1.016 3.813v-3.969zM300.047 606.859h281.734l17.219 4.594 5.625 9.359-5.625 9.328-17.109 4.578h-281.828l-17.141-4.578-5.609-9.328 5.609-9.359z"></path>
<path d="M254.719 354.406c-13.791 0-26.090 5.215-36.109 15.234-10.017 10.042-15.234 22.347-15.234 36.109 0 13.784 5.214 26.089 15.234 36.109 10.020 10.054 22.318 15.266 36.109 15.266 13.784 0 26.089-5.211 36.109-15.266 10.017-10.017 15.266-22.319 15.266-36.109 0-13.769-5.252-26.070-15.266-36.109-10.020-10.020-22.325-15.234-36.109-15.234zM254.719 362.406c11.832 0 21.721 4.159 30.453 12.891 8.739 8.761 12.922 18.654 12.922 30.453 0 11.825-4.187 21.718-12.922 30.453-8.731 8.761-18.621 12.922-30.453 12.922-11.841 0-21.721-4.16-30.453-12.922-8.732-8.732-12.891-18.621-12.891-30.453 0-11.806 4.155-21.695 12.891-30.453 8.732-8.732 18.613-12.891 30.453-12.891z"></path>
<path d="M299.016 675.688l-21.297 5.672-8.5 14.172 3.406 2.063-3.437 2.062 8.531 14.203 21.281 5.672h283.938l21.25-5.672 9.766-16.266-9.766-16.219-21.266-5.687zM300.062 683.688h281.813l17.125 4.578 5.609 9.328-5.609 9.375-17.109 4.562h-281.844l-17.141-4.578-5.609-9.344 5.625-9.359z"></path>
<path d="M793.594 636c-13.755 0-26.059 5.215-36.109 15.266-10.020 10.020-15.234 22.318-15.234 36.109 0 13.762 5.215 26.059 15.234 36.078 10.050 10.050 22.355 15.266 36.109 15.266 13.784 0 26.099-5.204 36.109-15.25v-0.016h0.016c10.043-10.025 15.25-22.331 15.25-36.078 0-13.791-5.211-26.089-15.266-36.109-10.020-10.048-22.33-15.265-36.11-15.265zM793.594 644c11.832 0 21.722 4.161 30.453 12.922h0.016c8.762 8.732 12.906 18.613 12.906 30.453 0 11.797-4.144 21.682-12.906 30.422h-0.016c-8.722 8.76-18.613 12.922-30.453 12.922-11.798 0-21.687-4.156-30.453-12.922-8.732-8.732-12.891-18.616-12.891-30.422 0-11.841 4.158-21.721 12.891-30.453 8.766-8.766 18.656-12.922 30.453-12.922z"></path>
<path d="M225.896 743.33c-30.704-4.854-48.071-22.408-52.727-53.293-1.845-12.24-1.804-374.481 0.044-385.874 2.559-15.781 7.883-27.312 16.661-36.090 9.069-9.069 22.395-15.042 38.065-17.063 5.493-0.708 80.712-0.884 297.066-0.696l289.711 0.252 8.067 2.225c28.141 7.763 42.246 25.682 45.437 57.724 1.115 11.198 1.136 362.678 0.024 373.596-3.614 35.432-20.906 54.157-54.752 59.289-11.205 1.699-576.832 1.632-587.595-0.070zM808.587 736.499c14.726-4.647 28.48-17.867 33.525-32.222 4.961-14.115 3.356-30.128-4.299-42.885-3.621-6.033-12.363-14.623-18.696-18.369-14.685-8.686-32.612-9.314-48.123-1.686-4.654 2.289-7.807 4.701-13.099 10.023-10.976 11.036-15.466 21.406-15.492 35.776-0.018 8.981 1.134 14.032 5.072 22.279 2.696 5.645 4.597 8.203 10.346 13.922 7.837 7.796 15.478 12.22 24.751 14.331 6.915 1.574 19.052 1.029 26.015-1.168zM594.269 716.637l10.014-2.635 4.611-7.795c2.536-4.287 4.721-8.002 4.854-8.254s-1.924-4.095-4.572-8.538l-4.815-8.079-19.289-5.333-287.668-0.024-19.579 5.303-4.305 6.933c-4.088 6.584-4.23 6.994-2.811 8.14 1.444 1.166 1.445 1.247 0.007 2.452-1.415 1.185-1.277 1.585 2.817 8.189l4.305 6.943 18.749 5.198 287.668 0.142 10.014-2.635zM594.269 639.817l10.014-2.635 4.628-7.756c2.546-4.266 4.628-8.159 4.628-8.651s-2.078-4.378-4.618-8.634l-4.618-7.739-10.349-2.699c-8.314-2.168-10.483-2.487-11.033-1.62-0.518 0.816-0.687 0.83-0.696 0.060-0.010-0.813-29.035-1.018-142.416-1.004l-142.404 0.017-19.604 5.31-9.966 16.312 9.978 16.331 18.775 5.204 287.668 0.142 10.014-2.635zM593.039 555.684c9.345-2.473 9.702-2.647 9.233-4.515-0.443-1.766-0.341-1.851 1.13-0.932 0.89 0.556 1.758 0.84 1.93 0.633s2.218-3.567 4.548-7.464l4.236-7.086-4.964-8.217c-4.625-7.656-5.199-8.278-8.393-9.111-1.886-0.491-6.738-1.787-10.784-2.879l-7.355-1.986-282.765-0.031-22.159 5.896-4.652 7.743c-2.559 4.258-4.652 8.116-4.652 8.571s2.067 4.291 4.592 8.524c4.211 7.057 4.872 7.773 7.968 8.624 1.857 0.511 6.318 1.755 9.914 2.766l6.538 1.838 285.914 0.199zM759.961 522.467c15.667-3.429 28.744-9.047 42.75-18.366 10.402-6.921 28.933-25.007 36.368-35.495 9.78-13.795 16.598-29.542 20.276-46.83 2.433-11.435 2.67-36.453 0.452-47.808-3.385-17.334-10.113-34.007-19.016-47.125-20.873-30.753-50.323-50.438-84.217-56.293-13.257-2.29-32.975-2.31-46.074-0.047-40.345 6.972-75.196 33.265-92.726 69.958-5.004 10.475-7.49 17.886-9.965 29.706-1.89 9.027-2.169 12.309-2.202 25.866-0.042 18.193 1.215 26.836 6.024 41.37 3.62 10.942 7.406 18.839 13.468 28.096 5.757 8.79 8.187 11.749 17.014 20.711 20.297 20.607 43.623 32.849 71.265 37.4 9.808 1.615 37.032 0.947 46.583-1.143zM267.199 455.652c17.96-4.67 33.406-20.494 37.654-38.574 1.89-8.043 1.21-20.011-1.589-27.972-7.971-22.675-31.595-37.477-54.752-34.306-12.327 1.688-22.112 6.798-30.942 16.158-6.286 6.663-8.884 10.945-11.801 19.445-1.85 5.39-2.215 7.856-2.226 15.029-0.023 14.823 4.46 25.437 15.386 36.426 7.067 7.109 15.073 11.838 23.488 13.875 6.123 1.483 18.927 1.44 24.781-0.082z"></path>
<path d="M229.166 751.837c-15.081-1.745-31.332-8.014-41.029-15.826-12.822-10.33-21.381-28.578-23.576-50.264-0.595-5.876-0.782-67.203-0.593-194.504 0.275-185.859 0.276-185.924 2.001-193.277 3.59-15.3 9.208-26.432 17.717-35.106 8.872-9.044 19.628-14.682 35.62-18.673l6.999-1.747 289.711-0.25c314.362-0.271 298.222-0.477 312.808 3.993 22.449 6.879 38.328 23.363 44.237 45.922 3.88 14.813 3.766 8.575 3.766 205.675 0 176.976-0.073 186.332-1.505 194.446-3.119 17.662-9.040 29.986-19.267 40.101-11.48 11.355-25.325 17.331-45.313 19.56-9.63 1.074-572.283 1.025-581.576-0.048zM312.932 744.016c-16.112-0.506-87.224-0.623-84.96-0.139 1.33 0.284 22.645 0.484 47.367 0.443s41.638-0.177 37.593-0.304zM790.052 743.974c-11.318-0.128-30.074-0.128-41.679 0s-2.345 0.233 20.578 0.233c22.924 0 32.419-0.104 21.101-0.233zM814.921 743.205c0.787 0.206 0.143 0.374-1.43 0.374s-2.217-0.168-1.43-0.374c0.787-0.206 2.074-0.206 2.86 0zM819.807 742.458c0.272 0.271-0.211 0.465-1.073 0.429-0.952-0.039-1.146-0.233-0.494-0.494 0.59-0.236 1.295-0.207 1.566 0.065zM823.893 741.641c0.272 0.271-0.211 0.465-1.073 0.429-0.952-0.039-1.146-0.233-0.494-0.494 0.59-0.236 1.295-0.207 1.566 0.065zM837.231 736.801c-2.204 1.14-4.068 1.682-3.241 0.942 0.841-0.752 5.653-2.964 5.653-2.598 0 0.225-1.085 0.97-2.411 1.655zM197.293 732.836c0 0.673-0.671 0.24-1.739-1.122-1.017-1.296-0.988-1.325 0.309-0.308 0.787 0.617 1.43 1.26 1.43 1.43zM846.285 730.898c-1.068 1.362-1.739 1.794-1.739 1.122 0-0.17 0.644-0.813 1.43-1.43 1.296-1.017 1.325-0.988 0.308 0.308zM194.024 730.458c0 0.61-0.757-0.069-4.526-4.055l-4.055-4.29 4.29 4.055c2.36 2.23 4.291 4.161 4.291 4.29zM804.058 729.442c16.461-4.288 29.929-19.112 32.46-35.729 3.026-19.868-8.834-39.644-28.34-47.257-4.171-1.628-6.367-1.914-14.71-1.914-8.244 0-10.543 0.292-14.426 1.833-14.737 5.85-26.864 20.789-28.309 34.874-1.496 14.585 1.945 25.122 11.504 35.229 9.121 9.644 18.706 14.041 30.855 14.156 3.389 0.030 8.324-0.505 10.966-1.193zM851.492 726.607c-0.814 0.899-1.663 1.635-1.888 1.635s0.257-0.736 1.071-1.635c0.814-0.899 1.663-1.634 1.888-1.634s-0.257 0.736-1.071 1.634zM185.851 721.395c0 0.673-0.671 0.24-1.739-1.122-1.017-1.296-0.988-1.325 0.309-0.308 0.787 0.617 1.43 1.26 1.43 1.43zM182.582 716.8c0.481 0.899 0.691 1.634 0.466 1.634s-0.802-0.736-1.283-1.634c-0.481-0.899-0.691-1.635-0.466-1.635s0.802 0.736 1.283 1.635zM588.75 709.827c4.27-1.136 8.392-2.258 9.159-2.494s2.577-2.493 4.020-5.016l2.625-4.588-2.386-4.43c-1.312-2.436-2.684-4.616-3.048-4.845s-4.593-1.481-9.398-2.783l-8.736-2.368-279.877-0.010-9.185 2.497c-5.052 1.374-9.223 2.569-9.268 2.656s-1.251 2.095-2.678 4.461c-1.427 2.367-2.595 4.476-2.595 4.687 0 0.289 4.269 7.646 5.356 9.23 0.091 0.133 3.98 1.292 8.642 2.578l8.476 2.337 281.13 0.152 7.764-2.066zM174.151 694.581c0.236 0.59 0.207 1.295-0.064 1.566s-0.465-0.211-0.429-1.073c0.039-0.952 0.233-1.146 0.494-0.494zM867.169 692.947c0.236 0.59 0.208 1.295-0.064 1.566s-0.465-0.211-0.429-1.073c0.039-0.952 0.233-1.146 0.494-0.494zM173.342 689.234c0.207 0.795 0.194 1.899-0.030 2.452s-0.394-0.097-0.377-1.446c0.017-1.349 0.2-1.801 0.407-1.006zM867.97 687.175c0.227 0.562 0.227 1.482 0 2.043s-0.412 0.102-0.412-1.022c0-1.124 0.185-1.583 0.412-1.022zM172.569 649.94c0.137 6.602 0.138 17.635 0.001 24.517s-0.249 1.481-0.249-12.004c0-13.484 0.112-19.115 0.249-12.513zM868.856 654.077c0.142 5.281 0.142 13.924 0 19.205s-0.259 0.96-0.259-9.603c0-10.563 0.116-14.884 0.259-9.603zM588.75 633.006c4.27-1.136 8.392-2.258 9.159-2.494s2.577-2.493 4.020-5.016l2.625-4.588-2.386-4.43c-1.312-2.436-2.684-4.616-3.048-4.845s-4.593-1.481-9.398-2.783l-8.736-2.368-279.877-0.010-9.185 2.497c-5.052 1.374-9.223 2.569-9.268 2.656s-1.251 2.095-2.678 4.461c-1.427 2.367-2.595 4.476-2.595 4.687 0 0.289 4.269 7.646 5.356 9.23 0.091 0.133 3.98 1.292 8.642 2.578l8.476 2.337 281.13 0.152 7.764-2.066zM590.859 547.959l8.238-2.137 2.59-4.331c1.425-2.382 2.59-4.751 2.59-5.264s-1.247-2.883-2.771-5.265l-2.771-4.332-17.29-4.332h-281.339l-17.129 4.495-5.746 9.452 5.542 9.344 15.449 4.386 284.399 0.122 8.238-2.137zM754.649 515.204c22.268-3.623 42.119-14.043 60.337-31.673 22.779-22.043 34.136-43.425 37.791-71.152 1.228-9.313 0.509-31.296-1.297-39.636-3.533-16.32-11.075-33.424-19.986-45.323-20.553-27.445-46-43.807-76.437-49.145-11.008-1.931-32.257-1.955-42.905-0.050-9.154 1.638-21.471 5.321-28.732 8.592-29.005 13.064-52.954 39.085-63.513 69.011-3.929 11.134-5.821 21.632-6.378 35.371-1.449 35.797 9.676 64.898 34.203 89.469 29.385 29.437 65.855 41.218 106.916 34.537zM267.575 447.083c12.833-3.716 25.054-16.106 28.936-29.336 1.88-6.407 1.719-18.149-0.34-24.814-5.765-18.666-25.518-32.122-44.697-30.449-11.557 1.008-19.571 5.066-28.321 14.342-8.763 9.289-12.796 20.577-11.672 32.666 1.038 11.167 5.565 19.897 14.708 28.361 11.338 10.497 25.841 13.732 41.387 9.23zM172.57 320.644c0.136 7.079 0.136 18.664 0 25.743s-0.247 1.287-0.247-12.872c0-14.159 0.111-19.951 0.247-12.872zM868.857 322.735c0.14 5.982 0.14 15.544-0.001 21.248s-0.255 0.81-0.254-10.877c0.001-11.687 0.115-16.354 0.255-10.372zM867.97 305.525c0.227 0.562 0.227 1.481 0 2.043s-0.412 0.102-0.412-1.022c0-1.124 0.185-1.583 0.412-1.022zM173.342 303.497c0.207 0.795 0.194 1.898-0.030 2.452s-0.394-0.097-0.377-1.446c0.017-1.348 0.2-1.801 0.407-1.006zM867.169 300.672c0.236 0.59 0.208 1.295-0.064 1.566s-0.465-0.211-0.429-1.073c0.039-0.952 0.233-1.146 0.494-0.494zM174.151 299.038c0.236 0.59 0.207 1.295-0.064 1.566s-0.465-0.211-0.429-1.073c0.039-0.952 0.233-1.146 0.494-0.494zM866.352 296.586c0.236 0.59 0.207 1.295-0.065 1.566s-0.465-0.211-0.429-1.073c0.040-0.952 0.233-1.146 0.494-0.494zM190.346 268.136c2.669-2.697 4.668-4.903 4.444-4.903s-2.592 2.207-5.261 4.903c-2.669 2.697-4.668 4.903-4.444 4.903s2.592-2.207 5.261-4.903zM853.535 270.339c0 0.624-0.692 0.036-3.313-2.816l-2.816-3.065 3.065 2.816c1.686 1.549 3.065 2.928 3.065 3.065zM843.322 261.602c0.738 1.193 0.242 0.977-2.046-0.895-1.76-1.44-1.795-1.55-0.25-0.795 0.986 0.482 2.019 1.242 2.296 1.689zM206.214 256.993c-0.187 0.164-1.26 0.736-2.384 1.271-1.926 0.917-1.953 0.9-0.457-0.298 1.302-1.043 3.962-1.954 2.84-0.973zM221.588 252.115c0.272 0.272-0.211 0.465-1.073 0.429-0.952-0.039-1.146-0.233-0.494-0.494 0.59-0.236 1.295-0.207 1.566 0.064zM225.675 251.297c0.272 0.272-0.211 0.465-1.073 0.429-0.952-0.039-1.146-0.233-0.494-0.494 0.59-0.236 1.295-0.207 1.566 0.064zM804.501 250.034c-5.753-0.682-562.387-0.663-570.024 0.020-3.146 0.281 124.833 0.512 284.399 0.512s288.097-0.239 285.625-0.532z"></path>
</svg>
