<!-- Generated by IcoMoon.io -->
<svg version="1.1" xmlns="http://www.w3.org/2000/svg" width="1014" height="1024" viewBox="0 0 1014 1024">
<title></title>
<g id="icomoon-ignore">
</g>
<path fill="#000" d="M166.952 245.728c0 18.542 7.346 36.204 20.293 49.294h639.5c12.948-13.087 20.293-30.743 20.293-49.294 0-38.639-31.44-70.080-70.088-70.080h-84.913c-8.727 0-15.795-7.076-15.795-15.795 0-8.727 7.068-15.795 15.795-15.795h62.53c7.684-11.474 11.863-25.072 11.863-38.993 0-38.647-31.44-70.088-70.088-70.088h-378.694c-38.647 0-70.088 31.44-70.088 70.088 0 14.109 4.079 27.469 11.839 38.993h366.058c8.727 0 15.795 7.068 15.795 15.795-70.17 84.553-469.23-80.336-474.299 85.875z"></path>
<path fill="#000" d="M86.672 396.699c0 20.713 8.976 39.997 24.687 53.365h203.612c38.139-66.617 109.927-111.599 192.027-111.599s153.891 44.981 192.027 111.599h203.62c15.53-13.26 24.68-32.848 24.68-53.365 0-38.647-31.433-70.088-70.080-70.088h-700.491c-38.639 0-70.080 31.44-70.080 70.088z"></path>
<path fill="#000" d="M81.67 621.821h213.17c-5.872-20.039-8.95-40.967-8.95-62.249 0-27.419 5.033-53.677 14.191-77.921h-218.411c-38.647 0-70.088 31.433-70.088 70.080s31.44 70.088 70.088 70.088z"></path>
<path fill="#000" d="M237.042 909.376h134.855c-18.946-13.079-31.391-34.938-31.391-59.648 0 0 0.396-138.943 1.127-143.434-14.214-16.018-25.88-33.834-34.815-52.88h-210.808c-6.103 10.589-9.338 22.525-9.338 34.911 0 38.647 31.44 70.088 70.080 70.088h129.185c8.727 0 15.795 7.076 15.795 15.795s-7.068 15.795-15.795 15.795h-98.692c-12.948 13.087-20.293 30.751-20.293 49.294 0 38.639 31.44 70.080 70.087 70.080z"></path>
<path fill="#000" d="M528.569 909.376v-95.944c0-5.956-3.505-21.536-22.632-21.536-11.32 0-20.501 10.67-20.501 22.59v35.25c-0.008 24.703-12.455 46.562-31.391 59.641z"></path>
<path fill="#000" d="M641.901 720.086c0-29.936-24.349-54.285-54.285-54.285h-161.237c-29.928 0-54.285 24.349-54.285 54.285v129.639c0 22.532 18.338 40.868 40.875 40.868s40.875-18.327 40.875-40.868v-35.242c0-29.024 16.988-54.204 53.199-54.204 44.915 0 53.111 38.689 53.111 53.15v134.73c0 22.532 18.338 40.868 40.875 40.868 22.532 0 40.868-18.338 40.868-40.868z"></path>
<path fill="#000" d="M847.042 839.294c0-18.55-7.346-36.212-20.293-49.294h-153.257v119.373h103.471c38.639 0 70.080-31.44 70.080-70.080z"></path>
<path fill="#000" d="M927.325 688.326c0-12.355-3.201-24.326-9.304-34.911h-210.769c-8.934 19.054-20.632 36.877-34.88 52.911 0.724 4.483 1.12 52.091 1.12 52.091h183.754c38.647 0 70.088-31.44 70.080-70.088z"></path>
<path fill="#000" d="M1002.422 551.734c0-38.639-31.44-70.080-70.088-70.080h-218.411c9.157 24.244 14.183 50.502 14.183 77.921 0 21.313-3.036 42.241-8.892 62.249h213.12c38.639 0 70.088-31.44 70.088-70.088z"></path>
</svg>
