<!-- Generated by IcoMoon.io -->
<svg version="1.1" xmlns="http://www.w3.org/2000/svg" width="1732" height="1024" viewBox="0 0 1732 1024">
<title></title>
<g id="icomoon-ignore">
</g>
<path fill="#000" d="M871.268 517.207q34.712 0 34.712-34.712v-201.329q0-34.712-34.712-34.712h-104.136q-34.712 0-34.712 34.712v201.329q0 34.712 34.712 34.712h104.136zM1124.665 517.207q34.712 0 34.712-34.712v-201.329q0-34.712-34.712-34.712h-104.136q-34.712 0-34.712 34.712v201.329q0 34.712 34.712 34.712h104.136zM229.098 187.444h1277.397q62.481 0 111.078 59.010h-59.010q-34.712 0-34.712 34.712v201.329q0 34.712 34.712 34.712h114.549l13.885-3.471-10.414 260.339h-260.339v-492.909q0-34.712-34.712-34.712h-104.136q-34.712 0-34.712 34.712v492.909h-197.858v-62.481q0-34.712-34.712-34.712h-635.227q-34.712 0-34.712 34.712v62.481h-281.166q-27.769-301.993 3.471-416.542 38.183-170.088 166.617-170.088zM1402.36 45.125h-510.264v93.722h510.264v-93.722zM1610.631 978.875v-138.847h-72.895v138.847h72.895zM860.854 791.431q38.183 0 62.481 24.298l24.298 62.481q0 34.712-24.298 59.010l-62.481 24.298q-34.712 0-59.010-24.298t-24.298-59.010 24.298-62.481q24.298-24.298 59.010-24.298zM475.553 246.454h-45.125q-34.712 0-34.712 34.712v201.329q0 34.712 34.712 34.712h45.125q34.712 0 34.712-34.712v-201.329q0-34.712-34.712-34.712zM291.58 246.454h-48.597q-34.712 0-34.712 34.712v201.329q0 34.712 34.712 34.712h48.597q34.712 0 34.712-34.712v-201.329q0-34.712-34.712-34.712zM555.39 45.125h-204.8v93.722h204.8v-93.722zM531.092 791.431q34.712 0 59.010 24.298 24.298 27.769 24.298 62.481t-24.298 59.010-59.010 24.298-62.481-24.298l-24.298-59.010q0-34.712 24.298-62.481 27.769-24.298 62.481-24.298z"></path>
<path fill="none" stroke="#000" stroke-width="69.4237" stroke-miterlimit="4" stroke-linecap="square" stroke-linejoin="round" d="M1124.665 517.207h-104.136q-34.712 0-34.712-34.712v-201.329q0-34.712 34.712-34.712h104.136q34.712 0 34.712 34.712v201.329q0 34.712-34.712 34.712M871.268 517.207h-104.136q-34.712 0-34.712-34.712v-201.329q0-34.712 34.712-34.712h104.136q34.712 0 34.712 34.712v201.329q0 34.712-34.712 34.712M229.098 187.444h1277.397q62.481 0 111.078 59.010h-59.010q-34.712 0-34.712 34.712v201.329q0 34.712 34.712 34.712h114.549l13.885-3.471-10.414 260.339h-260.339v-492.909q0-34.712-34.712-34.712h-104.136q-34.712 0-34.712 34.712v492.909h-197.858v-62.481q0-34.712-34.712-34.712h-635.227q-34.712 0-34.712 34.712v62.481h-281.166q-27.769-301.993 3.471-416.542 38.183-170.088 166.617-170.088M1402.36 45.125v93.722h-510.264v-93.722h510.264M1610.631 978.875h-72.895v-138.847h72.895v138.847M860.854 791.431q38.183 0 62.481 24.298l24.298 62.481q0 34.712-24.298 59.010l-62.481 24.298q-34.712 0-59.010-24.298t-24.298-59.010 24.298-62.481q24.298-24.298 59.010-24.298M475.553 246.454h-45.125q-34.712 0-34.712 34.712v201.329q0 34.712 34.712 34.712h45.125q34.712 0 34.712-34.712v-201.329q0-34.712-34.712-34.712M291.58 246.454h-48.597q-34.712 0-34.712 34.712v201.329q0 34.712 34.712 34.712h48.597q34.712 0 34.712-34.712v-201.329q0-34.712-34.712-34.712M555.39 45.125v93.722h-204.8v-93.722h204.8M531.092 791.431q34.712 0 59.010 24.298 24.298 27.769 24.298 62.481t-24.298 59.010-59.010 24.298-62.481-24.298l-24.298-59.010q0-34.712 24.298-62.481 27.769-24.298 62.481-24.298"></path>
</svg>
