<!-- Generated by IcoMoon.io -->
<svg version="1.1" xmlns="http://www.w3.org/2000/svg" width="1109" height="1024" viewBox="0 0 1109 1024">
<title></title>
<g id="icomoon-ignore">
</g>
<path fill="#000" d="M364.15 462.717h145.112v-147.85h-145.112v147.85zM161.54 314.866v147.85h150.588v-147.85h-150.588zM1073.283 219.038l-30.118 54.759-35.594-21.904v736.513h-145.112v-276.535h-175.23v276.535h-260.107v-276.535h-180.706v276.535h-139.636v-662.588l-35.594 21.904-35.594-52.021 301.176-191.658 158.802 104.043 279.273-172.492 298.438 183.444zM802.225 314.866v147.85h147.85v-147.85h-147.85zM599.615 314.866v147.85h147.85v-147.85h-147.85z"></path>
<path fill="none" stroke="#000" stroke-width="54.7594" stroke-miterlimit="4" stroke-linecap="square" stroke-linejoin="round" d="M599.615 314.866h147.85v147.85h-147.85v-147.85M802.225 314.866h147.85v147.85h-147.85v-147.85M1073.283 219.038l-298.438-183.444-279.273 172.492-158.802-104.043-301.176 191.658 35.594 52.021 35.594-21.904v662.588h139.636v-276.535h180.706v276.535h260.107v-276.535h175.23v276.535h145.112v-736.513l35.594 21.904 30.118-54.759M161.54 314.866h150.588v147.85h-150.588v-147.85M364.15 462.717v-147.85h145.112v147.85h-145.112"></path>
</svg>
