<!-- Generated by IcoMoon.io -->
<svg version="1.1" xmlns="http://www.w3.org/2000/svg" width="1392" height="1024" viewBox="0 0 1392 1024">
<title></title>
<g id="icomoon-ignore">
</g>
<path fill="#000" d="M556.188 350.201h2.588l5.178 2.588-7.766-2.588z"></path>
<path fill="#000" d="M700.853 41.365c-7.653 5.007-14.234 12.148-22.836 15.492-17.191 2.268-34.4 5.128-51.346 8.631-39.551 14.925-79.703 28.334-118.722 44.623-25.592 12.178-48.885 28.69-71.483 45.662-58.638 45.498-108.135 102.225-148.369 164.433-40.29 63.074-69.471 133.573-83.351 207.202-4.238 32.089-8.656 64.203-11.56 96.431 0.648 3.34 5.186-0.932 7.072-0.908 11.262-4.232 22.342-9.443 33.693-13.111 22.274 0.64 44.676 2.536 66.885 2.258 17.037-18.47 35.287-35.927 51.147-55.425-1.431-38.232-5.535-76.452-6.852-114.739 3.3-43.863 11.848-87.629 28.931-128.307 14.591-35.828 36.191-68.585 62.658-96.739 27.257-30.756 60.019-56.685 96.88-74.882 21.66-11.322 44.31-20.828 68.237-25.995 30.507-8.163 61.894-12.108 93.161-16.113 20.104 1.271 40.373 0.996 60.359 3.424 16.99 6.783 34.619 12.248 52.278 17.082 19.646 6.222 38.259 15.534 56.622 24.849 34.4 17.617 62.166 45.003 91.152 70.015 36.167 32.065 58.829 76.069 76.777 120.241 15.048 38.995 29.136 78.813 35.882 120.218 2.269 16.858 3.884 34.477-1.724 50.875-2.457 22.785-0.219 46.007-5.652 68.412-2.474 5.245 4.796 5.037 7.843 6.959 29.487 11.574 59.978 20.528 90.059 30.308 1.090-2.145 2.929-0.176 5.112 0.369 11.484 4.085 22.784 8.863 34.425 12.448 1.845-2.74-0.475-7.005-0.144-10.235-3.637-31.076-6.639-62.268-11.686-93.15-22.692-112.719-80.935-216.515-159.143-300.118-45.448-48.783-100.462-87.993-159.414-118.791-23.559-11.279-49.055-17.668-73.52-26.615-25.983-9.039-52.362-17.314-78.096-26.866-5.394-2.001-10.078-5.962-15.26-7.932z"></path>
<path fill="#000" d="M441.913 623.936c-18.628 6.79-35.902 16.915-53.796 25.417-14.199 5.861-24.877 17.281-37.171 26.152-31.804 24.612-62.71 50.376-92.385 77.526-7.453 1.883-14.648 7.053-22.475 4.13-4.416-0.81-9.563-0.605-11.574-5.464-3.324-4.388-8.229-8.22-6.616-14.334-0.105-6.575-0.807-13.29 3.474-18.827 4.842-10.245 11.386-20.717 11.715-32.205-4.748 1.441-8.725 5.775-13.053 8.433-10.277 7.573-18.076 17.868-26.427 27.364-2.582 11.827-6.44 23.611-8.256 35.463 2.205 12.624 5.548 25.086 11.911 36.309 4.841 9.35 9.132 19.165 14.357 28.202 16.433 3.451 32.843 7.188 49.29 10.46 19.536-7.476 40.374-12.081 58.662-22.504 46.706-28.986 90.837-61.91 133.962-95.926 3.564-3.506 5.955-8.165 9.867-11.506 4.426-5.176 9.5-10.023 12.947-15.907-10.565-21.080-21.979-41.924-33.424-62.581-0.276-0.233-0.662-0.246-1.002-0.207z"></path>
<path fill="#000" d="M501.951 795.815c-10.452 5.155-21.348 9.239-31.367 15.297-37.277 20.491-74.876 40.446-111.635 61.856-5.619 3.452-10.808 8.431-17.829 8.303-18.419 2.437-34.561 13.321-53.024 15.623-2.414 0.838-8.87 0.18-6.426 4.486 3.652 12.363 8.202 24.402 13.986 35.88 6.957 12.089 17.931 22.251 30.918 27.408 13.306 3.35 26.299 8.552 40.124 10.013 8.959 0.1 17.829-2.983 26.727-4.143 13.939-2.813 28.43-4.515 41.010-11.65 13.811-6.224 27.743-12.322 42.141-16.928 12.35-5.564 24.176-12.030 36.915-16.577 19.21-8.187 37.678-18.396 56.718-26.654 3.566 0.45 5.057-3.278 3.7-6.164-4.759-21.193-11.183-42.445-16.038-63.334 2.766-1.050-0.532-5.208-0.567-7.212-1.732-4.232-1.591-10.209-7.143-11.151-12.7-5.753-23.808-14.597-35.769-21.346-4.148 2.097-8.296 4.194-12.444 6.29z"></path>
<path fill="#000" d="M693.714 851.545c-21.49 1.029-42.114 7.668-62.779 13.065-1.368 9.021-0.344 18.87-0.809 28.207 0.3 7.196-0.875 14.745 0.331 21.726 3.134 4.477 4.882 10.431 8.832 14.042 9.157 3.429 17.808 9.043 27.952 8.264 15.624 0.988 31.265 2.846 46.894 0.83 9.634-1.183 19.927 0.299 28.59-4.911 5.35-2.533 12.098-3.525 14.076-9.976 2.823-4.308 5.943-8.575 4.726-14.020 0-14.528 0-29.057 0-43.585-7.887-3.388-17.149-4.725-25.593-7.253-13.791-3.562-27.943-6.201-42.222-6.381z"></path>
<path fill="#000" d="M694.951 639.686c-21.265 0.941-41.239 9.412-61.372 15.519-10.92 3.771-21.519 9.050-30.784 15.903 5.113 22.024 11.982 43.821 17.885 65.722 7.563 26.498 14.804 53.099 22.847 79.454 5.998 1.525 12.887 0.36 19.188 0.864 27.597 0.122 55.232 0.655 82.811-0.020 9.168-29.719 17.256-60.098 25.975-90.079 5.082-18.742 10.944-37.36 15.192-56.282-19.343-13.473-42.495-19.782-64.764-26.762-8.768-2.511-17.803-4.501-26.975-4.316z"></path>
<path fill="#000" d="M853.481 786.6c-4.31-0.485-8.562 1.457-9.919 5.808-10.010 22.398-14.369 46.802-19.967 70.559-2.063 11.15-5.325 22.212-6.438 33.477 1.248 1.935 4.549 1.237 6.349 2.847 48.899 21.082 97.255 43.69 146.039 65.012 18.174 3.319 36.117 8.618 54.543 10.211 15.995-2.535 32.502-5.173 47.090-12.535 17.644-10.932 29.824-29.625 33.761-49.88 0.528-4.235 3.43-8.79 2.561-12.983-7.11-3.667-15.583-3.976-22.943-7.244-18.333-7.363-37.116-13.919-55.823-20.357-47.013-24.962-93.336-51.273-141.075-74.833-10.771-4.887-22.128-10.016-34.175-10.082z"></path>
<path fill="#000" d="M945.502 623.795c-3.613 4.178-4.342 10.514-6.641 15.537-6.303 18.365-12.516 36.77-18.317 55.297 15.454 13.767 32.344 26.517 48.353 39.892 26.126 21.252 51.865 43.182 80.687 60.781 10.855 6.725 21.143 14.483 32.038 21.056 16.153 6.241 32.864 11.014 49.359 16.183 15.691-3.614 31.632-6.661 47.168-10.623 7.809-13.786 17.141-26.911 23.665-41.335 1.068-8.318 4.177-16.556 4.77-24.827-3.797-12.172-6.522-24.895-10.961-36.736-8.908-10.633-17.67-21.712-29.739-28.96-1.762-0.57-5.334-4.936-6.596-2.162 5.003 14.939 10.44 29.887 14.258 45.17-5.251 9.675-12.515 19.173-22.122 24.64-8.904-1.704-18.508-3.707-24.729-10.882-16.442-14.173-31.969-29.568-50.091-41.61-33.328-24.403-64.207-52.966-102.032-70.504-9.375-4.173-18.892-9.216-29.068-10.923z"></path>
<path fill="#000" d="M760.53 570.206c-2.853 5.445-2.884 12.41-4.482 18.43-0.992 7.101-3.267 14.306-3.112 21.431 13.809 7.39 27.188 15.82 41.321 22.526 2.431-3.325 1.385-8.678 2.461-12.695 1.053-10.624 2.765-21.289 2.896-31.949-12.143-6.895-25.3-12.294-38.235-17.658-0.273-0.075-0.563-0.169-0.849-0.091z"></path>
<path fill="#000" d="M773.466 521.078c-3.078 5.616-3.356 12.778-5.109 19.007-0.577 5.042-3.010 10.426-2.176 15.387 14.336 8.007 28.922 15.985 43.609 23.089 0.932-11.264 0.809-23.112 0.468-34.598 0.049-5.333-6.904-6.026-10.117-8.9-8.808-4.69-17.387-10.459-26.672-13.986z"></path>
<path fill="#000" d="M680.072 481.93c3.318 6.124 8.099 12.071 10.448 19.058 3.57 7.709 3.283 16.453 5.154 24.558 2.254 1.753 2.849-3.781 4.156-4.778 6.673-12.941 13.988-25.76 20.354-38.718-12.885-1.001-26.394-0.133-39.517-0.425z"></path>
<path fill="#000" d="M618.050 520.677c-12.597 6.652-25.328 13.654-37.202 21.267 0.31 12.149-0.632 24.518 0.619 36.555 5.409-1.164 10.276-5.508 15.459-7.834 8.869-5.313 18.561-9.795 26.882-15.74-1.004-11.357-2.519-22.783-4.873-33.931-0.207-0.312-0.569-0.407-0.885-0.313z"></path>
<path fill="#000" d="M631.011 569.749c-13.817 5.666-27.775 11.445-40.99 18.302 0.291 12.759 3.697 25.409 5.672 38.029 0.916 1.909 0.040 8.67 3.702 6.175 12.363-7.429 25.211-14.404 36.977-22.633 0.566-11.481-2.493-22.964-3.648-34.385-0.746-1.541 0.271-4.878-1.715-5.485z"></path>
<path fill="#000" d="M434.286 386.336c-2.601 9.785-3.059 20.464-4.804 30.577-1.244 12.534-5.038 25.026-2.458 37.625 3.076 29.967 6.166 59.999 9.174 89.931 3.2 1.319 7.040-2.004 10.359-2.438 19.642-7.002 39.643-13.239 58.946-21.047 12.941-17.524 26.469-34.615 40.535-51.233-1.274-3.387-6.356-4.544-8.989-7.040-16.851-10.84-33.882-21.757-51.18-31.678-7.885-5.365-14.042-13.435-22.742-17.468-9.786-1.109-20.434-6.45-22.935-16.786-1.77-3.453-2.883-7.487-5.381-10.452z"></path>
<path fill="#000" d="M667.461 183.615c-13.206 1.756-27.011 0.665-39.434 6.17-35.042 11.562-68.565 29.242-95.862 54.278-20.647 20.843-41.251 41.788-60.788 63.682-7.394 9.322-13.393 19.697-20.033 29.524-1.905 4.406-3.779 9.062-4.636 13.707 2.53 0.976 5.882 0.441 7.011-2.165 12.732-4.972 26.829-5.084 40.287-6.524 11.138-0.316 22.527-3.177 33.306 0.875 10.349 2.389 21.52 5.27 31.188 8.332 2.342 3.857 8.211 3.435 11.937 5.331 11.844 3.833 24.32 6.019 35.688 10.985 8.882 5.227 17.139 12.801 19.379 23.239 2.728 8.656 1.098 17.736 2.587 26.524 4.808 1.864 10.559-0.646 15.648-0.352 18.619-1.174 37.252-3.542 55.877-3.774 21.223 1.711 42.533 2.985 63.683 5.153 1.952-4.577 0.181-10.751 1.098-15.871 0.567-13.251 6.849-26.899 18.995-33.347 8.093-5.517 18.392-6.337 27.479-9.541 10.379-2.604 20.449-6.299 30.275-10.369 11.411-3.304 23.043-6.779 34.728-8.608 20.224 1.725 41.020 1.252 60.611 7.176 2.164 0.683 2.498 3.836 5.35 3.233 4.793 0.491 2.788-5.596 2.201-8.227-2.541-10.677-10.682-18.877-16.729-27.703-21.406-25.674-46.587-48.139-67.903-73.784-30.903-26.080-68.143-43.952-106.717-55.393-19.428-1.548-38.854-3.976-58.284-4.983-8.977 0.807-17.954 1.614-26.931 2.417z"></path>
<path fill="#000" d="M506.487 362.738c-14.889 2.205-29.467 6.801-43.346 12.581-2.298 0.697-4.648 3.459-1.966 5.322 9.418 8.687 20.657 15.199 30.614 23.266 19.066 13.449 37.969 27.309 58.142 39.046 4.316 1.917 7.778-3.566 11.644-4.591 15.307-8.745 30.755-17.611 46.158-25.913 1.109-3.286-2.736-6.518-3.506-9.66-3.038-5.719-5.679-11.799-9.111-17.207-29.122-6.509-57.754-14.78-86.535-22.559-0.687-0.137-1.381-0.341-2.089-0.286z"></path>
<path fill="#000" d="M881.965 362.404c-17.151 3.813-33.987 8.782-50.482 14.802-11.809 4.33-24.516 6.559-35.718 12.365-8.449 5.866-7.724 17.604-6.485 26.43 16.426 9.278 32.585 19.504 49.177 28.209 22.674-13.46 44.561-28.317 66.126-43.5 8.873-7.453 20.183-12.278 26.491-22.439 3.248-3.21-2.909-6.088-5.333-7.784-13.609-6.257-29.116-6.76-43.771-8.082z"></path>
<path fill="#000" d="M939.395 419.646c-14.781 2.669-26.297 13.483-40.015 18.954-18.775 8.572-36.874 18.956-53.94 30.35 10.311 11.006 21.51 21.49 29.408 34.545 4.264 6.062 7.999 12.643 12.622 18.378 19.866 5.007 39.623 10.944 59.563 15.356 3.419-3.084 2.464-8.969 4.385-12.969 3.876-15.322 9.032-32.28 2.472-47.586-4.105-17.801-4.835-36.268-9.165-53.986-0.842-1.989-3.285-3.039-5.333-3.042z"></path>
</svg>
