<!-- Generated by IcoMoon.io -->
<svg version="1.1" xmlns="http://www.w3.org/2000/svg" width="1027" height="1024" viewBox="0 0 1027 1024">
<title></title>
<g id="icomoon-ignore">
</g>
<path d="M419.76 120.313h195.175l-96.251-80.209-98.924 80.209zM994.59 256.669v-72.188l-232.606 29.41v10.695l232.606 32.084zM379.655 363.614h280.731v-56.146h-280.731v56.146zM596.219 165.765h-152.397v109.619h152.397v-109.619zM32.084 256.669l235.279-32.084v-10.695l-235.279-29.41v72.188zM459.864 727.227v179.133h-88.23l37.431-507.99h216.564l40.104 507.99h-85.556v-179.133q0-26.736-18.715-45.452l-42.778-16.042q-26.736 0-40.104 16.042-18.715 18.715-18.715 45.452zM278.058 991.917h478.58v-50.799h-478.58v50.799z"></path>
</svg>
