<!-- Generated by IcoMoon.io -->
<svg version="1.1" xmlns="http://www.w3.org/2000/svg" width="571" height="1024" viewBox="0 0 571 1024">
<title></title>
<g id="icomoon-ignore">
</g>
<path d="M284.16 43.52l-158.72 99.84h320l-161.28-99.84zM417.28 302.080v-81.92h-81.92v81.92h81.92zM535.040 476.16v-28.16h-130.56v28.16h130.56zM199.68 476.16h171.52v-28.16h-171.52v28.16zM199.68 381.44v33.28h171.52v-33.28h-171.52zM535.040 381.44h-130.56v33.28h130.56v-33.28zM476.16 179.2v166.4h-384v-166.4h384zM524.8 983.040l-20.48-202.24-179.2 97.28 199.68 104.96zM463.36 988.16l-174.080-92.16-174.080 92.16h348.16zM455.68 734.72l-168.96-102.4-168.96 102.4h337.92zM120.32 768l168.96 92.16 171.52-92.16h-340.48zM499.2 721.92l-20.48-207.36-158.72 97.28 179.2 110.080zM286.72 593.92l133.12-81.92h-263.68l130.56 81.92zM235.52 302.080v-81.92h-81.92v81.92h81.92zM92.16 512h-2.56l-17.92 212.48 184.32-112.64-163.84-99.84zM35.84 476.16h130.56v-28.16h-130.56v28.16zM35.84 381.44v33.28h130.56v-33.28h-130.56zM46.080 988.16l207.36-110.080-186.88-99.84-20.48 209.92z"></path>
</svg>
