<!-- Generated by IcoMoon.io -->
<svg version="1.1" xmlns="http://www.w3.org/2000/svg" width="1290" height="1024" viewBox="0 0 1290 1024">
<title></title>
<g id="icomoon-ignore">
</g>
<path opacity="0.985663" fill="#000" d="M1007.989 569.672h-236.315v79.4h236.315v-79.4zM1007.989 802.206v-81.291h-236.315v81.291h236.315zM295.263 649.072h236.315v-79.4h-236.315v79.4zM531.578 720.911h-236.315v81.291h236.315v-81.291zM295.263 263.408v81.291h236.315v-81.291h-236.315zM295.263 497.833h236.315v-81.291h-236.315v81.291zM618.544 166.99q-54.825-30.248-147.458-30.248-49.154 0-109.651 32.14-49.154 28.356-83.181 26.465l-98.309-9.452v701.381h438.599v-720.288zM771.674 263.408v249.548h236.315v-249.548h-236.315zM645.009 106.493q62.387-39.703 190.942-39.703 68.058 0 147.458 41.593 45.374 22.684 64.277 20.794h3.781l124.774-17.013 24.575 3.781 11.342 20.794v794.017q0 26.465-28.356 26.465h-1079.487q-26.465 0-26.465-26.465v-794.017l11.342-20.794 24.575-3.781 122.884 17.013h3.781q22.684 1.89 64.277-20.794 79.4-41.593 149.349-41.593 128.555 0 190.942 39.703zM1011.769 195.35q-35.922 1.89-83.181-26.465-64.277-32.14-111.541-32.14-92.636 0-147.458 30.248v720.288h440.489v-701.381l-98.309 9.452z"></path>
</svg>
