<!-- Generated by IcoMoon.io -->
<svg version="1.1" xmlns="http://www.w3.org/2000/svg" width="1024" height="1024" viewBox="0 0 1024 1024">
<title></title>
<g id="icomoon-ignore">
</g>
<path d="M660.48 614.4v-181.76h-53.76v181.76h53.76zM458.24 614.4h104.96v-176.64l-15.36-35.84-35.84-15.36-38.4 15.36q-15.36 15.36-15.36 35.84v176.64zM747.52 199.68l240.64 409.6v115.2h-238.080v-179.2h76.8l-199.68-345.6h120.32zM906.24 686.080v-30.72l-15.36-38.4q-15.36-15.36-38.4-15.36-20.48 0-35.84 15.36t-15.36 38.4v30.72h104.96zM952.32 760.32v227.84h-202.24v-227.84h202.24zM414.72 614.4v-181.76h-53.76v181.76h53.76zM906.24 924.16v-125.44h-104.96v125.44h104.96zM414.72 773.12v215.040h-107.52v-478.72h-51.2l256-437.76 253.44 437.76h-51.2v478.72h-107.52v-215.040q0-35.84-25.6-61.44-23.040-25.6-58.88-25.6h-20.48q-35.84 0-61.44 25.6t-25.6 61.44zM35.84 724.48v-115.2l240.64-409.6h120.32l-202.24 345.6h76.8v179.2h-235.52zM220.16 924.16v-125.44h-102.4v125.44h102.4zM220.16 686.080v-30.72q0-23.040-15.36-38.4t-35.84-15.36-35.84 15.36l-15.36 38.4v30.72h102.4zM69.12 988.16v-227.84h202.24v227.84h-202.24z"></path>
</svg>
