<!-- Generated by IcoMoon.io -->
<svg version="1.1" xmlns="http://www.w3.org/2000/svg" width="1024" height="1024" viewBox="0 0 1024 1024">
<title></title>
<g id="icomoon-ignore">
</g>
<path fill="#000" d="M669.333 288v573.333h109.333v-573.333h-109.333zM989.333 261.333h-32v26.667h-88v573.333h69.333v45.333h18.667v42.667h32v40h-954.667v-40h26.667v-42.667h21.333v-45.333h72v-573.333h-93.333v-26.667h-26.667v-34.667l474.667-192 480 192v34.667zM573.333 288h-120v573.333h120v-573.333zM242.667 288v573.333h112v-573.333h-112z"></path>
<path fill="none" stroke="#000" stroke-width="53.3333" stroke-miterlimit="4" stroke-linecap="square" stroke-linejoin="round" d="M669.333 288v573.333h109.333v-573.333h-109.333M989.333 261.333h-32v26.667h-88v573.333h69.333v45.333h18.667v42.667h32v40h-954.667v-40h26.667v-42.667h21.333v-45.333h72v-573.333h-93.333v-26.667h-26.667v-34.667l474.667-192 480 192v34.667M573.333 288h-120v573.333h120v-573.333M242.667 288v573.333h112v-573.333h-112"></path>
</svg>
