<!-- Generated by IcoMoon.io -->
<svg version="1.1" xmlns="http://www.w3.org/2000/svg" width="1024" height="1024" viewBox="0 0 1024 1024">
<title></title>
<g id="icomoon-ignore">
</g>
<path d="M309.715 39.5c-2.892 0-5.619 0.727-8.148 2.172l0.012-0.008-252.834 134.846c-0.001 0-0.001 0.002-0.002 0.002-6.113 2.879-9.238 8.038-9.238 15.201v775.428c0.001 4.687 1.734 8.788 5.15 12.205s7.517 5.15 12.205 5.15c2.892 0 5.621-0.727 8.15-2.172l252.822-134.84c6.113-2.879 9.238-8.038 9.238-15.201v-775.428c-0.001-4.687-1.734-8.788-5.15-12.205s-7.517-5.15-12.205-5.15zM377.145 39.5c-4.687 0.001-8.788 1.734-12.205 5.15s-5.152 7.517-5.152 12.205v775.428c0 6.829 3.3 12.135 9.738 15.713l0.010 0.006 269.727 134.861c2.186 1.092 4.725 1.631 7.598 1.631 4.687-0.001 8.79-1.734 12.207-5.15s5.15-7.517 5.15-12.205v-775.428c0-6.829-3.3-12.135-9.738-15.713l-0.010-0.006-269.727-134.861c-2.186-1.092-4.725-1.631-7.598-1.631zM967.145 39.5c-2.892 0-5.621 0.727-8.15 2.172l-252.82 134.838c-0.001 0-0.001 0.002-0.002 0.002-6.113 2.879-9.238 8.038-9.238 15.201v775.428c0.001 4.687 1.734 8.788 5.15 12.205s7.517 5.15 12.205 5.15c2.892 0 5.619-0.727 8.148-2.172l-0.012 0.008 252.836-134.848c6.113-2.879 9.238-8.038 9.238-15.201v-775.428c-0.001-4.687-1.734-8.788-5.15-12.205s-7.517-5.15-12.205-5.15zM309.715 40.5c4.444 0 8.243 1.602 11.498 4.857s4.857 7.054 4.857 11.498v775.428c0 6.881-2.842 11.557-8.666 14.299l-0.012 0.006-252.879 134.867c-2.387 1.363-4.929 2.041-7.654 2.041-4.444 0-8.243-1.602-11.498-4.857s-4.857-7.054-4.857-11.498v-775.428c0-6.881 2.844-11.557 8.668-14.299l0.010-0.006 252.881-134.867c2.387-1.363 4.927-2.041 7.652-2.041zM377.145 40.5c2.748 0 5.124 0.512 7.15 1.525l269.707 134.852c6.196 3.447 9.215 8.324 9.215 14.834v775.428c0 4.444-1.602 8.243-4.857 11.498s-7.056 4.857-11.5 4.857c-2.748 0-5.124-0.513-7.15-1.525l-269.697-134.846c-6.203-3.447-9.225-8.326-9.225-14.84v-775.428c0-4.444 1.604-8.243 4.859-11.498s7.054-4.857 11.498-4.857zM967.145 40.5c4.444 0 8.243 1.602 11.498 4.857s4.857 7.054 4.857 11.498v775.428c0 6.881-2.844 11.557-8.668 14.299l-0.010 0.006-252.881 134.867c-2.387 1.363-4.927 2.041-7.652 2.041-4.444 0-8.243-1.602-11.498-4.857s-4.857-7.054-4.857-11.498v-775.428c0-6.881 2.842-11.557 8.666-14.299l0.012-0.006 252.879-134.867c2.388-1.363 4.929-2.041 7.655-2.041zM904.857 284.857c-4.736 0-7.309 0.030-9.42 0.408s-3.711 1.105-6.416 2.438c-4.452 2.192-8.763 5.74-18.766 15.383l-12.588 12.135-1.277-1.438c-0.505-0.569-2.237-2.249-4.723-4.617s-5.689-5.382-9.014-8.473c-7.925-7.365-12.396-11.316-16.787-13.445s-8.628-2.374-15.916-2.381c-5.313-0.005-8.043-0.002-10.168 0.379s-3.583 1.148-6.229 2.586c-7.047 3.822-13.58 10.787-17.107 18.234-2.572 5.423-2.809 6.694-2.809 15.109 0 7.117 0.584 11.758 3.871 17.303s9.222 11.985 19.932 22.961l7.029 7.201-7.463 7.635c-13.927 14.25-18.729 19.895-21.064 24.891-2.003 4.297-2.283 6.065-2.273 14.572 0 9.024 0.215 10.091 2.855 15.449h-0.002c4.603 9.353 15.678 18.599 25.010 20.828 4.656 1.113 12.908 0.894 17.963-0.447l0.279-0.072 0.012-0.043c7.079-1.955 12.793-6.036 25.861-18.449l11.766-11.172 11.766 11.172c3.336 3.169 6.883 6.367 9.914 8.973s5.522 4.605 6.852 5.434c12.468 7.75 28.47 7.011 40.504-1.859 5.919-4.366 9.132-8.314 12.373-15.234 2.090-4.458 2.369-6.145 2.369-14.654 0-8.832-0.23-10.084-2.729-15.352h0.002c-1.976-4.175-5.492-8.726-12.709-16.523-5.472-5.916-11.14-11.87-12.68-13.326h-0.002l-2.342-2.205 6.41-6.574c13.705-14.058 19.516-20.855 21.764-25.631 1.017-2.155 1.603-3.666 1.918-5.791s0.367-4.846 0.367-9.523c0-5.061-0.011-7.694-0.396-9.777s-1.149-3.553-2.572-6.178c-3.717-6.856-11.571-14.428-18.221-17.541-2.271-1.064-3.822-1.676-5.92-2.004s-4.719-0.379-9.225-0.379zM904.857 285.857c4.498 0 7.083 0.057 9.070 0.367s3.402 0.869 5.648 1.922c6.354 2.975 14.187 10.507 17.768 17.111 1.42 2.619 2.111 3.948 2.469 5.883s0.379 4.537 0.379 9.596c0 4.67-0.057 7.36-0.355 9.377s-0.83 3.384-1.834 5.512c-2.118 4.5-7.885 11.316-21.576 25.359l-7.119 7.303 3.082 2.902c1.439 1.36 7.168 7.369 12.633 13.277 7.195 7.774 10.639 12.258 12.539 16.271 2.485 5.238 2.631 6.106 2.631 14.924 0 8.49-0.208 9.824-2.273 14.23-3.197 6.825-6.234 10.554-12.063 14.854-11.714 8.635-27.265 9.347-39.383 1.814-1.186-0.739-3.709-2.751-6.727-5.344s-6.554-5.781-9.877-8.938l-12.455-11.826-12.455 11.826c-13.223 12.56-18.71 16.445-25.717 18.313l-0.133 0.035c-4.829 1.25-13.020 1.449-17.344 0.416-8.89-2.123-19.909-11.286-24.344-20.297-2.629-5.335-2.752-5.996-2.752-15.008-0.010-8.487 0.203-9.911 2.18-14.15 2.234-4.779 6.958-10.377 20.873-24.615l8.145-8.332-7.711-7.9c-10.702-10.967-16.597-17.392-19.787-22.773s-3.73-9.726-3.73-16.791c0-8.4 0.155-9.287 2.713-14.682 3.425-7.232 9.856-14.081 16.682-17.783 2.642-1.436 3.95-2.126 5.926-2.48s4.681-0.368 9.992-0.363c7.266 0.007 11.289 0.249 15.48 2.281s8.624 5.919 16.541 13.277c3.322 3.088 6.522 6.1 9.004 8.465s4.279 4.12 4.666 4.557l1.969 2.217 13.338-12.859c9.987-9.628 14.216-13.089 18.514-15.205h0.002c2.695-1.327 4.169-1.995 6.148-2.35s4.513-0.393 9.244-0.393z"></path>
<path d="M50.015 981.908c-3.844-2.098-6.219-4.543-7.854-8.086-1.46-3.164-1.509-15.89-1.527-394.673l-0.018-391.404 1.712-3.537c1.346-2.78 2.876-4.216 7.151-6.711 2.991-1.746 61.827-33.226 130.747-69.955l125.308-66.78 5.237 0.333c5.785 0.368 8.009 1.598 12.154 6.719l2.499 3.088 0.414 785.506-1.677 3.465c-0.922 1.905-2.616 4.079-3.763 4.831s-59.694 32.107-130.105 69.678c-123.77 66.044-128.182 68.321-132.923 68.588-3.433 0.194-5.639-0.125-7.355-1.062z"></path>
<path d="M505.705 915.018c-82.602-41.297-137.621-69.259-139.47-70.883-1.679-1.474-3.55-3.87-4.157-5.323-0.922-2.207-1.104-67.178-1.104-394.159 0-383.649 0.031-391.577 1.56-394.548 3.291-6.398 7.889-9.161 15.243-9.161 4.247 0 10.325 2.944 141.591 68.578 147.043 73.523 141.185 70.347 143.136 77.593 0.591 2.195 0.791 123.815 0.647 393.78l-0.208 390.604-2.452 3.959c-3.16 5.103-7.963 7.763-14.013 7.763-4.141 0-11.147-3.394-140.774-68.202z"></path>
<path d="M642.104 984.082c-1.124-0.348-63.473-31.353-138.554-68.901-147.617-73.823-141.211-70.338-143.335-77.985-1.222-4.4-1.222-780.673 0-785.073 1.108-3.989 5.953-9.374 10.157-11.289 1.798-0.819 5.012-1.497 7.142-1.507 3.514-0.016 16.623 6.354 141.382 68.708 75.63 37.799 138.554 69.702 139.831 70.895s3.025 3.536 3.884 5.207c1.533 2.979 1.558 10.493 1.355 396.086l-0.207 393.049-2.457 3.544c-4.212 6.076-12.684 9.282-19.2 7.266zM361.573 825.288c-0.172-1.91-0.313-0.347-0.313 3.473s0.141 5.384 0.313 3.473c0.172-1.91 0.172-5.036 0-6.947zM658.612 180.487c-0.47-0.562-2.078-1.722-3.573-2.579-3.205-1.836-2.671-1.069 1.125 1.615 3.089 2.184 3.656 2.407 2.448 0.964zM361.573 56.267c-0.172-1.91-0.313-0.347-0.313 3.473s0.141 5.384 0.313 3.473c0.172-1.91 0.172-5.036 0-6.947z"></path>
<path d="M51.361 983.961c-1.507-0.457-4.502-2.594-6.655-4.747-3.149-3.149-4.101-4.78-4.862-8.332-0.712-3.321-0.886-101.060-0.7-394.239l0.247-389.823 1.855-3.472c1.020-1.91 3.227-4.36 4.903-5.445 2.468-1.597 235.221-125.902 253.371-135.316 6.376-3.307 11.22-3.959 15.966-2.146 3.908 1.493 8.105 5.209 10.202 9.034 1.277 2.33 1.388 29.296 1.618 392.733 0.182 286.929 0.003 391.369-0.673 394.527-0.621 2.899-1.764 5.169-3.516 6.98-1.75 1.81-44.748 25.148-131.963 71.627-138.512 73.817-132.459 70.845-139.794 68.619zM41.217 958.907c-0.168-2.135-0.306-0.388-0.306 3.882s0.138 6.017 0.306 3.882c0.168-2.135 0.168-5.629 0-7.764z"></path>
<path d="M707.892 982.075c-2.946-1.299-6.599-4.858-8.453-8.237-1.256-2.289-1.354-31.060-1.354-394.743 0-363.483 0.099-392.454 1.353-394.726 0.744-1.348 2.215-3.225 3.269-4.17s59.654-32.533 130.223-70.195c122.648-65.456 128.526-68.493 133.277-68.855 8.371-0.638 14.649 3.907 16.649 12.053 0.654 2.665 0.84 111.118 0.674 393.909-0.211 360.611-0.331 390.418-1.575 392.685-0.741 1.35-2.102 3.137-3.025 3.972s-59.879 32.554-131.013 70.485c-122.97 65.572-129.537 68.965-133.454 68.934-2.266-0.018-5.223-0.518-6.571-1.113zM821.716 450.899c5.724-2.096 11.486-6.41 23.973-17.949l11.822-10.925 6.914 6.562c11.176 10.607 20.558 18.572 23.86 20.256 17.925 9.145 40.791 1.248 49.911-17.237 2.391-4.845 2.632-6.070 2.886-14.606 0.429-14.424-1.611-18.403-19.073-37.206l-10.788-11.616 10.892-11.681c18.196-19.515 19.1-21.22 19.1-36.030 0-9.064-0.134-9.842-2.526-14.628-3.254-6.512-11.103-14.433-17.905-18.068-5.242-2.802-5.447-2.839-15.544-2.86-9.916-0.021-10.399 0.061-15.638 2.64-5.432 2.674-11.397 7.656-24.537 20.496l-7.092 6.93-10.887-10.151c-20.716-19.315-21.647-19.815-37.039-19.887-10.22-0.048-10.811 0.044-15.52 2.402-6.709 3.36-14.211 11.017-17.667 18.031-2.448 4.968-2.805 6.534-3.062 13.405-0.555 14.885 1.671 19.313 19.060 37.927l11.193 11.981-10.555 11.223c-19.043 20.247-20.127 22.294-19.682 37.183 0.243 8.143 0.54 9.721 2.622 13.961 4.098 8.345 13.915 17.032 22.987 20.342 4.931 1.799 16.747 1.537 22.294-0.494z"></path>
<path d="M706.68 982.649c-2.814-1.482-5.398-3.665-6.947-5.869l-2.466-3.508-0.238-392.408c-0.16-263.803 0.034-393.353 0.591-395.292 0.456-1.586 2.035-4.047 3.507-5.468 1.585-1.529 55.378-30.689 131.778-71.433 139.836-74.574 133.135-71.307 140.203-68.346 4.228 1.771 8.193 5.449 9.881 9.166 1.449 3.189 1.501 16.763 1.518 395.406 0.018 383.829-0.015 392.167-1.537 395.135-0.855 1.668-2.418 3.821-3.473 4.784s-59.991 32.715-130.968 70.559c-143.816 76.681-133.386 71.734-141.851 67.274zM721.377 981.585c0.674-0.436 0.858-0.792 0.409-0.792s-1.369 0.356-2.043 0.792c-0.674 0.436-0.858 0.792-0.409 0.792s1.369-0.356 2.043-0.792zM820.032 449.964c6.132-1.821 12.341-6.349 25.555-18.635l11.84-11.008 8.86 8.287c14.435 13.502 18.659 16.918 24.258 19.619 4.963 2.394 5.902 2.562 14.302 2.562 8.419 0 9.34-0.166 14.513-2.616 7.445-3.526 13.787-9.671 17.365-16.822 2.793-5.583 2.855-5.923 2.847-15.608-0.007-8.658-0.248-10.417-1.922-14.011-2.361-5.071-7.089-10.97-19.046-23.765l-9.247-9.895 10.223-10.783c19.331-20.39 19.956-21.528 19.981-36.35 0.022-13.093-0.886-15.295-10.183-24.689-8.486-8.574-12.263-10.133-24.545-10.133-13.415 0-16.238 1.538-34.881 19.003l-12.152 11.384-8.597-8.043c-22.784-21.313-23.532-21.748-38.162-22.21-10.36-0.327-10.494-0.307-15.658 2.234-6.706 3.301-13.306 9.931-17.128 17.204-2.935 5.586-3.013 5.961-3.037 14.743-0.014 4.956 0.422 10.387 0.968 12.069 1.698 5.234 6.24 11.212 18.001 23.698 6.243 6.627 11.341 12.234 11.328 12.459s-5.721 6.477-12.686 13.893c-8.784 9.354-13.405 14.964-15.088 18.314-2.292 4.564-2.425 5.378-2.425 14.784 0 9.423 0.131 10.216 2.449 14.855 3.336 6.675 11.113 14.287 18.241 17.853 5.179 2.591 6.31 2.843 12.779 2.843 3.947 0 8.94-0.547 11.249-1.233z"></path>
</svg>
