<!-- Generated by IcoMoon.io -->
<svg version="1.1" xmlns="http://www.w3.org/2000/svg" width="1024" height="1024" viewBox="0 0 1024 1024">
<title></title>
<g id="icomoon-ignore">
</g>
<path d="M618.768 179.564h-213.535v225.668h-225.668v213.535h225.668v225.668h213.535v-225.668h225.668v-213.535h-225.668v-225.668zM512 31.545q198.976 0 339.716 140.739t140.739 339.716-140.739 339.716-339.716 140.739-339.716-140.739-140.739-339.716 140.739-339.716 339.716-140.739zM795.905 228.095q-118.9-118.9-283.905-118.9t-281.479 118.9q-118.9 118.9-118.9 283.905t118.9 283.905q116.474 116.474 281.479 116.474t283.905-116.474q116.474-118.9 116.474-283.905t-116.474-283.905z"></path>
</svg>
