<!-- Generated by IcoMoon.io -->
<svg version="1.1" xmlns="http://www.w3.org/2000/svg" width="1024" height="1024" viewBox="0 0 1024 1024">
<title></title>
<g id="icomoon-ignore">
</g>
<path fill="#000" d="M682.667 433.035q48.398-132.458 91.701-132.458 48.398 0 137.552 346.428l78.965 343.88h-336.239q-10.189-101.891-45.851-165.572-38.209-66.229-84.060-66.229t-81.512 66.229q-35.662 63.682-48.398 165.572h-361.711l76.418-267.463q86.607-267.463 152.836-267.463 25.473 0 63.682 73.871 114.627-496.716 198.687-496.716 58.587 0 157.93 399.92z"></path>
<path fill="none" stroke="#000" stroke-width="50.9453" stroke-miterlimit="4" stroke-linecap="square" stroke-linejoin="round" d="M682.667 433.035q48.398-132.458 91.701-132.458 48.398 0 137.552 346.428l78.965 343.88h-336.239q-10.189-101.891-45.851-165.572-38.209-66.229-84.060-66.229t-81.512 66.229q-35.662 63.682-48.398 165.572h-361.711l76.418-267.463q86.607-267.463 152.836-267.463 25.473 0 63.682 73.871 114.627-496.716 198.687-496.716 58.587 0 157.93 399.92z"></path>
</svg>
