<!-- Generated by IcoMoon.io -->
<svg version="1.1" xmlns="http://www.w3.org/2000/svg" width="1024" height="1024" viewBox="0 0 1024 1024">
<title></title>
<g id="icomoon-ignore">
</g>
<path d="M512 38.4q197.12 0 337.92 138.24 138.24 138.24 138.24 335.36t-138.24 337.92q-140.8 138.24-337.92 138.24t-335.36-138.24q-140.8-140.8-140.8-337.92 0-194.56 140.8-335.36 138.24-138.24 335.36-138.24zM668.16 778.24h-302.080q-38.4-2.56-58.88-35.84l-15.36-48.64v-384q5.12-74.24 81.92-79.36h64v-120.32q-122.88 20.48-215.040 112.64-122.88 120.32-122.88 289.28 0 171.52 122.88 291.84 120.32 120.32 289.28 120.32 171.52 0 291.84-120.32t120.32-291.84q0-168.96-120.32-289.28-92.16-92.16-217.6-115.2v122.88h66.56q33.28 2.56 56.32 25.6t23.040 56.32v384q0 51.2-46.080 74.24l-17.92 7.68zM345.6 327.68v87.040q0 43.52 43.52 43.52h248.32l20.48-5.12q20.48-10.24 20.48-38.4v-87.040q5.12-43.52-43.52-43.52h-245.76q-43.52 0-43.52 43.52zM532.48 230.4v-128h-40.96v128h40.96zM622.080 709.12q17.92 0 28.16-12.8l12.8-28.16q0-40.96-40.96-40.96t-40.96 40.96 40.96 40.96zM391.68 709.12q38.4 5.12 43.52-40.96 0-40.96-38.4-40.96-17.92-2.56-30.72 10.24l-12.8 28.16q-5.12 38.4 38.4 43.52zM404.48 578.56h222.72l12.8-12.8-12.8-12.8h-222.72l-17.92 12.8 17.92 12.8zM637.44 522.24q0-10.24-15.36-10.24h-217.6l-17.92 12.8 17.92 12.8h222.72q15.36 0 10.24-15.36z"></path>
</svg>
