<!-- Generated by IcoMoon.io -->
<svg version="1.1" xmlns="http://www.w3.org/2000/svg" width="1204" height="1024" viewBox="0 0 1204 1024">
<title></title>
<g id="icomoon-ignore">
</g>
<path fill="#000" d="M308.36 828.259c-8.070-11.262-42.483-41.355-76.503-66.878-59.552-44.662-61.897-47.333-63.244-71.743l-1.416-25.363 20.894 16.121c11.504 8.872 22.765 16.121 25.030 16.121 2.389 0 4.1-84.216 4.060-200.481-0.076-191.224-3.231-252.894-16.147-313.155-2.381-11.097 3.561-6.242 21.061 17.211 13.4 17.989 28.424 36.409 33.391 40.939 21.301 19.543 341.339 252.962 346.833 252.962 3.342 0 40.055-24.985 81.611-55.531s119.077-87.351 172.3-126.269c71.311-52.145 103.664-80.282 123.013-107.028 17.875-24.695 25.48-31.594 23.766-21.56-13.594 79.487-16.155 129.624-16.206 316.468-0.047 151.9 1.211 196.39 5.563 196.254 3.096-0.090 14.356-7.318 25.028-16.029l19.412-15.857-1.414 25.49c-1.343 24.49-3.64 27.16-58.672 68.145-31.483 23.473-66.762 54.445-78.39 68.84-16.916 20.965-20.468 23.095-17.827 10.672 8.923-41.902 11.883-98.783 10.723-207.342l-1.255-118.906-53.994 40.343c-29.708 22.184-81.327 60.638-114.755 85.424-82.918 61.534-93.002 71.614-106.932 106.812l-12.094 30.586-9.213-24.618c-11.628-31.048-30.099-53.534-66.136-80.492-150.504-112.591-203.713-151.083-208.946-151.083-9.12 0-8.575 214.793 0.71 278.913 3.769 26.074 6.313 48.335 5.616 49.464s-7.828-7.163-15.898-18.425z"></path>
</svg>
