<!-- Generated by IcoMoon.io -->
<svg version="1.1" xmlns="http://www.w3.org/2000/svg" width="534" height="1024" viewBox="0 0 534 1024">
<title></title>
<g id="icomoon-ignore">
</g>
<path d="M31.787 890.040q-2.271-156.665 38.599-204.346 9.082 111.255 40.869 229.321-45.41 6.812-79.468-24.976zM211.157 987.672q4.541-68.115 56.763-197.534 59.033 124.878 63.574 195.264l-120.337 2.271zM501.783 890.040q-31.787 29.517-72.656 24.976l45.41-215.698q29.517 52.222 27.246 190.723zM354.2 617.579l29.517-38.599-38.599 2.271h-2.271q-36.328 0-61.304-24.976-18.164-18.164-45.41-18.164-45.41 0-84.009 27.246 6.812 29.517 31.787 52.222 34.058 36.328 84.009 36.328t86.279-36.328zM390.528 533.57q0-49.951-36.328-86.279-34.058-36.328-86.279-36.328-49.951 0-84.009 36.328-34.058 34.058-36.328 81.738 38.599-22.705 88.55-22.705 43.14 0 65.845 27.246 20.435 15.894 43.14 15.894l45.41-9.082v-6.812zM199.805 45.41l72.656 11.353 70.386-11.353-70.386-13.623-72.656 13.623zM190.723 281.543q24.976-59.033 29.517-140.772l49.951 6.812 52.222-6.812q6.812 88.55 29.517 140.772l27.246 59.033q63.574 118.067 65.845 204.346l-2.271 152.124-47.681 222.51-36.328 27.246-36.328-113.525-40.869-86.279-15.894-27.246-13.623 27.246-36.328 93.091-29.517 106.714-38.599-27.246q-56.763-192.993-49.951-374.634 2.271-81.738 63.574-204.346l29.517-59.033zM202.075 93.091v-11.353l70.386 6.812 68.115-6.812v11.353q-29.517 22.705-70.386 22.705-45.41 0-68.115-22.705z"></path>
</svg>
