<?xml version="1.0" encoding="UTF-8" standalone="no"?>
<!-- Generated by IcoMoon.io -->

<svg
   xmlns:dc="http://purl.org/dc/elements/1.1/"
   xmlns:cc="http://creativecommons.org/ns#"
   xmlns:rdf="http://www.w3.org/1999/02/22-rdf-syntax-ns#"
   xmlns:svg="http://www.w3.org/2000/svg"
   xmlns="http://www.w3.org/2000/svg"
   xmlns:sodipodi="http://sodipodi.sourceforge.net/DTD/sodipodi-0.dtd"
   xmlns:inkscape="http://www.inkscape.org/namespaces/inkscape"
   version="1.1"
   width="491"
   height="1024"
   viewBox="0 0 491 1024"
   id="svg9"
   sodipodi:docname="nukacola.svg"
   inkscape:version="0.92.4 (5da689c313, 2019-01-14)">
  <metadata
     id="metadata15">
    <rdf:RDF>
      <cc:Work
         rdf:about="">
        <dc:format>image/svg+xml</dc:format>
        <dc:type
           rdf:resource="http://purl.org/dc/dcmitype/StillImage" />
      </cc:Work>
    </rdf:RDF>
  </metadata>
  <defs
     id="defs13" />
  <sodipodi:namedview
     pagecolor="#ffffff"
     bordercolor="#666666"
     borderopacity="1"
     objecttolerance="10"
     gridtolerance="10"
     guidetolerance="10"
     inkscape:pageopacity="0"
     inkscape:pageshadow="2"
     inkscape:window-width="1496"
     inkscape:window-height="1004"
     id="namedview11"
     showgrid="false"
     inkscape:zoom="0.23046875"
     inkscape:cx="245.5"
     inkscape:cy="512"
     inkscape:window-x="0"
     inkscape:window-y="0"
     inkscape:window-maximized="0"
     inkscape:current-layer="svg9" />
  <title
     id="title2" />
  <g
     id="icomoon-ignore" />
  <path
     d="M464.783 961.215v7.101l-1.776 3.553-1.776 1.776v1.776l-7.101 5.325h-21.308l-21.308 1.776-26.632-1.776h-51.493l-28.409-1.776-21.308 1.776-17.755 1.776-14.204-3.553-5.325 3.553-3.553-1.776-14.204-1.776-19.531 1.776h-21.308l-28.409 1.776h-26.632l-26.632-1.776h-65.695l-12.43-1.776-3.553-3.553 1.776-5.325h1.776l-3.553-8.877 1.776-10.654 1.776-19.531-3.553-12.43v-19.531l1.776-21.308-1.776-17.755 1.776-14.204 1.776-1.776 3.553-7.101 8.877-1.776 8.877-8.877 3.553-10.654 10.654-3.553 7.101-8.877 8.877-8.877v-14.204l-5.325-3.553-1.776-15.979v-23.084l-3.553-47.94 5.325-55.041 3.553-76.349 8.877-62.142 15.979-60.37 19.531-56.817 14.204-51.493 1.776-1.776 19.531-39.063 12.43-33.734 12.43-19.531 1.776-5.325 1.776-60.37-8.877-5.325-3.553-8.877v-5.325l-1.776-14.204 3.553-12.43h5.325l5.325-5.325-1.776-21.308h120.736v19.531l8.877 1.776 5.325 7.101-1.776 5.325 1.776 17.755-1.776 7.101-12.43 12.43v63.919l5.325 5.325 10.654 19.531 14.204 31.961 17.755 40.839 23.084 49.716 12.43 58.594 15.979 58.594v8.877l7.101 51.493 5.325 76.349 1.776 62.142 1.776 39.063-5.325 30.185-1.776 12.43v14.204l3.553 7.101 1.776 7.101 15.979 15.979 10.654 7.101 7.101 10.654h5.325v1.776l1.776 1.776 3.553 7.101 1.776 10.654 1.776 21.308-1.776 17.755v39.063l-3.553 19.531 3.553 5.325zM315.638 71.667l5.325 10.654 1.776 1.776h-28.409l-10.654-1.776-15.979 1.776-10.654-1.776-8.877 1.776h-14.204l-10.654 1.776-12.43-1.776-15.979-1.776-10.654 1.776-8.877-3.553-1.776-1.776 3.553-3.553q-1.776-3.553 1.776-3.553l1.776-3.553-7.101-7.101 1.776-3.553v-5.325l5.325-10.654 5.325 1.776 117.188-1.776 10.654 5.325 1.776 1.776 3.553 7.101v1.776l-3.553 5.325-1.776 5.325 1.776 3.553zM244.614 725.067l-30.185-3.553-26.632-17.755-19.531-15.979-17.755-30.185-8.877-31.961-3.553-35.51q-1.776-17.755 1.776-33.734l14.204-37.286 14.204-26.632 23.084-21.308 26.632-14.204 24.856-7.101 30.185 8.877 23.084 10.654 23.084 21.308 15.979 26.632 1.776 8.877 8.877 23.084 3.553 37.286-1.776 39.063-12.43 30.185-17.755 28.409-21.308 19.531-21.308 17.755-30.185 3.553zM244.614 774.783l35.51-7.101 33.734-17.755 33.734-30.185 19.531-37.286 15.979-47.94 5.325-47.94-7.101-49.716-8.877-31.961-3.553-14.204-21.308-35.51-31.961-28.409-33.734-23.084-37.286-5.325-44.387 8.877q-15.979 7.101-30.185 19.531-19.531 10.654-30.185 30.185l-24.856 39.063-12.43 40.839-5.325 49.716 5.325 49.716 15.979 44.387 21.308 40.839 28.409 26.632 35.51 15.979 40.839 10.654z"
     id="path5" />
  <path
     style="color:#000000;font-style:normal;font-variant:normal;font-weight:normal;font-stretch:normal;font-size:medium;line-height:normal;font-family:sans-serif;font-variant-ligatures:normal;font-variant-position:normal;font-variant-caps:normal;font-variant-numeric:normal;font-variant-alternates:normal;font-feature-settings:normal;text-indent:0;text-align:start;text-decoration:none;text-decoration-line:none;text-decoration-style:solid;text-decoration-color:#000000;letter-spacing:normal;word-spacing:normal;text-transform:none;writing-mode:lr-tb;direction:ltr;text-orientation:mixed;dominant-baseline:auto;baseline-shift:baseline;text-anchor:start;white-space:normal;shape-padding:0;clip-rule:nonzero;display:inline;overflow:visible;visibility:visible;opacity:1;isolation:auto;mix-blend-mode:normal;color-interpolation:sRGB;color-interpolation-filters:linearRGB;solid-color:#000000;solid-opacity:1;vector-effect:none;fill-opacity:1;fill-rule:nonzero;stroke:none;stroke-width:1;stroke-linecap:butt;stroke-linejoin:miter;stroke-miterlimit:4;stroke-dasharray:none;stroke-dashoffset:0;stroke-opacity:1;color-rendering:auto;image-rendering:auto;shape-rendering:auto;text-rendering:auto;enable-background:accumulate"
     d="m 180.44141,40.875 -5.57227,11.146484 v 5.326172 l -1.88281,3.769532 7.09961,7.099609 -1.50196,3.007812 c -0.47285,0.02578 -0.93325,0.06041 -1.29492,0.205079 -0.45547,0.182197 -0.82949,0.490889 -1.03711,0.90625 -0.3719,0.744008 -0.16629,1.680392 0.31641,2.755859 l -3.68555,3.685547 2.20313,2.203125 9.10156,3.642578 10.72266,-1.787109 15.90234,1.767578 12.5,1.785156 10.68945,-1.78125 h 14.21094 l 8.83594,-1.767578 10.63281,1.771484 15.97852,-1.77539 10.62695,1.771484 h 29.65625 l -2.57227,-2.572266 -5.21093,-10.427734 0.002,-0.0098 -0.0762,-0.154297 -1.6836,-3.367187 1.68946,-5.064453 3.59961,-5.396485 v -2.044922 l -3.64258,-7.279296 -1.89063,-1.890625 -10.83593,-5.416016 -117.22461,1.777344 z m 122.65234,1.113281 10.47266,5.234375 1.66015,1.660156 3.46485,6.923829 V 57.3125 l -3.50586,5.253906 -1.86328,5.585938 1.79101,3.583984 -0.002,0.01172 5.43945,10.878906 0.97852,0.980469 h -27.16016 l -10.68164,-1.78125 -15.97852,1.77539 -10.67578,-1.779296 -8.91797,1.785156 h -14.19726 l -10.61719,1.769531 -12.36133,-1.765625 -16.05664,-1.785156 -10.58398,1.763672 -8.65235,-3.462891 -1.3496,-1.349609 3.45507,-3.453125 -0.16211,-0.322266 c -0.56251,-1.124715 -0.62011,-1.865137 -0.44336,-2.21875 0.0884,-0.176806 0.23093,-0.311895 0.51563,-0.425781 0.2847,-0.113886 0.70731,-0.185547 1.25781,-0.185547 h 0.3086 l 2.07421,-4.152344 -7.09961,-7.099609 1.66602,-3.337891 v -5.324219 l 5.08008,-10.160156 4.99414,1.666016 z m -119.38672,52.259766 1.80078,21.619143 -5.01367,5.01562 h -5.49609 l -3.6836,12.89063 1.78516,14.27344 v 5.39062 l 3.65039,9.12305 8.77148,5.25976 -1.76562,60.00391 -1.73438,5.19726 -12.42578,19.52344 -12.4375,33.75977 -19.48242,38.96484 -1.8125,1.8125 -14.23437,51.60547 -19.53321,56.81836 -15.990231,60.41602 -8.884766,62.19531 -3.552734,76.35937 -5.328125,55.07227 3.554687,47.96289 v 23.09375 l 1.804688,16.23828 5.294922,3.5332 v 13.73047 l -8.75,8.75 -7.025391,8.7832 -10.751953,3.58594 -3.59375,10.7793 -8.6875,8.68555 -8.966797,1.79492 -3.626953,7.24609 -1.839844,1.83985 -1.804687,14.42968 1.777343,17.76563 -1.773437,21.2832 v 19.62305 l 3.546875,12.40625 -1.765625,19.41992 -1.796875,10.77344 3.332031,8.32226 h -1.398437 l -1.988282,5.95899 3.888672,3.89062 12.63086,1.80274 h 65.714839 l 26.63086,1.77734 h 26.66407 l 28.41015,-1.77734 h 21.31446 l 19.5,-1.77149 14.06445,1.75782 3.73633,1.86718 5.38281,-3.58984 14.07422,3.51953 17.83789,-1.78516 21.26758,-1.77148 28.38672,1.77344 h 51.49218 l 26.65235,1.77929 21.32617,-1.77929 h 21.45312 l 7.4336,-5.57422 v -1.81836 l 1.6875,-1.6875 1.86523,-3.73047 v -7.60938 l -0.20312,-0.0508 -3.33399,-4.99609 3.52539,-19.37695 v -39.08399 l 1.77735,-17.77539 -1.78125,-21.37304 -1.79102,-10.75 -3.62305,-7.24024 -1.6875,-1.6875 v -2.06836 h -5.55664 l -7.00781,-10.51367 -10.69726,-7.12891 -15.84571,-15.84765 -1.75586,-7.01953 -3.52539,-7.04493 v -14.04882 l 1.77149,-12.38672 5.33203,-30.23243 -1.77735,-39.11328 -1.77734,-62.14843 -5.32617,-76.37696 -7.09961,-51.47461 v -8.91015 l -15.99219,-58.64453 -12.43945,-58.63477 -23.10352,-49.76172 -17.7539,-40.83594 -14.21289,-31.98046 -10.69922,-19.61329 -5.22852,-5.22851 v -63.50586 l 12.38086,-12.38086 1.83008,-7.32031 -1.77344,-17.73438 1.82617,-5.47265 -5.59765,-7.46289 -8.66211,-1.73243 V 94.248047 Z m 1.08594,1 h 119.69336 v 19.441403 l 9.09179,1.82032 5.05274,6.73828 -1.72656,5.17773 1.77734,17.77344 -1.7207,6.88281 -12.47852,12.47852 v 64.33398 l 5.41992,5.41992 10.60938,19.44922 14.19531,31.94141 17.75781,40.84375 23.0625,49.66992 12.41993,58.55273 15.96484,58.54297 v 8.84375 l 7.10351,51.50977 5.32422,76.32226 1.77539,62.13672 1.77344,39.01172 -5.3164,30.13867 -1.78321,12.47266 v 14.35742 l 3.58203,7.1582 1.79688,7.18165 16.11133,16.11328 10.61132,7.07226 7.19532,10.79297 h 5.09179 v 1.48242 l 1.86524,1.86524 3.48242,6.96289 1.76172,10.55859 1.76953,21.24219 -1.77344,17.73437 v 39.04297 L 460.70117,956 l 3.77344,5.65234 -0.17969,-0.0449 v 6.59375 l -1.6875,3.375 -1.86523,1.86524 v 1.73242 l -6.76758,5.07422 H 432.8125 l -21.29102,1.77539 -26.61132,-1.77539 h -51.49414 l -28.42969,-1.77539 -21.34766,1.77929 -17.67187,1.76758 -14.33594,-3.58594 -5.26758,3.51368 -3.36914,-1.6836 -14.3418,-1.79297 -19.5625,1.77735 h -21.30078 l -28.41015,1.77734 H 132.7793 l -26.63086,-1.77734 H 40.470703 l -12.228515,-1.7461 -3.216797,-3.21679 1.564453,-4.68946 h 2.154297 l -3.775391,-9.43359 1.755859,-10.53516 1.785157,-19.64257 -3.558594,-12.45118 v -19.43945 l 1.777344,-21.33398 -1.773438,-17.74415 1.746094,-13.97851 1.71289,-1.71094 3.480469,-6.95508 8.785157,-1.75781 9.066406,-9.06836 3.511718,-10.5293 10.556641,-3.51953 7.175781,-8.9707 9.003907,-9.00391 V 779.8418 l -5.353516,-3.57227 -1.746094,-15.71875 v -23.07617 l -3.550781,-47.91406 5.320312,-55.01172 3.552735,-76.33789 8.869141,-62.08985 15.968752,-60.32421 19.52929,-56.81446 14.17383,-51.38086 1.73828,-1.74023 19.58008,-39.16016 12.42188,-33.70898 12.43359,-19.53711 1.81836,-5.45313 1.78711,-60.73633 -8.98438,-5.39062 -3.45312,-8.63086 v -5.25976 l -1.76758,-14.13282 3.42188,-11.96875 h 5.15429 l 5.63477,-5.63672 z m 59.80469,302.609373 -44.52539,8.9043 -0.0508,0.0234 c -10.69195,4.75086 -20.78582,11.28301 -30.28125,19.58789 -13.06873,7.14395 -23.19004,17.26728 -30.32421,30.3457 l -24.875,39.0918 -12.46485,40.94922 -5.335936,49.8164 5.337886,49.82813 16.01172,44.47656 21.36133,40.94336 28.53321,26.74805 35.62304,16.02929 41.03906,10.70703 0.11524,-0.0469 0.006,-0.002 35.53125,-7.10352 33.85156,-17.81836 33.84766,-30.28516 19.59179,-37.40234 16.00782,-48.0293 5.33789,-48.05468 -7.11328,-49.81055 L 372.9375,504.76953 369.36719,490.5 347.98242,454.85938 315.94141,426.37891 282.08398,403.21094 Z m 0.0293,1.01563 37.08399,5.29492 33.61328,23 31.8789,28.33789 21.23047,35.38086 3.53711,14.13867 8.86914,31.93555 7.08789,49.62109 -5.3125,47.82422 -15.94921,47.85156 -19.47071,37.16992 -33.61914,30.08399 -33.61523,17.6914 -35.33594,7.06641 -40.68359,-10.61328 -35.39453,-15.92773 -28.28711,-26.51758 -21.25196,-40.73242 -15.94726,-44.29883 -5.314456,-49.60352 5.314456,-49.61523 12.39648,-40.72852 24.82813,-39.01953 0.008,-0.0156 c 7.05946,-12.94146 17.04487,-22.92492 29.98633,-29.98438 l 0.0488,-0.0273 0.041,-0.0371 c 9.42266,-8.24582 19.42757,-14.71886 30.01758,-19.42969 z m -1.78711,50.46484 -25.04687,7.15625 -26.73633,14.25977 -23.19336,21.4082 -14.25781,26.73437 -14.22852,37.34961 -0.008,0.0352 c -2.38034,10.70819 -2.97392,22.00828 -1.78516,33.89258 l 3.55664,35.55273 8.90626,32.06446 17.83398,30.32031 19.61914,16.05078 26.75195,17.83398 29.78125,3.50782 -0.0234,0.14257 30.99414,-3.64648 21.43164,-17.85938 21.36718,-19.58398 17.8125,-28.50195 12.47852,-30.30469 1.7832,-39.18555 -3.56445,-37.38867 -8.88477,-23.10937 -1.78515,-8.91993 -16.06055,-26.76757 -23.19531,-21.41016 -23.18945,-10.70117 z m -0.004,1.04102 30.00976,8.82617 22.97852,10.60547 22.97461,21.20703 15.89648,26.49609 1.76758,8.83399 8.86719,23.05859 3.54297,37.18359 -1.76953,38.93946 -12.38086,30.0664 -17.69727,28.31641 -21.24805,19.47656 -21.18554,17.65235 -29.95313,3.52539 -30.03125,-3.53516 -26.51367,-17.67383 -19.44141,-15.9082 -17.67773,-30.05078 -8.84766,-31.85742 -3.54883,-35.4668 c -1.17831,-11.77979 -0.58737,-22.96102 1.76368,-33.55078 l 14.17578,-37.21289 14.14844,-26.5293 22.9746,-21.20703 26.5293,-14.14844 z"
     id="path7"
     inkscape:connector-curvature="0" />
</svg>
