<!-- Generated by IcoMoon.io -->
<svg version="1.1" xmlns="http://www.w3.org/2000/svg" width="842" height="1024" viewBox="0 0 842 1024">
<title></title>
<g id="icomoon-ignore">
</g>
<path d="M708.55 713.403h-82.502v279.052h82.502v-279.052zM749.801 713.403v279.052h60.663v-279.052h-60.663zM31.545 713.403v279.052h60.663v-279.052h-60.663zM332.436 791.052v201.403h252.36v-279.052h-453.763v279.052h97.062v-201.403h104.341zM422.218 186.844q31.545 0 60.663 16.986l38.825 48.531v-220.815q126.18 33.972 206.256 135.886 82.502 106.768 82.502 240.227v213.535h-778.919v-213.535q0-133.46 80.076-240.227 82.502-101.915 208.682-135.886v220.815l38.825-48.531 63.090-16.986zM521.706 342.142q-29.118 65.517-99.488 65.517l-63.090-16.986-38.825-48.531v194.123h201.403v-194.123z"></path>
</svg>
