<!-- Generated by IcoMoon.io -->
<svg version="1.1" xmlns="http://www.w3.org/2000/svg" width="806" height="1024" viewBox="0 0 806 1024">
<title></title>
<g id="icomoon-ignore">
</g>
<path d="M115.559 1004.501c-1.675-1.196-2.273-3.828-2.751-11.723l-0.479-10.049 6.699-15.551c6.221-14.594 6.699-16.030 6.46-24.523-0.12-7.656 0.359-10.168 3.35-16.867 3.11-6.819 4.187-8.015 7.417-8.613 2.991-0.598 4.187-1.794 5.622-5.264 2.991-7.417 13.757-33.017 15.432-36.845 0.837-1.914 2.512-5.981 3.589-8.972 1.196-2.991 2.512-6.46 3.11-7.776s1.196-6.46 1.436-11.364c0.479-10.766 3.589-18.064 8.015-19.14 2.034-0.479 3.828-2.393 5.622-5.981 3.35-6.819 3.35-7.536 0.12-8.972-3.589-1.675-3.708-4.905-0.718-12.561 5.264-13.518 9.211-20.097 15.073-25.121l5.862-4.905 0.837-10.407c0.598-7.178 1.675-11.723 3.35-14.594 2.393-4.187 2.393-5.024 1.675-75.364-0.359-39.118-0.718-89.121-0.718-111.013v-39.836l-4.187-1.794c-9.211-3.828-8.972-2.512-8.972-39.836v-33.256l2.991-3.23c1.914-2.034 4.067-3.11 6.579-3.11h3.589v-164.007l-2.632-3.469c-2.273-3.11-2.632-5.503-3.11-20.097-0.598-18.183 0.239-21.772 5.024-21.772 2.751 0 2.751-0.239 2.871-11.723 0.12-13.757 1.555-15.791 10.647-15.791 5.024 0 5.862-0.479 17.705-11.723l12.321-11.604 0.12-6.221c0.12-8.733 4.187-13.518 11.484-13.518 2.871 0 6.699-0.598 8.374-1.436 2.632-1.196 2.991-1.914 2.393-4.426-0.479-1.675-1.555-3.948-2.393-4.905-1.196-1.316-1.914-7.536-2.512-21.533-0.598-15.91-1.675-24.284-5.383-42.826-4.426-21.533-4.665-24.284-4.665-44.381 0-25.241 0-25.241 11.604-25.241 11.006 0 11.125 0.239 16.269 33.495 2.512 15.432 4.426 29.189 4.426 30.624 0 1.316 1.316 3.708 2.991 5.264 1.794 1.675 3.11 4.546 3.589 7.656 0.359 2.632 1.914 14.355 3.589 25.839 2.871 20.336 3.11 20.935 6.579 23.686l3.589 2.871-0.12 23.447-0.239 23.447-3.35 3.35c-2.393 2.393-4.426 3.35-7.536 3.35h-4.307v5.742c0 3.11-0.479 6.221-1.196 6.938s0.12 2.751 2.512 5.742c3.708 4.426 3.828 4.546 3.23 15.671-0.718 13.518-2.632 17.346-8.493 17.346-2.153 0-4.546-0.598-5.383-1.436-2.632-2.632-4.426 1.077-4.426 8.852 0 6.579-0.359 7.417-3.828 10.407-3.708 3.11-3.828 3.589-9.809 36.366-5.503 29.308-5.981 33.854-4.785 37.323 1.316 3.589 0.837 7.417-4.546 33.136l-6.221 29.069 0.718 17.824 0.598 17.944 5.264 5.264c5.144 5.144 5.264 5.383 5.383 13.757 0.359 18.901-0.12 17.226 5.862 20.217 3.828 1.914 6.221 4.307 8.374 8.135 2.871 5.264 2.991 6.34 4.187 42.587 0.957 28.95 1.555 37.682 2.871 39.237 0.957 1.077 17.705 10.049 37.323 19.858l35.649 17.944h85.293l32.419-16.269c17.944-8.852 33.256-16.867 34.093-17.705 1.316-1.316 1.316-6.699 0.359-29.548-0.718-15.312-1.316-35.050-1.316-43.664v-15.671l4.665-3.708c2.632-2.153 5.622-3.828 6.579-3.828 1.316 0 1.914-1.196 1.914-3.828 0-2.153 0.359-8.015 0.718-12.92 0.718-8.613 0.957-9.211 5.981-14.355l5.264-5.503v-30.983c0-28.471-0.239-32.419-2.991-46.654-2.632-13.279-2.871-16.15-1.675-20.935s0.837-8.972-3.589-35.29c-6.34-38.161-5.862-36.127-8.493-36.845-3.23-0.837-5.024-6.34-4.187-12.8 0.598-4.546 0.359-5.622-1.675-6.819-1.794-1.196-2.632-1.077-3.708 0.239-1.914 2.273-7.656 2.273-9.57 0-0.837-0.957-1.794-7.417-2.273-14.594l-0.837-12.92 3.35-3.948c3.589-4.187 4.067-5.622 2.153-6.819-0.598-0.359-1.196-3.11-1.196-5.981 0-5.024-0.12-5.264-4.187-6.101-8.135-1.436-8.733-3.589-8.852-29.787-0.12-21.772 0-23.447 2.273-25.72 1.316-1.316 3.11-2.393 3.948-2.393 1.794 0 4.665-9.092 10.886-34.572 3.35-13.279 4.905-18.064 7.297-20.456 2.991-3.11 3.708-5.383 12.561-38.879 8.135-30.265 7.536-29.308 18.422-29.308 5.622 0 9.211 0.598 9.929 1.436s1.555 11.006 2.034 22.49l0.837 20.935-8.613 25.121c-8.254 24.284-8.493 25.72-9.929 42.826-1.436 17.585-1.436 17.705-5.264 21.174-5.862 5.264-4.546 9.57 2.871 9.57 2.991 0 4.546 0.957 7.058 4.187 2.632 3.589 3.11 5.264 2.751 10.049l-0.359 5.862 10.527 11.484c9.809 10.647 10.886 11.484 15.193 11.484 2.512 0 5.622 0.957 7.058 2.153 2.393 1.794 2.632 3.23 2.632 13.518 0 10.168 0.239 11.723 2.153 12.202 2.751 0.718 3.708 5.503 3.708 18.183 0 11.604-1.794 22.25-3.948 23.925-1.316 0.957-1.555 16.269-1.196 81.944 0.239 44.381 0.718 81.346 0.957 82.183 0.239 0.718 2.153 1.555 4.307 1.794 7.656 0.718 8.015 2.512 8.852 38.4l0.837 32.060-4.307 4.067c-2.393 2.153-5.503 4.187-6.938 4.426l-2.751 0.359v50.841c0 103.357 1.077 171.424 2.751 172.022 3.11 0.957 6.101 9.45 6.938 19.499 0.718 9.929 0.837 10.168 5.264 13.398 3.23 2.273 6.819 7.178 11.843 16.15 7.776 13.757 8.374 16.15 5.383 19.499-1.675 1.914-1.555 2.512 1.196 8.015 2.512 5.024 3.708 6.101 7.297 6.699 3.35 0.718 5.024 2.034 7.776 6.46 3.11 4.905 3.589 6.46 3.11 12.321-0.359 5.981 0.12 7.776 4.785 17.226 2.991 5.862 5.742 11.125 6.34 11.843s4.067 6.938 7.656 13.877c13.877 26.198 12.92 24.882 17.705 25.6 4.905 0.837 6.46 2.273 11.484 11.604 3.35 5.981 3.708 7.297 3.11 14.355l-0.598 7.656 8.493 15.671c7.895 14.594 8.493 16.269 8.493 22.968 0 8.613-1.316 12.8-4.785 14.594-2.034 1.077-2.991 0.957-4.546-0.479-1.794-1.555-5.622-1.675-26.318-1.077-13.398 0.359-24.523 1.196-24.882 1.794-1.196 1.794-6.46 1.077-7.178-1.077-0.479-1.196-3.948-9.929-7.895-19.499s-9.45-22.968-12.202-29.907c-2.871-6.938-5.981-14.475-7.058-16.748s-3.23-7.656-5.024-11.963c-1.675-4.307-3.589-8.852-4.187-10.168-1.316-2.632-13.279-31.462-23.925-57.421-3.708-9.211-9.211-22.25-11.963-28.95l-5.144-12.321h-6.938c-8.015 0-7.536 0.598-13.159-14.594-5.383-14.116-5.383-16.269-0.359-20.695l4.187-3.708-1.914-4.426c-0.957-2.393-1.794-7.297-1.794-11.006v-6.699l-5.024-2.153c-4.905-2.153-39.955-18.781-69.144-32.778-58.497-27.993-53.234-25.959-65.196-25.959h-9.929l-39.357 19.26c-21.533 10.647-50.961 25.002-65.196 32.060l-25.959 12.68-0.12 7.417c0 4.067-0.479 8.733-1.077 10.288-1.077 2.632-0.598 3.469 3.708 6.819 4.785 3.828 4.785 3.948 4.067 10.049-0.359 3.35-2.034 10.407-3.589 15.671l-2.751 9.57-14.116 1.196-4.307 13.757c-2.393 7.536-5.264 16.987-6.46 20.935-1.077 3.948-2.393 8.493-2.991 10.168-1.316 3.948-6.938 22.49-13.159 44.262-2.751 9.57-5.503 18.662-5.981 20.336-1.077 3.23-5.981 19.619-11.843 39.477-2.034 6.938-5.024 16.867-6.699 22.131-1.555 5.264-3.589 11.963-4.307 14.834-1.675 5.622-3.828 7.178-7.178 5.144-1.555-0.957-10.407-1.436-27.275-1.436-20.695 0-25.241 0.359-26.437 1.794-1.794 2.153-2.512 2.273-5.264 0.239zM278.25 705.675c15.073-7.297 35.050-16.987 44.501-21.533l16.987-8.135-0.239-20.576-0.359-20.456-89.121-44.979v64.479c0 35.409 0.239 64.479 0.479 64.479s12.8-5.981 27.753-13.279zM532.336 709.264v-7.417l-8.015 0.718c-4.546 0.479-10.766 0.837-13.996 0.837s-5.503 0.359-5.024 0.957c0.957 0.957 24.643 11.963 26.198 12.082 0.479 0.12 0.837-3.23 0.837-7.178zM487.836 675.649l0.359-16.389 3.469-2.991 3.589-2.991v-20.576c0-19.619 0.12-20.815 2.632-23.447 2.034-2.273 3.828-2.751 9.092-2.751 5.383 0 6.34-0.359 5.742-1.914-0.359-1.077-0.718-2.632-0.718-3.589 0-1.077-4.426 0.718-13.398 5.383-7.417 3.828-22.849 11.723-34.093 17.465l-20.695 10.527v40.912l17.705 8.613c12.8 6.221 18.662 8.493 21.772 8.374l4.187-0.239 0.359-16.389zM531.738 604.471l-0.837-14.594-5.264 2.632-5.383 2.512 0.837 5.383c0.598 3.948 1.794 6.221 4.785 8.852l4.067 3.469v16.508c0 9.092 0.359 17.585 0.957 18.781 1.196 2.991 1.794-25.959 0.837-43.544zM395.963 614.4c0-3.23-3.11-4.905-6.46-3.589-2.632 0.957-2.393 2.871 0.359 2.871 1.196 0 2.871 0.837 3.708 1.794 2.034 2.393 2.393 2.273 2.393-1.077zM410.318 612.486c0-2.512-2.871-3.35-4.187-1.196-0.957 1.675 0.359 3.589 2.512 3.589 0.957 0 1.675-1.077 1.675-2.393zM376.822 612.725c0-1.675-1.316-2.512-3.11-1.794-0.957 0.359-1.316 1.077-0.957 1.675 0.837 1.316 4.067 1.436 4.067 0.12zM273.226 567.387c-1.914-2.991-2.273-7.178-2.871-39.237-0.598-30.146-1.077-36.486-2.751-39.596-2.034-3.948-5.503-6.221-5.742-3.708-0.12 0.837-0.239 7.536-0.479 15.073-0.239 13.279-0.359 13.757-3.469 16.508-1.794 1.555-4.307 2.751-5.622 2.751-2.153 0-2.273 0.957-2.273 19.499v19.379l11.723 6.101c6.34 3.35 12.082 6.221 12.68 6.34 0.479 0 0-1.316-1.196-3.11zM524.561 561.406c5.742-2.871 6.34-3.469 6.938-8.015 0.359-2.751 0.479-6.46 0.239-8.493-0.239-1.914-0.359-8.613-0.479-14.594-0.12-8.972-0.479-11.125-1.914-11.125-0.957 0-3.469-1.555-5.503-3.35l-3.708-3.35-0.359-14.116c-0.239-7.656-0.718-14.355-1.077-14.714s-1.555 0-2.632 0.957c-1.794 1.436-1.914 4.067-1.196 24.404 1.196 36.486 2.153 55.626 2.871 55.626 0.359 0 3.469-1.436 6.819-3.23zM233.271 557.458c0-0.598-2.393-1.196-5.264-1.196-2.991 0-5.742 0.598-6.101 1.196-0.479 0.718 1.555 1.196 5.264 1.196 3.35 0 6.101-0.479 6.101-1.196zM558.654 556.262c0-0.598-2.153-1.196-4.785-1.196s-4.785 0.598-4.785 1.196c0 0.718 2.153 1.196 4.785 1.196s4.785-0.479 4.785-1.196zM252.77 276.695c0.718-3.35 0.479-3.948-1.555-3.948-2.273 0-2.393 0.837-2.273 11.125l0.12 11.006 1.555-7.178c0.837-3.948 1.794-8.972 2.153-11.006zM229.563 279.207c2.871-0.598 3.708-1.436 3.708-3.589 0-2.632-0.479-2.871-6.579-2.871s-6.579 0.239-6.579 2.751c0 4.546 1.675 5.264 9.45 3.708zM558.654 276.815c0-2.871-0.239-2.991-5.622-2.632-4.905 0.359-5.742 0.718-6.101 3.11s0 2.632 5.622 2.632c5.742 0 6.101-0.239 6.101-3.11z"></path>
</svg>
