<!-- Generated by IcoMoon.io -->
<svg version="1.1" xmlns="http://www.w3.org/2000/svg" width="1155" height="1024" viewBox="0 0 1155 1024">
<title></title>
<g id="icomoon-ignore">
</g>
<path d="M426.094 249.7q4.582-57.271 48.107-96.215 45.817-41.235 103.087-41.235 59.562 0 103.087 41.235 43.526 38.944 50.398 96.215h-304.68zM588.743 32.071h-20.617v48.107h20.617v-48.107zM487.946 991.928v-32.072h-27.49v32.072h27.49zM311.553 991.928h34.362v-32.072h-34.362v32.072zM238.246 991.928h34.362v-32.072h-34.362v32.072zM174.103 991.928h22.908v-32.072h-22.908v32.072zM125.996 678.085h135.159v-73.306l-135.159 73.306zM293.226 678.085h22.908v-32.072h-22.908v32.072zM492.528 678.085h29.781v-32.072h-29.781v32.072zM355.078 678.085h29.781v-32.072h-29.781v32.072zM423.803 678.085h29.781v-32.072h-29.781v32.072zM982.765 991.928v-32.072h-25.199v32.072h25.199zM808.662 991.928h34.362v-32.072h-34.362v32.072zM918.622 959.857h-34.362v32.072h34.362v-32.072zM666.631 991.928h29.781v-32.072h-29.781v32.072zM700.993 678.085h29.781v-32.072h-29.781v32.072zM666.631 799.499q0-25.199-25.199-43.526l-64.143-18.327-61.852 18.327q-27.49 18.327-27.49 43.526h178.685zM563.544 678.085h29.781v-32.072h-29.781v32.072zM632.269 678.085h29.781v-32.072h-29.781v32.072zM893.423 678.085h135.159l-135.159-73.306v73.306zM982.765 746.81v176.394h-192.43l-38.944-185.557-34.362 185.557h-50.398v-96.215h-178.685v96.215h-48.107l-36.653-185.557-36.653 185.557h-192.43v-176.394l11.454-25.199 22.908-11.454h739.937q34.362 0 34.362 36.653zM769.718 678.085h29.781v-32.072h-29.781v32.072zM861.351 678.085v-32.072h-22.908v32.072h22.908zM279.481 449.002h597.906l-135.159-82.47h-329.879l-132.868 82.47zM730.774 281.772h-306.971v52.689h306.971v-52.689zM861.351 522.309v89.342h-568.125v-89.342q0-36.653 36.653-36.653h61.852v87.051h87.051v-87.051h54.98v87.051h87.051v-87.051h54.98v87.051h87.051v-87.051h61.852q36.653 0 36.653 36.653z"></path>
</svg>
