<!-- Generated by IcoMoon.io -->
<svg version="1.1" xmlns="http://www.w3.org/2000/svg" width="946" height="1024" viewBox="0 0 946 1024">
<title></title>
<g id="icomoon-ignore">
</g>
<path d="M471.645 587.665q70.621 0 118.542 50.443 52.966 47.921 52.966 121.064v98.365l-15.133 70.621q-63.054 63.054-151.33 63.054h-7.567q-90.798 0-151.33-63.054-20.177-32.788-20.177-70.621v-98.365q0-73.143 52.966-121.064 50.443-50.443 121.064-50.443zM509.478 32.788h52.966q148.808 0 196.729 168.985l153.852 438.857-22.7 55.488q-32.788 63.054-113.498 90.798-40.355 15.133-75.665 50.443v-78.187q0-95.842-68.099-163.941-70.621-63.054-161.419-63.054-93.32 0-163.941 63.054-68.099 68.099-68.099 163.941v78.187q-32.788-35.31-73.143-50.443-80.709-27.744-113.498-90.798l-20.177-55.488 148.808-438.857q47.921-168.985 199.251-168.985h52.966v58.010h75.665v-58.010zM781.872 456.512l-58.010-103.409h-506.956l-55.488 103.409 126.108 75.665 141.241-126.108h85.754l138.719 126.108 128.631-75.665z"></path>
</svg>
