<!-- Generated by IcoMoon.io -->
<svg version="1.1" xmlns="http://www.w3.org/2000/svg" width="1476" height="1024" viewBox="0 0 1476 1024">
<title></title>
<g id="icomoon-ignore">
</g>
<path d="M669.808 178.849l-3.507-17.534 3.507 42.082v-24.548zM1444.822 564.603l-31.562-45.589-14.027-17.534 45.589 63.123zM305.096 147.288l136.767-7.014h-17.534l-119.233 7.014z"></path>
<path d="M974.904 52.603l84.164 31.562 3.507 3.507h-10.521l-80.658 10.521-94.685 31.562q28.055-63.123 80.658-73.644l17.534-3.507zM1034.52 143.781l101.699 24.548 161.315 259.507-126.247-24.548q-126.247 0-213.918 87.671-73.644 70.137-87.671 168.329l-31.562-49.096q-42.082-42.082-98.192-42.082t-98.192 42.082h-3.507l-28.055 49.096q-17.534-91.178-84.164-161.315-94.685-87.671-220.931-87.671l-129.753 28.055 164.822-270.027 101.699-24.548q56.11 0 129.753 49.096 112.219 56.11 175.342 56.11 73.644 0 164.822-59.616l28.055-14.027 94.685-31.562zM1062.575 753.972l31.562 21.041q-38.575-70.137 17.534-126.247t126.247-21.041l-17.534-28.055q-35.068-31.562-77.151-31.562-45.589 0-80.658 31.562-28.055 31.562-28.055 77.151 0 49.096 28.055 77.151zM1171.287 512q80.658 0 136.767 59.616 56.11 56.11 56.11 133.26 0 84.164-56.11 140.274-56.11 59.616-136.767 59.616t-136.767-59.616q-56.11-56.11-56.11-140.274 0-77.151 56.11-133.26 56.11-59.616 136.767-59.616zM803.068 704.876l-17.534 49.096-14.027 14.027-21.041 7.014h-10.521l-49.096-21.041-17.534-49.096 17.534-38.575v-3.507q24.548-21.041 49.096-21.041t45.589 21.041l17.534 42.082zM504.986 52.603l21.041 3.507q45.589 10.521 73.644 73.644l-94.685-31.562-80.658-10.521h-7.014l87.671-35.068zM305.096 519.013q80.658 0 136.767 56.11 59.616 56.11 59.616 140.274 0 80.658-59.616 136.767-56.11 59.616-136.767 59.616t-136.767-59.616q-56.11-56.11-56.11-136.767 0-84.164 56.11-140.274t136.767-56.11zM189.37 753.972l28.055 21.041q-31.562-70.137 21.041-126.247 56.11-56.11 126.247-21.041l-17.534-28.055q-35.068-31.562-80.658-31.562t-77.151 31.562l-31.562 77.151 31.562 77.151z"></path>
</svg>
