<!-- Generated by IcoMoon.io -->
<svg version="1.1" xmlns="http://www.w3.org/2000/svg" width="1024" height="1024" viewBox="0 0 1024 1024">
<title></title>
<g id="icomoon-ignore">
</g>
<path fill="#000" d="M951.204 169.858l-140.739 152.872 31.545 579.943-97.062 89.782-123.754-412.512q-12.133-29.118-31.545-29.118-14.559-4.853-38.825 16.986l-198.976 179.564 2.427 128.607-72.796 70.37-43.678-116.474q-67.943 48.531-80.076 38.825l-2.427-4.853 14.559-41.251 24.265-36.398-116.474-46.104 70.37-70.37 128.607 2.427 179.564-201.403q21.839-24.265 16.986-38.825 0-14.559-29.118-29.118l-220.815-67.943-191.697-55.81 89.782-97.062 577.516 31.545q92.209-97.062 152.872-140.739 38.825-26.692 92.209-36.398l46.104-4.853 2.427 2.427-4.853 46.104q-9.706 50.957-36.398 89.782z"></path>
<path fill="none" stroke="#000" stroke-width="48.5308" stroke-miterlimit="4" stroke-linecap="square" stroke-linejoin="round" d="M951.204 169.858q26.692-38.825 36.398-89.782l4.853-46.104-2.427-2.427-46.104 4.853q-53.384 9.706-92.209 36.398-60.663 43.678-152.872 140.739l-577.516-31.545-89.782 97.062 191.697 55.81 220.815 67.943q29.118 14.559 29.118 29.118 4.853 14.559-16.986 38.825l-179.564 201.403-128.607-2.427-70.37 70.37 116.474 46.104-24.265 36.398-14.559 41.251 2.427 4.853q12.133 9.706 80.076-38.825l43.678 116.474 72.796-70.37-2.427-128.607 198.976-179.564q24.265-21.839 38.825-16.986 19.412 0 31.545 29.118l123.754 412.512 97.062-89.782-31.545-579.943 140.739-152.872z"></path>
</svg>
