<!-- Generated by IcoMoon.io -->
<svg version="1.1" xmlns="http://www.w3.org/2000/svg" width="961" height="1024" viewBox="0 0 961 1024">
<title></title>
<g id="icomoon-ignore">
</g>
<path fill="#000" d="M645.46 936.644l16.986-19.412 4.853-7.28q26.692-46.104 80.076-46.104 33.972 0 77.649 46.104l26.692 26.692h77.649v55.81h-80.076q-31.545 0-75.223-46.104l-29.118-24.265q-7.28 0-14.559 9.706l-7.28 9.706-4.853 4.853q-21.839 46.104-75.223 46.104-31.545 0-72.796-46.104l-29.118-24.265q-7.28 0-16.986 7.28l-7.28 12.133-2.427 4.853q-29.118 46.104-75.223 46.104-33.972 0-75.223-46.104l-31.545-24.265-21.839 19.412-2.427 4.853q-26.692 46.104-77.649 46.104h-198.976v-55.81h198.976l21.839-19.412 4.853-7.28q29.118-46.104 77.649-46.104 21.839 0 43.678 14.559l33.972 31.545 26.692 26.692 16.986-19.412 4.853-7.28q29.118-46.104 80.076-46.104 21.839 0 43.678 14.559l31.545 31.545 29.118 26.692zM749.801 36.398l-12.133 36.398-21.839 33.972 2.427 38.825q-2.427 41.251-33.972 116.474l-63.090 123.754-31.545 29.118-19.412 7.28-106.768 346.995q38.825-50.957 77.649-50.957 36.398 2.427 75.223 60.663l77.649-206.256q65.517-167.431 101.915-196.55l82.502 7.28 43.678 230.521v4.853l-53.384-72.796-50.957-75.223q-21.839 50.957-84.929 264.493l14.559-2.427q31.545 0 77.649 46.104l26.692 26.692h77.649v55.81h-80.076q-29.118 0-75.223-46.104l-29.118-24.265q-7.28 0-14.559 9.706l-7.28 7.28-4.853 7.28q-24.265 46.104-75.223 46.104-29.118 0-72.796-46.104l-29.118-24.265q-14.559 0-24.265 16.986l-2.427 7.28q-31.545 46.104-75.223 46.104-29.118 0-75.223-46.104l-31.545-24.265q-9.706 0-21.839 16.986l-2.427 7.28q-29.118 46.104-77.649 46.104h-7.28v2.427h-191.697v-58.237h75.223l-9.706-189.27q-4.853-201.403 38.825-259.64-9.706 106.768 12.133 288.758l24.265 160.152h33.972l9.706-344.569 43.678-213.535 19.412-50.957-12.133 87.355q-16.986 269.346 16.986 465.896l12.133-7.28 2.427-29.118q21.839-126.18 63.090-240.227-38.825-50.957 31.545-167.431l38.825-53.384q21.839-21.839 43.678-21.839l14.559-33.972 9.706-16.986 12.133-7.28 4.853 12.133-9.706 16.986-19.412 31.545q14.559 70.37-31.545 167.431l-29.118 53.384q-19.412 21.839-50.957 26.692l-29.118 123.754-24.265 131.033 12.133-2.427q21.839 0 43.678 14.559l33.972 31.545 2.427 4.853 19.412 7.28 123.754-383.393-9.706-14.559v-36.398q72.796-242.654 155.299-254.787l16.986-36.398 19.412-33.972v2.427l9.706 2.427z"></path>
<path fill="none" stroke="#000" stroke-width="48.5308" stroke-miterlimit="4" stroke-linecap="square" stroke-linejoin="round" d="M749.801 36.398l-9.706-2.427v-2.427l-19.412 33.972-16.986 36.398q-82.502 12.133-155.299 254.787v36.398l9.706 14.559-123.754 383.393-19.412-7.28-2.427-4.853-33.972-31.545q-21.839-14.559-43.678-14.559l-12.133 2.427 24.265-131.033 29.118-123.754q31.545-4.853 50.957-26.692l29.118-53.384q46.104-97.062 31.545-167.431l19.412-31.545 9.706-16.986-4.853-12.133-12.133 7.28-9.706 16.986-14.559 33.972q-21.839 0-43.678 21.839l-38.825 53.384q-70.37 116.474-31.545 167.431-41.251 114.047-63.090 240.227l-2.427 29.118-12.133 7.28q-33.972-196.55-16.986-465.896l12.133-87.355-19.412 50.957-43.678 213.535-9.706 344.569h-33.972l-24.265-160.152q-21.839-181.99-12.133-288.758-43.678 58.237-38.825 259.64l9.706 189.27h-75.223v58.237h191.697v-2.427h7.28q48.531 0 77.649-46.104l2.427-7.28q12.133-16.986 21.839-16.986l31.545 24.265q46.104 46.104 75.223 46.104 43.678 0 75.223-46.104l2.427-7.28q9.706-16.986 24.265-16.986l29.118 24.265q43.678 46.104 72.796 46.104 50.957 0 75.223-46.104l4.853-7.28 7.28-7.28q7.28-9.706 14.559-9.706l29.118 24.265q46.104 46.104 75.223 46.104h80.076v-55.81h-77.649l-26.692-26.692q-46.104-46.104-77.649-46.104l-14.559 2.427q63.090-213.535 84.929-264.493l50.957 75.223 53.384 72.796v-4.853l-43.678-230.521-82.502-7.28q-36.398 29.118-101.915 196.55l-77.649 206.256q-38.825-58.237-75.223-60.663-38.825 0-77.649 50.957l106.768-346.995 19.412-7.28 31.545-29.118 63.090-123.754q31.545-75.223 33.972-116.474l-2.427-38.825 21.839-33.972 12.133-36.398M645.46 936.644l-29.118-26.692-31.545-31.545q-21.839-14.559-43.678-14.559-50.957 0-80.076 46.104l-4.853 7.28-16.986 19.412-26.692-26.692-33.972-31.545q-21.839-14.559-43.678-14.559-48.531 0-77.649 46.104l-4.853 7.28-21.839 19.412h-198.976v55.81h198.976q50.957 0 77.649-46.104l2.427-4.853 21.839-19.412 31.545 24.265q41.251 46.104 75.223 46.104 46.104 0 75.223-46.104l2.427-4.853 7.28-12.133q9.706-7.28 16.986-7.28l29.118 24.265q41.251 46.104 72.796 46.104 53.384 0 75.223-46.104l4.853-4.853 7.28-9.706q7.28-9.706 14.559-9.706l29.118 24.265q43.678 46.104 75.223 46.104h80.076v-55.81h-77.649l-26.692-26.692q-43.678-46.104-77.649-46.104-53.384 0-80.076 46.104l-4.853 7.28-16.986 19.412"></path>
</svg>
