<!-- Generated by IcoMoon.io -->
<svg version="1.1" xmlns="http://www.w3.org/2000/svg" width="742" height="1024" viewBox="0 0 742 1024">
<title></title>
<g id="icomoon-ignore">
</g>
<path d="M335.89 671.781q0 37.321 34.989 37.321t34.989-37.321q0-34.989-34.989-34.989-16.328 0-25.658 13.995l-9.33 20.993zM559.818 678.779l-6.998-4.665-109.631-6.998q-9.33 0-9.33 6.998l-2.333 20.993-25.658 30.323-4.665 6.998v4.665l2.333 4.665 58.314 90.97 9.33 4.665 4.665-4.665 44.319-39.654q34.989-41.986 39.654-102.633v-11.663zM284.574 501.503l-4.665 2.333v6.998l48.984 100.301 13.995 2.333 18.661-6.998 37.321 4.665 6.998 2.333 6.998-2.333 48.984-102.633-2.333-6.998-4.665-2.333-55.982-18.661q-58.314-6.998-107.298 18.661l-6.998 2.333zM571.48 335.891q0 107.298 20.993 237.923 23.326 156.282 100.301 354.551l2.333 58.314h-657.786l6.998-58.314 44.319-137.622q41.986-130.624 53.649-216.929l23.326-237.923h405.868zM181.941 681.112v11.663l4.665 25.658q16.328 69.977 76.975 111.964l6.998 2.333h9.33l2.333-4.665 58.314-88.638v-9.33l-4.665-4.665-25.658-37.321-2.333-16.328-6.998-4.665-114.296 6.998-4.665 6.998z"></path>
<path d="M529.494 104.966q48.984-4.665 88.638-104.966v72.31l-4.665 32.656h39.654q46.651-4.665 88.638-104.966v72.31l-4.665 32.656q-23.326 72.31-86.305 72.31h-88.638q-30.323 2.333-62.98 53.649l-25.658 51.317v-74.642l4.665-30.323h-34.989q-30.323 2.333-65.312 53.649l-25.658 51.317v-74.642l6.998-30.323h-39.654q-30.323 2.333-62.98 53.649l-25.658 51.317v-74.642l4.665-30.323q23.326-72.31 86.305-72.31h86.305q48.984-4.665 90.97-104.966v72.31l-4.665 32.656h34.989z"></path>
</svg>
