<!-- Generated by IcoMoon.io -->
<svg version="1.1" xmlns="http://www.w3.org/2000/svg" width="1088" height="1024" viewBox="0 0 1088 1024">
<title></title>
<g id="icomoon-ignore">
</g>
<path d="M786.701 683.526h-90.277v229.562h90.277v-229.562zM727.376 585.511v-69.642l-41.27-30.952-43.849 30.952v69.642h85.118zM910.509 585.511h85.118v-69.642l-43.849-30.952-41.27 30.952v69.642zM967.255 683.526h-90.277v229.562h90.277v-229.562zM278.569 913.088h90.277v-229.562h-90.277v229.562zM469.441 838.287v121.229h139.285v-121.229l-72.222-46.428-67.063 46.428zM185.713 683.526h-87.698v229.562h87.698v-229.562zM113.491 585.511h85.118v-69.642l-41.27-30.952-43.849 30.952v69.642zM379.164 585.511h85.118v-69.642l-41.27-30.952-43.849 30.952v69.642zM557.139 33.531v51.587l38.69 33.532v100.595h36.111v108.333h25.793v77.38h348.212v-77.38h49.008v662.892h-1021.421v-662.892h51.587v77.38h345.632v-77.38h28.373v-108.333h36.111v-100.595l10.317-12.897 25.793-20.635v-51.587h25.793z"></path>
</svg>
