<!-- Generated by IcoMoon.io -->
<svg version="1.1" xmlns="http://www.w3.org/2000/svg" width="1027" height="1024" viewBox="0 0 1027 1024">
<title></title>
<g id="icomoon-ignore">
</g>
<path d="M469.123 862.581l10.089 126.108h50.443l-10.089-126.108 10.089-121.064h-50.443l-10.089 121.064zM549.833 295.093l10.089-123.586-10.089-123.586h-50.443l12.611 123.586-10.089 123.586h47.921zM862.582 486.778l-121.064-10.089v50.443l121.064 10.089 128.631-10.089v-50.443l-128.631 10.089zM658.286 373.281q-60.532-60.532-146.286-60.532-83.232 0-143.764 60.532-60.532 55.488-60.532 138.719 0 88.276 60.532 146.286 60.532 60.532 143.764 60.532 85.754 0 146.286-60.532 60.532-58.010 60.532-146.286 0-83.232-60.532-138.719zM514.522 32.788q201.774 0 337.971 141.241 141.241 141.241 141.241 335.448 0 201.774-141.241 343.015-136.197 138.719-337.971 138.719t-337.971-138.719q-143.764-141.241-143.764-343.015l2.522-47.921v45.399l128.631-12.611 123.586 12.611v-50.443l-123.586-12.611-128.631 12.611q25.222-179.074 161.419-300.138 131.153-123.586 317.793-123.586z"></path>
</svg>
