<!-- Generated by IcoMoon.io -->
<svg version="1.1" xmlns="http://www.w3.org/2000/svg" width="1065" height="1024" viewBox="0 0 1065 1024">
<title></title>
<g id="icomoon-ignore">
</g>
<path d="M322.933 248.41l91.084-19.321 11.040 41.402-16.561 5.52q-38.642-22.081-85.563-27.601zM88.323 770.070q-66.243-96.604-55.202-218.048 13.801-121.445 104.884-198.728 85.563-74.523 195.968-66.243l35.881 8.28-93.844 71.763q-110.404 110.404-110.404 273.251 0 129.725 77.283 231.849-96.604-19.321-154.566-102.124zM637.585 267.73l-38.642-35.881 115.925 22.081q-33.121 5.52-60.722 22.081l-11.040-2.76-5.52-5.52zM974.318 770.070q-60.722 82.803-154.566 102.124 74.523-102.124 74.523-231.849 0-162.846-107.644-273.251-44.162-46.922-93.844-71.763l35.881-8.28q113.164-8.28 198.728 66.243 88.323 77.283 99.364 198.728 13.801 121.445-52.442 218.048zM855.633 626.544q0 132.485-93.844 226.329-96.604 93.844-231.849 93.844t-231.849-93.844q-93.844-93.844-93.844-226.329t93.844-226.329q96.604-93.844 231.849-93.844t231.849 93.844q93.844 93.844 93.844 226.329zM391.935 507.86l-96.604 110.404 157.326 22.081-60.722-132.485zM767.31 623.784l-104.884-104.884-60.722 129.725 165.606-24.841zM596.183 695.547l-66.243-93.844-57.962 93.844h124.205zM742.469 717.628q-91.084 46.922-264.97 35.881l11.040 35.881h-104.884l11.040-52.442-82.803-33.121 2.76 30.361 27.601 55.202 49.682 66.243q69.003 57.962 171.127 44.162l-19.321-57.962h85.563l-2.76 38.642 88.323-74.523q27.601-44.162 27.601-88.323z"></path>
</svg>
