<!-- Generated by IcoMoon.io -->
<svg version="1.1" xmlns="http://www.w3.org/2000/svg" width="1105" height="1024" viewBox="0 0 1105 1024">
<title></title>
<g id="icomoon-ignore">
</g>
<path d="M1071.141 206.895l-128.327 125.709-54.997-54.997-243.56 243.56 254.036 251.417 20.951-20.951 117.852 117.852-109.995 112.614-117.852-117.852 20.951-23.57-254.036-254.036-130.946 130.946 120.471 120.471h2.619l-68.092 68.092q-78.568 65.473-141.422 73.33l-214.752 7.857h-26.189v-26.189l7.857-214.752q7.857-60.235 75.949-141.422l65.473-68.092v2.619l120.471 117.852 130.946-128.327-225.228-225.228-243.56 290.701-15.714-13.095 41.903-112.614q60.235-133.565 144.041-238.322l-41.903-39.284 68.092-68.092 36.665 36.665q81.187-78.568 159.755-117.852l73.33 70.711-154.517 123.090 225.228 225.228 243.56-243.56-57.616-57.616 125.709-125.709 172.849 172.849zM898.292 107.376l-52.379 52.379 96.9 102.138 54.997-54.997-99.519-99.519z"></path>
</svg>
