<!-- Generated by IcoMoon.io -->
<svg version="1.1" xmlns="http://www.w3.org/2000/svg" width="689" height="1024" viewBox="0 0 689 1024">
<title></title>
<g id="icomoon-ignore">
</g>
<path d="M138.313 922.085l4.853 2.427h160.152l-118.9-121.327-46.104 118.9zM128.607 951.204l-7.28 21.839 118.9-26.692h-101.915l-9.706 4.853zM305.744 761.933l-63.090-116.474-43.678 116.474h106.768zM259.64 601.782h53.384l-16.986-97.062-36.398 97.062zM274.199 626.047l67.943 133.46 77.649-133.46h-145.592zM87.356 429.498l41.251 7.28-94.635 128.607v7.28h7.28l145.592-145.592v-4.853l-4.853-4.853-36.398-4.853 87.355-87.355v-4.853l-2.427-2.427-29.118-4.853 75.223-80.076v-7.28l-7.28-2.427-126.18 97.062-2.427 7.28 4.853 2.427 26.692 4.853-87.355 84.929v7.28l2.427 2.427zM128.607 211.109l14.559 21.839-84.929 19.412-2.427 4.853 4.853 4.853 118.9-2.427 2.427-4.853v-4.853l-14.559-19.412h65.517l4.853-4.853v-4.853l-12.133-16.986 58.237-2.427 4.853-4.853-4.853-4.853-92.209-12.133-4.853 2.427v4.853l9.706 14.559h-65.517l-4.853 2.427 2.427 7.28zM177.138 53.384l-2.427 26.692-72.796-46.104h-7.28v7.28l84.929 80.076 7.28 2.427 2.427-4.853 4.853-24.265 46.104 46.104 4.853 2.427 7.28-24.265 43.678 38.825h7.28v-7.28l-58.237-75.223-4.853-2.427-4.853 4.853-2.427 16.986-46.104-46.104h-4.853l-4.853 4.853zM344.569 917.232l133.46-131.033h-262.066l128.607 131.033zM444.057 946.35l123.754 26.692-7.28-21.839-9.706-4.853h-106.768zM545.972 924.512l4.853-2.427-43.678-116.474-118.9 118.9h157.725zM378.54 601.782h50.957l-31.545-92.209-19.412 92.209zM448.91 647.886l-65.517 114.047h106.768l-41.251-114.047zM366.408 468.322l-4.853-2.427h-29.118l-7.28 2.427 21.839 106.768 19.412-106.768zM371.261 441.63l-26.692-70.37-26.692 70.37h53.384zM548.398 327.583l-2.427-7.28-126.18-97.062-7.28 2.427v7.28l75.223 80.076-29.118 4.853-2.427 2.427v4.853l87.355 87.355-36.398 4.853-4.853 4.853v4.853l145.592 145.592h7.28v-7.28l-94.635-128.607 41.251-7.28 2.427-2.427v-7.28l-87.355-84.929 26.692-4.853 4.853-2.427zM344.569 194.123l12.133 14.559v111.621l12.133 7.28 245.080 664.872h-97.062l-174.711-46.104-24.265 4.853-140.739 41.251h-101.915l245.080-664.872 12.133-7.28v-111.621l12.133-14.559zM400.379 196.55l4.853 4.853 58.237 2.427-12.133 16.986v4.853l4.853 4.853h65.517l-14.559 19.412v4.853l2.427 4.853 118.9 2.427 4.853-4.853-2.427-4.853-84.929-19.412 14.559-21.839 2.427-7.28-4.853-2.427h-65.517l9.706-14.559v-4.853l-4.853-2.427-92.209 12.133-4.853 4.853zM594.502 33.972v7.28l-87.355 80.076-4.853 2.427-4.853-4.853-2.427-26.692-46.104 46.104-7.28 2.427-2.427-4.853-2.427-19.412-43.678 41.251h-7.28q-7.28-4.853-2.427-7.28l58.237-75.223 7.28-2.427 2.427 4.853 2.427 16.986 46.104-46.104h7.28l2.427 2.427 4.853 29.118 72.796-48.531 7.28 2.427z"></path>
</svg>
