<!-- Generated by IcoMoon.io -->
<svg version="1.1" xmlns="http://www.w3.org/2000/svg" width="1021" height="1024" viewBox="0 0 1021 1024">
<title></title>
<g id="icomoon-ignore">
</g>
<path d="M135.862 807.626q-103.155-128.314-103.155-294.368 0-168.57 103.155-294.368l291.852 294.368-291.852 294.368zM216.373 457.906q0 32.708-45.287 32.708h-12.58v-62.899h10.064q47.803 0 47.803 30.192zM276.757 457.906q0-67.931-118.251-67.931h-67.931v231.469h67.931v-105.671l60.383 105.671h67.931l-55.351-105.671q45.287-17.612 45.287-57.867zM805.11 888.137q-128.314 103.155-291.852 103.155-176.118 0-304.432-113.219l291.852-294.368 304.432 304.432zM878.073 820.206l-304.432-306.948 304.432-306.948q110.703 130.83 110.703 306.948t-110.703 306.948zM812.658 427.715q42.771 0 42.771 30.192 0 32.708-40.256 32.708h-12.58v-62.899h10.064zM920.845 457.906q0-67.931-118.251-67.931h-67.931v231.469h67.931v-105.671l60.383 105.671h70.447l-60.383-105.671q47.803-17.612 47.803-57.867zM513.258 32.708q163.538 0 291.852 103.155l-304.432 304.432-291.852-294.368q130.83-113.219 304.432-113.219z"></path>
</svg>
