<!-- Generated by IcoMoon.io -->
<svg version="1.1" xmlns="http://www.w3.org/2000/svg" width="1337" height="1024" viewBox="0 0 1337 1024">
<title></title>
<g id="icomoon-ignore">
</g>
<path d="M668.685 39.479l-219.605 128.308-4.935 2.467h449.080l-2.467-2.467-222.072-128.308zM730.371 291.161v367.653h64.154v-367.653h-64.154zM885.822 291.161h-56.752v367.653h56.752v-367.653zM1302.825 236.877v476.222h-246.747v-54.284h-135.711v-367.653h34.545v-54.284h347.913zM920.367 256.617v-51.817h-503.364v51.817h503.364zM977.118 421.937h98.699v-98.699h-98.699v98.699zM977.118 592.193h98.699v-98.699h-98.699v98.699zM1137.504 421.937h98.699v-98.699h-98.699v98.699zM1137.504 592.193l98.699-2.467v-98.699l-98.699 2.467v98.699zM1137.504 945.041h98.699v-106.101l-14.805-34.545q-14.805-14.805-34.545-14.805t-34.545 14.805-14.805 34.545v106.101zM1302.825 747.643v239.345h-246.747v-239.345h246.747zM1021.533 693.359v296.096h-74.024v-162.853q0-29.61-19.74-49.349-22.207-22.207-51.817-22.207t-51.817 22.207q-19.74 19.74-22.207 49.349v162.853h-59.219v-162.853h-2.467q0-29.61-19.74-49.349-22.207-22.207-51.817-22.207t-49.349 22.207q-22.207 19.74-22.207 49.349h-2.467v162.853h-59.219v-162.853h-2.467q0-29.61-19.74-49.349-22.207-22.207-51.817-22.207t-49.349 22.207q-22.207 19.74-22.207 49.349h-2.467v162.853h-71.557v-296.096h705.697zM639.075 291.161v367.653h56.752v-367.653h-56.752zM362.718 421.937v-98.699h-98.699v98.699h98.699zM362.718 589.725v-98.699h-98.699v98.699h98.699zM202.333 421.937v-98.699h-98.699v98.699h98.699zM34.545 236.877h347.913v54.284h34.545v367.653h-135.711v54.284h-246.747v-476.222zM535.441 291.161v367.653h69.089v-367.653h-69.089zM500.897 291.161h-49.349v367.653h49.349v-367.653zM202.333 945.041v-106.101q0-19.74-14.805-34.545t-34.545-14.805-34.545 14.805l-14.805 34.545v106.101h98.699zM202.333 589.725v-98.699h-98.699v98.699h98.699zM34.545 986.988v-239.345h246.747v239.345h-246.747z"></path>
</svg>
