<!-- Generated by IcoMoon.io -->
<svg version="1.1" xmlns="http://www.w3.org/2000/svg" width="1028" height="1024" viewBox="0 0 1028 1024">
<title></title>
<g id="icomoon-ignore">
</g>
<path d="M503.564 1008.697c-18.211-13.477-85.918-41.97-114.554-48.2-27.875-6.069-73.239-15.331-94.635-19.322-56.237-10.496-98.183-32.983-140.268-75.197-12.835-12.877-29.428-32.522-36.876-43.664-26.36-39.44-27.518-51.029-26.825-268.4 0.55-173.468-1.113-222.073-8.962-261.476-5.090-25.56-27.664-71.182-57.967-117.15l-23.467-35.6 88.56-106.077 11.483 7.902c24.934 17.156 63.827 30.703 88.503 30.834 14.027 0.073 45.137-7.209 106.681-24.974 116.948-33.759 149.572-39.676 218.76-39.676s101.808 5.917 218.76 39.676c61.544 17.762 92.655 25.047 106.681 24.974 24.681-0.13 63.574-13.678 88.503-30.834l11.483-7.902 88.56 106.077-23.467 35.6c-30.303 45.973-52.876 91.59-57.967 117.15-7.791 39.125-9.48 87.938-9.020 261.282 0.571 216.179-0.651 228.957-25.387 265.988-40.726 60.963-97.233 102.102-162.556 118.36-8.542 2.125-28.347 5.709-44.011 7.965-55.562 7.991-133.135 34.671-175.317 60.299l-16.422 9.976zM526.179 969.442c36.172-20.217 106.363-43.825 158.684-53.367 73.265-13.366 99.872-22.76 134.629-47.542 26.695-19.030 69.021-67.544 74.705-85.618 6.030-19.179 7.535-60.4 9.322-254.896 2.151-234.297 1.955-231.627 20.511-277.964 8.413-21.010 32.479-64.536 49.848-90.159 5.498-8.106 9.994-15.896 9.994-17.3 0-4.306-49.242-61.185-52.555-60.709-1.708 0.244-11.619 4.008-22.024 8.366-53.224 22.283-83.746 20.574-186.896-10.461-97.879-29.446-146.801-38.481-208.402-38.481-61.607 0-110.591 9.045-208.402 38.483-107.514 32.356-137.159 33.319-196.511 6.398-11.444-5.191-14.564-5.732-17.116-2.962-12.822 13.901-47.845 57.142-47.845 59.065 0 1.313 6.27 12.042 13.928 23.839 33.087 50.948 50.497 88.417 59.262 127.557 4.906 21.911 5.343 36.187 7.161 234.325 1.786 194.495 3.296 235.717 9.322 254.896 5.681 18.075 48.010 66.59 74.705 85.618 35.673 25.432 59.608 33.676 142.338 49.030 44.16 8.196 96.897 25.411 134.805 44.005 15.592 7.649 28.495 14.001 28.67 14.116s5.516-2.693 11.86-6.241zM493.908 933.975c-38.27-18.828-112.462-41.393-159.839-48.607-50.807-7.739-79.053-18.009-109.732-39.904-19.069-13.607-43.081-38.674-56.694-59.187-9.146-13.78-9.994-16.727-12.654-43.961-1.729-17.702-3.057-106.105-3.378-224.649-0.455-167.521-1.131-198.79-4.741-218.76-7.739-42.858-20.836-74.955-50.616-124.040-20.464-33.729-20.261-29.887-2.678-50.284l9.327-10.823 11.631 5.143c20.562 9.096 45.96 13.806 74.56 13.83 30.557 0.021 45.090-2.994 121.677-25.301 111.81-32.56 139.212-37.646 202.837-37.628 63.238 0.014 95.11 5.888 202.795 37.346 77.202 22.556 91.823 25.61 122.498 25.583 28.718-0.021 54.004-4.736 74.827-13.95l11.899-5.263 5.991 7.263c3.296 3.994 8.858 10.9 12.357 15.35l6.363 8.089-18.585 30.632c-29.318 48.322-42.994 81.838-50.622 124.054-3.611 19.976-4.285 51.173-4.745 218.76-0.327 120.298-1.643 206.87-3.424 225.129-2.719 27.896-3.476 30.528-12.654 43.937-34.989 51.135-85.268 84.354-143.087 94.547-76.346 13.458-123.843 26.965-174.846 49.726l-28.575 12.752zM578.721 832.283c44.936-9.436 91.93-29.81 124.669-54.048 25.47-18.858 64.677-59.244 80.652-83.078 37.777-56.365 55.67-115.586 55.581-183.963-0.116-88.54-33.166-167.86-96.036-230.475-47.619-47.429-109.275-79.466-174.879-90.879-35.842-6.235-100.815-3.783-133.67 5.045-124.903 33.566-214.683 127.994-241.074 253.574-6.967 33.156-7.556 90.661-1.254 122.281 9.333 46.82 28.763 92.83 54.766 129.697 28.256 40.062 78.153 82.385 124.136 105.296 22.297 11.111 61.235 23.646 85.433 27.505 9.967 1.588 21.034 3.38 24.594 3.989 14.113 2.392 77.529-0.836 97.084-4.939zM462.625 798.304c-47.601-8.601-96.644-31.687-134.559-63.348-34.256-28.602-56.759-57.413-75.695-96.91-39.296-81.938-38.802-174.763 1.356-255.349 40.187-80.644 113.097-136.748 203.318-156.452 28.256-6.169 85.654-6.169 113.908 0 55.241 12.065 104.552 37.433 140.704 72.389 59.024 57.066 88.355 120.674 92.646 200.891 6.089 113.887-62.627 228.198-165.846 275.89-53.756 24.838-118.449 33.259-175.832 22.891zM552.831 776.439c86.518-12.41 160.998-67.155 200.968-147.712 10.015-20.19 15.565-35.887 13.735-38.849-0.788-1.271-28.564-2.312-61.729-2.312h-60.299l-13.952 16.179c-17.471 20.261-69.891 72.578-96.286 96.093l-19.956 17.78-7.131-4.562c-3.924-2.509-34.327-31.795-67.562-65.074l-60.43-60.512-119.899 1.39 0.687 6.474c1.064 10.009 19.821 47.473 34.14 68.185 15.742 22.775 45.090 52.355 67.55 68.090 53.498 37.478 124.581 54.239 190.163 44.831zM571.661 620.573c1.45-1.78 4.631-13.14 7.066-25.241 5.238-26.004 5.963-27.562 10.175-21.803 2.896 3.958 12.101 4.476 92.875 5.205 49.316 0.449 90.124-0.006 90.691-1.004s1.819-6.186 2.782-11.524l1.751-9.708h-170.091l-6.33-26.534c-5.888-24.683-6.795-26.59-13.021-27.315-9.455-1.099-12.858 4.348-17.928 28.694-2.434 11.699-5.075 19.525-5.869 17.387s-5.099-24.852-9.569-50.483c-8.048-46.13-10.654-53.071-19.919-53.071-6.098 0-10.601 11.28-22.727 56.955-6.616 24.917-12.639 47.342-13.379 49.834-1.018 3.429-4.131 4.529-12.772 4.529-9.726 0-11.628-0.869-12.768-5.827-0.741-3.204-3.184-13.966-5.428-23.925-4.503-19.953-7.182-24.617-14.166-24.617-8.217 0-11.908 6.782-16.795 30.858l-4.774 23.509h-180.807l1.816 9.688c0.998 5.327 2.355 10.555 3.004 11.614 0.88 1.42 170.622 1.097 188.853-0.364 1.55-0.124 4.279-3.429 6.062-7.342l3.242-7.113 3.728 7.113c3.378 6.452 5.113 7.135 18.532 7.328 8.144 0.116 18.126 0.756 22.188 1.419 13.735 2.241 17.871-3.458 26.223-36.169 7.845-30.728 9.746-32.498 12.925-12.062 5.265 33.863 15.167 84.71 17.265 88.668 2.776 5.241 13.301 6.036 17.162 1.292zM349.106 544.776c0.437-0.359-3.527-7.413-8.815-15.676-22.107-34.559-33.811-69.313-31.351-93.125 3.508-34.004 39.527-68.403 76.164-72.742 29.31-3.47 70.119 12.864 107.945 43.215 12.353 9.911 22.92 18.020 23.489 18.020s10.129-6.569 21.25-14.594c34.929-25.208 81.929-44.95 107.019-44.95 13.806 0 33.948 6.711 45.454 15.138 12.546 9.191 26.151 31.47 29.206 47.828 4.696 25.146-7.828 65.864-31.598 102.724l-9.183 14.238 48.387 1.583c27.982 0.914 49.481 0.59 50.98-0.779 3.596-3.277 2.847-59.179-1.069-79.766-4.568-23.999-18.104-63.892-26.614-78.425-3.997-6.827-7.269-13.343-7.269-14.485s-2.33-4.184-5.176-6.762c-2.847-2.577-5.176-5.718-5.176-6.981s-1.183-3.704-2.627-5.422c-6.439-7.659-14.81-17.219-22.22-25.37-75.2-82.757-204.686-107.237-307.301-58.094-29.346 14.053-50.534 29.18-74.313 53.055-37.004 37.153-58.030 74.23-71.532 126.143-5.26 20.217-6.694 32.277-7.013 59.059-0.22 18.508 0.508 35.063 1.623 36.781 1.523 2.351 14.048 2.743 50.483 1.583 26.65-0.85 48.816-1.836 49.254-2.197z"></path>
</svg>
