<!-- Generated by IcoMoon.io -->
<svg version="1.1" xmlns="http://www.w3.org/2000/svg" width="1024" height="1024" viewBox="0 0 1024 1024">
<title></title>
<g id="icomoon-ignore">
</g>
<path fill="#000" d="M558.104 346.995q89.782-99.488 257.213-215.962 160.152-111.621 177.137-97.062 12.133 16.986-97.062 174.711-116.474 167.431-215.962 257.213l-101.915 87.355q-155.299 148.019-89.782 303.317l36.398-33.972 84.929-50.957q-21.839 63.090-89.782 131.033-70.37 72.796-131.033 87.355l-4.853 2.427v-2.427q9.706-33.972 75.223-109.194l-84.929-191.697-31.545 2.427-9.706-7.28-2.427-21.839 4.853-9.706-191.697-87.355q-75.223 67.943-111.621 77.649 16.986-63.090 89.782-135.886 70.37-65.517 131.033-89.782-16.986 41.251-48.531 84.929l-33.972 36.398q150.445 65.517 303.317-89.782l84.929-101.915z"></path>
<path fill="none" stroke="#000" stroke-width="48.5308" stroke-miterlimit="4" stroke-linecap="square" stroke-linejoin="round" d="M558.104 346.995l-84.929 101.915q-152.872 155.299-303.317 89.782l33.972-36.398q31.545-43.678 48.531-84.929-60.663 24.265-131.033 89.782-72.796 72.796-89.782 135.886 36.398-9.706 111.621-77.649l191.697 87.355-4.853 9.706 2.427 21.839 9.706 7.28 31.545-2.427 84.929 191.697q-65.517 75.223-75.223 109.194v2.427l4.853-2.427q60.663-14.559 131.033-87.355 67.943-67.943 89.782-131.033l-84.929 50.957-36.398 33.972q-65.517-155.299 89.782-303.317l101.915-87.355q99.488-89.782 215.962-257.213 109.194-157.725 97.062-174.711-16.986-14.559-177.137 97.062-167.431 116.474-257.213 215.962z"></path>
</svg>
