<!-- Generated by IcoMoon.io -->
<svg version="1.1" xmlns="http://www.w3.org/2000/svg" width="1079" height="1024" viewBox="0 0 1079 1024">
<title></title>
<g id="icomoon-ignore">
</g>
<path fill="#000" d="M945.028 107.928l-86.869 115.825 118.458 78.972-34.221 55.28-126.355-81.604-34.221 44.751 36.853 134.252 44.751-42.118 118.458 107.928-28.956 123.722h-65.81v134.252h65.81v-55.28h92.134v265.871h-84.237v-128.987h-68.442v128.987h-336.946v-186.9h-68.442v186.9h-194.797v-171.105h-110.56v171.105h-92.134v-255.342h-55.28l92.134-84.237 65.81 57.913 73.707-39.486-21.059-121.090 94.766-84.237v-78.972h-55.28l100.031-134.252-10.53-136.884-160.576 44.751-5.265-50.015 207.959-73.707 10.53 157.943 94.766-126.355 68.442 92.134-55.28 52.648 15.794 86.869 107.928 118.458 42.118 13.162v134.252l63.177-57.913-52.648-197.429 50.015-68.442-39.486-26.324 34.221-55.28 47.383 28.956 92.134-118.458 50.015 39.486zM542.272 455.404v231.65h68.442v-231.65h-68.442zM823.938 644.936h-68.442v134.252h68.442v-134.252zM413.285 455.404v231.65h68.442v-231.65h-68.442z"></path>
</svg>
