<!-- Generated by IcoMoon.io -->
<svg version="1.1" xmlns="http://www.w3.org/2000/svg" width="1024" height="1024" viewBox="0 0 1024 1024">
<title></title>
<g id="icomoon-ignore">
</g>
<path fill="#000" d="M63.532 63.532v210h106.75v-105h682.502v105h106.752v-210h-896.002zM222.781 221.034v472.502h577.502v-52.502h-78.751c-101.326 0-183.751-82.424-183.751-183.751s82.424-183.751 183.751-183.751h78.751v-52.502h-577.502zM328.225 243.012c12.852 0 24.109 1.141 33.77 3.419 9.66 2.188 17.635 5.149 23.925 8.885 7.476 4.465 13.034 9.887 16.681 16.269s5.466 13.857 5.466 22.425c0 11.301-3.507 21.421-10.527 30.352-7.020 8.841-16.269 14.49-27.752 16.951v1.916c4.648 0.64 9.57 1.913 14.764 3.828s9.936 4.694 14.218 8.34c4.465 3.83 8.022 8.294 10.666 13.399s3.963 11.898 3.963 20.372c0 9.57-1.915 18.503-5.74 26.797-3.736 8.295-9.524 15.404-17.362 21.328-7.655 5.74-16.679 10.164-27.072 13.262-10.299 3.007-22.832 4.51-37.601 4.51-16.862 0-31.354-1.319-43.478-3.963-12.031-2.644-21.828-5.607-29.393-8.887v-44.708h5.333c7.838 4.738 17.181 8.841 28.029 12.304 10.939 3.463 20.917 5.196 29.94 5.196 5.288 0 11.028-0.411 17.225-1.23 6.197-0.913 11.438-2.827 15.72-5.74 3.373-2.277 6.064-5.012 8.068-8.204 2.004-3.28 3.005-7.978 3.005-14.084 0-5.924-1.369-10.483-4.103-13.673-2.734-3.28-6.334-5.606-10.799-6.972-4.465-1.458-9.844-2.232-16.134-2.324-6.29-0.183-12.124-0.272-17.501-0.272h-11.212v-36.37h11.62c7.109 0 13.399-0.227 18.867-0.684s10.116-1.503 13.945-3.144c4.009-1.731 7.020-4.010 9.024-6.838 2.004-2.917 3.005-7.154 3.005-12.715 0-4.103-1.046-7.382-3.144-9.843-2.098-2.55-4.739-4.558-7.929-6.017-3.556-1.642-7.748-2.734-12.576-3.28s-8.98-0.819-12.443-0.819c-8.568 0-17.865 1.503-27.891 4.51-10.026 2.917-19.735 7.154-29.121 12.715h-5.058v-44.158c7.476-3.007 17.635-5.879 30.489-8.613 12.852-2.827 25.887-4.238 39.103-4.238zM63.532 326.034v52.502h106.75v-52.502h-106.75zM721.532 326.034c-72.449 0-131.249 58.8-131.249 131.249s58.8 131.249 131.249 131.249h238.001v-262.502h-238.001zM721.532 378.532c43.581 0 78.751 35.17 78.751 78.751 0 43.575-35.17 78.751-78.751 78.751s-78.751-35.175-78.751-78.751c0-43.581 35.17-78.751 78.751-78.751zM63.532 431.034v52.502h106.75v-52.502h-106.75zM721.532 431.034c-0.46 0-0.916 0.011-1.37 0.031s-0.904 0.056-1.35 0.1c-0.446 0.043-0.888 0.098-1.326 0.164s-0.872 0.14-1.305 0.228c-0.43 0.084-0.859 0.184-1.279 0.29-0.845 0.212-1.671 0.465-2.48 0.756-0.405 0.144-0.805 0.303-1.199 0.467s-0.781 0.337-1.164 0.52c-0.383 0.183-0.76 0.371-1.135 0.573s-0.739 0.41-1.098 0.626c-0.362 0.217-0.715 0.443-1.064 0.677s-0.693 0.476-1.029 0.726c-0.336 0.252-0.665 0.508-0.987 0.772-0.644 0.532-1.264 1.092-1.857 1.684-0.296 0.296-0.584 0.596-0.865 0.907-0.561 0.619-1.092 1.264-1.595 1.936-0.252 0.336-0.489 0.679-0.724 1.029s-0.461 0.702-0.677 1.064c-0.217 0.362-0.424 0.727-0.626 1.098s-0.392 0.75-0.575 1.133c-0.183 0.383-0.356 0.772-0.52 1.166s-0.317 0.792-0.465 1.197c-0.144 0.405-0.282 0.812-0.409 1.226s-0.244 0.83-0.35 1.255c-0.212 0.845-0.386 1.708-0.518 2.585s-0.217 1.768-0.261 2.675c-0.024 0.453-0.033 0.911-0.033 1.372s0.013 0.916 0.033 1.37c0.044 0.907 0.133 1.8 0.261 2.675 0.066 0.438 0.14 0.872 0.228 1.305s0.184 0.859 0.29 1.279c0.106 0.42 0.222 0.84 0.35 1.255s0.262 0.821 0.409 1.226c0.144 0.405 0.301 0.803 0.465 1.197s0.337 0.781 0.52 1.164c0.183 0.383 0.373 0.76 0.575 1.135s0.41 0.739 0.626 1.098c0.217 0.362 0.443 0.715 0.677 1.064s0.476 0.693 0.724 1.029c0.252 0.336 0.508 0.665 0.772 0.987s0.538 0.642 0.819 0.949c0.281 0.308 0.569 0.611 0.865 0.907s0.598 0.584 0.909 0.865c0.308 0.281 0.625 0.554 0.947 0.819s0.651 0.525 0.987 0.772c0.336 0.252 0.679 0.491 1.029 0.726 0.699 0.469 1.42 0.903 2.162 1.303 0.371 0.198 0.752 0.392 1.135 0.575s0.77 0.356 1.164 0.52c0.394 0.164 0.795 0.317 1.199 0.465s0.812 0.282 1.224 0.409c0.415 0.127 0.832 0.244 1.257 0.35s0.85 0.202 1.279 0.29c0.43 0.084 0.867 0.162 1.305 0.228s0.88 0.121 1.326 0.164c0.892 0.086 1.799 0.135 2.716 0.135 0.46 0 0.918-0.011 1.372-0.031 14.046-0.693 24.881-11.976 24.881-26.218 0-14.704-11.545-26.249-26.249-26.249zM63.532 536.034v52.502h106.75v-52.502h-106.75zM63.532 641.034v210h896.002v-210h-106.752v105h-682.502v-105h-106.75z"></path>
<path fill="#000" d="M344.058 903.535l-26.249 56h-147.526v-56z"></path>
<path fill="#000" d="M852.785 903.535v56h-147.526l-26.249-56z"></path>
</svg>
