<!-- Generated by IcoMoon.io -->
<svg version="1.1" xmlns="http://www.w3.org/2000/svg" width="1024" height="1024" viewBox="0 0 1024 1024">
<title></title>
<g id="icomoon-ignore">
</g>
<path fill="#000" d="M832.618 191.382h-26.713v53.442h-80.154v-53.442h-427.499v53.442h-80.154v-53.442h-26.713c-14.728 0-26.713 12.003-26.713 26.713v587.808c0 14.728 12.003 26.713 26.713 26.713h26.713v-26.713h80.154v26.713h427.499v-26.713h80.154v26.713h26.713c14.728 0 26.713-12.003 26.713-26.713v-587.808c0-14.728-12.003-26.713-26.713-26.713zM298.25 725.75h-80.154v-80.154h80.154v80.154zM298.25 565.442h-80.154v-80.154h80.154v80.154zM298.25 405.128h-80.154v-80.154h80.154v80.154zM634.584 529.533l-173.753 101.341c-2.826 1.422-5.931 2.084-8.998 2.084-3.687 0-7.274-0.982-10.521-2.906-5.872-3.547-9.458-9.919-9.458-16.693v-202.662c0-6.813 3.587-13.166 9.458-16.732 5.931-3.587 13.327-3.907 19.499-0.802l173.753 101.314c6.753 3.346 11.041 10.099 11.041 17.533s-4.269 14.187-11.002 17.533zM805.904 725.75h-80.154v-80.154h80.154v80.154zM805.904 565.442h-80.154v-80.154h80.154v80.154zM805.904 405.128h-80.154v-80.154h80.154v80.154z"></path>
</svg>
