<!-- Generated by IcoMoon.io -->
<svg version="1.1" xmlns="http://www.w3.org/2000/svg" width="642" height="1024" viewBox="0 0 642 1024">
<title></title>
<g id="icomoon-ignore">
</g>
<path fill="#000" d="M447.064 59.941h-67.434v42.459h67.434v-42.459zM512 132.371h-434.576v-99.902h434.576v99.902zM512 322.185v129.873h-287.22v-129.873h287.22zM444.566 362.146h-62.439v47.454h62.439v-47.454zM359.649 197.307h-79.922v59.941h79.922v-59.941zM512 294.712h-294.712l-82.42-134.868h377.132v134.868zM364.644 512h-89.912v64.937h89.912v-64.937zM444.566 666.849h-62.439v49.951h62.439v-49.951zM512 639.376v104.898h-287.22v-104.898h287.22zM369.639 794.224h-89.912v64.937h89.912v-64.937zM32.469 991.532h576.937l-92.41-82.42h-424.585l-59.941 82.42zM512 774.244v107.395h-397.112l99.902-107.395h297.21zM512 482.029v127.376h-287.22v-127.376h287.22z"></path>
</svg>
