<!-- Generated by IcoMoon.io -->
<svg version="1.1" xmlns="http://www.w3.org/2000/svg" width="991" height="1024" viewBox="0 0 991 1024">
<title></title>
<g id="icomoon-ignore">
</g>
<path d="M742.4 263.68l81.92 53.76q51.2 30.72 133.12 53.76l-2.56 230.4h-202.24v-161.28h-102.4v161.28h-84.48q71.68 38.4 171.52 69.12v320h-279.040v-222.72h-143.36v222.72h-281.6v-320q99.84-30.72 174.080-76.8l117.76-74.24 61.44-43.52 61.44 48.64v-153.6q71.68-23.040 125.44-53.76l130.56-87.040 38.4 33.28zM350.72 94.72l94.72 38.4v166.4h-145.92v-115.2h-71.68v115.2h-145.92v-166.4q53.76-15.36 92.16-38.4l92.16-61.44 28.16 23.040 56.32 38.4z"></path>
</svg>
