<!-- Generated by IcoMoon.io -->
<svg version="1.1" xmlns="http://www.w3.org/2000/svg" width="1024" height="1024" viewBox="0 0 1024 1024">
<title></title>
<g id="icomoon-ignore">
</g>
<path fill="#000" d="M512 136.699q-109.359 0-203.806 59.65-89.476 57.165-136.699 154.097 27.34 9.942 27.34 39.767v246.058q0 27.34-27.34 39.767 47.223 94.447 136.699 154.097 94.447 59.65 203.806 59.65 154.097 0 265.942-111.845 109.359-111.845 109.359-265.942t-109.359-265.942q-111.845-109.359-265.942-109.359zM591.534 390.213l59.65 129.243q34.796 69.592 34.796 129.243 0 69.592-49.709 121.786-49.709 49.709-121.786 49.709t-119.301-49.709q-52.194-52.194-52.194-121.786 0-57.165 32.311-124.272l57.165-126.757 49.709-161.553 32.311-72.078q9.942 0 29.825 69.592 29.825 111.845 47.223 156.582zM850.020 173.981q141.67 139.184 141.67 338.019t-141.67 340.505q-139.184 139.184-338.019 139.184t-340.505-139.184q-139.184-141.67-139.184-340.505t139.184-338.019q141.67-141.67 340.505-141.67t338.019 141.67z"></path>
</svg>
