<!-- Generated by IcoMoon.io -->
<svg version="1.1" xmlns="http://www.w3.org/2000/svg" width="1032" height="1024" viewBox="0 0 1032 1024">
<title></title>
<g id="icomoon-ignore">
</g>
<path d="M765.963 896.339v-453.602l-97.782-97.782v551.385h97.782zM630.154 306.928l-97.782-97.782v385.698h97.782v-287.915zM513.358 48.891l-46.175 46.175 467.183 469.899 46.175-46.175-467.183-469.899zM899.056 988.689v-410.143l-97.782-97.782v507.926h97.782zM494.345 209.146l-97.782 97.782v287.915h97.782v-385.698zM361.252 896.339v-551.385l-97.782 95.066v456.318h97.782zM282.483 138.525h-97.782v190.133l97.782-97.782v-92.35zM95.066 559.533l393.846-393.846-46.175-46.175-393.846 393.846 46.175 46.175zM228.159 988.689v-510.642l-97.782 97.782v412.859h97.782z"></path>
</svg>
