<!-- Generated by IcoMoon.io -->
<svg version="1.1" xmlns="http://www.w3.org/2000/svg" width="853" height="1024" viewBox="0 0 853 1024">
<title></title>
<g id="icomoon-ignore">
</g>
<path fill="#000" d="M426.447 436.977l265.872 31.589q102.663 42.118 102.663 92.134l5.265 115.825-81.604-65.81q-94.766-36.853-292.195-36.853-200.062 0-292.195 36.853l-81.604 65.81 5.265-115.825q0-50.015 102.663-92.134l265.872-31.589zM423.815 52.648l57.913 23.692 10.53 10.53 15.794 47.383-7.897 31.589-76.339-7.897-73.707 7.897-7.897-31.589 15.794-47.383 7.897-10.53q26.324-23.692 57.913-23.692zM423.815 226.386q97.398 0 181.635 71.075 71.075 57.913 110.56 144.782l-13.162-5.265-276.401-36.853q-184.267 0-279.033 36.853-7.897 2.632-13.162 7.897 39.486-89.501 110.56-147.414 81.604-71.075 179.003-71.075zM665.995 892.381q-65.81 86.869-126.355 78.972-28.956-2.632-60.545-52.648-18.427-34.221-52.648-39.486l-7.897-2.632v2.632q-34.221 5.265-50.015 39.486-28.956 50.015-63.177 52.648-26.324 5.265-63.177-18.427l-63.177-60.545q-36.853-47.383-36.853-134.252l18.427-50.015 44.751-42.118 218.488-21.059 215.856 21.059q23.692 10.53 44.751 42.118l18.427 50.015q0 86.869-36.853 134.252zM86.869 779.188l2.632 47.383 5.265 15.794 5.265 7.897 10.53 47.383-2.632-2.632q-34.221-26.324-42.118-65.81l-2.632-26.324 2.632-28.956h-2.632l10.53-13.162h18.427l-5.265 15.794v2.632zM752.864 842.365q18.427-36.853 7.897-73.707l-2.632-7.897h18.427l7.897 13.162v55.28l-44.751 71.075v-2.632l-2.632 2.632 10.53-42.118 5.265-15.794zM650.201 789.717l15.794-34.221-97.398-84.237-18.427 31.589 100.031 86.869zM581.758 813.409l18.427-28.956-97.398-86.869-21.059 31.589 100.031 84.237z"></path>
</svg>
