<!-- Generated by IcoMoon.io -->
<svg version="1.1" xmlns="http://www.w3.org/2000/svg" width="1402" height="1024" viewBox="0 0 1402 1024">
<title></title>
<g id="icomoon-ignore">
</g>
<path d="M675.039 486.257q31.464 0 51.486 20.022 20.022 22.883 20.022 51.486l-20.022 48.626-51.486 20.022q-28.603 0-48.626-20.022l-20.022-48.626q0-28.603 20.022-51.486 20.022-20.022 48.626-20.022z"></path>
<path d="M849.52 228.827l5.721-17.162-62.927-20.022-5.721 17.162 62.927 20.022zM1101.229 217.386q131.575 145.877 134.436 340.38 0 114.413-51.486 217.385l-91.531-48.626 31.464-102.972 2.86-40.045 2.86-25.743-2.86-37.184-5.721-40.045q-22.883-111.553-105.832-200.223l-114.413-88.67-37.184-17.162-60.067-20.022-40.045-8.581h-5.721l25.743-102.972q191.642 31.464 317.497 174.48zM675.039 411.888h14.302l37.184 8.581 51.486 34.324 5.721 5.721 28.603 42.905 5.721 20.022 2.86 34.324v5.721l-17.162 68.648-25.743 28.603-17.162 17.162-40.045 20.022-31.464 5.721h-14.302l-48.626-8.581-48.626-31.464-2.86-2.86-34.324-57.207-8.581-40.045v-5.721l2.86-20.022 14.302-45.765 25.743-37.184 17.162-14.302 34.324-20.022 48.626-8.581zM354.682 866.682l8.581-2.86 40.045-17.162q154.458-71.508 283.173-102.972l57.207-11.441 140.156-11.441 154.458 25.743 37.184 11.441 91.531 51.486 28.603 20.022 48.626 40.045 94.391 117.274h-1209.922l100.112-57.207 125.855-62.927zM860.961 557.766l-11.441 65.788 240.268-34.324 2.86-31.464-2.86-31.464-228.827 31.464zM675.039 486.257q-28.603 0-48.626 20.022-20.022 22.883-20.022 51.486l20.022 48.626q20.022 20.022 48.626 20.022l51.486-20.022 20.022-48.626q0-28.603-20.022-51.486-20.022-20.022-51.486-20.022zM300.335 323.218q-77.229 105.832-77.229 234.547l2.86 48.626 5.721 40.045 20.022 62.927 17.162 37.184 11.441 17.162 54.346 71.508-100.112 48.626q-120.134-137.296-117.274-326.078 0-151.598 85.81-280.313 80.089-120.134 208.804-183.061l62.927 88.67-34.324 17.162-34.324 20.022-51.486 40.045-28.603 28.603-25.743 34.324zM546.324 426.19l20.022-14.302-134.436-163.039-51.486 40.045 140.156 168.76 25.743-31.464zM529.162 669.319l-31.464-60.067-228.827 31.464 22.883 62.927 237.408-34.324z"></path>
</svg>
