<!-- Generated by IcoMoon.io -->
<svg version="1.1" xmlns="http://www.w3.org/2000/svg" width="786" height="1024" viewBox="0 0 786 1024">
<title></title>
<g id="icomoon-ignore">
</g>
<path d="M436.076 693.049l-19.468-132.38-54.509 120.7-7.787 66.19-23.361 66.19-3.894 50.616-7.787 19.468 112.912-3.894-7.787-73.977v-89.551l11.681-23.361zM572.35 116.806l7.787-3.894 15.574 7.787-81.764 109.019 3.894 62.297-3.894 23.361v15.574l3.894 23.361v77.871l3.894 11.681q3.894 7.787 15.574 11.681l27.255 50.616h-15.574l-19.468 7.787-11.681 42.829-15.574 124.593-11.681 124.593-3.894 62.297 70.084 23.361q140.167 31.148 179.103 81.764h-685.262q46.722-58.403 206.357-81.764v-23.361l23.361-38.935-3.894-140.167 15.574-19.468v-132.38l-23.361 3.894-62.297 140.167q-46.722 0-31.148-35.042l62.297-105.125 19.468-50.616 27.255-11.681v-15.574l-58.403-54.509-15.574-31.148v-11.681l-27.255-15.574-7.787-38.935 35.042-15.574 15.574-50.616 19.468-23.361 19.468-19.468 54.509-15.574 31.148-11.681 3.894-7.787q-15.574 0-19.468-11.681l-19.468-11.681v-15.574l15.574-23.361 7.787-23.361 15.574-23.361 31.148-7.787 46.722 19.468 11.681 31.148 3.894 27.255-7.787 23.361h-15.574l-7.787 3.894q-7.787 11.681 7.787 19.468l46.722 15.574 23.361 19.468 77.871-93.445zM264.761 315.376l-3.894 19.468 7.787-3.894 3.894 11.681-15.574 23.361 23.361 35.042 11.681 35.042 23.361-58.403-35.042-73.977-15.574 11.681z"></path>
</svg>
