<!-- Generated by IcoMoon.io -->
<svg version="1.1" xmlns="http://www.w3.org/2000/svg" width="1042" height="1024" viewBox="0 0 1042 1024">
<title></title>
<g id="icomoon-ignore">
</g>
<path d="M1008.64 990.72h-975.36v-97.28h94.72v-593.92h128v-56.32h-33.28v-156.16h33.28v-53.76h66.56v53.76h33.28v156.16h-33.28v56.32h156.16v-56.32h-35.84v-156.16h35.84v-53.76h66.56v53.76h33.28v156.16h-33.28v56.32h156.16v-56.32h-35.84v-156.16h35.84v-53.76h66.56v53.76h33.28v156.16h-33.28v56.32h145.92v593.92h94.72v97.28zM678.4 583.68l-135.68 2.56 104.96-240.64-2.56-10.24h-2.56l-7.68 2.56-279.040 322.56v7.68l7.68 5.12h128l-97.28 235.52v10.24h5.12l5.12-2.56 279.040-320v-7.68l-5.12-5.12z"></path>
</svg>
