<!-- Generated by IcoMoon.io -->
<svg version="1.1" xmlns="http://www.w3.org/2000/svg" width="1024" height="1024" viewBox="0 0 1024 1024">
<title></title>
<g id="icomoon-ignore">
</g>
<path fill="#000" d="M184.32 266.24v102.4h655.36v-102.4h-655.36zM253.44 409.6l-184.32 368.64h115.2l184.32-368.64h-115.2zM655.36 409.6l184.32 368.64h115.2l-184.32-368.64h-115.2zM37.12 491.52c-10.504 1.014-18.65 9.796-18.65 20.48 0 11.36 9.209 20.57 20.57 20.57 0.676 0 1.344-0.033 2.004-0.096l-0.084 0.007h20.48l20.48 61.44h33.92l50.56-102.4h-125.44c-0.287-0.014-0.622-0.023-0.96-0.023s-0.673 0.008-1.007 0.024l0.047-0.002c-0.287-0.014-0.622-0.022-0.96-0.022s-0.673 0.008-1.007 0.024l0.047-0.002zM373.12 491.52l-51.2 102.4h380.16l-51.2-102.4h-277.76zM857.6 491.52l50.56 102.4h33.92l20.48-61.44h20.48c0.086 0.001 0.188 0.002 0.29 0.002 11.312 0 20.482-9.17 20.482-20.482s-9.17-20.482-20.482-20.482c-0.102 0-0.203 0.001-0.305 0.002h-125.425z"></path>
</svg>
