<!-- Generated by IcoMoon.io -->
<svg version="1.1" xmlns="http://www.w3.org/2000/svg" width="1207" height="1024" viewBox="0 0 1207 1024">
<title></title>
<g id="icomoon-ignore">
</g>
<path d="M953.003 898.39l-8.192 5.461-19.115 10.923 27.307-16.384z"></path>
<path d="M800.086 270.336q54.613 0 92.843 43.691 40.96 43.691 40.96 101.035v5.461l57.344 324.949q0 57.344-38.229 98.304t-92.843 40.96h-461.483q-57.344 0-92.843-40.96-38.229-40.96-40.96-98.304l16.384-90.112-43.691-5.461q-87.381-8.192-109.227-40.96-38.229-46.421-38.229-161.109v-43.691l-10.923-65.536h92.843q13.653 158.379 84.651 158.379 30.037 0 54.613-38.229l5.461-5.461 2.731-8.192 2.731-24.576v-5.461q0-57.344 40.96-101.035 38.229-43.691 92.843-43.691h344.064zM770.048 172.032l30.037 13.653 16.384 40.96h-371.371q0-54.613 46.421-54.613h278.528zM630.784 40.96q43.691 0 43.691 43.691l-13.653 32.768-30.037 10.923q-46.421 0-46.421-43.691t46.421-43.691zM942.080 297.643q73.728 0 136.533 57.344 65.536 57.344 81.92 150.187 16.384 95.573-21.845 177.493-38.229 70.997-106.496 87.381l-5.461 19.115 5.461-46.421-5.461-38.229 51.883-51.883q32.768-60.075 19.115-133.803t-62.805-114.688l-65.536-35.499-32.768-68.267 5.461-2.731zM898.39 925.696q21.845 0 21.845 16.384v24.576q0 16.384-21.845 16.384h-540.672l-19.115-16.384v-24.576q0-16.384 19.115-16.384h540.672z"></path>
</svg>
