<!-- Generated by IcoMoon.io -->
<svg version="1.1" xmlns="http://www.w3.org/2000/svg" width="1103" height="1024" viewBox="0 0 1103 1024">
<title></title>
<g id="icomoon-ignore">
</g>
<path d="M230.83 95.77q-36.835 0-36.835 34.379v446.926q0 34.379 36.835 34.379h643.377q34.379 0 34.379-34.379v-446.926q0-34.379-34.379-34.379h-643.377zM289.765 142.427h525.506q31.923 0 31.923 29.468v365.89q0 27.012-31.923 27.012h-525.506q-29.468 0-29.468-27.012v-365.89q0-29.468 29.468-29.468zM125.237 24.556h857.017v650.744h-110.504v58.935h41.746v2.456h2.456l162.072 162.072v98.225h-2.456l-127.693 2.456h-788.259l-135.060-2.456v-93.314h4.911v-4.911l142.427-142.427 14.734-17.189 4.911-2.456h2.456v-2.456h41.746v-58.935h-110.504v-650.744zM547.607 702.312q0-9.823-7.367-12.278l-9.823-2.456-12.278 2.456-4.911 12.278 4.911 9.823 12.278 7.367 9.823-7.367 7.367-9.823zM746.513 790.715h-550.062l-83.492 83.492h655.655l-22.101-83.492zM574.619 690.033v29.468h252.93v-29.468h-252.93zM775.981 790.715l22.101 83.492h176.806l-88.403-83.492h-110.504z"></path>
</svg>
