<!-- Generated by IcoMoon.io -->
<svg version="1.1" xmlns="http://www.w3.org/2000/svg" width="1024" height="1024" viewBox="0 0 1024 1024">
<title></title>
<g id="icomoon-ignore">
</g>
<path fill="#000" d="M236.361 793.758c-4.7-0.934-6.586-4.472-7.29-13.271-0.704-10.333 1.886-20.913 7.29-29.259l3.867-5.881 0.704-20.332c0.352-11.16 0.352-25.849 0-32.667-0.704-11.864-0.704-18.212-0.126-26.909 0.352-3.761 0-4.114-4.578-5.638-4.114-1.407-5.174-2.463-6.46-6.108-1.186-3.412-10.938-14.101-39.011-42.53-20.561-20.913-43.127-43.127-49.945-49.468-6.812-6.234-14.926-13.866-18.098-17.043l-5.532-5.638-16.45-0.581c-19.63-0.704-20.913-1.407-21.969-12.104-0.581-5.756-1.056-6.698-3.167-6.812-36.199-0.934-42.419-1.292-43.234-2.589-1.186-1.759-1.186-25.743 0-27.261 0.475-0.704 9.52-5.28 20.209-10.333 29.61-13.972 28.555-13.271 29.733-20.796 1.186-8.46 3.867-11.044 14.33-13.271 14.224-3.167 14.224-3.167 15.284-11.638 0.475-4.114 0.934-11.044 0.828-15.39 0-6.698-0.475-8.571-2.589-10.808-1.994-2.111-2.463-3.645-1.994-6.108 0.352-1.759 1.534-6.938 2.463-11.512 0.934-4.472 1.759-11.287 1.886-14.926 0-5.174 0.581-7.29 2.815-9.984 1.534-1.759 3.167-4.578 3.645-6.234s2.111-5.28 3.519-8.219c1.407-2.941 2.941-7.642 3.412-10.457 1.056-7.164 3.519-11.287 8.571-14.33 2.463-1.407 6.234-4.114 8.345-5.987 5.532-4.821 10.333-4.472 17.51 1.292 5.638 4.472 5.987 4.927 13.164 24.91 4.114 11.287 9.049 24.683 10.938 29.839 5.174 14.224 9.167 26.796 9.167 29.381-0.126 2.701 4.578 22.672 5.881 25.262 0.475 0.934 3.054 2.111 5.881 2.589 2.941 0.475 6.46 2.111 8.219 3.867 3.054 2.941 3.054 2.941 26.095 2.941 12.694 0 24.433 0.475 26.201 1.186s3.519 2.589 4.349 4.7c1.186 3.519 1.292 3.645 8.46 3.293l7.164-0.352-0.352-25.849c-0.232-14.224-0.934-27.725-1.407-29.962-0.581-2.237-1.056-29.962-1.056-61.458l-0.126-57.335-4.349-5.28c-3.645-4.578-4.349-6.234-4.349-11.044 0-3.645 0.704-6.586 1.886-7.867 1.056-1.186 2.237-3.761 2.589-5.756 1.759-7.994 9.167-11.287 25.966-11.638 7.047-0.232 16.092-0.934 19.979-1.641 4.927-0.934 70.029-1.292 219.016-1.407 182.127 0 212.2 0.232 213.857 1.641 1.186 1.056 5.638 1.886 12.104 2.352 8.571 0.475 11.16 1.056 15.861 3.997 11.16 6.812 17.152 22.915 10.58 28.203-2.701 2.111-2.701 2.815-4.114 36.199l-1.407 34.079 17.972 17.972c9.753 9.753 18.212 17.859 18.57 17.859 0.475 0 1.186-2.463 1.641-5.404 0.475-3.761 1.994-6.698 4.578-9.626 3.867-4.114 4.114-4.22 14.33-4.7 17.268-0.704 21.145 1.534 21.498 12.806 0.126 3.867 0.352 4.22 2.941 3.761 1.759-0.352 4.22 0.352 6.46 2.111 3.167 2.352 4.821 2.589 14.926 2.463 7.867-0.126 12.453 0.352 15.032 1.534 9.049 4.349 12.568 11.393 10.105 20.438-0.934 3.761-2.589 5.638-8.219 9.626-3.867 2.701-7.047 5.28-7.047 5.756s2.463 2.815 5.404 5.404c11.864 9.984 11.746 9.878 12.694 18.45 0.934 9.401 2.237 13.398 5.987 17.268 1.407 1.641 3.054 4.22 3.519 5.881 1.407 4.7 4.114 7.047 14.101 11.99 5.174 2.589 10.686 6.34 12.342 8.219 3.054 3.645 6.586 4.821 20.913 6.812 4.114 0.581 7.758 1.407 8.345 1.641 0.475 0.352 2.111 3.867 3.519 7.758 2.463 6.586 2.589 8.818 2.237 30.666l-0.352 23.502-5.404 4.927c-3.761 3.412-5.881 6.46-6.812 9.878-2.589 9.167-4.22 10.333-17.395 10.808-11.512 0.352-11.512 0.352-16.45 4.821-2.701 2.589-7.047 5.174-9.984 5.881-6.698 1.886-15.861 0.704-19.154-2.352-1.407-1.292-3.412-2.352-4.349-2.352-2.589 0-34.079 29.962-35.718 34.079-1.534 3.412-6.938 8.219-9.401 8.219-1.407 0-2.815 1.534-8.46 9.273-1.056 1.534-5.052 6.108-8.818 10.105-3.867 4.114-7.758 9.167-8.818 11.287-1.292 2.589-3.412 4.349-6.108 5.174-3.867 1.292-3.997 1.641-4.472 7.758-0.232 3.519-0.352 21.498-0.352 40.067v33.727l3.997 5.756c2.237 3.054 4.472 6.938 4.927 8.571 0.475 1.534 1.759 3.761 2.815 5.052 1.534 1.641 1.886 4.821 1.886 15.39 0 15.032-1.056 17.268-8.697 19.378-6.938 1.886-32.777 1.407-40.193-0.704-6.586-1.886-10.457-4.472-10.457-6.938 0-1.994-11.287-24.91-12.694-25.743-0.704-0.352-1.534-2.237-1.994-4.114-0.352-1.886-1.407-4.114-2.352-4.821-0.828-0.704-2.941-6.46-4.7-12.92l-3.167-11.746-100.695-0.581c-55.351-0.352-110.928-0.704-123.494-0.828-12.568-0.232-37.126-0.232-54.643 0-17.395 0.126-35.953 0.352-41.123 0.232-5.174 0-34.787 0.475-65.81 0.934l-56.406 0.828-3.519 7.047c-1.886 3.997-3.997 8.219-4.7 9.52-0.581 1.292-2.352 4.927-3.867 8.107-1.534 3.293-3.167 6.698-3.761 7.642-3.293 5.174-6.812 12.806-7.642 16.213-0.352 2.111-1.407 4.472-2.111 5.28-0.828 0.704-2.352 2.815-3.519 4.578-1.056 1.759-4.22 4.472-7.047 5.881-4.472 2.463-6.698 2.701-23.729 2.815-10.333 0.126-19.979 0-21.265-0.352zM669.356 664.734l3.997-4.114h-29.733c-29.029 0-29.839 0.126-32.552 2.589l-2.701 2.589-3.412-2.589c-3.412-2.463-4.114-2.463-47.934-2.352-40.067 0.126-47.582-0.126-54.749-2.237-2.463-0.704-5.532-7.047-5.532-11.512v-2.941l-45.471-0.232c-25.141-0.232-62.514-0.126-83.194 0-43.937 0.475-42.067-0.126-41.474 11.287l0.352 7.164 38.425 0.581c37.956 0.581 38.531 0.581 41.123 3.293l2.589 2.589h256.263l3.997-4.114zM285.477 631.252c-0.232-16.45-0.581-30.089-0.704-30.314-0.232-0.126-2.237-0.581-4.472-1.056l-4.114-0.581 0.475 27.373c0.232 15.157 0.704 29.259 1.056 31.37 0.581 3.519 0.934 3.867 4.349 3.519l3.761-0.352-0.352-29.962zM793.553 640.068c0.126-9.626 0.581-22.799 1.056-29.259 0.828-11.16 0.828-11.512-1.407-10.333-3.997 2.237-5.052 9.167-5.052 34.185v23.729l2.701-0.352c2.589-0.352 2.589-0.704 2.701-17.972zM836.314 615.391c0.581-1.534 1.994-3.054 3.167-3.412 3.054-1.056 25.262-22.915 27.969-27.725 1.407-2.352 4.349-5.052 6.812-6.234 2.352-1.056 4.349-2.352 4.349-2.941 0-0.475-10.58-1.056-23.502-1.292l-23.502-0.352v9.273c0 5.174-0.352 15.861-0.828 23.854l-0.704 14.33 2.589-1.292c1.407-0.828 3.054-2.701 3.645-4.22zM240.358 612.225c0-2.815-0.232-8.818-0.581-13.513-0.475-7.994-0.704-8.46-3.867-9.626-5.052-1.641-7.047-9.753-7.047-28.321v-14.926l-8.697-8.345c-4.821-4.7-9.52-8.46-10.58-8.46-0.934 0-2.701-1.292-3.761-2.941l-1.994-2.941-32.667 0.126c-18.098 0.126-32.777 0.475-32.777 0.934 0 1.292 20.332 20.796 24.081 23.024 4.114 2.463 8.46 6.34 15.861 13.972 5.756 5.987 25.035 25.262 28.779 28.779 20.438 19.506 29.135 27.147 30.899 27.147 1.886 0 2.352-0.934 2.352-4.927zM137.547 436.899c2.941-2.701 3.997-2.815 26.553-3.645l23.623-0.934v-5.174c0-11.287-6.46-36.422-13.271-52.057-1.534-3.519-5.638-14.101-8.924-23.502-8.697-23.975-8.571-23.502-10.333-25.387-0.934-0.934-3.167-1.641-5.052-1.641-5.28 0-7.758 4.349-8.818 14.926-0.475 4.927-1.641 11.638-2.589 14.926s-2.237 12.342-2.701 20.085c-0.475 7.758-1.534 16.45-2.237 19.378-3.167 13.866-7.4 28.779-8.924 31.848-0.934 1.759-1.759 5.174-1.759 7.4 0 3.645 0.475 4.349 3.867 5.28 5.881 1.641 7.29 1.534 10.58-1.534zM471.595 438.784c0.828-0.475 1.994-2.941 2.701-5.638 1.292-4.7 3.645-7.758 7.29-8.924 0.934-0.352 11.746-0.352 23.854 0.126l22.095 0.704 2.815 3.519c2.352 2.941 3.054 3.293 3.997 1.759 0.581-0.934 1.186-2.352 1.186-3.054s1.186-3.867 2.589-7.047c2.352-5.28 2.589-7.642 2.589-28.673 0-12.568-0.352-24.433-0.828-26.201l-0.934-3.412-23.151 0.704c-12.694 0.352-25.262 0.828-27.851 0.934s-7.994-0.232-11.99-0.828l-7.4-0.934v39.011c0 21.391 0.352 38.887 0.934 38.887 0.475 0 1.407-0.475 2.111-0.934zM793.429 434.21c4.22-9.626 8.924-16.45 15.157-22.095 7.29-6.586 11.864-16.092 9.753-20.085-2.111-4.114-5.881-7.515-8.219-7.515-1.186 0-5.638-3.293-9.753-7.29-4.578-4.349-7.994-6.812-8.571-6.108-1.292 1.292-2.463 67.44-1.186 67.44 0.475 0 1.641-1.994 2.815-4.349zM749.365 341.607c-1.994-2.463-9.401-6.812-10.227-6.108-0.934 1.056 0.828 3.167 4.821 5.638 4.578 2.815 7.515 3.054 5.404 0.475zM515.306 324.222v-15.861l-125.841-0.232-2.815 2.589c-2.463 2.352-2.701 3.519-2.701 13.972 0 11.746 0.581 13.271 5.28 14.101 1.292 0.232 30.195 0.581 64.149 0.828l61.923 0.352v-15.739zM540.684 337.26c1.407-1.994 1.886-5.756 1.886-15.861v-13.271h-8.571l0.828 5.404c0.352 3.054 0.704 10.227 0.704 15.861 0 8.345 0.352 10.457 1.641 10.457 0.934 0 2.589-1.186 3.519-2.589zM525.76 323.162c-0.232-1.534-0.475-0.581-0.475 1.994-0.126 2.589 0.126 3.761 0.475 2.701 0.232-1.186 0.232-3.293 0-4.7z"></path>
</svg>
