<!-- Generated by IcoMoon.io -->
<svg version="1.1" xmlns="http://www.w3.org/2000/svg" width="842" height="1024" viewBox="0 0 842 1024">
<title></title>
<g id="icomoon-ignore">
</g>
<path d="M420.873 229.226l-9.394 90.187h20.668l-11.273-90.187zM605.005 659.494l-103.339 63.883h154.070l-31.941-43.215-18.789-20.668zM621.915 629.431q69.519 52.609 86.429 124.007h-236.741v-182.253q84.55 9.394 150.312 58.246zM54.488 779.743h732.771q11.273 0 20.668 9.394l7.516 20.668v11.273q0 24.426-22.547 28.183-238.62 45.094-372.022 45.094l-372.022-45.094q-22.547-3.758-22.547-28.183v-11.273q0-30.062 28.183-30.062zM330.686 383.295h180.374v-37.578h-180.374v37.578zM385.174 462.209h71.398l24.426-52.609h-120.25l24.426 52.609zM567.427 638.826q-37.578-24.426-65.761-33.82v80.793l65.761-46.972zM445.299 753.439v-264.925h-48.851v264.925h48.851zM300.624 997.695h240.499l-39.457-78.914-80.793 1.879-78.914-1.879-41.336 78.914zM232.983 659.494l-18.789 20.668-33.82 43.215h154.070l-101.461-63.883zM219.831 629.431q65.761-48.851 150.312-58.246v182.253h-236.741q15.031-71.398 86.429-124.007zM268.682 638.826l65.761 46.972v-80.793l-65.761 33.82z"></path>
</svg>
