<!-- Generated by IcoMoon.io -->
<svg version="1.1" xmlns="http://www.w3.org/2000/svg" width="1092" height="1024" viewBox="0 0 1092 1024">
<title></title>
<g id="icomoon-ignore">
</g>
<path d="M466.169 476.644h-68.092v225.228h68.092v-225.228zM916.624 659.969h-65.473v130.946h65.473v-130.946zM793.535 790.916v-130.946h-65.473v130.946h65.473zM728.062 411.171h-52.379v170.23l154.517-146.66 227.847 212.133h-54.997v343.079h-78.568v-123.090h-65.473v123.090h-322.128v-178.087h-65.473v178.087h-188.563v-162.373h-104.757v162.373h-89.044v-243.56h-54.997l293.32-261.893v-73.33h-52.379l96.9-130.946v-246.179h39.284v191.182l91.662-120.471 225.228 306.414zM586.64 476.644h-62.854v225.228h62.854v-225.228z"></path>
</svg>
