<!-- Generated by IcoMoon.io -->
<svg version="1.1" xmlns="http://www.w3.org/2000/svg" width="1226" height="1024" viewBox="0 0 1226 1024">
<title></title>
<g id="icomoon-ignore">
</g>
<path d="M245.221 603.621l13.474-29.642-24.253 59.284 10.779-29.642zM444.632 110.484l13.474-29.642-24.253 59.284 10.779-29.642z"></path>
<path d="M835.368 148.211h-35.032l32.337 80.842h40.421l-37.726-80.842zM479.663 353.011l-29.642 132.042h334.147l-32.337-132.042h-272.168zM932.379 353.011h-48.505l53.895 132.042h61.979l-67.368-132.042zM528.168 148.211l-18.863 80.842h212.884l-18.863-80.842h-175.158zM1077.895 641.347h-78.147l72.758 177.853h94.316l-88.926-177.853zM412.295 641.347l-43.116 177.853h493.137l-40.421-177.853h-409.6zM716.8 40.421l223.663 945.853h158.989l-382.653-945.853zM355.705 229.053h43.116l32.337-80.842h-35.032l-40.421 80.842zM229.053 485.053h64.674l53.895-132.042h-53.895l-64.674 132.042zM61.979 819.2h97.011l-10.779 29.642 83.537-207.495h-80.842l-88.926 177.853zM514.695 40.421l-382.653 945.853h158.989l223.663-945.853z"></path>
</svg>
