<!-- Generated by IcoMoon.io -->
<svg version="1.1" xmlns="http://www.w3.org/2000/svg" width="1024" height="1024" viewBox="0 0 1024 1024">
<title></title>
<g id="icomoon-ignore">
</g>
<path fill="#000" d="M526.049 214.16c0.661 16.475 1.322 32.947 1.992 49.426-12.826 0-19.233 0-32.063 0 0.659-16.475 1.322-32.947 1.988-49.426-26.007 0-52.015 0-78.020 0-52.286 198.563-104.572 397.119-156.856 595.685 70.313 0 140.635 0 210.945 0 0.659-16.475 1.322-32.949 1.99-49.426 23.996 0 47.989 0 71.987 0 0.665 16.475 1.322 32.945 1.99 49.426 70.313 0 140.633 0 210.945 0-52.286-198.563-104.57-397.121-156.856-595.685-26.007 0-52.015 0-78.020 0zM492.993 337.581c12.674 0 25.336-0.009 38.011-0.004 1.843 45.812 3.675 91.617 5.525 137.427-16.354 0-32.705 0-49.053 0 1.843-45.808 3.682-91.61 5.525-137.422zM478.983 686.417c1.843-45.81 3.68-91.61 5.525-137.42 18.337 0 36.662-0.004 54.997-0.004 1.843 45.81 3.682 91.615 5.525 137.425-22.013 0-44.027 0-66.035 0z"></path>
<path fill="#000" d="M655.213 214.16c-10.629 0-15.939 0-26.565 0 66.254 198.563 132.489 397.123 198.739 595.685 23.936 0 47.874 0 71.81 0-81.331-198.567-162.656-397.123-243.994-595.685z"></path>
<path fill="#000" d="M368.787 214.16c-81.333 198.565-162.665 397.119-243.994 595.685 23.938 0 47.874 0 71.813 0 66.249-198.563 132.49-397.121 198.737-595.685-10.629 0-15.939 0-26.565 0z"></path>
</svg>
