<!-- Generated by IcoMoon.io -->
<svg version="1.1" xmlns="http://www.w3.org/2000/svg" width="1024" height="1024" viewBox="0 0 1024 1024">
<title></title>
<g id="icomoon-ignore">
</g>
<path d="M454.135 627.193q0.537-46.077 12.321-66.974 12.321-20.897 47.148-52.507 17.68-18.751 27.86-40.185 9.642-21.43 9.642-50.365 0-30.539-10.717-48.219-11.251-17.68-32.682-17.68-16.072 0-27.86 15.538-11.788 15.001-12.321 43.935h-92.154q0.537-68.045 36.435-101.797 35.897-33.218 95.904-33.218 64.295 0 100.192 37.506 35.36 37.506 35.36 103.942 0 42.327-19.288 76.616-19.826 34.289-50.898 58.399-16.609 15.538-21.43 31.076-5.359 15.538-5.359 43.935h-92.154zM545.756 763.281v-81.437h-91.083v81.437h91.083z"></path>
</svg>
