<!-- Generated by IcoMoon.io -->
<svg version="1.1" xmlns="http://www.w3.org/2000/svg" width="1045" height="1024" viewBox="0 0 1045 1024">
<title></title>
<g id="icomoon-ignore">
</g>
<path d="M795.29 122.152l18.193 2.599 98.761 96.162 2.599 18.193-28.589 41.584q-7.797 10.396 0 20.792l44.183 98.761 15.594 15.594 51.98 10.396 7.797 10.396 2.599 140.345-10.396 12.995-51.98 10.396q-10.396 2.599-12.995 12.995-10.396 51.98-41.584 103.959v18.193l25.99 38.985q7.797 15.594-2.599 25.99l-90.965 90.965-10.396 5.198h-2.599l-7.797-2.599-44.183-23.391-5.198-2.599-2.599-2.599-2.599 2.599-7.797 2.599-101.36 41.584q-15.594 5.198-15.594 15.594l-12.995 46.782-10.396 12.995h-155.939l-10.396-12.995-12.995-46.782-15.594-15.594q-44.183-10.396-103.959-41.584l-5.198-2.599-2.599-2.599-2.599 2.599-7.797 2.599-44.183 23.391-5.198 2.599h-2.599l-10.396-5.198-90.965-90.965-5.198-25.99 25.99-38.985q7.797-5.198 2.599-18.193l-44.183-103.959-10.396-12.995-51.98-10.396-10.396-12.995 2.599-140.345 7.797-10.396 49.381-10.396q12.995-2.599 18.193-15.594l41.584-98.761q7.797-10.396 0-20.792l-25.99-41.584 2.599-18.193 96.162-96.162 10.396-5.198h10.396l5.198 2.599 38.985 28.589 10.396 5.198 5.198-2.599 103.959-41.584 15.594-15.594 10.396-49.381 10.396-10.396h142.944l12.995 10.396 10.396 49.381 12.995 15.594 106.558 41.584 5.198 2.599 5.198-2.599 2.599-2.599 41.584-28.589h5.198zM673.137 501.604l28.589 20.792 10.396 62.376-10.396 59.777-28.589 23.391q-23.391 0-33.787-28.589-12.995-25.99-12.995-80.569v-33.787q5.198-12.995 18.193-18.193l28.589-5.198zM691.33 280.69q-67.574 0-109.157 49.381t-41.584 137.746v90.965q0 85.767 36.386 132.548 36.386 44.183 96.162 44.183 54.579 0 90.965-41.584 33.787-41.584 33.787-109.157t-25.99-109.157q-28.589-41.584-75.371-41.584l-38.985 5.198-31.188 23.391q0-54.579 18.193-83.168 15.594-28.589 46.782-28.589l31.188 2.599 25.99 10.396 15.594-64.975-33.787-12.995-38.985-5.198zM363.858 524.995l23.391-5.198 18.193-20.792v-51.98l-10.396-72.772-31.188-23.391-28.589 25.99-10.396 62.376 10.396 64.975 28.589 20.792zM350.863 667.939l-36.386-2.599-31.188-12.995-7.797 64.975 36.386 15.594 38.985 2.599q59.777 0 101.36-44.183 38.985-44.183 38.985-124.751v-109.157q0-85.767-36.386-129.949-33.787-46.782-90.965-46.782-54.579 0-88.366 44.183-33.787 46.782-33.787 114.355 0 72.772 28.589 111.756 25.99 41.584 77.97 41.584l31.188-10.396 25.99-23.391v12.995q0 46.782-15.594 70.173-15.594 25.99-38.985 25.99z"></path>
</svg>
