<!-- Generated by IcoMoon.io -->
<svg version="1.1" xmlns="http://www.w3.org/2000/svg" width="1024" height="1024" viewBox="0 0 1024 1024">
<title></title>
<g id="icomoon-ignore">
</g>
<path d="M512 390.936q-50.443 0-85.754 35.31t-35.31 85.754 35.31 85.754 85.754 35.31 85.754-35.31 35.31-85.754-35.31-85.754-85.754-35.31zM703.685 186.64l88.276-73.143 118.542 118.542-73.143 88.276 40.355 98.365 113.498 10.089v166.463l-113.498 10.089-40.355 98.365 73.143 88.276-118.542 118.542-88.276-75.665-98.365 42.877-10.089 113.498h-166.463l-10.089-113.498-98.365-42.877-88.276 75.665-118.542-118.542 75.665-88.276-42.877-98.365-113.498-10.089v-166.463l113.498-10.089 42.877-98.365-75.665-88.276 118.542-118.542 88.276 73.143 98.365-40.355 10.089-113.498h166.463l10.089 113.498 98.365 40.355z"></path>
</svg>
