<!-- Generated by IcoMoon.io -->
<svg version="1.1" xmlns="http://www.w3.org/2000/svg" width="1042" height="1024" viewBox="0 0 1042 1024">
<title></title>
<g id="icomoon-ignore">
</g>
<path d="M249.502 122.152h2.599l41.584 28.589 5.198 2.599 2.599 2.599 5.198-2.599 106.558-41.584 12.995-15.594 10.396-49.381 12.995-10.396h142.944l12.995 10.396 10.396 49.381 12.995 15.594 103.959 41.584 7.797 2.599 7.797-5.198 41.584-28.589h5.198l10.396-2.599 7.797 5.198 98.761 96.162 2.599 18.193-28.589 41.584q-7.797 10.396 0 20.792l41.584 98.761q5.198 12.995 18.193 15.594l51.98 10.396 5.198 10.396 2.599 140.345-10.396 12.995-49.381 10.396-12.995 12.995-44.183 103.959q-2.599 12.995 2.599 18.193l25.99 38.985q7.797 12.995-2.599 25.99l-93.563 90.964-12.995 5.198-5.198-2.599-44.183-23.391-7.797-2.599-2.599-2.599-2.599 2.599-5.198 2.599-103.959 41.584-15.594 15.594-12.995 46.782-7.797 12.995h-158.538l-7.797-12.995-12.995-46.782-15.594-15.594q-51.98-10.396-103.959-41.584l-7.797-2.599-2.599-2.599-2.599 2.599-5.198 2.599-44.183 23.391-10.396 2.599h-2.599l-5.198-5.198-93.563-90.964q-10.396-10.396-2.599-25.99l25.99-38.985q7.797-7.797 0-18.193l-41.584-103.959q-2.599-10.396-12.995-12.995l-51.98-10.396-7.797-12.995v-140.345l7.797-10.396 51.98-10.396 15.594-15.594 44.183-98.761q7.797-10.396 0-20.792l-28.589-41.584 2.599-18.193 101.36-96.162 18.193-2.599zM673.137 501.604l28.589 20.792 10.396 62.376-10.396 59.777-28.589 23.391q-23.391 0-33.787-28.589-12.995-25.99-12.995-80.569v-33.787q5.198-12.995 18.193-18.193l28.589-5.198zM691.33 280.69q-67.574 0-109.157 49.381t-41.584 137.746v90.964q0 85.766 36.386 132.548 36.386 44.183 96.162 44.183 54.579 0 90.964-41.584 33.787-41.584 33.787-109.157t-25.99-109.157q-28.589-41.584-75.371-41.584l-38.985 5.198-31.188 23.391q0-54.579 18.193-83.167 15.594-28.589 46.782-28.589l31.188 2.599 25.99 10.396 15.594-64.975-33.787-12.995-38.985-5.198zM493.807 356.061v-70.173h-257.299v70.173h174.132q-46.782 67.574-70.173 148.142-25.99 83.167-33.787 184.528l-2.599 41.584h83.167l5.198-41.584q7.797-119.553 25.99-187.127 15.594-67.574 75.371-145.543z"></path>
</svg>
