<!-- Generated by IcoMoon.io -->
<svg version="1.1" xmlns="http://www.w3.org/2000/svg" width="1045" height="1024" viewBox="0 0 1045 1024">
<title></title>
<g id="icomoon-ignore">
</g>
<path d="M805.686 119.553l7.797 5.198 98.761 96.162 2.599 18.193-25.99 41.584-2.599 20.792 44.183 98.761q5.198 12.995 18.193 15.594l49.381 10.396 7.797 10.396 2.599 140.345-10.396 12.995-51.98 10.396-12.995 12.995q-12.995 62.376-41.584 103.959-2.599 12.995 2.599 18.193l23.391 38.985q7.797 15.594-2.599 25.99l-90.965 90.965-7.797 5.198h-2.599l-7.797-2.599-44.183-23.391-7.797-2.599-2.599-2.599-2.599 2.599-7.797 2.599q-54.579 31.188-101.36 41.584l-15.594 15.594-12.995 46.782-10.396 12.995h-155.939l-10.396-12.995-12.995-46.782-15.594-15.594-101.36-41.584-10.396-5.198-2.599 2.599-7.797 2.599-15.594 10.396-25.99 12.995-10.396 2.599-10.396-5.198-90.965-90.965q-10.396-10.396-2.599-25.99l25.99-38.985v-18.193q-31.188-51.98-41.584-103.959l-12.995-12.995-51.98-10.396-10.396-12.995 2.599-140.345 7.797-10.396 51.98-10.396 15.594-15.594 44.183-98.761v-20.792l-28.589-41.584 2.599-18.193 98.761-96.162 5.198-2.599 10.396-2.599 7.797 2.599 41.584 28.589v2.599l7.797 2.599h2.599l2.599-2.599q49.381-25.99 106.558-41.584l12.995-15.594 10.396-49.381 10.396-10.396h145.543l10.396 10.396 10.396 49.381 15.594 15.594q57.178 15.594 103.959 41.584l5.198 2.599h2.599l7.797-5.198 38.985-28.589 7.797-2.599h7.797zM748.508 751.107v-444.427l-153.34 38.985v57.178l67.574-2.599v350.863h85.767zM283.289 556.183l75.371 5.198 10.396-28.589 25.99-7.797q20.792 0 31.188 20.792l10.396 64.975q0 33.787-7.797 57.178l-31.188 20.792-28.589-15.594-10.396-46.782-85.767 2.599q0 62.376 36.386 96.162 36.386 31.188 88.366 31.188 62.376 0 93.563-41.584t31.188-106.558q0-72.772-28.589-109.157-25.99-38.985-80.569-38.985l-28.589 7.797-20.792 15.594v-2.599l7.797-101.36h137.746v-72.772h-205.32l-20.792 249.503z"></path>
</svg>
