<!-- Generated by IcoMoon.io -->
<svg version="1.1" xmlns="http://www.w3.org/2000/svg" width="1045" height="1024" viewBox="0 0 1045 1024">
<title></title>
<g id="icomoon-ignore">
</g>
<path d="M246.904 119.553l7.797 2.599 41.584 28.589v2.599l7.797 2.599h2.599l2.599-2.599q49.381-25.99 106.558-41.584l12.995-15.594 10.396-49.381 10.396-10.396h145.543l10.396 10.396 10.396 49.381 15.594 15.594q57.178 15.594 103.959 41.584l5.198 2.599h2.599l7.797-5.198 38.985-28.589 7.797-2.599h7.797l7.797 5.198 98.761 96.162 2.599 18.193-25.99 41.584-2.599 20.792 44.183 98.761q5.198 12.995 18.193 15.594l49.381 10.396 7.797 10.396 2.599 140.345-10.396 12.995-51.98 10.396-12.995 12.995q-12.995 62.376-41.584 103.959-2.599 12.995 2.599 18.193l23.391 38.985q7.797 15.594-2.599 25.99l-90.965 90.965-7.797 5.198h-2.599l-7.797-2.599-44.183-23.391-7.797-2.599-2.599-2.599-2.599 2.599-7.797 2.599q-54.579 31.188-101.36 41.584l-15.594 15.594-12.995 46.782-10.396 12.995h-155.939l-10.396-12.995-12.995-46.782-15.594-15.594-101.36-41.584-10.396-5.198-2.599 2.599-7.797 2.599-15.594 10.396-25.99 12.995-10.396 2.599-10.396-5.198-90.965-90.965q-10.396-10.396-2.599-25.99l25.99-38.985v-18.193q-31.188-51.98-41.584-103.959l-12.995-12.995-51.98-10.396-10.396-12.995 2.599-140.345 7.797-10.396 51.98-10.396 15.594-15.594 44.183-98.761v-20.792l-28.589-41.584 2.599-18.193 98.761-96.162 5.198-2.599 10.396-2.599zM621.158 473.015v67.574h41.584q25.99 0 36.386 15.594l10.396 51.98-10.396 44.183q-12.995 18.193-33.787 18.193-18.193 0-31.188-15.594l-10.396-44.183h-85.767q0 64.975 36.386 96.162t88.366 31.188q59.777 0 96.162-33.787t36.386-96.162l-15.594-62.376-46.782-41.584 41.584-38.985 15.594-54.579q0-62.376-33.787-96.162-33.787-31.188-93.563-31.188-51.98 0-85.767 33.787-33.787 31.188-33.787 88.366h83.168l12.995-38.985 25.99-12.995q20.792 0 28.589 15.594l10.396 41.584q0 31.188-10.396 46.782-7.797 15.594-31.188 15.594h-41.584zM379.452 504.203q18.193 0 28.589 20.792l10.396 62.376-10.396 59.777-28.589 23.391q-23.391 0-33.787-28.589l-12.995-80.569v-33.787l18.193-18.193 28.589-5.198zM397.645 283.289q-67.574 0-109.157 49.381t-41.584 137.746v90.965q0 85.767 36.386 132.548 36.386 44.183 96.162 44.183 54.579 0 90.965-41.584 33.787-41.584 33.787-109.157t-25.99-109.157q-28.589-41.584-75.371-41.584l-38.985 5.198-31.188 23.391q0-54.579 18.193-83.168 15.594-28.589 46.782-28.589l31.188 2.599 25.99 10.396 15.594-64.975-33.787-12.995-38.985-5.198z"></path>
</svg>
