<!-- Generated by IcoMoon.io -->
<svg version="1.1" xmlns="http://www.w3.org/2000/svg" width="1045" height="1024" viewBox="0 0 1045 1024">
<title></title>
<g id="icomoon-ignore">
</g>
<path d="M797.889 119.553h7.797l7.797 5.198 98.761 96.162 2.599 18.193-25.99 41.584-2.599 20.792 44.183 98.761q5.198 12.995 18.193 15.594l49.381 10.396 7.797 10.396 2.599 140.345-10.396 12.995-51.98 10.396-12.995 12.995q-12.995 62.376-41.584 103.959v18.193l25.99 38.985q7.797 15.594-2.599 25.99l-90.965 90.965-7.797 5.198h-5.198l-5.198-2.599-44.183-23.391-7.797-2.599-2.599-2.599-2.599 2.599-7.797 2.599-101.36 41.584-15.594 15.594-12.995 46.782-10.396 12.995h-155.939l-10.396-12.995-12.995-46.782-15.594-15.594-101.36-41.584-10.396-5.198-2.599 2.599-7.797 2.599-41.584 23.391-7.797 2.599h-2.599l-10.396-5.198-90.965-90.965q-10.396-10.396-2.599-25.99l25.99-38.985v-18.193q-31.188-51.98-41.584-103.959l-12.995-12.995-51.98-10.396-10.396-12.995 2.599-140.345 7.797-10.396 49.381-10.396q12.995-2.599 18.193-15.594l44.183-98.761-2.599-20.792-25.99-41.584 2.599-18.193 98.761-96.162 7.797-5.198h10.396l5.198 2.599 41.584 28.589v2.599l7.797 2.599h2.599l2.599-2.599 103.959-41.584 15.594-15.594 10.396-49.381 10.396-10.396h145.543l10.396 10.396 10.396 49.381 15.594 15.594 103.959 41.584 5.198 2.599h2.599l5.198-5.198 41.584-28.589 7.797-2.599zM610.762 563.98h64.975v-153.34l-5.198 7.797-59.777 145.543zM761.503 563.98v-278.091h-85.767l-142.944 293.685 5.198 54.579h137.746v96.162h85.767v-96.162h36.386v-70.173h-36.386zM363.858 524.995l23.391-5.198 18.193-20.792v-51.98l-10.396-72.772-31.188-23.391-28.589 25.99-10.396 62.376 10.396 64.975 28.589 20.792zM350.863 667.939l-36.386-2.599-31.188-12.995-7.797 64.975 36.386 15.594 38.985 2.599q59.777 0 101.36-44.183 38.985-44.183 38.985-124.751v-109.157q0-85.767-36.386-129.949-33.787-46.782-90.965-46.782-54.579 0-88.366 44.183-33.787 46.782-33.787 114.355 0 72.772 28.589 111.756 25.99 41.584 77.97 41.584l31.188-10.396 25.99-23.391v12.995q0 46.782-15.594 70.173-15.594 25.99-38.985 25.99z"></path>
</svg>
