<!-- Generated by IcoMoon.io -->
<svg version="1.1" xmlns="http://www.w3.org/2000/svg" width="1073" height="1024" viewBox="0 0 1073 1024">
<title></title>
<g id="icomoon-ignore">
</g>
<path d="M33.109 1015.673c-0.694-1.883 0.198-8.723 1.487-11.301 0.496-0.892 1.19-2.577 1.586-3.569 0.297-1.19 0.892-1.586 1.487-0.991 1.19 1.19-0.892 14.374-2.577 16.158-1.090 1.289-1.388 1.19-1.983-0.297z"></path>
<path d="M37.272 997.136c-1.784-5.749-1.090-11.102 9.814-74.247 7.831-45.897 14.374-84.458 15.761-93.677 0.793-4.857 1.586-9.814 1.883-10.904 0.297-1.19 0.793-4.758 1.19-7.93 0.397-3.271 0.892-6.84 1.090-7.93 1.289-6.84 10.805-61.46 16.257-93.379 1.586-9.417 3.172-17.546 3.47-18.141 0.297-0.496 0.991-4.163 1.487-8.129s1.388-9.417 1.983-12.193c0.892-4.362 8.029-45.599 17.843-103.094 3.271-18.735 4.362-22.8 5.948-21.808 1.388 0.892 1.19 5.551-0.595 15.662-1.090 6.443-1.19 9.12-0.397 10.111s0.694 1.586-0.397 2.181c-2.181 1.19-2.776 8.029-0.892 10.805 0.793 1.289 1.19 2.379 0.793 2.379s-0.297 0.595 0.198 1.289c0.595 0.595 0.991 1.983 0.991 2.974 0 1.784-3.37 6.047-5.353 6.741-0.595 0.198-3.172 11.995-5.65 26.17-3.965 22.8-17.843 104.878-18.934 112.214-0.198 1.487-5.749 34.199-12.391 72.661-6.542 38.462-14.77 86.639-18.24 107.059s-8.029 46.987-10.111 58.982c-3.47 20.718-4.758 25.377-5.749 22.205z"></path>
<path d="M129.561 840.909c-0.198-0.496-0.496-3.668-0.595-7.236-0.297-13.779-2.676-64.632-3.47-73.851 0-1.090-0.496-2.478-0.892-3.172-0.397-0.595-0.297-1.388 0.198-1.685 0.595-0.397 0.793-5.849 0.496-13.283-0.297-6.939-0.496-14.572-0.595-17.050 0-2.478-0.496-5.056-0.991-5.65-0.595-0.694-0.694-1.289-0.297-1.289s0.099-0.694-0.595-1.586c-1.090-1.388-0.991-1.784 0.595-2.974 1.784-1.388 1.784-1.388-0.099-4.064-2.181-3.172-2.577-10.904-0.496-10.409 0.991 0.198 1.19-6.642 0.793-34.001-0.297-21.808-0.099-34.398 0.496-34.794 1.586-0.991 2.577 0.793 3.073 5.056 1.487 12.292 1.983 24.782 4.659 107.852l2.974 91-1.983 3.866c-2.082 4.064-2.577 4.56-3.271 3.271z"></path>
<path d="M802.943 806.016c-34.001-7.534-44.211-10.012-44.41-11.301-0.198-0.793 0.099-1.784 0.595-2.082 0.595-0.297 8.029 0.991 16.753 2.974 8.624 1.983 23.295 5.056 32.514 6.939 20.916 4.263 20.718 4.163 26.765 4.956 2.776 0.397 6.245 1.586 7.831 2.776 1.685 1.090 4.758 2.28 6.939 2.577 4.956 0.595 5.353 2.379 0.595 2.676-1.883 0-23.295-4.263-47.582-9.516z"></path>
<path d="M717.197 787.38c-8.723-1.883-16.257-3.866-16.753-4.263-0.496-0.496-0.595-1.487-0.297-2.28 0.496-1.289 1.784-1.19 9.318 0.397 4.758 1.090 12.292 2.577 16.654 3.47 8.129 1.685 11.202 3.271 10.012 5.254-0.892 1.388-0.595 1.487-18.934-2.577z"></path>
<path d="M889.482 786.488c-0.496-1.388 1.289-4.362 2.577-4.362 0.397 0 1.487 0.595 2.577 1.289 1.685 1.289 1.586 1.487-1.388 2.974-2.776 1.388-3.271 1.388-3.767 0.099z"></path>
<path d="M1040.356 783.91c-6.939-2.379-9.516-3.767-9.021-4.659 0.793-1.19 13.382 2.974 13.581 4.362 0.099 1.388-1.19 1.487-4.56 0.297z"></path>
<path d="M566.521 754.766c-58.882-12.788-108.149-23.692-109.438-24.187-1.685-0.793-2.082-1.388-1.289-2.181 0.694-0.694 5.353 0 15.761 2.478 8.029 1.983 16.455 3.866 18.636 4.163 8.624 1.388 39.255 7.732 50.060 10.409 2.478 0.595 5.353 1.289 6.344 1.487s3.271 0.892 4.956 1.487c4.263 1.388 25.179 5.551 34.794 6.939 4.362 0.595 12.589 2.181 18.339 3.569 17.546 4.263 22.205 5.353 24.782 5.749 1.388 0.297 7.137 1.388 12.887 2.478 15.167 2.974 18.438 2.676 19.132-1.586 0.099-1.19 0.793-2.676 1.289-3.47 1.487-1.784 3.37-11.598 3.965-20.123 0.297-3.767 0.892-9.615 1.487-12.887 1.883-11.796 3.37-45.401 2.082-47.582-0.397-0.496-0.694-1.883-0.694-2.974-0.099-1.090-0.397-2.676-0.793-3.47-0.991-2.577-2.379-14.175-2.181-18.339 0.099-2.181-0.397-4.857-0.991-6.047-0.694-1.090-1.487-3.073-1.685-4.362-0.198-1.586-1.289-2.676-3.767-3.47-3.767-1.289-4.659-3.767-1.487-4.263 1.090-0.198 2.974-1.289 4.064-2.379 1.883-1.685 2.478-1.784 4.263-0.595 1.289 0.793 2.379 0.892 2.974 0.297 1.090-1.090 2.875-23.692 2.676-32.712l-0.099-5.948 3.569-0.297c2.082-0.198 3.965 0.198 4.56 0.991s0.694 5.948 0.198 13.68c-0.397 6.84-0.991 22.007-1.289 33.704-0.397 11.697-0.892 23.791-1.090 26.765s-0.595 17.248-0.991 31.721c-0.297 14.473-0.793 29.838-0.991 34.199s-0.694 14.869-0.991 23.295c-0.397 8.426-0.991 15.662-1.289 15.96-0.397 0.397-48.87-9.814-107.753-22.502z"></path>
<path d="M970.47 777.169c-1.388-0.397-9.615-3.073-18.438-5.849-21.313-6.741-28.053-9.715-25.278-11.4 1.19-0.793 29.342 7.038 34.199 9.516 6.84 3.569 7.435 3.767 8.822 3.172 0.793-0.297 3.073 0.198 5.155 0.991 3.172 1.388 3.47 1.784 2.478 3.073-1.388 1.586-3.172 1.784-6.939 0.496z"></path>
<path d="M906.334 774.493c-3.271-0.397-5.849-2.577-4.857-4.064 0.694-1.090 10.309 1.883 10.508 3.271 0.099 1.19-1.289 1.388-5.65 0.793z"></path>
<path d="M1034.904 766.067c-11.697-6.047-16.455-9.516-15.167-10.805 1.090-1.090 28.648 12.391 29.342 14.275 0.595 1.685-0.099 2.676-1.685 2.577-0.595 0-6.245-2.776-12.49-6.047z"></path>
<path d="M980.879 765.968c-0.991-0.793-1.388-1.586-0.892-1.883 1.388-0.892 5.551 1.090 4.857 2.181-0.793 1.289-1.784 1.289-3.965-0.297z"></path>
<path d="M700.543 755.658c-0.793-1.586-0.198-9.219 0.793-9.219 1.19 0 1.487 8.822 0.397 9.516-0.397 0.198-0.892 0.099-1.19-0.297z"></path>
<path d="M1019.044 740.393c-14.175-4.956-27.954-7.732-40.345-7.93-6.047-0.099-11.499 0.198-12.094 0.496-0.595 0.397-1.586 0.397-2.082 0.099-1.487-0.892-0.099-2.676 1.586-2.082 0.694 0.297 1.586 0.099 1.883-0.397 1.19-1.983 20.024-1.090 31.027 1.388 14.175 3.271 32.019 8.822 32.217 10.012 0.297 1.883-3.866 1.388-12.193-1.586z"></path>
<path d="M950.149 735.634c-0.595-1.090 1.289-2.577 2.181-1.685 0.297 0.297 1.19 0.099 1.883-0.496s1.784-0.793 2.379-0.397c1.388 0.892 0.099 2.776-1.586 2.082-0.694-0.297-1.586-0.099-1.883 0.397-0.793 1.289-2.181 1.289-2.974 0.099z"></path>
<path d="M183.091 733.553c-0.397-1.19-1.685-37.57-1.685-49.267 0-3.073-0.099-3.073-2.974-1.983-3.767 1.388-7.93 0-9.021-3.073-0.694-1.883-0.297-2.875 2.082-5.254 1.586-1.685 3.37-2.776 3.866-2.478s1.388-0.099 2.082-0.892c0.694-0.793 1.586-1.19 2.082-0.892s0.892-6.146 0.892-14.869c0-14.076 0.694-18.339 2.577-15.365 0.892 1.487 2.082 26.368 2.875 61.856 0.595 25.674 0.397 30.036-0.892 31.721-1.19 1.586-1.487 1.685-1.883 0.496z"></path>
<path d="M700.345 733.553c-0.397-0.595-0.198-1.586 0.397-2.28 0.595-0.793 0.595-1.784 0.099-2.676-0.991-1.685 0.595-5.254 2.082-4.461 1.19 0.793 1.19 5.155-0.099 5.948-0.496 0.297-0.694 1.19-0.397 1.883 0.694 1.685-1.19 2.974-2.082 1.586z"></path>
<path d="M959.071 733.652c-0.694-1.19 1.19-2.379 2.478-1.586 1.090 0.694 0.397 2.478-0.991 2.478-0.496 0-1.090-0.397-1.487-0.892z"></path>
<path d="M1010.122 728.894c-0.793-0.198-2.181-0.694-2.974-0.991-0.793-0.397-1.883-0.496-2.379-0.397s-1.586-0.099-2.478-0.496c-0.892-0.297-3.073-0.793-4.857-0.991s-3.767-0.595-4.362-0.991c-0.595-0.397-2.676-0.793-4.56-0.991-1.784-0.198-3.866-0.793-4.56-1.289-0.595-0.496-1.388-0.991-1.784-0.991-0.496-0.099-0.793-0.297-0.793-0.595 0-0.397 0.496-0.595 1.289-0.397 0.099 0 1.883 0.198 3.965 0.397 1.983 0.198 4.263 0.694 4.857 1.090s2.676 0.793 4.56 0.991c1.784 0.198 3.965 0.793 4.56 1.388 0.694 0.496 1.586 0.694 1.883 0.397 0.297-0.397 1.388-0.297 2.379 0.099s3.47 0.892 5.65 1.090c4.362 0.496 5.849 1.19 5.056 2.478-0.694 0.991-2.974 1.090-5.452 0.198z"></path>
<path d="M976.022 720.963c-0.397-0.496-1.19-0.793-1.685-0.793s-0.892-0.297-0.892-0.694c0-0.793 0.297-0.892 1.784-0.694 0.397 0.099 1.19 0.198 1.685 0.297 1.289 0.099 1.883 1.983 0.793 2.28-0.496 0.198-1.289 0-1.685-0.397z"></path>
<path d="M700.245 716.205c-0.892-2.28 1.388-7.038 2.676-5.749 1.388 1.388 0.694 6.443-0.793 7.038-0.694 0.198-1.586-0.397-1.883-1.289z"></path>
<path d="M700.146 706.59c-1.685-2.082-1.586-13.184 0.099-14.572 1.586-1.388 3.172 0.198 1.983 2.082-0.496 0.694-0.198 0.892 0.793 0.496 0.892-0.297 2.577 0 3.866 0.694s4.064 1.19 6.245 1.289c4.362 0.099 8.029 2.776 5.254 3.866-1.883 0.694-10.409 0.099-12.688-0.991-1.19-0.496-1.487 0.099-1.586 2.776-0.099 5.155-1.883 7.038-3.965 4.362z"></path>
<path d="M915.751 700.939c-13.085-4.461-16.852-6.245-14.968-7.336 0.793-0.496 28.549 8.129 30.829 9.516 1.388 0.991 0.694 2.776-1.090 2.478-0.694-0.099-7.336-2.181-14.77-4.659z"></path>
<path d="M940.732 699.254c-6.84-2.28-19.33-5.65-27.756-7.336-18.141-3.569-18.537-3.668-17.248-4.956 2.875-2.875 59.477 11.697 59.874 15.365 0.198 1.784-2.379 1.289-14.869-3.073z"></path>
<path d="M739.005 693.901c-0.694-1.19 11.4-9.021 12.688-8.228 1.19 0.694-1.784 3.37-7.435 6.542-2.776 1.586-4.857 2.28-5.254 1.685z"></path>
<path d="M701.832 686.367c-0.892-0.991-0.991-1.784-0.198-2.577 1.19-1.19 3.172-0.198 3.172 1.685 0 2.082-1.586 2.577-2.974 0.892z"></path>
<path d="M702.030 677.942c-2.379-0.892-2.181-2.875 0.198-2.875 1.685 0 3.965 2.676 2.875 3.271-0.397 0.297-1.784 0.099-3.073-0.397z"></path>
<path d="M734.048 678.14c-0.694-1.19 1.19-2.379 2.478-1.586 1.090 0.694 0.397 2.478-0.991 2.478-0.496 0-1.090-0.397-1.487-0.892z"></path>
<path d="M118.855 674.373c-0.099-0.397-0.099-1.19 0-1.685 0.099-0.397-0.297-1.388-0.991-2.181-0.892-1.090-0.793-1.487 0.496-1.983 1.487-0.595 1.487-0.793-0.099-1.983-1.388-0.991-1.487-1.487-0.595-2.478 1.784-1.784 4.56-0.297 3.965 2.082-0.297 1.090-0.099 2.181 0.297 2.478 1.090 0.694-0.297 5.749-1.784 6.245-0.694 0.198-1.289 0-1.289-0.496z"></path>
<path d="M698.164 673.877c-0.397-0.694-0.892-5.551-0.892-10.706-0.099-5.155-0.496-10.111-0.793-11.003-0.397-0.793-0.198-2.676 0.297-4.064s0.694-2.875 0.397-3.172c-0.892-0.793-1.090-6.84-0.297-8.029 1.586-2.28 1.784-5.749 0.496-8.822-0.793-1.685-0.991-3.767-0.595-4.461 0.496-0.694 0.694-3.866 0.496-7.137-0.099-3.172 0.198-6.146 0.694-6.443 0.595-0.297 0.496-1.19-0.198-1.983-1.388-1.685-1.983-10.111-0.793-10.904 1.289-0.694 2.875 3.172 3.271 7.732 0.198 2.379 0.595 5.056 0.991 6.047 1.289 3.767 1.388 4.461 0.397 5.452-0.694 0.694-0.496 1.784 0.595 3.37 1.289 1.883 1.685 5.948 1.983 18.735 0.198 8.922 0.496 16.257 0.595 16.257 0.793 0 0.694 4.461 0 4.956-0.595 0.397-0.793 0.991-0.595 1.388 0.297 0.397 0.694 2.875 1.090 5.452 0.496 4.163 0.297 4.758-1.388 5.254-1.090 0.297-2.181 1.090-2.478 1.883-0.694 1.685-2.181 1.784-3.271 0.198z"></path>
<path d="M448.062 665.352c-3.172-0.496-4.659-1.883-3.37-3.172s20.123-6.146 21.214-5.452c0.496 0.297 1.090 0.099 1.487-0.397 0.297-0.595 1.19-0.793 1.983-0.397 0.892 0.297 2.181 0 2.974-0.694 0.793-0.595 1.883-0.892 2.478-0.496 0.595 0.297 2.577 0.099 4.461-0.496s5.749-1.19 8.624-1.289c2.875-0.198 5.749-0.496 6.245-0.793 0.595-0.397 2.776-0.496 4.956-0.297s5.353-0.099 6.939-0.595c1.685-0.496 5.452-1.19 8.426-1.487s8.922-1.090 13.184-1.883c4.263-0.793 8.624-1.090 9.814-0.793 1.388 0.297 1.883 0.099 1.388-0.595-0.892-1.487 1.19-2.577 2.676-1.289 1.685 1.388 8.228 0.991 23.494-1.586 1.388-0.198 4.461-0.595 6.84-0.892 2.478-0.198 4.956-0.892 5.65-1.487s1.487-0.595 1.784-0.099c0.793 1.289 10.21 0.694 11.995-0.793 0.793-0.694 1.487-0.892 1.487-0.397 0.099 0.991 2.379-2.676 2.478-3.767 0-1.784 8.228-0.297 10.607 1.883 1.983 1.784 2.082 1.784 20.916 1.090 7.435-0.297 13.779-0.198 14.076 0.198 0.694 1.090-2.28 3.271-4.758 3.569-4.362 0.595-11.202 1.289-17.546 1.883-3.569 0.397-7.831 1.090-9.516 1.586-1.784 0.595-4.362 0.694-5.749 0.297-1.586-0.397-3.47-0.099-4.857 0.793-1.388 0.991-4.758 1.487-9.615 1.487-4.064 0-11.202 0.496-15.861 1.19-4.659 0.595-11.301 1.289-14.869 1.586-6.146 0.397-10.607 1.090-13.878 2.082-0.793 0.297-4.56 0.694-8.426 0.892-3.767 0.099-7.831 0.496-8.922 0.793-3.37 0.793-15.563 1.883-20.619 1.784-2.676 0-7.137 0.694-9.913 1.685-2.875 0.991-7.137 1.883-9.516 2.082-2.379 0.099-5.452 0.694-6.84 1.19-1.289 0.496-2.676 0.694-3.073 0.397-0.496-0.198-3.37 0-6.642 0.496-3.172 0.496-8.228 0.991-11.301 1.090-2.974 0.099-6.146 0.496-6.939 0.793-0.793 0.397-2.577 0.496-3.965 0.297z"></path>
<path d="M118.558 658.314c-0.297-0.496 0.099-1.388 0.793-1.983 1.586-1.289 3.172 0.198 2.082 1.883-0.793 1.19-2.181 1.289-2.875 0.099z"></path>
<path d="M787.479 645.13c-0.595-0.991 5.65-3.866 6.84-3.073 1.289 0.793-1.090 2.974-3.866 3.569-1.289 0.198-2.676 0-2.974-0.496z"></path>
<path d="M123.415 627.485c-0.397-0.595-0.892-6.939-1.19-14.175-0.496-11.202-0.397-13.283 0.991-14.374 0.892-0.793 1.983-1.090 2.577-0.793 1.586 0.991 2.28 14.572 1.090 21.907-1.090 7.137-2.181 9.417-3.47 7.435z"></path>
<path d="M457.182 626.395c-1.784-0.694-1.983-1.19-1.289-3.073 0.496-1.289 1.586-2.181 2.379-1.983 0.793 0.099 2.478-1.289 3.668-3.271s2.478-3.37 2.776-3.073c0.198 0.297 1.983-0.793 3.866-2.379 1.784-1.685 3.965-2.974 4.659-2.974s2.082-0.892 3.073-1.983c1.586-1.685 4.163-2.478 3.37-0.991-0.099 0.297 0.297 1.487 0.892 2.577 0.991 1.784 2.082 2.181 7.336 2.28 10.21 0.297 11.995 0.496 12.49 1.883 0.198 0.595 0.793 0.991 1.289 0.595 0.496-0.297 4.263-0.694 8.426-0.793 5.254-0.198 7.93-0.793 9.12-1.883 2.181-2.28 1.090-2.875-2.082-1.19-1.487 0.694-2.875 0.991-3.172 0.496s-1.19-0.694-1.883-0.397c-0.694 0.297-1.883-0.198-2.577-1.090-0.694-0.793-2.082-1.487-3.172-1.487s-2.875-0.496-4.064-1.090c-1.090-0.694-4.064-1.289-6.642-1.487-2.478-0.099-5.452-0.496-6.642-0.793-1.388-0.297-2.181 0-1.983 0.694 0.099 0.595-0.694 1.090-1.784 1.090-1.289 0-1.883-0.496-1.685-1.586 0.198-0.991-0.397-1.685-1.487-1.685-6.047-0.198-11.202-0.793-11.796-1.289-0.297-0.397 0.991-1.487 2.974-2.478 3.47-1.586 4.263-1.586 20.718 0.694 9.318 1.289 18.041 2.974 19.231 3.668 1.19 0.793 2.577 1.19 3.073 0.892 0.991-0.595 9.318 1.19 10.508 2.379 0.496 0.496-0.496 1.487-2.478 2.28-3.073 1.289-3.172 1.388-0.892 1.586 12.887 0.595 12.391 0.397 12.094 3.073-0.397 3.37-3.073 8.922-4.263 8.922-0.496 0-1.19-0.595-1.487-1.388-0.496-1.388-1.487-1.388-7.831 0.099-1.586 0.397-3.37 0.694-3.965 0.793-0.496 0.099-1.388 0.297-1.983 0.496-0.496 0.099-2.082 0.099-3.47 0.099-1.388-0.099-4.758 0.297-7.435 0.892-2.776 0.694-6.939 1.289-9.417 1.487s-6.939 0.694-9.913 0.991c-8.624 0.991-26.269 1.19-28.549 0.397z"></path>
<path d="M622.727 620.546c-3.47-0.397-6.542-1.090-6.939-1.586s-0.496-5.551-0.198-11.301l0.496-10.409 10.21-0.297c8.029-0.198 10.21 0 10.706 1.19 0.297 0.694 0.198 6.245-0.297 12.094l-0.793 10.805-3.47 0.099c-1.883 0.099-6.245-0.198-9.715-0.595z"></path>
<path d="M457.479 619.654c-0.991-1.685 1.487-4.461 2.875-3.073 0.694 0.694 0.496 1.487-0.595 2.577s-1.784 1.289-2.28 0.496z"></path>
<path d="M177.044 613.31c-1.090-0.793-1.784-2.577-1.784-4.263 0-1.586-1.090-4.362-2.379-6.344-1.289-1.883-1.983-3.767-1.487-4.263 0.397-0.397 3.172-0.694 6.146-0.496l5.353 0.297 0.297 4.461c0.297 4.362-1.983 11.895-3.569 11.895-0.496 0-1.586-0.595-2.577-1.289z"></path>
<path d="M460.552 612.715c-0.793-1.19 2.082-3.37 3.37-2.577 0.793 0.496 0.793 1.090-0.099 2.082-1.289 1.586-2.478 1.784-3.271 0.496z"></path>
<path d="M463.526 607.758c-0.297-0.496 0.297-1.983 1.289-3.172 1.784-2.181 1.983-2.181 2.577-0.595 1.090 2.676-2.478 6.146-3.866 3.767z"></path>
<path d="M112.015 602.703c-2.082-1.586-2.181-1.983-1.090-3.37 1.289-1.487 1.487-1.487 3.172 0 3.668 3.271 1.784 6.344-2.082 3.37z"></path>
<path d="M174.962 591.799c-0.694-1.090 0.297-45.104 1.090-47.384 0.198-0.694 1.388-1.19 2.577-0.991 2.974 0.397 3.866 5.353 3.569 19.132-0.297 10.409-0.397 10.904-2.478 11.202-2.181 0.297-2.28 0.793-2.28 9.12 0 8.129-0.892 11.4-2.478 8.922z"></path>
<path d="M88.918 579.209c-0.397-0.297-0.694-5.65-0.694-11.796v-11.202l2.875-2.082c1.685-1.090 3.172-1.586 3.569-1.090 0.595 1.090-3.37 24.881-4.461 26.17-0.297 0.397-0.892 0.397-1.289 0z"></path>
<path d="M121.631 573.262c-0.297-0.496-0.694-7.236-0.892-15.167l-0.297-14.374 6.344-0.297c3.47-0.198 6.741 0.099 7.137 0.496 0.496 0.496-1.090 2.379-3.569 4.263l-4.362 3.47-0.297 10.904c-0.297 9.219-0.595 10.904-1.983 11.202-0.892 0.198-1.784-0.099-2.082-0.496z"></path>
<path d="M626.989 571.775c-0.297-0.793-0.397-7.633-0.297-15.167l0.297-13.878h10.904v29.739l-5.254 0.297c-3.668 0.198-5.353-0.099-5.65-0.991z"></path>
<path d="M672.489 571.874c-0.297-0.595-0.297-4.163 0-7.93 0.397-3.866 0.397-9.417 0-12.391-0.496-4.56-1.090-5.65-3.073-6.443-4.064-1.586-1.487-2.875 5.749-2.875 6.245 0 6.939 0.198 7.732 2.28 1.090 3.172 0.099 24.98-1.289 27.26-0.892 1.487-8.129 1.586-9.12 0.099z"></path>
<path d="M709.861 550.759c-0.694-0.793-0.793-1.685-0.297-1.983 0.595-0.297 1.487 0.099 2.082 0.793 0.694 0.793 0.793 1.685 0.297 1.983-0.595 0.297-1.487-0.099-2.082-0.793z"></path>
<path d="M175.954 518.245c-0.991-2.478-0.099-20.619 0.991-20.619 1.289 0 1.883 19.826 0.595 21.114-0.694 0.694-1.19 0.496-1.586-0.496z"></path>
<path d="M614.995 474.628c-0.991-1.487-0.595-5.849 0.595-7.137 1.090-1.090 3.172 2.974 2.776 5.551-0.397 2.478-2.28 3.37-3.37 1.586z"></path>
<path d="M600.225 473.835c-0.793-1.289 1.983-2.379 4.064-1.586 1.983 0.793 0.892 2.577-1.586 2.577-0.991 0-2.181-0.496-2.478-0.991z"></path>
<path d="M704.31 467.888c-3.271-1.685-7.038-2.974-8.426-2.776-2.181 0.297-2.478 0-2.478-3.172 0-3.073 0.297-3.47 2.478-3.172 3.37 0.397 18.041 9.12 17.546 10.508-0.694 1.983-3.073 1.586-9.12-1.388z"></path>
<path d="M234.539 467.987c-0.297-0.496 0.694-2.28 2.181-3.866 1.586-1.685 4.362-4.758 6.146-6.84 1.883-2.082 3.569-3.767 3.866-3.767s2.082-1.090 3.866-2.379c2.082-1.487 3.668-1.983 4.263-1.388s-2.082 3.866-7.336 8.922c-8.822 8.426-12.094 10.805-12.986 9.318z"></path>
<path d="M253.77 464.914c-0.793-0.397-2.776-1.289-4.263-1.883-4.56-1.784-2.776-3.569 3.37-3.37 7.534 0.397 8.327 0.793 6.443 3.47-1.685 2.379-3.271 2.875-5.551 1.784z"></path>
<path d="M590.609 464.22c-0.198-0.397-0.397-2.082-0.297-3.569 0.099-3.073-0.892-3.47-8.426-3.965-2.478-0.099-4.956-0.595-5.551-0.892-1.586-0.991-8.029 0.991-12.391 3.767-2.974 1.883-4.263 2.181-6.245 1.388-4.362-1.586-6.542-8.525-4.461-14.076 0.892-2.082 0.694-3.172-0.694-5.254-1.685-2.577-1.685-2.776-0.099-3.965 1.487-1.090 1.586-1.586 0.397-3.866-0.793-1.388-1.685-2.28-1.983-1.883-0.991 0.892-1.983-2.478-1.289-4.362 0.496-1.19 0.892-1.388 1.784-0.496 0.694 0.694 4.461 1.19 9.318 1.19 6.84 0 8.129-0.297 8.525-1.685 0.397-1.586 2.181-1.784 18.735-1.784h18.24l4.956 7.633c4.56 7.137 6.642 8.922 7.831 6.939 0.198-0.397-1.289-3.271-3.47-6.443s-3.668-6.146-3.271-6.741c0.397-0.694 2.082-0.892 3.965-0.595 4.163 0.694 9.615 4.56 8.426 6.047-0.793 0.991-1.586 6.245-1.090 7.534 0.099 0.297 0.297 1.586 0.496 2.974s0.595 3.866 0.892 5.551c0.694 3.866-3.569 13.283-5.948 13.283-0.892 0-2.875-1.090-4.461-2.379-1.784-1.487-3.569-2.181-4.857-1.883-1.090 0.297-2.577 0-3.37-0.595-1.586-1.289-4.263-0.595-7.236 2.082-1.685 1.586-2.478 1.784-4.163 0.892-1.784-0.991-2.082-0.892-2.28 0.595 0 0.991-0.198 2.28-0.198 2.974-0.198 1.586-1.289 2.577-1.784 1.586z"></path>
<path d="M373.22 458.966c-0.793-1.289 1.983-2.379 4.064-1.586 1.983 0.793 0.892 2.577-1.586 2.577-0.991 0-2.181-0.496-2.478-0.991z"></path>
<path d="M461.345 455.893c-0.595-0.991 0.595-1.388 3.271-1.388 1.289 0 2.379 0.496 2.478 0.991 0.297 1.090-5.056 1.487-5.749 0.397z"></path>
<path d="M214.614 442.412c-0.892-1.983-1.19-3.965-0.793-4.362 0.496-0.496 4.064-1.090 8.029-1.289 8.922-0.595 10.012 0.793 5.056 5.948-2.577 2.676-4.064 3.37-7.038 3.37-3.37 0-3.866-0.397-5.254-3.668z"></path>
<path d="M421.694 442.015c-0.297-0.595-0.198-1.388 0.198-1.883 1.19-1.090 5.65 0.694 4.857 1.983s-4.163 1.289-5.056-0.099z"></path>
<path d="M364.298 438.248c-0.694-1.19 1.19-2.379 2.478-1.586 1.090 0.694 0.397 2.478-0.991 2.478-0.496 0-1.090-0.397-1.487-0.892z"></path>
<path d="M423.775 437.158c-0.397-0.595-0.297-1.586 0.297-2.181s1.19-0.595 1.685 0.198c0.397 0.595 0.297 1.586-0.297 2.181s-1.19 0.595-1.685-0.198z"></path>
<path d="M419.215 432.796c-0.099-0.297-0.198-0.892-0.297-1.289-0.099-0.496-0.496-1.289-0.892-1.983-0.397-0.595-0.297-1.388 0.297-1.784 0.496-0.297 1.090-0.397 1.090-0.099 0.099 0.297 0.198 0.892 0.297 1.388 0.099 0.397 0.496 1.19 0.892 1.883 0.397 0.595 0.297 1.388-0.297 1.784-0.496 0.297-1.090 0.397-1.090 0.099z"></path>
<path d="M82.971 427.542c-0.991-0.991-0.793-4.064 0.198-4.758 1.685-0.991 3.271 3.073 1.685 4.362-0.694 0.595-1.586 0.793-1.883 0.397z"></path>
<path d="M547.092 427.047c-0.397-1.586-0.595-5.452-0.198-6.047 0.198-0.397 1.784 0.198 3.37 1.388 3.172 2.28 2.974 4.56-0.297 2.776-1.289-0.694-1.784-0.694-1.388-0.099 0.297 0.595 0.198 1.289-0.397 1.685-0.496 0.297-0.991 0.496-1.090 0.297z"></path>
<path d="M539.36 418.918c-0.694-0.793-0.793-1.685-0.297-1.983 0.595-0.297 1.487 0.099 2.082 0.793 0.694 0.793 0.793 1.685 0.297 1.983-0.595 0.297-1.487-0.099-2.082-0.793z"></path>
<path d="M82.773 417.332c-0.397-0.595-0.297-1.586 0.297-2.181s1.19-0.595 1.685 0.198c0.397 0.595 0.297 1.586-0.297 2.181s-1.19 0.595-1.685-0.198z"></path>
<path d="M92.884 415.746c-0.397-0.397-0.694-1.784-0.694-3.073 0-1.586-0.793-2.676-2.478-3.271-2.577-0.991-3.271-3.37-1.289-4.56 1.388-0.892 5.452 3.668 6.344 7.137 0.694 2.577-0.595 4.956-1.883 3.767z"></path>
<path d="M590.807 414.854c-0.892-1.090-0.991-1.883-0.297-2.577s1.388-0.496 2.28 0.595c0.892 1.090 0.991 1.883 0.297 2.577s-1.388 0.496-2.28-0.595z"></path>
<path d="M86.738 414.358c-0.397-0.595-0.297-1.586 0.297-2.181s1.19-0.595 1.685 0.198c0.397 0.595 0.297 1.586-0.297 2.181s-1.19 0.595-1.685-0.198z"></path>
<path d="M196.077 402.661c-1.388-1.983-6.542-3.569-10.805-3.37-5.452 0.397-6.047-1.19-6.443-16.257-0.397-12.49-0.595-13.878-2.478-15.266-2.082-1.685-1.586-2.974 1.090-2.974 0.892 0 1.685-0.694 1.685-1.487 0-0.892-0.991-1.487-2.28-1.487s-2.577-0.496-2.875-0.991c-0.595-0.991 0.099-1.388 4.758-2.379 2.577-0.595 3.668-3.271 1.983-4.956-1.090-1.090-1.090-4.956-0.099-6.245 0.793-0.991 0.397-1.289-1.388-1.289-1.388 0-2.776-0.297-3.073-0.595-1.090-1.090 1.289-4.362 3.172-4.362 1.090 0 2.082-0.694 2.478-1.487 0.397-0.991 1.983-1.487 5.254-1.487 3.767 0 5.056-0.397 6.047-2.082 1.19-1.784 2.082-1.983 8.426-1.784 3.965 0.198 7.732 0 8.426-0.496 0.991-0.595 1.090-6.741 0.595-28.648-0.496-23.494-0.397-28.252 0.793-29.838 1.289-1.685 1.784-1.685 4.362-0.496l2.875 1.388v11.895c0 11.598-0.099 11.895-2.181 12.193-1.983 0.297-2.28 0.892-2.28 5.254v4.956l12.292-0.595 1.090 8.129c1.19 8.922 1.487 9.516 3.866 8.624 1.19-0.496 1.586-2.082 1.784-7.236 0.099-8.129 0.099-8.029 1.586-10.805 0.694-1.19 1.685-1.983 2.28-1.685 0.496 0.397 0.892-1.289 0.892-3.965 0-3.965-0.297-4.659-2.577-5.452-6.146-2.379 2.875-4.56 13.482-3.271 5.254 0.694 6.344 1.090 6.146 2.478-0.099 0.991 0.397 4.263 1.19 7.336 1.388 5.353 1.388 5.551-0.496 6.047-1.19 0.397-1.784 1.19-1.487 2.181 2.28 8.029 2.676 10.309 1.586 11.4-2.776 2.776-5.353-2.776-9.12-19.132-0.198-0.991-0.892-0.595-2.082 1.19-1.19 1.883-1.289 2.577-0.496 2.478 0.892-0.198 1.289 0.892 1.289 3.47 0 1.983 0.297 3.668 0.694 3.668s1.586 1.784 2.676 3.965c2.082 4.362 1.883 4.659-3.569 6.542-3.767 1.289-4.263 0.991-4.263-2.875 0-1.586-0.793-4.163-1.685-5.749-1.289-2.082-1.388-3.172-0.595-3.965 0.595-0.595 0.892-1.784 0.595-2.577-0.496-1.19-0.793-1.19-2.181 0.099-2.28 2.082-1.685 14.671 0.694 14.275 1.19-0.198 1.685 0.496 1.685 2.478 0.099 1.586-0.297 3.073-0.694 3.271-0.397 0.297-0.793 0.991-0.793 1.487 0 0.595 0.397 0.793 0.892 0.397 0.496-0.297 1.19-0.099 1.586 0.397 0.793 1.388-2.974 3.172-4.857 2.478-0.892-0.297-2.379-0.297-3.271 0-1.388 0.595-1.388 0.892 0.595 2.181 1.19 0.892 2.082 2.28 1.883 3.172-0.198 1.289-1.586 1.487-7.038 1.289-6.245-0.198-6.939 0-8.723 2.28-1.090 1.388-2.875 2.577-3.965 2.577-1.784 0-1.883 0.892-2.082 12.193-0.297 14.968-0.297 23.196 0.297 35.389l0.397 9.417-8.129 0.297c-7.038 0.198-8.228 0-9.417-1.586zM222.048 315.031c0-1.586-0.297-1.883-1.090-1.090-0.595 0.595-0.793 1.586-0.496 2.181 1.090 1.685 1.586 1.289 1.586-1.090zM242.965 314.932c-0.099-0.397-0.099-1.685-0.099-2.875s-0.297-1.784-0.694-1.487c-0.991 0.991-0.991 5.749 0 5.353 0.496-0.099 0.793-0.595 0.793-0.991zM243.956 298.080c-0.793-0.793-1.090-0.694-1.090 0.397 0 1.983 1.289 3.37 1.784 1.883 0.297-0.694-0.099-1.685-0.694-2.28z"></path>
<path d="M433.887 380.654c-3.073-2.181-7.534-4.758-9.814-5.551-4.263-1.487-17.149-1.784-19.132-0.397s-4.362 1.883-4.956 0.991c-0.297-0.496 0.793-1.586 2.478-2.478 1.586-0.793 2.974-1.289 2.974-0.892s0.595 0.198 1.289-0.397c0.595-0.496 3.47-1.19 6.146-1.487 5.948-0.694 13.482 1.983 21.015 7.435 2.577 1.983 5.65 3.668 6.741 3.965 1.090 0.198 1.883 0.793 1.784 1.289-0.397 2.181-3.073 1.388-8.525-2.478z"></path>
<path d="M165.942 360.73c-0.595-0.991 0.595-1.388 3.271-1.388 1.289 0 2.379 0.496 2.478 0.991 0.297 1.090-5.056 1.487-5.749 0.397z"></path>
<path d="M125.894 338.723c-1.883-0.991-2.478-1.983-2.478-4.659 0-2.577 0.397-3.37 1.487-3.172 1.090 0.297 0.991-0.198-0.397-1.685-1.090-1.19-1.586-2.082-1.090-2.082 0.397 0 0.297-0.595-0.297-1.19-0.496-0.694-1.487-3.866-2.181-7.038-0.595-3.073-1.487-5.452-1.983-5.155s-1.090 0.099-1.487-0.496c-0.892-1.388 2.28-5.65 4.659-6.245 1.784-0.496 1.883-0.892 0.892-2.082-0.793-0.991-1.090-4.064-0.793-9.516 0.397-8.624 1.586-11.102 4.163-8.922 1.883 1.586 1.883 3.569 0.099 4.659-1.388 0.793-1.883 3.47-1.685 8.029 0.099 1.586 0.694 2.181 2.478 2.181 2.974 0 4.163 1.586 2.676 3.37-0.793 0.892-0.694 2.776 0.496 6.542 0.892 3.073 1.487 8.228 1.388 12.292-0.297 10.111-0.198 10.508 1.883 10.508 2.577 0 3.271 1.289 1.784 3.271-1.685 2.28-6.642 2.974-9.615 1.388z"></path>
<path d="M181.901 333.073c-0.694-1.090 0.397-1.586 4.461-2.28 1.388-0.198-6.642-0.496-17.744-0.595l-20.123-0.099-3.866-3.073c-4.461-3.47-4.263-5.155 0.397-3.668 1.685 0.496 4.362 1.090 5.749 1.19 1.388 0.198 2.974 0.496 3.47 0.793 0.496 0.397 3.172 0.198 5.849-0.297 2.776-0.496 7.236-1.090 9.913-1.289 7.038-0.496 13.085-2.28 19.033-5.65 2.875-1.586 5.948-2.875 6.741-2.875s2.478-1.090 3.668-2.478c3.866-4.461 5.155-0.198 1.883 6.344-1.090 2.082-3.965 5.254-6.443 7.137-2.875 2.181-4.362 4.064-4.263 5.353 0.198 1.685-0.496 2.082-3.965 2.28-2.181 0.198-4.362-0.198-4.758-0.793z"></path>
<path d="M195.978 310.67c-0.397-0.397-0.694-1.487-0.694-2.478 0-0.892-0.991-1.883-2.181-2.28-2.974-0.694-0.991-2.875 2.28-2.379 1.784 0.198 2.478 0.991 2.676 3.172 0.397 2.875-0.892 5.155-2.082 3.965z"></path>
<path d="M200.141 305.118c0-0.198-0.099-2.082-0.198-4.263-0.198-3.37 0.099-3.965 1.784-3.965s1.983 0.694 1.983 3.965c0 2.974-0.397 4.064-1.685 4.263-0.991 0.198-1.784 0.198-1.883 0z"></path>
<path d="M222.742 301.748c-1.19-1.19-0.793-28.946 0.397-29.739 2.181-1.289 2.776 1.487 3.073 15.464 0.297 12.292 0.099 14.374-1.19 14.671-0.892 0.099-1.883 0-2.28-0.397z"></path>
<path d="M235.233 290.447c-1.487-0.595-1.983-1.487-1.586-2.974 0.297-1.090 0.892-2.28 1.388-2.577 0.991-0.595 1.19-4.758 0.198-5.65-0.297-0.397-1.19 0.099-1.883 1.090-1.19 1.586-1.289 1.487-2.181-0.793-0.595-1.586-0.595-3.172 0-4.263 0.991-1.883 2.776-1.388 2.776 0.793 0 0.694 0.793 1.19 1.784 0.991 0.892-0.099 2.28 0.297 3.073 0.892 1.19 0.892 1.19 0.793 0.297-1.090-0.694-1.19-1.586-3.866-2.082-5.948l-0.793-3.767-1.090 2.776c-1.289 3.073-1.388 3.172-5.056 1.289-1.784-0.991-2.676-2.181-2.577-3.569 0.099-1.883 0.892-2.181 5.551-2.676 2.974-0.198 6.245-0.397 7.336-0.397 0.991 0 2.478-0.496 3.172-1.090 1.784-1.388 4.362-0.198 3.668 1.685-0.397 0.892 0.595 6.443 2.181 12.49 1.685 6.642 2.379 11.202 1.784 11.697-0.496 0.595-2.676 1.090-4.857 1.289-3.271 0.198-3.965 0-3.668-1.388 0.198-0.991-0.099-1.784-0.496-1.784-1.388 0-3.47 1.685-3.271 2.577 0.198 1.19-1.19 1.388-3.668 0.397z"></path>
<path d="M195.978 281.823c-0.297-0.496-0.694-9.021-0.892-19.132-0.198-14.275-0.595-18.537-1.685-19.429s-1.090-1.289-0.099-1.883c0.892-0.496 0.198-1.19-2.082-2.28-1.883-0.793-3.668-1.487-4.064-1.388-0.297 0.099-1.090-0.496-1.784-1.289-0.892-1.090-0.892-2.181-0.099-4.56 0.595-1.685 0.793-3.569 0.397-4.163-0.397-0.694-0.793-2.776-0.892-4.659s-0.397-4.163-0.496-4.956c-0.297-1.090 0.496-1.487 2.676-1.487 1.784-0.099 3.866-0.694 4.758-1.388s1.586-0.991 1.586-0.496c0 0.397 0.496 0.297 1.19-0.397s1.983-1.19 2.875-1.19c0.991 0 3.271-0.892 5.056-1.883 4.857-2.875 12.094-3.668 15.167-1.685 4.659 3.073 4.857 5.056 0.991 9.12-3.37 3.569-3.569 3.569-5.452 1.883-1.090-0.991-1.983-2.379-1.983-3.073 0-3.668-7.336-2.082-13.779 3.073-2.379 1.883-4.659 3.172-5.155 2.875s-0.694-0.892-0.397-1.388c0.397-0.595-1.586-1.983-2.974-1.983-0.198 0-0.496 2.082-0.694 4.659-0.198 3.37 0.099 5.155 1.19 6.245 1.883 1.883 4.56 2.379 5.452 1.090 0.297-0.595 4.163 0.892 9.12 3.37 4.758 2.478 8.723 4.461 8.822 4.461 0.198 0 0.397-0.892 0.595-1.983 0.198-1.19 0.793-1.883 1.289-1.784 0.595 0.198 0.991 3.668 0.991 7.732s0.297 7.93 0.595 8.426c1.19 1.784 0.991 18.141-0.099 18.834-1.685 0.991-3.965-1.388-4.064-4.362-0.099-2.478-0.198-2.478-0.793 0.397-0.496 2.379-1.19 3.073-3.47 3.271-1.586 0.198-3.271-0.099-3.866-0.694-0.991-0.991-1.19-15.365-0.099-17.050 0.297-0.595 1.983-0.198 3.866 0.991l3.271 1.883 0.496-2.379c0.496-3.073 0.099-3.37-3.172-2.379-1.586 0.397-3.37 0.397-4.064 0-0.694-0.496-1.883-0.595-2.676-0.297-1.090 0.397-1.388 2.776-1.19 10.409 0.099 6.245-0.297 10.309-0.991 11.003-0.595 0.595-1.090 2.974-1.090 5.254 0 3.965-1.19 6.344-2.28 4.659z"></path>
<path d="M132.833 276.074c-0.694-0.793-1.784-1.487-2.478-1.487s-1.784-0.694-2.478-1.487c-0.991-1.19-0.892-1.586 0.496-2.082 2.082-0.793 4.263 0.397 6.146 3.271 1.685 2.478 0.099 3.965-1.685 1.784z"></path>
<path d="M624.511 255.851c-0.595-1.19-0.595-2.181-0.099-2.577 0.595-0.297 1.487 0.297 2.082 1.388 0.595 1.19 0.595 2.181 0.099 2.577-0.595 0.297-1.487-0.297-2.082-1.388z"></path>
<path d="M219.57 255.851c-0.496-0.892-0.099-4.163 2.082-14.869 1.289-6.146 3.37-4.758 3.271 2.181 0 8.029-1.19 12.986-3.073 13.382-0.892 0.198-1.883-0.198-2.28-0.694z"></path>
<path d="M895.331 251.589c-0.694-0.694-1.19-3.47-1.19-6.146 0-5.452-6.344-43.617-10.309-62.055-1.289-6.245-3.172-17.447-4.064-24.782-0.793-7.336-1.784-14.175-2.082-15.068-0.694-2.181-3.767-3.172-6.245-1.883-1.388 0.793-2.181 0.793-2.676 0-1.090-1.883 1.19-3.073 7.534-3.767 5.849-0.694 6.146-0.694 8.525 2.181 2.776 3.271 3.172 9.021 0.892 11.995-2.181 2.875-1.883 11.301 0.991 25.873 4.263 21.61 4.56 23.295 7.93 44.608 2.28 14.77 3.47 28.648 2.379 29.639-0.297 0.297-1.090 0-1.685-0.595z"></path>
<path d="M171.988 236.026c-0.694-1.19 1.19-2.379 2.478-1.586 1.090 0.694 0.397 2.478-0.991 2.478-0.496 0-1.090-0.397-1.487-0.892z"></path>
<path d="M178.927 236.026c-0.694-1.19 1.19-2.379 2.478-1.586 1.090 0.694 0.397 2.478-0.991 2.478-0.496 0-1.090-0.397-1.487-0.892z"></path>
<path d="M107.555 225.121c-0.297-0.595 0.297-1.487 1.388-2.082 2.082-1.090 3.668 0.198 2.577 1.983-0.793 1.289-3.172 1.289-3.965 0.099z"></path>
<path d="M108.942 219.669c-0.099-0.297-0.198-1.19-0.297-1.784-0.099-0.892-2.082-1.289-6.047-1.289-3.271 0-6.047-0.397-6.245-0.991-0.198-0.496 2.379-1.586 5.65-2.28l5.948-1.388-0.198-6.245c-0.099-3.668 0.198-6.443 0.793-6.443 1.487-0.099 2.776 11.697 1.586 14.968-0.595 1.685-0.595 2.974 0.099 3.668 0.595 0.595 0.595 1.19-0.099 1.586-0.595 0.397-1.19 0.496-1.19 0.198z"></path>
<path d="M142.25 218.182c-0.694-1.19 1.19-2.379 2.478-1.586 1.090 0.694 0.397 2.478-0.991 2.478-0.496 0-1.090-0.397-1.487-0.892z"></path>
<path d="M187.75 201.925c-0.694-1.983-0.198-4.659 1.090-4.956 1.388-0.297 1.883 4.263 0.595 5.551-0.694 0.694-1.19 0.595-1.685-0.595z"></path>
<path d="M806.908 197.564c-6.542-1.388-15.861-11.598-15.861-17.546 0-2.379-0.297-2.577-4.758-2.577-2.676 0-5.551-0.595-6.642-1.289-3.271-2.478-0.793-3.668 7.831-3.668 6.741 0 8.525 0.297 9.814 1.784 0.991 0.991 1.685 2.478 1.685 3.271 0 2.776 5.849 10.706 9.615 13.184 3.073 1.983 8.624 3.767 12.49 4.064 1.586 0.099 1.090 1.784-0.793 2.181-3.866 0.793-10.904 1.090-13.382 0.595z"></path>
<path d="M187.849 193.301c-0.397-0.595-0.297-1.586 0.297-2.181s1.19-0.595 1.685 0.198c0.397 0.595 0.297 1.586-0.297 2.181s-1.19 0.595-1.685-0.198z"></path>
<path d="M813.946 189.732c-4.263-1.784-6.146-3.37-5.551-4.362 0.297-0.496 1.983-0.099 3.668 0.793 1.883 0.892 6.047 1.586 10.21 1.685 6.84 0.099 8.822 1.388 4.263 2.676-3.965 1.090-9.12 0.793-12.589-0.793z"></path>
<path d="M182.793 185.966c-0.397-0.991-0.198-2.181 0.397-2.776 0.793-0.793 1.289-0.694 1.784 0.595 0.397 0.991 0.198 2.181-0.397 2.776-0.793 0.793-1.289 0.694-1.784-0.595z"></path>
<path d="M820.984 177.639c-2.875-0.496-5.849-4.857-4.362-6.344 0.892-0.892 1.586-0.694 3.073 0.595 0.991 0.892 2.974 1.983 4.461 2.379 4.758 1.289 1.983 4.263-3.172 3.37z"></path>
<path d="M764.679 175.061c-2.776-2.181-0.694-3.965 2.974-2.577 2.28 0.892 2.577 1.289 1.586 2.478-1.487 1.883-2.082 1.883-4.56 0.099z"></path>
<path d="M761.507 162.472c-1.289-0.496-2.082-1.289-1.685-1.883 0.793-1.289 7.038-2.379 9.021-1.586 1.487 0.595 1.487 0.793-0.099 2.577-1.983 2.181-3.668 2.379-7.236 0.892z"></path>
<path d="M779.648 161.679c-0.595-0.496-2.577-1.090-4.461-1.289-5.849-0.496-2.875-2.28 3.767-2.181 7.137 0.099 10.012 1.685 5.749 3.37-3.37 1.19-3.866 1.19-5.056 0.099z"></path>
<path d="M789.858 148.594c-4.56-2.577 0.297-5.452 6.443-3.767 7.633 2.082 7.336 1.883 5.254 3.47-2.28 1.586-9.219 1.784-11.697 0.297z"></path>
<path d="M173.971 135.906c-0.793-1.487-2.974-86.639-2.181-88.72 1.586-3.965 2.676 0.099 2.676 9.913v10.309h20.222c11.202 0 20.52 0.397 20.817 0.892s-0.099 1.388-0.991 2.082c-1.090 0.991-5.849 1.19-20.817 0.694l-19.33-0.595 0.496 7.137c1.19 15.861 1.685 57.99 0.694 58.585-0.496 0.397-1.19 0.198-1.586-0.297z"></path>
<path d="M568.503 71.769c-0.496-0.198-14.175-0.496-30.234-0.595-18.636-0.198-29.243-0.694-29.243-1.289 0-0.694 19.528-0.991 56.503-0.991 49.564 0 56.503 0.198 56.503 1.487s-3.668 1.487-26.269 1.685c-14.473 0.099-26.666 0-27.26-0.297z"></path>
<path d="M643.841 71.373c-0.297-0.496-0.297-1.388 0-1.983 0.694-1.090 61.162-1.388 62.253-0.297 0.397 0.297 0.198 1.19-0.397 1.983-0.892 0.991-7.236 1.289-31.226 1.289-18.934 0-30.234-0.397-30.631-0.991z"></path>
<path d="M221.156 69.985c-0.793-0.991-0.892-1.586-0.198-2.082 1.487-0.892 12.193-0.297 13.68 0.694 0.595 0.496 1.388 0.496 1.784-0.198 0.397-0.595 5.155-0.991 11.995-0.991 11.003 0 15.96 0.991 14.77 3.073-0.793 1.090-26.963 1.19-27.657 0.099-0.595-0.892-3.47-0.991-5.056-0.099-2.181 1.19-8.228 0.892-9.318-0.496z"></path>
<path d="M271.216 70.481c-2.082-3.271 0.793-3.37 117.17-2.875 63.145 0.198 115.386 0.793 115.981 1.19 0.694 0.397 0.991 1.19 0.694 1.685-0.793 1.19-233.151 1.19-233.845 0z"></path>
<path d="M431.706 62.451c-0.793-1.19 1.983-2.379 3.47-1.487 0.595 0.297 0.793 1.090 0.496 1.586-0.793 1.19-3.172 1.19-3.965-0.099z"></path>
<path d="M564.538 62.451c-0.397-0.595-0.297-1.586 0.297-2.181s1.19-0.595 1.685 0.198c0.397 0.595 0.297 1.586-0.297 2.181s-1.19 0.595-1.685-0.198z"></path>
<path d="M630.756 59.18c-1.883-2.379-2.28-3.569-1.388-4.064 0.496-0.297 1.586 0.496 2.478 1.883 1.586 2.379 0.595 4.461-1.090 2.181z"></path>
<path d="M632.937 56.503c-0.397-0.595-0.297-1.586 0.297-2.181s1.19-0.595 1.685 0.198c0.397 0.595 0.297 1.586-0.297 2.181s-1.19 0.595-1.685-0.198z"></path>
<path d="M523.499 46.194c-0.694-0.793-0.793-1.685-0.297-1.983 0.595-0.297 1.487 0.099 2.082 0.793 0.694 0.793 0.793 1.685 0.297 1.983-0.595 0.297-1.487-0.099-2.082-0.793z"></path>
<path d="M11.202 1015.871l-1.983-2.28 22.106-120.441c12.094-66.218 22.998-125.596 24.088-131.841 4.659-26.666 19.132-105.374 20.916-113.998 0.595-2.478 1.19-5.551 1.388-6.939s1.586-8.525 2.974-15.861c1.388-7.336 2.875-15.96 3.37-19.033l0.892-5.65-22.007-0.595-0.297-11.895c-0.297-11.301-0.198-11.895 1.983-13.581 1.289-0.991 3.965-1.784 6.047-1.784h3.668v-15.861l7.534-5.155c7.137-4.956 7.336-5.254 4.758-5.749-3.569-0.595-4.163-2.776-4.263-15.464-0.099-5.452-0.397-14.77-0.694-20.52l-0.694-10.508-7.137-0.595-0.793-8.822c-0.694-6.84-0.595-9.021 0.496-10.012 0.694-0.793 10.21-5.452 21.114-10.508s20.619-9.814 21.511-10.607c0.991-0.793 6.344-3.569 11.895-6.146 8.426-3.965 10.508-5.353 11.895-8.029 3.073-6.047 3.866-5.849-20.916-5.849h-22.7l-0.694 3.271c-1.883 8.426-7.236 12.788-12.589 10.012-1.487-0.793-3.47-2.478-4.362-3.866-2.478-3.767-4.263-13.184-4.362-22.403 0-6.84-0.297-8.723-1.487-9.219-0.892-0.297-5.551-0.297-10.508 0.099-7.633 0.496-9.12 0.397-10.805-1.19-2.577-2.379-2.478-3.668 0.496-6.443 2.379-2.28 2.875-2.28 8.723-1.388 3.37 0.595 7.93 0.892 10.21 0.595 3.767-0.397 4.163-0.694 6.047-5.254 1.487-3.37 2.875-5.155 4.857-5.849 5.452-2.082 10.805 0.892 11.895 6.642 0.397 1.883 1.289 3.668 2.082 3.965 0.694 0.297 6.047-0.595 11.697-2.082 9.615-2.379 11.995-2.577 31.82-2.577h21.412l-0.694-29.441c-0.793-32.019-0.496-30.829-6.443-32.019-1.586-0.297-2.577-1.289-2.776-2.776-0.297-1.983-0.892-2.181-6.245-2.181-4.461 0-6.642 0.496-8.723 2.082-1.685 1.289-3.37 1.784-4.163 1.388-0.892-0.595-0.694-1.090 0.595-2.181 1.685-1.19 1.685-1.289 0.198-1.289-0.991 0-1.983-0.694-2.28-1.487-0.397-0.793-1.685-1.487-2.974-1.487-3.172 0-3.271 3.47-0.198 4.362 1.784 0.397 1.983 0.793 0.991 1.784-1.487 1.487-3.668 0.397-6.542-3.569-1.586-2.082-2.082-4.163-2.082-9.516 0-8.029-0.793-9.516-2.478-4.263-0.694 2.082-1.586 4.163-2.082 4.659-0.496 0.595-0.892 1.586-0.892 2.28s-1.983 5.749-4.56 11.301c-2.478 5.551-4.56 11.499-4.758 13.184-0.595 5.948-3.767 15.861-6.245 19.528-2.875 4.461-6.939 6.344-11.598 5.452-3.668-0.694-8.525-5.452-8.525-8.426 0-5.749 8.129-22.899 10.904-22.899 0.496 0 5.254-8.822 10.607-19.528l9.615-19.627-0.198-9.913c-0.198-6.642 0.198-10.706 1.090-12.391 1.090-2.181 0.397-6.146-6.741-35.389-4.461-18.041-8.525-33.506-9.219-34.299-2.181-2.577-6.146-17.942-6.245-23.989-0.099-5.353 0.099-6.047 2.974-8.624 3.965-3.569 8.228-3.668 11.598-0.297 3.569 3.569 7.633 12.986 6.939 15.861-0.297 1.289-0.099 2.676 0.496 3.073s0.892 1.983 0.595 3.866c-0.297 1.784-0.099 3.668 0.496 4.263s0.694 1.883 0.297 2.875c-0.991 2.28-0.991 5.254 0 7.435 0.397 0.892 0.397 2.181 0.099 2.676-0.397 0.595-0.198 1.784 0.297 2.776 0.595 0.991 3.073 12.292 5.551 25.080s4.758 23.989 5.155 24.782c0.297 0.793 0.694 1.784 0.694 2.181 0.099 0.297 0.397 0.892 0.793 1.289s0.397 1.289 0.198 1.983c-0.892 2.181 1.586 2.776 3.073 0.892 1.883-2.478 1.883-6.245-0.099-8.426-2.379-2.676-2.379-15.563 0.099-17.348 0.991-0.694 2.082-1.090 2.577-0.793 1.487 0.892 5.849-6.146 5.849-9.417 0-1.883 0.991-4.56 2.478-6.443s2.478-4.56 2.478-6.443c0-1.883 0.595-3.37 1.487-3.668 2.379-0.991 1.983-9.12-0.496-11.102-1.685-1.388-2.082-2.875-2.082-8.129-0.099-5.353 0.198-6.642 1.983-8.029 1.685-1.388 2.082-2.776 2.082-8.228s0.297-6.741 1.983-7.732c1.090-0.694 1.983-2.082 1.983-3.073 0-1.090 0.892-2.974 1.983-4.362s1.685-2.875 1.487-3.271c-0.297-0.496-0.099-1.090 0.496-1.487 0.694-0.397 0.793-6.146 0.397-16.951-0.496-12.986-0.297-16.654 0.694-17.942 1.388-1.685 1.388-1.983-0.198-3.965-0.694-0.694-0.595-1.388 0.099-1.784 1.19-0.694 0.694-33.803-0.694-54.521-0.397-5.452-0.694-15.464-0.793-22.304v-12.391l10.309-0.297c9.516-0.297 13.779 0.694 12.589 2.676-0.198 0.297 3.668 0.496 8.624 0.397 5.056-0.099 14.275-0.198 20.619-0.297 10.508 0 11.598-0.198 12.094-1.883 0.198-1.090 0-2.379-0.595-2.974-1.685-1.685 0.793-3.767 2.577-2.181 1.883 1.487 2.776 4.857 1.586 5.65-1.586 0.991-0.892 2.181 0.991 1.685 2.181-0.496 4.56-4.56 3.668-6.047-1.388-2.28 1.289-1.983 2.776 0.297 0.892 1.388 2.28 2.478 3.073 2.478s1.784 0.694 2.28 1.586c0.793 1.487 2.676 1.685 12.688 1.487 11.003-0.099 11.895-0.297 14.275-2.577 1.388-1.388 2.974-2.478 3.37-2.478 0.496 0 1.487-0.793 2.082-1.685 1.289-1.685 1.388-1.685 3.271 0 1.289 1.19 1.784 2.577 1.388 4.461-0.496 2.478-0.397 2.577 1.388 1.289 0.991-0.793 2.974-2.478 4.362-3.767l2.478-2.181 3.271 1.983c1.685 1.19 3.172 2.676 3.172 3.47 0 0.991 1.289 1.388 4.758 1.388 61.559 0 135.311 0.595 135.608 1.19 0.198 0.297 1.784 0.198 3.569-0.297 1.983-0.496 3.569-0.496 4.362 0.198 0.793 0.595 1.388 0.694 1.784 0 0.397-0.496 1.586-0.793 2.676-0.595 2.082 0.397 2.875 0.397 19.727 0.297 5.155 0 13.382 0.099 18.141 0.198 7.435 0.198 9.12-0.099 10.904-1.685 2.379-2.082 6.84-3.668 13.085-4.758 2.181-0.397 5.056-0.892 6.344-1.090 1.19-0.297 2.875 0 3.569 0.595 1.487 1.289 4.064 0.397 4.857-1.685 0.496-1.19 0.991-1.090 3.271 0.694 1.586 1.19 2.875 2.577 2.875 3.073 0.099 0.496 0.198 1.388 0.297 1.883 0 0.595 0.595 0.991 1.19 0.991 0.496 0 0.694-0.496 0.397-0.991-0.297-0.595 0.099-1.289 1.090-1.685 1.19-0.397 2.478 0.198 3.965 1.983l2.28 2.676h92.983l0.793-19.033c0.397-10.508 1.090-19.925 1.586-20.916 0.892-1.487 2.28-1.685 11.598-1.487l10.607 0.297v14.869c0 8.228-0.297 16.951-0.595 19.528s-0.297 5.155 0.099 5.749c0.297 0.595 12.49 0.991 31.226 1.19l30.73 0.297 0.099 11.102c0.099 7.93-0.297 11.499-1.19 12.193-0.793 0.793-1.388 0.793-1.883 0-0.793-1.19-58.585-1.388-59.378-0.198-0.496 0.892-1.090 16.059-2.082 53.728-0.297 11.697-0.694 26.864-0.991 33.704s-0.694 25.972-0.991 42.625c-0.297 16.654-0.793 32.812-1.090 35.885l-0.595 5.749 20.222 0.198 20.123 0.297v9.219c0 8.029-0.297 9.516-1.883 10.706-1.487 1.090-6.047 1.388-20.024 1.388h-18.041l-0.595 8.228c-0.297 4.461-0.793 19.033-1.090 32.415-0.397 13.382-0.991 35.885-1.487 50.060s-0.991 30.135-0.991 35.389c0 9.219 0.099 9.615 2.28 9.913 2.082 0.297 2.181 0.793 2.478 9.516l0.297 9.12h22.502c12.391 0 24.088 0.397 25.873 0.991 1.883 0.496 3.569 0.892 3.668 0.694 0.099-0.099 0.892-20.321 1.784-44.806 0.892-24.584 1.784-50.853 2.082-58.486s0.694-21.015 0.991-29.739c0.991-31.226 1.685-43.617 2.577-45.203 0.397-0.892 7.93-7.93 16.753-15.761 8.723-7.732 15.861-14.671 15.861-15.266 0-1.983 4.461-5.551 8.327-6.642 3.37-0.892 3.569-1.19 3.569-5.353 0-3.569 0.496-4.659 3.073-6.84 1.883-1.685 4.263-2.577 6.344-2.577 1.784 0 3.767-0.694 4.461-1.487s2.478-1.487 4.064-1.487c2.776 0 2.875-0.099 2.875-5.254 0-4.064-0.496-5.749-1.983-7.137-2.676-2.478-2.478-6.047 0.496-8.822 2.776-2.577 3.271-5.551 0.892-5.551-0.793 0-1.19 0.496-0.892 0.991 0.991 1.487-2.082 2.28-4.362 1.090-1.586-0.892-1.883-1.784-1.388-4.857 0.892-6.146 1.883-6.642 15.365-6.84 7.732-0.198 12.49 0.099 13.283 0.793 0.793 0.595 1.388 2.875 1.388 4.956 0 2.875-0.496 4.064-2.181 4.956s-2.379 0.892-3.271-0.496c-1.685-2.28-2.28-1.983-1.685 0.892 0.397 2.181 0.892 2.478 5.056 2.478 4.362 0 4.659-0.198 7.435-4.56 1.586-2.577 5.056-6.146 7.732-8.029 4.659-3.37 6.146-5.749 1.983-3.172-1.685 0.991-2.28 0.991-3.668-0.099s-1.586-1.090-1.289 0c0.397 1.784-3.073 2.478-4.461 1.090-0.892-0.892-0.496-1.289 1.289-1.784 2.181-0.595 2.28-0.694 0.397-1.388-3.073-1.19-4.659-0.991-4.064 0.595 1.090 2.776-1.19 2.478-4.56-0.496-8.922-7.831-8.426-17.050 1.388-27.062 2.181-2.181 3.965-2.875 9.417-3.569 3.767-0.397 7.732-0.595 8.822-0.297 2.776 0.694 7.435 5.056 8.822 8.327l1.19 2.776 3.073-4.263c3.668-5.254 8.822-7.831 16.753-8.327 5.948-0.397 6.047-0.397 10.904 3.965l4.857 4.362v12.986l3.271-2.875c1.784-1.586 3.668-2.676 4.163-2.379s3.172-0.397 5.948-1.487c2.776-1.090 6.939-1.983 9.219-1.983 3.767 0 4.758 0.595 8.822 4.758 2.478 2.577 5.254 6.146 6.245 8.029 0.892 1.784 2.974 11.202 4.56 20.817s3.569 20.321 4.461 23.791c0.892 3.47 3.271 16.852 5.452 29.739 3.37 20.421 3.866 25.476 3.866 39.652 0 18.24-3.965 79.898-7.038 108.645-3.172 30.135-4.659 46.293-6.344 66.912-2.875 35.389-5.155 51.844-9.913 69.886-4.56 17.447-9.516 29.937-30.036 75.536-9.12 20.024-21.214 48.474-22.403 52.538-0.397 1.19-0.892 3.172-1.19 4.461-0.793 3.172-2.379 15.96-1.983 16.356 0.099 0.198 9.219 1.586 20.123 3.172 12.49 1.784 21.313 3.47 23.692 4.659 2.676 1.388 5.551 4.56 10.309 11.301l6.542 9.318 8.822 1.289c7.831 0.991 20.916 3.569 29.54 5.749 1.487 0.397 2.577 0.297 2.478-0.099-0.198-0.496 0.099-0.892 0.694-0.892 0.496 0 0.892 0.496 0.793 0.991-0.198 0.595 4.758 2.676 10.904 4.758 6.047 2.082 17.843 6.84 25.972 10.607 11.796 5.452 18.537 7.732 32.712 11.4 9.814 2.478 20.321 5.749 23.295 7.236 4.857 2.379 5.452 3.073 5.749 6.146 0.397 3.965-1.586 5.948-6.146 6.047-2.181 0-0.099 1.090 7.336 3.767 16.654 5.948 19.231 7.732 18.24 12.391-0.892 4.263-1.983 5.353-6.642 6.642l-3.965 1.090 8.327 4.064c4.461 2.28 10.012 5.849 12.094 8.029 3.569 3.47 3.866 4.064 3.271 7.831-0.892 5.65-3.47 9.516-7.435 11.202-3.866 1.586-10.607 1.883-11.499 0.397-0.397-0.595-0.991-0.793-1.388-0.496-0.496 0.198-2.974-0.297-5.452-1.090-4.362-1.487-4.758-1.487-5.849 0.099-1.19 1.487-1.784 1.487-9.615-0.496-4.659-1.19-12.589-3.47-17.645-5.155l-9.219-3.073-2.28 2.181c-1.19 1.090-2.875 2.082-3.668 2.082s-1.983 0.496-2.478 0.991c-0.793 0.793-2.577 0.793-5.948 0-7.336-1.586-7.732-1.784-6.443-3.37 0.892-1.090 0.694-1.487-1.090-1.983-3.47-0.892-4.56-0.595-1.883 0.496 1.586 0.595 2.082 1.289 1.487 1.883-1.586 1.586-12.887-2.181-12.49-4.263 0.099-0.892-0.496-1.983-1.487-2.478-2.379-1.289-20.222-6.344-20.718-5.849-0.198 0.099 3.569 1.586 8.327 3.073 12.887 4.263 13.482 4.56 12.391 5.65-0.892 0.892-23.89-6.344-30.036-9.516-2.478-1.289-2.875-1.19-4.263 0.297-0.793 0.892-1.983 3.37-2.676 5.353-0.595 2.082-2.082 4.461-3.271 5.254-2.379 1.685-7.236 1.983-8.029 0.595-1.19-1.784-4.461 0.099-5.056 2.974-0.793 3.37-6.939 8.822-10.111 8.822-1.487 0-8.723 5.353-20.222 14.869-16.852 13.977-18.141 14.869-22.106 14.869-2.379 0-4.56-0.297-4.857-0.595-0.397-0.397-2.181-0.793-4.163-0.991-1.883-0.198-4.064-0.694-4.758-1.090-0.595-0.397-1.883-0.595-2.875-0.496-0.892 0.198-1.883-0.198-2.181-0.694-0.397-0.595-1.289-0.793-1.983-0.496-0.793 0.297-1.685 0.099-1.983-0.496-0.892-1.388 1.388-2.478 2.577-1.289 0.595 0.595 1.685 0.793 2.379 0.496 0.793-0.297 1.983 0 2.676 0.496 0.793 0.694 1.784 0.694 2.676 0.198 0.793-0.595 1.289-0.991 0.991-1.090-0.297 0-3.47-0.595-7.137-1.289-5.353-0.991-6.443-0.892-5.551 0.099 0.694 0.892 0.595 1.388-0.496 1.883-2.379 0.892-4.064-0.496-2.577-2.181 0.892-1.090 0.793-1.388-0.496-1.388-0.892 0-1.487 0.595-1.388 1.289 0.297 1.19-3.965 1.388-6.939 0.198-1.090-0.397-1.19-0.793-0.198-1.983s0.892-1.487-0.397-1.487c-0.892 0-1.487 0.595-1.388 1.289 0.198 0.595-0.595 1.19-1.685 1.19-1.388 0-1.883-0.595-1.685-1.685 0.198-0.991-0.198-1.784-0.793-1.784s-0.793 0.496-0.496 0.991c0.892 1.487-1.586 2.082-4.956 1.19-1.983-0.595-2.875-1.388-2.676-2.478 0.198-0.991-0.198-1.685-0.793-1.685-0.496 0-0.892 0.595-0.793 1.289 0.198 0.595-0.595 1.19-1.685 1.19-1.388 0-1.883-0.595-1.685-1.685 0.198-0.991-0.198-1.784-0.793-1.784-0.496 0-0.892 0.595-0.793 1.19 0.198 0.694-0.397 1.289-1.19 1.289s-1.388-0.595-1.19-1.388c0.297-1.19 0-1.19-1.19-0.198-1.983 1.685-4.758 0.694-3.965-1.388 0.297-0.793 0.099-1.487-0.496-1.487s-0.991 0.595-0.892 1.289c0.198 0.595-0.397 1.19-1.19 1.19s-1.487-0.496-1.487-1.19c0-0.595-0.397-1.487-0.793-1.983-0.496-0.397-0.694-0.099-0.496 0.694 0.099 0.793-0.397 1.487-1.19 1.487s-1.487-0.595-1.487-1.388c0-0.793-0.595-1.586-1.289-1.883-0.694-0.198-1.090 0.198-0.991 0.991 0.198 0.694-0.397 1.289-1.19 1.289-0.892 0-1.388-0.694-1.19-1.685 0.198-1.090-0.297-1.784-1.289-1.784-0.793 0-1.388 0.297-1.289 0.793 0.198 0.397-0.099 0.793-0.694 0.991-0.496 0.099-0.991-0.297-0.991-0.991 0-0.595-0.595-1.289-1.289-1.586-0.694-0.198-1.090 0-0.991 0.496 0.198 0.397-0.099 0.793-0.694 0.793-0.496 0-0.892-0.297-0.793-0.694 0.297-0.694-6.741-2.974-7.236-2.478-0.198 0.099 0.099 2.082 0.595 4.163 0.496 2.181 7.236 34.299 14.869 71.373 15.365 74.247 26.17 125.993 27.954 134.22 1.090 5.056 1.090 5.353-1.289 7.137-1.983 1.487-4.163 1.883-12.887 1.883-7.236 0-10.904-0.397-11.598-1.19-0.496-0.694-2.577-9.516-4.461-19.627-1.983-10.111-6.84-35.488-11.003-56.503-4.064-21.015-11.895-61.361-17.447-89.712-5.452-28.351-10.309-52.241-10.805-53.034-0.397-0.793-1.883-1.685-3.172-1.983-1.487-0.397-2.28-1.19-2.082-2.28 0.198-0.892-0.198-1.685-0.793-1.685-0.496 0-0.892 0.595-0.793 1.289 0.198 0.595-0.595 1.19-1.685 1.19-1.388 0-1.883-0.595-1.685-1.685 0.198-0.991-0.198-1.784-0.793-1.784-0.496 0-0.892 0.297-0.793 0.793 0.198 0.397-0.099 0.694-0.694 0.694-0.496 0-0.892-0.297-0.793-0.694 0.099-0.297-0.397-0.892-1.289-1.19s-1.19-0.198-0.892 0.397c0.793 1.289-1.983 2.379-3.47 1.487-0.793-0.496-0.793-1.090 0.099-2.082 0.892-1.090 0.793-1.388-0.496-1.388-0.991 0-1.388 0.496-1.090 0.991 0.892 1.487-1.586 2.082-4.956 1.19-1.983-0.595-2.875-1.388-2.676-2.478 0.198-0.991-0.198-1.685-0.793-1.685s-0.793 0.496-0.496 1.090c0.397 0.595-0.198 1.289-1.289 1.586-1.883 0.397-1.983 1.685-2.676 20.916-0.397 11.301-0.991 23.692-1.388 27.459l-0.595 6.939-23.097 0.595-5.155-8.525 0.595-26.567c0.595-24.98 0.496-26.666-1.19-27.855-0.991-0.793-2.379-1.19-3.073-0.892-0.595 0.297-1.685 0.099-2.379-0.297s-2.676-0.793-4.56-0.991c-3.965-0.397-5.452-1.19-4.659-2.478 0.595-0.991 5.749-0.297 7.831 0.892 0.595 0.397 1.685 0.496 2.676 0.397 0.892-0.198 1.883 0.099 2.181 0.694 0.297 0.496 1.487 0.694 2.577 0.397 1.685-0.397 1.983-1.388 2.082-5.65 0-2.776 0.198-6.146 0.397-7.534 0.099-1.388 0.496-11.598 0.892-22.8 0.297-11.202 0.793-26.963 1.090-35.191 0.297-8.129 0.694-22.205 0.991-31.226s0.793-19.925 0.991-24.287c0.297-4.362 0.694-16.753 1.090-27.657 0.297-10.805 0.793-20.321 1.090-21.015 0.397-0.991-0.397-1.388-2.478-1.388-1.883 0-3.172 0.595-3.668 1.784-0.595 1.586-0.694 1.586-1.883-0.099-1.19-1.487-3.668-1.685-27.657-1.685h-26.368l-0.297 9.417c-0.297 10.805-1.289 9.814 10.309 10.904l6.642 0.595 0.297-5.948c0.397-8.029 2.181-7.732 2.577 0.397 0.198 3.569 0.595 6.443 0.991 6.443 0.496 0 7.236 0.892 15.068 1.983 7.93 1.090 15.761 2.082 17.348 2.28 2.974 0.397 2.974 0.397 2.676 6.245-0.198 3.37-0.991 6.542-1.883 7.534-1.388 1.586-1.685 1.586-3.866 0.099-2.181-1.388-2.577-1.388-4.956 0.198l-2.577 1.685 2.181 1.090c1.289 0.694 2.577 1.883 3.073 2.676 2.478 4.857 3.569 8.922 3.37 12.391-0.198 4.163 1.19 15.761 2.181 18.339 0.397 0.793 0.694 2.379 0.793 3.47 0 1.090 0.297 2.478 0.694 2.974 1.289 2.181-0.198 35.785-2.082 47.582-0.595 3.271-1.19 9.12-1.487 12.887-0.595 8.624-2.974 19.826-5.056 24.088-1.784 3.47-4.163 5.155-7.435 5.155-1.19 0-1.784 0.496-1.487 0.991 0.892 1.487-1.586 2.082-4.956 1.090-1.685-0.397-2.875-1.388-2.676-2.082 0.297-1.090 0-1.090-1.19-0.099-1.883 1.586-5.056 0.694-3.965-1.090 0.595-0.991 0.397-0.991-0.793 0-1.983 1.586-8.426 0.198-7.93-1.784 0.297-1.090 0-1.090-1.19-0.099-1.883 1.586-5.056 0.694-3.965-1.090 0.595-0.991 0.397-0.991-0.793 0-1.983 1.586-8.426 0.198-7.93-1.784 0.297-1.090 0-1.090-1.19-0.099-1.784 1.487-8.129 0-7.732-1.883 0.297-1.090 0-1.090-1.19-0.099-1.883 1.586-5.056 0.694-3.965-1.090 0.595-0.991 0.397-0.991-0.793 0-2.28 1.784-8.327 0.198-7.93-2.082 0.198-0.991-0.198-1.685-0.793-1.685-0.496 0-0.892 0.595-0.694 1.289 0.099 0.595-0.694 1.19-1.784 1.19-1.19 0-1.883-0.595-1.685-1.388 0.297-1.19 0-1.19-1.19-0.198-1.784 1.487-3.965 0.496-2.875-1.19 0.397-0.694 0-0.595-0.991 0.198-1.983 1.586-5.155 0.694-4.064-1.090 0.595-1.090 0.496-1.090-0.793 0-1.586 1.289-7.336 0.694-8.327-0.892-0.198-0.397-1.090-0.595-1.883-0.297s-1.883 0.198-2.577-0.198c-0.694-0.397-2.676-0.793-4.56-0.991-1.784-0.198-3.866-0.694-4.56-1.090-0.595-0.397-1.883-0.595-2.875-0.496-0.892 0.198-1.883-0.198-2.181-0.694-0.397-0.595-1.289-0.793-1.983-0.496-0.793 0.297-1.685 0.099-1.983-0.496-0.397-0.595-1.289-0.793-2.082-0.496s-1.883 0.198-2.577-0.198c-0.694-0.397-2.676-0.793-4.56-0.991-4.163-0.397-5.452-1.19-4.56-2.676 0.397-0.694 0-0.595-0.991 0.198-1.983 1.586-5.155 0.694-4.064-1.090 0.595-0.991 0.397-0.991-0.793 0-1.983 1.586-8.426 0.198-7.93-1.784 0.297-1.090 0-1.090-1.19-0.099-1.883 1.586-5.056 0.694-3.965-1.090 0.595-0.991 0.297-0.892-0.892 0-1.784 1.487-4.064 0.694-2.974-1.090 0.397-0.694 0-0.595-0.991 0.198-1.983 1.586-5.155 0.694-4.064-1.090 0.595-0.991 0.397-0.991-0.793 0-1.983 1.586-8.426 0.198-7.93-1.784 0.297-1.090 0-1.090-1.19-0.099-1.883 1.586-5.056 0.694-3.965-1.090 0.595-1.090 0.496-1.090-0.793 0-1.487 1.19-7.336 0.694-8.228-0.793-0.297-0.496-1.388-0.595-2.379-0.297s-2.181 0-2.478-0.595c-0.397-0.496-1.289-0.793-1.983-0.496-0.793 0.297-1.685 0.099-1.983-0.496-0.397-0.595-1.289-0.793-2.082-0.496s-1.883 0.198-2.577-0.198c-0.694-0.397-2.676-0.793-4.56-0.991-4.163-0.397-5.452-1.19-4.56-2.676 0.397-0.694 0-0.694-0.991 0.099-1.784 1.487-4.064 0.694-3.073-1.090 0.496-0.892 0.397-0.892-0.595 0-3.47 3.172-12.292-5.254-16.951-16.455-8.228-19.826-7.633-48.672 1.685-76.131 1.883-5.452 4.956-12.788 6.939-16.257 4.461-8.029 13.482-18.24 18.141-20.718 3.569-1.983 2.776-1.983-145.62-1.388-82.079 0.397-149.387 0.793-149.585 0.991-0.198 0.099 0.694 1.685 1.883 3.37s1.983 3.668 1.685 4.362c-0.297 0.793 0.099 2.181 0.892 3.271 0.892 0.991 1.289 1.289 0.991 0.694s0.297-1.883 1.289-2.776c1.388-1.289 1.983-1.388 2.776-0.397 1.388 1.784 2.181 55.71 0.793 56.008-0.496 0.099-1.19 1.685-1.487 3.47-0.297 1.983-1.090 3.271-1.983 3.271-0.793 0-1.883 0.892-2.28 1.883-0.496 1.289-1.090 1.586-1.784 0.892-1.685-1.685-5.948 2.676-4.758 4.857 0.991 1.883 5.353 2.379 7.831 0.793 1.883-1.19 3.965 0.595 3.965 3.569 0 1.388 0.496 2.28 1.289 2.082 1.586-0.297 2.28 16.951 0.694 18.537-1.289 1.289-1.388 24.782 0 23.89 1.784-1.090 2.181 2.28 0.496 5.353l-1.586 3.073h-9.417c-6.642 0-9.516-0.397-9.814-1.19-0.496-1.487-2.181-58.684-3.073-103.391-0.297-16.852-0.793-31.027-1.090-31.424-0.198-0.496-7.732-0.793-16.654-0.793h-16.257l-0.297 3.271c-0.397 4.064-2.082 3.767-2.875-0.496-0.397-1.784-0.694 1.388-0.694 7.137-0.099 7.633 0.198 9.814 0.892 8.029 1.883-4.659 3.073-0.397 3.668 12.589 0.198 7.137 0.198 13.779-0.198 14.77-0.694 1.685-0.793 1.685-2.28-0.198-1.289-1.784-1.388-0.694-0.892 11.4 0.991 22.998 0.793 47.78-0.198 48.771-0.694 0.694-0.496 2.181 0.595 4.461 1.487 3.172 1.487 3.569 0 4.659-1.289 0.991-1.388 1.388-0.297 2.974 0.793 0.991 1.388 4.064 1.388 6.84 0.198 15.068 0.991 38.858 1.487 45.797 0.297 4.362 1.090 21.214 1.685 37.372 0.991 23.196 1.487 29.144 2.379 27.855 2.28-2.974 2.577 0.496 0.496 4.659l-1.983 3.965h-11.4c-7.93 0-11.499-0.397-12.094-1.19-0.991-1.685-5.155-118.062-4.263-119.153 0.496-0.397 0.397-1.983 0-3.47-0.694-1.983-2.478-42.923-3.073-69.489-0.099-3.569-0.198-3.965-0.793-1.983-0.397 1.388-1.289 2.379-1.784 2.28-0.595-0.099-1.388 0.397-1.685 1.19s0 1.388 0.694 1.19c0.694-0.099 1.19 0.496 1.19 1.289s-0.595 1.388-1.19 1.289c-1.388-0.297-1.388-0.099-3.866 12.589-2.776 14.374-2.776 13.977-1.289 13.68 0.793-0.198 1.388 0.397 1.388 1.19s-0.595 1.388-1.19 1.289c-0.694-0.198-1.289 0.099-1.289 0.595s-0.297 1.685-0.595 2.577c-0.397 0.892-0.297 1.487 0.198 1.289s0.991 0.198 1.19 0.694c0.099 0.595-0.198 0.991-0.694 0.991-1.784 0-2.181 1.388-5.056 18.438-4.56 26.567-9.417 55.116-12.887 74.743-1.784 9.814-3.37 19.429-3.668 21.313-0.198 1.883-0.793 5.65-1.19 8.228-0.694 3.866-0.595 4.659 0.496 4.263 2.28-0.892 2.478 1.090 0.793 11.003-1.784 10.508-2.776 12.887-4.163 9.219-0.694-1.784-1.19-0.099-2.478 7.732-1.983 11.895-2.082 13.184-0.496 12.788 1.586-0.297 2.28 3.172 0.892 4.56-0.694 0.694-1.289 0.297-1.983-1.388l-0.991-2.379v2.776c-0.099 1.586 0.297 2.577 0.793 2.181 0.496-0.297 1.19-0.099 1.586 0.397 0.694 1.289-4.461 31.919-5.551 33.208-0.496 0.496-1.19 0-1.685-1.388-0.595-1.685-1.388 0.991-3.073 11.301-1.289 7.534-1.983 13.878-1.685 14.175 0.297 0.397 0.595-0.496 0.595-1.983 0-2.676 1.487-4.362 2.478-2.776 0.694 1.289-2.379 20.123-3.569 21.313-0.496 0.595-1.19-0.099-1.784-1.487l-0.991-2.379v2.776c-0.099 1.586 0.397 2.577 1.090 2.478 1.586-0.397 2.28 3.073 0.892 4.461-0.694 0.694-1.289 0.297-1.983-1.388l-0.991-2.379v2.776c-0.099 1.685 0.297 2.577 0.892 2.181 1.388-0.892 2.379 2.082 1.388 4.263-0.397 0.892-0.595 2.181-0.595 2.776 0.297 1.586-10.508 63.74-11.202 64.83-0.297 0.595-5.65 0.991-11.796 0.991-10.309 0-11.301-0.198-13.184-2.181zM45.5 951.636c0.397-0.793 0.496-2.379 0.099-3.47-0.496-1.388-0.991-0.099-1.883 4.56-0.595 3.569-0.991 7.336-0.991 8.426 0.099 0.991 0.496-0.297 0.991-3.073 0.496-2.676 1.289-5.65 1.784-6.443zM49.366 924.376c-0.099-3.073-1.586 3.47-1.586 6.939 0 2.478 0.198 2.379 0.892-0.991 0.397-2.181 0.793-4.857 0.694-5.948zM67.308 819.795c0-1.289-0.099-1.289-0.793 0-0.496 0.793-1.090 4.659-1.388 8.426l-0.595 6.939 1.388-6.939c0.793-3.767 1.388-7.633 1.388-8.426zM1046.8 769.735c0-0.198-1.289-1.090-2.974-1.983-3.767-1.883-3.965-1.090-0.198 0.892 3.073 1.685 3.172 1.784 3.172 1.090zM1023.207 760.318c-4.064-2.875-7.137-7.435-7.137-10.309 0-0.892 1.784-2.875 3.965-4.461 3.172-2.28 3.668-3.073 2.577-3.965-0.694-0.595-1.487-0.892-1.784-0.595-0.397 0.397-9.318-2.28-13.68-4.163-0.793-0.297-2.181-0.496-3.172-0.397-0.892 0.099-1.883-0.297-2.181-0.793-0.397-0.595-1.289-0.793-1.983-0.496-0.793 0.297-1.685 0-2.082-0.496-0.297-0.595-1.090-0.892-1.586-0.496-0.595 0.297-1.784 0.297-2.676-0.099-2.28-0.892-25.972-0.595-29.54 0.397-2.875 0.793-2.776 0.892 1.883 2.082 3.767 0.991 5.353 2.082 7.336 5.056 2.875 4.362 6.642 6.146 20.123 9.318 8.029 1.983 12.094 3.073 18.339 4.857 2.974 0.793 8.822 3.767 11.102 5.551 1.388 1.090 2.974 1.983 3.569 1.983 0.496 0-0.892-1.289-3.073-2.974zM936.271 728.299c3.271-1.289 11.102-3.47 17.348-4.758l11.4-2.379-8.426-0.694c-4.659-0.297-13.977-0.595-20.718-0.694-12.094-0.099-12.292-0.099-10.607 1.784 0.991 1.090 1.983 3.767 2.28 6.047 0.397 2.478 0.991 3.866 1.685 3.569 0.595-0.198 3.767-1.487 7.038-2.875zM920.708 704.012c0.793-0.496-0.793-1.487-4.461-2.577-3.172-0.991-6.344-2.28-6.939-2.776-1.983-1.586-1.487 0 0.892 3.172 1.685 2.379 2.875 2.974 5.65 2.974 1.983 0 4.163-0.397 4.857-0.793zM702.823 702.129c0-0.496-0.496-1.487-0.991-2.28-0.793-1.19-0.991-1.090-0.991 0.793 0 1.19 0.496 2.181 0.991 2.181 0.595 0 0.991-0.297 0.991-0.694zM702.724 668.524c-0.595-0.793-0.694-1.388 0-1.784 0.595-0.397 0.595-1.784 0.099-3.569-0.991-3.668-0.991-4.064 0.099-6.047 0.397-0.892 0.496-1.883 0.198-2.28-0.595-0.595-0.793-5.254-1.19-28.45-0.099-2.478-0.694-5.254-1.388-6.245-1.19-1.586-1.289-1.090-1.090 3.965 0.198 3.172 0.397 6.542 0.496 7.336s-0.099 3.767-0.496 6.642c-0.297 2.875-0.198 5.452 0.297 5.749s0.297 1.883-0.595 3.47c-0.793 1.685-1.19 3.767-0.793 4.758 0.397 0.892 0.793 5.155 0.694 9.417 0 4.163 0.397 7.93 0.892 8.228s0.694 0.991 0.297 1.487c-0.297 0.595 0.297 0.496 1.388-0.198 1.487-0.892 1.784-1.685 1.090-2.478zM458.966 662.279c3.073-0.099 8.129-0.595 11.301-1.090 3.271-0.496 6.146-0.694 6.642-0.496 0.397 0.297 1.784 0.099 3.073-0.397 1.388-0.496 4.461-1.090 6.84-1.19 2.379-0.198 6.642-1.090 9.516-2.082 2.776-0.991 7.236-1.685 9.913-1.685 5.056 0.099 17.248-0.991 20.619-1.784 1.090-0.297 5.155-0.694 8.922-0.793 3.866-0.198 7.633-0.595 8.426-0.892 3.271-0.991 7.732-1.685 13.878-2.082 3.569-0.297 10.21-0.991 14.869-1.586 4.659-0.694 11.598-1.289 15.365-1.388 3.866 0 8.228-0.694 9.913-1.388 1.586-0.595 3.965-0.892 5.254-0.595s3.767 0.198 5.551-0.397c1.685-0.496 5.749-1.19 9.021-1.487s6.443-0.595 6.939-0.595c0.595-0.099 0.099-0.496-0.991-0.892-1.090-0.496-4.659-0.496-7.93 0-5.254 0.694-6.542 0.496-11.102-1.586-6.443-3.073-6.642-3.073-9.715 0.198-1.388 1.487-2.478 2.379-2.478 1.883s-0.694-0.297-1.487 0.397c-0.793 0.694-4.956 1.388-9.12 1.586-7.336 0.397-11.598 0.793-17.149 1.685-6.245 1.090-17.447 2.577-18.834 2.478-3.668 0-17.744 1.388-21.412 2.181-2.28 0.496-6.741 1.19-9.913 1.487-3.271 0.297-7.137 0.991-8.822 1.487-1.586 0.496-4.758 0.793-6.939 0.595s-4.362-0.099-4.956 0.297c-0.496 0.297-3.37 0.595-6.245 0.793-2.875 0.099-6.741 0.694-8.624 1.289s-3.866 0.793-4.461 0.496c-0.595-0.397-1.685-0.099-2.478 0.496-0.793 0.694-2.082 0.991-2.974 0.694-0.793-0.397-1.685-0.198-1.983 0.397-0.397 0.496-0.991 0.694-1.487 0.397s-4.956 0.595-10.012 1.883c-5.155 1.289-8.327 2.577-7.236 2.776 0.991 0.297 2.577 0.099 3.37-0.198 0.793-0.397 3.965-0.793 6.939-0.892zM485.731 624.015c3.569-0.397 8.029-0.793 9.913-0.991 1.883-0.099 6.047-0.694 9.219-1.388 3.073-0.694 6.642-1.19 7.93-1.090 1.19 0.099 2.379 0.099 2.676 0s1.784-0.397 3.271-0.595c1.487-0.099 4.163-0.991 5.849-1.784 2.776-1.388 3.271-1.388 4.659-0.099 1.487 1.289 1.784 1.19 2.875-0.496 2.082-3.47 1.487-4.956-1.983-4.956-1.784 0-4.56-0.099-6.245-0.198-1.586-0.198-3.47 0.198-3.965 0.991-0.892 1.090-4.263 1.586-16.356 2.577-1.388 0.099-3.073-0.297-3.767-0.793-1.685-1.19-3.965-1.487-11.895-1.685-5.155-0.099-6.542-0.496-7.831-2.28-1.586-2.082-1.784-2.082-4.758-0.595-7.831 3.965-12.788 8.525-14.968 13.878-0.297 0.793 17.348 0.397 25.377-0.496zM614.598 607.659v-8.922h-60.469c-47.879 0-60.369 0.297-60.171 1.289 0.099 0.595-0.694 1.19-1.784 1.19s-1.883-0.595-1.784-1.19c0.297-1.487-1.289-1.685-2.181-0.297-0.297 0.595-1.586 0.991-2.676 0.991-4.857 0 1.983 1.685 9.913 2.478 2.676 0.297 3.073 0.099 2.181-0.991-1.388-1.586 0.297-2.974 2.676-2.082 1.19 0.496 1.289 0.892 0.397 1.983s-0.496 1.586 1.586 2.379c1.586 0.595 4.56 1.388 6.741 1.685s4.461 1.090 4.956 1.784c0.793 1.090 1.487 1.090 3.47 0 2.776-1.388 2.776-1.388-1.784-1.784-3.767-0.297-6.047-1.983-4.659-3.37 0.595-0.595 19.132 1.685 50.060 6.245 26.963 4.064 50.060 7.336 51.349 7.435 2.082 0.099 2.181-0.198 2.181-8.822zM829.014 598.639c3.073-7.435 9.219-21.709 13.68-31.721 22.502-50.853 24.485-55.809 28.648-72.86 4.362-17.942 6.939-37.471 9.417-70.282 0.892-11.4 2.875-33.506 4.461-49.069s4.263-48.276 5.948-72.661c2.676-38.363 2.974-46.194 2.082-56.999-0.793-9.516-0.694-12.887 0.198-13.977 0.892-1.19 0.892-1.289-0.099-0.694-1.784 1.090-2.776-2.28-1.289-4.56 0.694-1.19 0.793-1.685 0.198-1.289-1.685 0.991-2.577-2.478-1.19-4.56 0.892-1.487 0.793-1.784-0.099-1.685-1.685 0.397-4.163-12.986-2.776-15.365 0.694-1.19 0.694-1.586-0.198-1.487-1.685 0.397-5.056-16.951-3.569-18.735 0.892-1.090 0.793-1.289-0.198-1.090-0.694 0.198-1.685-1.090-2.181-3.073-1.090-3.866-0.397-6.542 1.388-5.452 0.793 0.397 0.991 0.297 0.496-0.198s-1.388-0.892-1.983-0.892c-1.685 0-2.082-4.263-0.595-6.047 0.991-1.19 0.991-1.487-0.198-1.19-0.991 0.198-1.388-0.694-1.388-3.172 0-2.28 0.397-3.37 1.289-3.271 0.694 0.198 1.19-0.694 1.19-1.983s0.694-3.172 1.487-4.263c3.47-4.56 0.793-13.482-3.866-12.589-2.379 0.496-2.379 0.595-0.991 2.776 0.892 1.289 1.388 3.172 1.289 4.163s0.099 2.478 0.496 3.47c0.991 2.28 0.297 7.336-0.892 6.741-0.496-0.297-1.090-2.082-1.090-3.965-0.099-1.883-0.397-4.163-0.694-4.956s-0.694-2.379-0.892-3.47c-0.297-1.487-1.090-1.983-3.47-1.883-3.172 0.198-8.327 3.668-21.412 14.572-5.65 4.758-5.749 4.956-5.155 8.723 0.793 4.758-1.19 13.085-4.163 17.645-1.289 1.883-2.28 3.668-2.28 4.064s-2.478 2.379-5.551 4.461c-6.245 4.064-20.718 8.327-23.89 6.939-0.991-0.496-2.28-0.694-2.974-0.595-0.595 0.099-1.388-0.297-1.685-0.793-0.892-1.388 1.289-2.379 2.676-1.388 0.694 0.496 2.577 0.694 4.163 0.297l2.974-0.595-2.974-0.595c-5.948-1.289-14.374-10.805-16.753-18.934-0.496-1.388-1.784-1.685-8.029-1.685-4.461 0-7.336 0.397-6.939 0.892 0.297 0.496 0.099 1.19-0.496 1.586-0.496 0.297-0.991 2.776-0.991 5.551 0 4.064 0.297 4.857 1.784 4.857 0.991 0 2.181 0.297 2.577 0.694s1.983 0.793 3.47 0.892c1.487 0.099 3.668 0.496 4.857 0.793l2.181 0.694-2.082-3.47c-2.974-5.056-4.064-10.508-2.28-11.202 0.793-0.297 2.181-0.198 3.073 0.099 1.19 0.496 1.388 0.892 0.496 1.784-2.875 2.875 0.694 10.607 6.939 15.068 2.082 1.487 3.569 3.172 3.172 3.668-0.297 0.595-1.983-0.099-3.866-1.487-3.569-2.776-5.353-3.37-3.569-1.289 0.595 0.793 0.991 3.073 0.793 5.155-0.198 3.767-0.099 3.866 3.569 4.56 3.767 0.595 8.624 4.263 8.624 6.443 0 0.694 1.090 2.082 2.379 3.073 8.327 6.344 28.45 25.575 28.946 27.657 0.297 1.289 0.099 12.292-0.496 24.485-0.694 12.094-1.388 25.773-1.586 30.433s-0.694 12.193-0.892 16.852c-0.297 4.659-0.793 13.779-1.090 20.321s-0.793 14.77-0.991 18.339c-0.297 3.569-1.388 24.287-2.478 46.095s-2.181 43.716-2.478 48.573c-0.198 4.956-1.388 26.963-2.478 49.069s-2.379 48.375-2.974 58.486c-0.496 10.111-1.19 25.080-1.487 33.208-0.297 8.228-0.793 17.546-1.090 20.817-0.397 3.271-0.397 5.749-0.099 5.452s2.974-6.542 5.948-13.977zM111.619 591.303c0.198-0.991 0-2.379-0.397-2.875-0.297-0.595-0.694-1.685-0.793-2.379s-0.793-1.983-1.487-2.875c-1.090-1.289-1.487-0.496-2.478 5.254-0.694 3.767-1.289 7.435-1.289 8.228-0.099 2.082 6.146-3.073 6.443-5.353zM125.398 561.564c0.595 0 1.090 2.379 1.289 5.254l0.297 5.155h31.622v-26.765h-23.295l-4.956 3.866c-5.849 4.659-8.327 4.263-2.875-0.496l3.866-3.271-4.857-0.099h-4.857l0.595 9.715c0.397 5.254 0.793 11.4 0.892 13.581 0.099 3.47 0.198 3.271 0.694-1.487 0.297-2.974 1.090-5.452 1.586-5.452zM181.009 570.882c0.397-0.793 0.892-0.793 1.685 0 1.685 1.685 198.951 1.487 199.051-0.099 0.099-2.181-0.198-26.071-0.397-26.17-0.099-0.099-44.905 0.099-99.525 0.397l-99.327 0.496-0.297 2.082c-0.397 2.577-2.181 2.379-2.577-0.397-0.198-1.090-0.694-1.983-1.19-1.983-0.793 0-1.883 23.692-1.19 25.773 0.496 1.289 2.875 1.289 3.767-0.099zM543.027 570.982h65.623v-26.765h-208.17v27.954l38.462-0.595c21.114-0.397 67.903-0.595 104.085-0.595zM671.3 568.305c0.198-1.586 0.793-2.776 1.289-2.776 0.595 0 1.090 1.19 1.289 2.776 0.297 2.28 0.793 2.676 3.47 2.676 3.172 0 3.172-0.099 3.47-5.254 0.694-12.986 0.793-19.132 0.397-20.222-0.198-0.694-1.983-1.289-4.064-1.289-3.37 0-3.569 0.198-3.47 3.172 0.099 1.784 0.496 3.965 0.793 4.857 1.090 2.478 0.297 11.4-0.892 10.805-0.496-0.297-1.090-2.974-1.090-5.948-0.198-6.542-1.586-10.409-4.263-11.796-1.090-0.595-7.831-1.090-15.365-1.090h-13.382l-0.297 5.254c-0.198 2.776-0.694 5.155-1.289 5.155-0.496 0-1.090-2.379-1.289-5.155l-0.297-5.254h-7.831v26.765h42.526l0.297-2.676zM92.685 557.401c0.397-1.685 0.198-2.082-0.991-1.685-1.090 0.496-1.487 2.082-1.388 6.741l0.099 6.047 0.892-4.461c0.496-2.478 1.090-5.452 1.388-6.642zM708.275 466.996c-1.586-1.586-12.688-7.137-13.085-6.642-0.793 0.793 0.694 2.577 2.181 2.577 0.793 0 3.47 1.090 6.047 2.478 4.956 2.577 6.344 3.073 4.857 1.586zM245.344 458.867c3.767-3.866 3.172-4.461-0.793-0.991-1.784 1.487-4.163 5.056-3.37 5.056 0.099 0 2.082-1.883 4.163-4.064zM563.646 457.479c1.784-1.388 3.866-2.478 4.56-2.478s2.478-0.595 3.965-1.388c2.082-1.090 2.875-1.19 3.668-0.198 0.496 0.595 3.073 1.289 5.749 1.388 7.336 0.297 10.805 0.892 13.283 2.181 1.883 1.090 2.478 0.892 3.767-0.793 1.983-2.478 6.741-3.668 8.624-2.082 0.694 0.595 1.983 0.892 2.776 0.595 0.694-0.297 2.974 0.496 4.857 1.883 1.983 1.289 3.767 2.379 4.064 2.379 1.487 0 4.461-8.624 3.965-11.4-0.297-1.586-0.595-3.965-0.694-5.254-0.099-1.487-0.595-1.983-1.685-1.586-4.461 1.883-4.857 1.685-10.012-6.542l-5.155-8.129-17.149 0.397c-15.365 0.297-17.149 0.496-17.546 2.082-0.397 1.388-1.685 1.685-8.525 1.685-6.344 0-8.029 0.297-8.029 1.388 0 0.793 0.496 1.784 0.991 2.082 1.586 0.991 1.19 4.263-0.694 5.254-1.487 0.892-1.388 1.090 0.496 2.676 1.883 1.685 1.883 2.082 0.694 4.461-1.487 2.974-1.487 8.525 0 11.003 0.793 1.289 2.577 2.478 4.362 2.776 0.198 0.099 1.883-0.991 3.668-2.379zM226.113 441.42c1.289-1.586 1.983-2.478 1.487-2.082s-1.487 0.297-2.082-0.198c-0.694-0.595-3.172-0.694-5.749-0.397-4.362 0.595-4.461 0.694-3.47 2.974 1.586 3.47 6.642 3.271 9.814-0.297zM318.897 424.073c-0.397-14.374-0.198-20.421 1.090-29.045l1.685-10.904 24.98-0.297c23.791-0.198 25.080-0.297 26.071-2.181 1.487-2.875 6.245-4.956 10.904-4.956 3.569 0 4.956-0.694 10.21-5.353 8.723-7.534 11.697-8.822 20.52-8.922 8.723 0 10.904 0.892 20.222 8.822 5.948 5.056 6.741 5.452 11.499 5.452 3.965 0 5.551 0.496 7.435 2.379 2.28 2.28 2.676 2.379 24.782 2.676 22.007 0.397 22.502 0.397 24.088 2.676 2.082 2.776 6.542 23.494 6.344 29.54l-0.198 4.263 2.676-1.388c2.676-1.388 6.245-0.496 6.245 1.487 0 0.793 17.645 1.487 17.942 0.793 0.099-0.198 0.397-5.155 0.793-11.102 0.496-8.029 1.090-11.003 2.28-11.895 1.289-0.892 1.685-4.758 2.379-21.907 0.793-17.348 1.090-20.817 2.379-20.916 0.793-0.099 16.951-0.198 35.785-0.198l34.299-0.198 0.595-6.642c0.397-3.767 0.892-23.593 1.289-44.112l0.694-37.471h-44.311c-41.931 0-44.211 0.099-44.211 1.784 0 0.991-0.397 2.181-0.892 2.776-0.595 0.496-0.595 2.577 0 5.353 0.595 2.478 0.793 6.443 0.397 8.922-0.297 2.478-0.793 7.236-1.090 10.706-0.496 4.857-0.991 6.443-2.577 7.236-1.487 0.793-2.379 0.694-3.767-0.595-1.685-1.586-1.784-2.875-1.388-15.761 0.793-18.24 0.793-19.429 0.198-19.925-0.198-0.198-16.753-0.595-36.777-0.694-31.622-0.297-36.281-0.099-35.885 1.19 0.694 1.586-19.033 21.214-22.205 22.106-1.19 0.297-2.676-0.297-3.569-1.289s-2.379-1.586-3.569-1.289c-2.776 0.793-2.28 2.577 0.595 2.082 2.974-0.595 4.064 0.496 2.082 2.082-2.082 1.784-6.344 2.28-8.525 1.090-1.883-0.991-1.883-1.289-0.496-3.965 1.090-2.181 2.776-3.172 7.137-4.461 5.749-1.685 13.878-7.236 14.869-10.309 0.297-0.892 1.685-2.776 3.073-4.263 1.388-1.586 2.181-2.776 1.586-2.875-0.496-0.099-22.899-0.297-49.862-0.496l-49.069-0.397 3.172 3.271c3.668 3.767 3.965 5.65 1.19 8.129-1.983 1.784-2.082 1.784-5.452-1.487-1.983-1.883-4.461-4.857-5.749-6.642l-2.181-3.271h-21.907c-19.826 0-22.007 0.198-21.808 1.586 0.198 2.478-2.379 2.875-3.073 0.496-0.496-1.983-1.19-2.082-10.508-2.082-8.624 0-9.715 0.198-8.129 1.289 2.082 1.586 1.289 3.668-1.388 3.668-2.478 0-3.172-0.991-1.983-3.073 0.892-1.685 0.595-1.883-3.271-1.784-3.569 0-3.866 0.198-1.983 0.892 2.478 1.090 2.875 3.767 0.694 4.659-2.28 0.793-5.749-2.577-4.362-4.362 0.892-0.991 0.694-1.289-0.892-1.289-2.478 0-4.758 2.478-3.172 3.47 0.595 0.397 0.892 1.289 0.595 2.082-0.297 0.694-0.099 1.586 0.496 1.983 0.595 0.297 0.793 1.19 0.496 1.983-0.297 0.694-0.099 1.586 0.496 1.883 0.496 0.397 0.892 1.19 0.793 1.784-0.099 0.694 0.297 2.478 0.892 3.965 0.694 1.586 0.991 3.172 0.694 3.569-0.496 0.991 3.172 5.056 4.56 5.056 0.496 0 1.388 1.090 2.082 2.478 1.487 3.172-0.397 5.65-3.767 4.857-3.073-0.793-4.857 0.297-3.37 2.082 0.694 0.793 0.892 1.883 0.496 2.478-0.892 1.487-2.776 0.099-2.082-1.586 0.297-0.694-0.496-1.983-1.685-2.875-2.974-2.082-4.362-1.883-2.379 0.297 0.991 0.991 1.685 2.379 1.685 2.974 0 0.694 0.496 1.983 0.991 2.974 0.595 0.892 2.082 5.849 3.37 10.904 1.784 7.633 1.983 9.417 0.892 9.814s-0.991 0.793 0.397 1.784c1.487 1.090 1.487 1.289-0.397 2.28-1.090 0.595-2.181 0.991-2.379 0.793s-1.586-0.595-3.073-0.991c-2.577-0.595-2.776-0.397-3.37 3.47-0.496 2.776-1.289 4.263-2.478 4.56-1.685 0.496-1.685 0.694-0.397 2.577 1.19 1.685 1.487 5.452 1.487 16.654 0 11.4 0.297 14.77 1.388 15.662 0.793 0.694 1.784 2.577 2.181 4.362 0.496 2.577 0.198 3.47-1.983 5.353-3.668 3.073-7.038 2.875-10.607-0.595-3.271-3.271-3.569-4.758-1.388-7.633 1.090-1.388 1.388-5.056 1.487-15.464v-13.68h-5.849c-4.956 0-6.245 0.397-8.129 2.478-1.289 1.289-2.974 2.478-3.767 2.478-1.883 0-0.892 52.439 1.090 53.629 0.694 0.496 8.922 0.892 18.24 0.892 18.438 0 19.231 0.198 19.231 5.551 0 1.784 0.397 3.569 0.991 3.866 1.487 0.892 3.767 6.542 4.362 11.003 0.694 4.758-1.19 7.831-6.84 11.301l-3.47 2.082 2.181 2.974 2.181 2.875h66.317l-0.595-18.041zM621.141 429.525c-0.595-0.694-2.577-1.586-4.461-1.883l-3.271-0.694 3.866 5.65 3.767 5.65 0.694-3.767c0.397-2.379 0.198-4.263-0.595-4.956zM211.64 395.325c-0.297-3.965-0.694-9.417-0.991-12.193-0.198-2.676-0.099-12.292 0.297-21.313 0.694-15.662 0.793-16.356 2.776-16.654 1.19-0.198 3.172-1.388 4.461-2.776 1.883-2.082 3.073-2.379 8.723-2.379 6.047 0 6.344-0.099 4.362-1.487-1.19-0.892-2.577-1.388-3.073-1.289-0.595 0.198-0.991-0.099-0.991-0.694 0-0.496 0.496-0.892 0.991-0.694 0.595 0.198 1.883-0.496 2.875-1.388s2.676-1.388 3.668-1.19c1.388 0.397 1.784 0 1.586-2.28-0.297-4.362-1.090-4.956-4.362-3.073-4.064 2.28-4.956 0.991-6.245-8.624-1.090-8.228-2.577-11.301-1.883-3.965 0.595 5.452-1.19 7.236-3.866 3.866-1.090-1.388-1.784-3.47-1.586-4.659 0.297-1.784-0.099-2.28-1.685-2.28-1.19 0-2.577-0.397-3.172-0.991s-0.793 3.172-0.595 10.21c0.496 14.671 0.198 15.068-10.508 14.671-7.236-0.198-7.93-0.099-8.426 1.784-0.397 1.784-1.289 2.082-5.155 2.082-3.073 0-5.452 0.595-7.038 1.883-2.28 1.784-2.28 1.883-0.397 2.379 1.784 0.496 1.983 1.388 1.983 7.633s-0.198 7.137-1.983 7.633c-1.19 0.297-1.685 0.991-1.289 1.685 1.090 1.685 1.19 3.47 0.297 4.064-0.496 0.297-0.694 1.090-0.496 1.784 0.297 0.694 0.595 7.236 0.793 14.671s0.694 13.977 1.090 14.671c0.397 0.694 1.784 1.090 2.875 0.991 4.163-0.496 10.706 1.289 11.895 3.172 0.991 1.586 2.379 1.883 8.426 1.883h7.236l-0.595-7.137zM434.58 381.15c-0.397-0.793-0.991-1.289-1.388-0.991-0.496 0.297-1.586-0.496-2.379-1.685-0.892-1.19-1.586-1.883-1.586-1.487s-0.991 0.198-2.181-0.496c-1.289-0.694-2.577-1.289-2.974-1.388-0.496-0.099-1.090-0.297-1.487-0.397-0.496-0.099-1.883-0.297-3.271-0.297-1.388-0.099-2.379-0.694-2.28-1.388 0.297-1.487-2.776-1.19-4.857 0.297-0.694 0.496-3.47 1.586-6.146 2.181-2.676 0.694-6.741 2.577-8.922 4.163l-3.965 2.974h21.015c18.141 0 20.916-0.198 20.421-1.487zM129.859 322.664c0-3.569-0.496-8.327-1.19-10.706l-1.090-4.362-3.37 0.991c-2.28 0.694-3.172 1.487-2.875 2.577 0.297 0.892 0.991 4.263 1.586 7.534 0.694 3.271 1.784 6.245 2.577 6.741 0.694 0.397 1.090 1.388 0.793 2.181-0.397 0.991 0 1.487 1.487 1.487 1.883 0 2.082-0.595 2.082-6.443zM153.352 327.026c-0.892-0.496-2.181-0.694-2.676-0.397s-1.983 0-3.172-0.595c-2.082-1.090-2.181-1.090-0.892 0.397 0.793 0.991 2.776 1.685 4.956 1.685 2.875-0.099 3.271-0.198 1.784-1.090zM193.896 325.043c2.181-1.685 4.659-4.461 5.551-6.344l1.685-3.271-4.163 1.289c-2.28 0.694-6.146 2.379-8.624 3.767-5.254 2.974-11.499 4.758-18.339 5.254-2.676 0.198-6.939 0.793-9.417 1.289-3.37 0.694-0.397 0.892 12.49 0.991l16.951 0.099 3.866-3.073zM247.128 320.88c-0.595-3.271-2.875-4.56-4.56-2.676-0.991 0.991-0.793 1.19 0.595 0.694 1.090-0.397 1.883-0.099 2.181 0.793 1.388 4.163 1.586 4.758 1.883 4.362 0.198-0.198 0.198-1.685-0.099-3.172zM241.775 301.153c-0.892-2.181-0.892-3.073 0.099-4.263 1.090-1.289 0.793-1.487-1.388-1.487-2.28 0-2.478 0.198-1.586 1.883 0.496 1.090 0.991 4.362 0.991 7.236v5.254l1.487-2.875c1.289-2.379 1.388-3.47 0.397-5.749zM224.725 289.258c-0.198-2.379-0.397-0.694-0.397 3.668s0.198 6.245 0.397 4.263c0.198-2.082 0.198-5.65 0-7.93zM217.092 287.473c0-9.715-0.198-10.706-1.883-11.202-1.090-0.297-2.181-0.198-2.478 0.099s-0.595 5.551-0.595 11.598v11.102l2.478-0.496c2.478-0.397 2.478-0.496 2.478-11.102zM250.003 287.077c0.397-0.595 0.198-1.586-0.297-2.181-0.595-0.694-1.090-2.28-1.289-3.569-0.099-1.289-0.595-2.875-0.991-3.569s-0.496-1.586-0.099-2.082c0.297-0.496 0-1.289-0.595-1.586-0.496-0.397-0.793-1.289-0.496-2.082 0.297-0.694 0.099-1.586-0.496-1.883-0.496-0.397-0.793-1.388-0.694-2.181 0.198-1.090-0.595-1.586-2.974-1.685-2.776-0.099-3.172 0.198-3.172 2.577 0 1.487 0.496 3.866 1.090 5.452 0.595 1.487 1.289 3.767 1.487 5.056 0.297 1.289 1.090 3.965 1.983 6.047 1.289 3.172 1.883 3.767 3.668 3.271 1.19-0.297 2.478-0.991 2.875-1.586zM239.396 285.689c-0.694-0.793-3.47 0.694-3.47 1.784 0 0.595 0.694 0.595 1.983-0.198 0.991-0.694 1.685-1.388 1.487-1.586zM434.184 274.388c0-0.595-0.694-0.496-1.487 0.198s-1.487 1.685-1.487 2.181c0 0.595 0.694 0.496 1.487-0.198s1.487-1.685 1.487-2.181zM339.119 269.333c-1.090-1.19-2.379-1.784-2.676-1.388-0.991 0.991 2.676 4.758 3.767 4.064 0.595-0.397 0.099-1.586-1.090-2.676zM440.429 267.35c-0.297-0.496-1.19-0.198-1.983 0.595-0.892 0.793-1.19 1.983-0.793 2.676 0.496 0.793 1.090 0.595 1.983-0.694 0.694-0.991 1.090-2.181 0.793-2.577zM215.010 261.204c-0.099-4.659-0.595-8.723-1.19-9.12-0.793-0.496-0.694 6.146 0.297 17.348 0 0.099 0.198 0.198 0.496 0.198s0.496-3.767 0.397-8.426zM208.27 267.251c-0.793-0.991-0.892-1.586-0.099-2.082 1.685-1.090 1.19-9.12-0.595-9.814-0.892-0.397-1.784-0.496-1.883-0.397-0.694 0.892-1.090 9.615-0.397 9.219 0.397-0.297 0.991-0.099 1.289 0.397 0.397 0.496 0.198 1.19-0.397 1.586-1.685 1.090-1.090 2.478 1.090 2.478 1.685 0 1.883-0.297 0.991-1.388zM205.99 248.714c-0.198-0.496-2.181-1.784-4.362-2.776l-4.064-1.883 1.090 2.478c0.694 1.388 1.685 2.181 2.676 1.983 0.892-0.297 2.28-0.099 2.974 0.397 1.784 1.090 2.082 1.090 1.685-0.198zM214.019 244.253c0.099-1.388-0.694-2.379-2.082-2.776-1.784-0.397-1.983-0.793-0.991-1.784 1.487-1.487 1.586-14.671 0.198-19.826-1.586-5.551-4.163-5.452-12.193 0.496-4.163 3.172-5.849 5.849-5.155 7.831 0.297 0.793 3.271 2.875 6.741 4.659 7.435 4.064 8.723 5.056 8.129 6.047-0.198 0.397-3.172-0.694-6.542-2.379-6.146-3.172-6.146-3.172-8.327-1.19l-2.181 1.883 9.814 4.857c5.452 2.676 10.111 5.551 10.409 6.443 0.595 1.388 0.694 1.388 1.388-0.297 0.397-0.991 0.793-2.875 0.793-3.965zM319.095 241.478c1.883-1.586 6.245-1.487 6.84 0.198 0.297 0.892 16.356 1.19 64.434 1.19h64.136l3.37-4.956c2.974-4.461 3.767-4.956 6.443-4.659 4.163 0.496 5.452 2.974 3.37 6.642l-1.685 2.974h52.241l0.595-5.155c0.496-5.056 0.991-19.033 0.694-21.114-0.099-0.496-0.099-7.236 0.099-14.869 0.099-7.633 0.099-17.645 0-22.304s0.198-10.805 0.595-13.68c0.496-2.875 0.496-5.452 0.099-5.749-1.19-0.694-1.090-10.012 0.099-10.805 1.289-0.793 1.289-6.146 0-6.939s-1.090-11.499 0.198-13.085c0.595-0.694 0.694-2.676 0.397-4.461-1.784-8.624-1.784-11.102 0-14.374 1.685-3.172 1.685-3.569 0.099-6.146-2.082-3.569-1.883-9.814 0.496-12.887 2.181-2.875 2.28-5.353 0.297-7.038-1.090-0.892-1.289-1.586-0.595-2.28s0.694-1.487-0.099-2.379c-0.793-0.991-0.793-1.983 0.099-3.866 0.595-1.388 1.090-2.676 1.090-2.875s-13.085-0.397-29.045-0.496h-29.045l-5.353 5.452c-2.875 2.974-5.65 5.155-6.047 4.857-0.397-0.198-1.289 0.496-1.883 1.586s-1.586 1.685-2.181 1.388c-0.694-0.397-0.793-0.297-0.397 0.397 0.397 0.595-1.685 3.668-4.758 7.038-2.974 3.271-6.542 7.633-7.93 9.814-1.289 2.082-4.263 5.254-6.443 7.038-2.379 1.883-3.767 3.668-3.47 4.56 0.595 1.487-7.137 9.417-9.219 9.417-1.19 0-4.263-3.767-4.263-5.155s6.344-7.93 8.327-8.723c2.478-0.892 4.163-0.793 3.767 0.297-0.099 0.496 0.198 0.595 0.793 0.198 0.694-0.397 0.694-1.19 0-2.577-1.19-2.181-0.991-2.676 3.767-8.525 1.883-2.379 3.767-3.965 4.263-3.668s0.793 0.099 0.694-0.496c-0.297-1.19 3.866-6.443 12.986-16.158l6.344-6.741-69.787-0.198c-55.215-0.198-69.688-0.595-69.489-1.487 0.099-0.991-3.172-1.289-14.175-1.289-14.275 0-14.473 0-13.382 1.983 1.487 2.776-0.397 8.228-3.47 10.309-1.983 1.289-2.28 2.181-1.883 5.155 0.297 2.478-0.198 5.155-1.586 8.029-1.983 4.163-2.28 4.362-5.452 3.965-1.983-0.297-3.668-0.198-3.866 0.198-0.297 0.397 0 2.478 0.496 4.659 0.595 2.082 1.487 6.443 1.983 9.516 0.397 3.073 1.784 7.336 2.875 9.615 1.19 2.181 2.577 6.939 3.073 10.607s1.586 9.021 2.478 11.895c0.793 2.875 1.388 5.849 1.289 6.542-0.397 3.47 0.099 4.956 1.685 4.362 0.991-0.397 2.478 0.099 3.569 1.090s2.181 1.685 2.379 1.487c0.892-0.496 5.353 3.073 4.857 3.866-0.297 0.397 1.19 1.983 3.47 3.47 4.461 2.974 5.155 5.948 2.082 8.723-1.883 1.685-2.181 1.685-6.443-1.487-2.478-1.784-4.56-3.668-4.56-4.163s-0.793 0.099-1.883 1.388c-1.586 1.983-2.181 2.181-4.263 1.19-1.883-0.892-2.776-2.577-4.263-8.624-1.090-4.263-2.379-7.534-3.073-7.534-1.487 0-5.65-6.542-5.65-8.822 0-0.892-0.397-2.082-0.892-2.776-1.586-1.983 0.099-3.569 1.983-2.082 1.487 1.19 1.586 1.090 0.297-0.397-0.694-0.991-1.685-1.586-2.082-1.289-1.090 0.694-6.84-6.047-7.534-8.922-0.297-1.388-0.297-3.271 0.198-4.163 0.694-1.784 0.991-2.676 1.289-3.866 0-0.397 1.289 0.099 2.676 1.090 1.388 0.892 2.676 1.487 2.875 1.289 0.099-0.198-0.991-4.064-2.577-8.723-1.487-4.659-2.776-10.012-2.875-11.895 0-1.883-0.694-4.362-1.487-5.353-0.793-1.090-1.487-3.47-1.487-5.254 0-4.064-3.37-7.93-5.452-6.245-1.090 0.892-1.685 0.595-2.974-1.289-1.487-2.28-1.388-2.776 0.297-7.435 1.388-3.569 1.586-5.353 0.892-6.047-0.793-0.793-0.793-1.388 0.099-2.28s1.784-0.496 3.866 1.586c4.56 4.56 5.948 4.956 6.443 1.685 0.595-4.163-2.181-5.056-15.464-5.056-9.417 0-11.4 0.297-11.895 1.586s-1.388 1.487-4.064 0.991c-2.181-0.397-3.47-0.297-3.569 0.397-0.099 0.496-0.198 1.487-0.297 2.082 0 0.595-0.892 1.586-1.883 2.379-1.685 1.19-1.586 1.388 0.991 3.271 2.676 1.983 2.676 2.082 0.991 3.965-1.090 1.19-1.388 2.181-0.793 2.577 0.496 0.397 0.892 2.776 0.892 5.353-0.099 2.577 0.198 5.948 0.694 7.435 0.595 2.181 0.297 3.271-1.090 4.758-1.586 1.586-2.28 1.685-4.263 0.595-2.181-1.090-3.073-2.875-3.271-6.642 0-0.793-0.892-2.478-1.983-3.668-1.388-1.487-1.883-3.172-1.685-6.146 0.198-2.776-0.198-4.56-1.388-5.749-1.586-1.586-1.586-1.784 0.099-3.668 0.892-1.090 1.090-1.586 0.397-1.19-1.388 0.793-2.478-1.289-2.577-5.254l-0.099-2.577-12.788-0.297c-7.831-0.198-13.184 0.099-13.878 0.793-0.496 0.496-3.37 0.991-6.245 0.991-4.956 0-5.254 0.198-5.254 2.379 0 1.388-0.397 2.776-0.991 3.073-1.487 0.892-1.19 6.047 0.496 7.435 1.090 0.892 1.19 1.586 0.496 2.478-0.793 0.892-0.793 1.487 0 1.983 1.289 0.793 1.388 26.864 0.099 27.657-1.090 0.694-0.198 8.624 0.991 10.012 0.496 0.496 0.892 2.875 0.892 5.155 0 2.379 0.595 5.551 1.388 7.137 1.090 1.983 1.487 6.84 1.487 18.141 0.099 14.572 0.198 15.662 2.676 20.222 1.388 2.676 2.776 5.749 2.974 6.84s1.090 2.478 1.983 2.974c4.263 2.478 5.155 4.362 5.849 11.598l0.694 7.336 4.56-2.28c2.478-1.289 5.551-2.28 6.84-2.28 3.668 0 11.796 4.56 14.175 8.029 3.767 5.155 5.948 14.076 5.948 23.593 0 4.758 0.198 8.922 0.397 9.12s20.817 0.496 45.797 0.694c37.471 0.198 45.599 0 46.888-1.19zM463.526 238.206c-0.297-0.397-1.487 0.198-2.577 1.19-1.487 1.388-1.685 2.082-0.793 2.577 1.289 0.793 4.461-2.776 3.37-3.767zM616.977 227.798c0.694-18.735 3.569-139.177 3.569-149.684v-7.732h-25.179c-15.761 0-25.476 0.397-25.873 0.991s-7.732 0.991-18.636 0.991h-18.041l-1.19 2.676c-1.388 2.875-1.685 8.426-0.595 9.615 1.19 1.090 0.297 9.814-1.289 12.193-1.090 1.784-1.090 2.776-0.198 4.956 1.19 2.875 1.090 12.887-0.099 14.671-1.19 1.685-1.289 6.245-0.198 6.939 1.586 0.892 1.388 10.904-0.297 12.292-1.685 1.487-1.784 5.749 0 6.443 0.793 0.297 1.19 1.784 0.892 4.263-0.099 2.082-0.397 3.767-0.496 3.767 0 0-0.297 1.784-0.496 3.866-0.297 2.181-0.892 4.362-1.388 4.857-0.694 0.694-0.496 1.388 0.496 2.082 1.784 1.289 2.28 10.607 0.793 12.688-2.082 2.577-2.379 4.956-0.892 7.038 1.883 2.676 1.883 9.615 0 12.193-1.883 2.478-1.883 4.857 0 7.732 1.883 2.776 1.685 10.111-0.198 11.697-1.487 1.19-1.685 5.353-0.297 6.245 0.595 0.297 0.991 3.271 0.991 6.443s-0.397 6.146-0.991 6.443c-0.496 0.297-0.991 1.883-0.991 3.47s0.496 3.172 0.991 3.47c0.595 0.297 0.991 1.487 0.991 2.577 0 1.883 1.090 1.883 44.013 1.883h44.013l0.595-15.068zM198.357 217.885c2.082-1.685 4.659-3.172 5.551-3.271 0.991-0.099 2.577-0.595 3.569-0.991 2.082-0.892 4.461 0.892 5.749 4.362l0.991 2.379 2.875-2.776c3.172-3.073 2.776-5.749-0.991-6.939-2.974-0.892-9.913 0.397-13.68 2.577-1.784 0.991-3.866 1.883-4.659 1.883-0.694 0-2.676 0.793-4.263 1.685-2.676 1.487-2.776 1.883-1.388 2.974 2.181 1.586 1.784 1.784 6.245-1.883zM297.882 170.501c0.694-1.090-4.263-4.56-5.155-3.569-0.694 0.694 2.478 4.56 3.767 4.56 0.397 0 0.991-0.397 1.388-0.991zM290.943 163.662c0.297-0.595-0.496-1.487-1.685-2.181-1.983-1.090-2.082-0.991-1.090 0.297 0.694 0.793 0.991 1.784 0.595 2.082-0.297 0.397-0.099 0.694 0.496 0.694s1.289-0.397 1.685-0.892zM818.803 143.538c0-0.694-0.694-2.181-1.487-3.172-2.082-2.676-4.163-0.793-2.577 2.28 1.289 2.28 4.064 2.875 4.064 0.892zM267.449 130.354c-0.595-1.388-1.487-2.181-1.983-1.685-1.19 1.19 0.099 4.163 1.784 4.163 1.090 0 1.090-0.496 0.198-2.478zM274.19 126.191c-1.090-1.090-1.883 0.595-1.090 2.379 0.793 1.685 0.793 1.685 1.19 0 0.297-0.991 0.198-2.082-0.099-2.379zM420.702 115.782c-0.297-0.496-1.19-0.397-1.983 0.297-0.694 0.595-1.090 1.487-0.793 2.082 0.297 0.496 1.19 0.397 1.983-0.297 0.694-0.595 1.090-1.487 0.793-2.082zM226.707 97.939c-0.099-2.082-2.082-1.883-2.478 0.397-0.198 0.793 0.397 1.487 1.19 1.487s1.388-0.892 1.289-1.883zM524.094 97.642c-0.397-0.793-1.090-1.487-1.685-1.487s-0.595 0.694 0.198 1.983c1.388 2.181 2.379 1.883 1.487-0.496zM275.181 84.259c0.297 0 1.487 0.496 2.676 1.090 1.19 0.694 1.883 0.793 1.487 0.397-0.397-0.496-0.297-1.388 0.297-2.082 1.586-1.983-0.595-2.577-7.633-2.181-4.956 0.297-5.849 0.595-5.551 2.082 0.198 0.991 1.19 2.676 2.28 3.767 0.991 0.991 1.883 2.478 1.883 3.172 0.099 0.595 0.991-0.496 2.082-2.478 1.090-2.082 2.181-3.767 2.478-3.767zM526.275 80.096c-0.694-1.289-1.388-1.685-1.983-1.090-1.388 1.388 0 4.263 1.685 3.569 0.991-0.397 1.090-0.991 0.297-2.478zM279.147 73.851l2.082-4.461h-4.163c-3.965 0-4.263 0.198-4.857 3.073-0.991 5.155-0.793 5.849 2.181 5.849 2.181 0 3.073-0.793 4.758-4.461zM226.014 70.778c0-0.793-0.595-1.388-1.388-1.388-0.892 0-1.19 0.694-0.892 1.983 0.595 2.181 2.28 1.784 2.28-0.595zM508.63 44.311c-1.289-1.289-2.577-0.297-1.586 1.19 0.297 0.595 1.090 0.793 1.685 0.496 0.595-0.397 0.595-0.991-0.099-1.685z"></path>
<path d="M504.070 602.703c-0.793-1.19 1.983-2.379 3.47-1.487 0.595 0.297 0.793 1.090 0.496 1.586-0.793 1.19-3.172 1.19-3.965-0.099z"></path>
<path d="M512.694 411.781c-1.685-1.19-2.082-2.082-1.586-3.668 0.397-1.19 0.793-2.875 0.892-3.668s0.694-2.478 1.388-3.767c0.595-1.19 0.991-2.577 0.694-3.073-0.793-1.19 1.586-3.866 3.866-4.263 1.586-0.198 1.983 0.297 1.983 2.181 0 1.784-0.496 2.478-1.983 2.478-2.478 0.099-2.082 2.379 0.694 4.263 1.586 1.19 1.883 2.082 1.289 5.056-1.19 6.047-3.172 7.336-7.236 4.461z"></path>
<path d="M517.452 390.766c-2.577-0.793-4.857-3.271-4.362-4.758 1.586-5.056 1.388-4.956 3.271-2.478l1.784 2.379 0.496-2.676c0.297-1.487 0.297-2.379 0-2.181-0.198 0.297-1.289 0.099-2.379-0.496-1.586-0.793-1.685-1.289-0.694-2.478 0.694-0.793 2.181-1.388 3.271-1.19 1.883 0.297 2.082 0.991 2.082 6.443 0 6.344-0.892 8.327-3.47 7.435z"></path>
<path d="M517.551 372.427c-0.694-0.694-1.685-1.19-2.379-1.19-2.082 0-1.784-9.021 0.297-10.904 1.685-1.586 1.883-1.487 2.974 0.397 1.19 2.28 0.496 4.461-1.090 3.569-1.19-0.793-1.19 1.19 0.099 3.569 0.595 0.991 1.685 1.883 2.478 1.883 2.28 0 2.676 1.784 0.694 2.875-1.289 0.694-2.28 0.595-3.073-0.198z"></path>
<path d="M515.47 354.385c-0.991-1.19-0.793-1.586 1.090-2.379 1.487-0.496 3.073-0.496 4.263 0.099 1.883 0.991 1.883 1.090 0.099 2.379-2.379 1.784-3.965 1.784-5.452-0.099z"></path>
<path d="M514.974 346.058c-0.198-0.496 0.694-1.784 1.983-3.073 1.983-1.883 2.676-2.082 3.965-0.991 1.685 1.388 1.487 3.37-0.297 3.569-0.694 0.099-1.289 0.198-1.388 0.397-0.892 0.595-3.866 0.694-4.263 0.099z"></path>
<path d="M516.56 336.641c-1.685-1.983-0.397-9.913 1.983-12.094 1.685-1.586 1.983-1.586 4.461 0.099 2.28 1.487 2.478 2.082 1.883 5.254-0.397 2.082-0.793 4.263-0.892 4.956-0.496 2.974-5.452 4.163-7.435 1.784zM521.417 331.487c0-1.289-0.397-2.577-0.991-2.875-0.496-0.297-0.991 0-0.991 0.892 0 0.793-0.198 2.082-0.496 2.875-0.397 0.793 0 1.388 0.991 1.388 0.892 0 1.487-0.892 1.487-2.28z"></path>
<path d="M257.636 328.116c-1.289-0.991-2.181-1.983-1.883-1.983 0.297-0.099 1.388-0.297 2.478-0.595 4.659-0.991 5.749-0.892 5.948 0.892 0.198 0.892-0.496 2.181-1.487 2.676-2.379 1.289-2.379 1.289-5.056-0.991z"></path>
<path d="M255.356 323.358c-0.198-0.397-1.19-3.569-2.082-7.038-1.586-6.146-1.586-6.344 0.496-8.228 1.685-1.586 1.883-2.28 0.892-3.37-0.595-0.793-0.892-1.685-0.595-2.082 0.397-0.297 0.198-1.19-0.397-1.883s-0.793-1.784-0.397-2.379c0.892-1.388 2.776-0.099 2.082 1.586-0.297 0.694-0.099 1.586 0.496 1.983 0.595 0.297 0.793 1.19 0.496 1.983-0.297 0.694-0.099 1.586 0.496 1.883 0.496 0.397 0.793 1.19 0.694 1.784-0.198 0.694 0 1.19 0.397 1.19 0.297 0 1.487 0.892 2.676 1.883 2.181 1.983 2.676 7.038 1.19 10.904-0.694 1.784-5.551 3.172-6.443 1.784z"></path>
<path d="M265.169 323.16c-0.397-0.595-0.297-1.586 0.297-2.181s1.19-0.595 1.685 0.198c0.397 0.595 0.297 1.586-0.297 2.181s-1.19 0.595-1.685-0.198z"></path>
<path d="M518.642 318.996c-1.487-1.487-1.586-9.12-0.198-11.796 1.289-2.379 4.163-2.478 6.146-0.099 1.685 1.983 1.586 9.516-0.297 11.697-1.388 1.685-4.064 1.784-5.65 0.198zM522.409 313.346c0-1.090-0.397-2.28-0.991-2.577-0.595-0.397-0.991 0.496-0.991 1.883s0.496 2.577 0.991 2.577c0.595 0 0.991-0.892 0.991-1.883z"></path>
<path d="M387.593 295.998c-3.073-0.694-6.344-1.685-7.435-2.28s-4.163-1.586-6.939-2.181c-2.676-0.694-5.749-1.983-6.642-2.776-1.983-1.784-2.379-5.254-0.694-6.939 1.487-1.487 9.715 0.991 11.895 3.47 1.586 1.983 5.056 3.47 8.327 3.569 1.19 0.099 1.883 0.694 1.685 1.487-0.297 1.388 1.487 3.073 3.271 3.073 0.595-0.099 0.198-0.496-0.793-1.090-3.073-1.784-1.090-2.478 7.435-2.379 7.534 0 8.228 0.198 8.525 2.082 0.198 1.090-0.397 2.577-1.19 3.271-2.082 1.784-11.202 2.082-17.447 0.694zM372.328 285.788c-1.388-0.793-3.073-1.090-3.767-0.694-0.595 0.397 0.099 1.19 1.784 1.883 3.767 1.586 5.452 0.595 1.983-1.19z"></path>
<path d="M353.394 283.706c-0.297-0.297-1.487-0.694-2.676-0.892-3.073-0.496-4.758-2.181-4.758-4.758 0-4.362 1.983-4.857 9.814-2.478 4.758 1.487 5.849 3.073 4.263 6.344-0.991 2.181-5.155 3.271-6.642 1.784zM355.178 279.345c-1.487-1.487-2.676-1.784-3.965-1.289-1.685 0.793-1.586 0.892 0.397 1.19 1.19 0.198 2.676 1.090 3.37 1.883 0.595 0.793 1.388 1.19 1.685 0.892s-0.397-1.487-1.487-2.676z"></path>
<path d="M214.614 336.641c-1.883-1.388-1.883-1.487-0.099-2.181 1.983-0.793 5.155 0.694 4.857 2.181s-2.676 1.487-4.758 0z"></path>
<path d="M224.527 330.198c-0.694-1.19 1.19-2.379 2.478-1.586 1.090 0.694 0.397 2.478-0.991 2.478-0.496 0-1.090-0.397-1.487-0.892z"></path>
<path d="M311.859 233.547c-3.073-5.254-3.073-5.749-0.694-7.93 2.676-2.478 6.245-0.694 8.525 4.362 2.181 4.758 1.289 7.236-2.676 7.732-2.082 0.297-2.974-0.496-5.155-4.163zM316.716 230.573c-1.883-2.875-4.064-3.47-2.974-0.793 0.297 0.892 0.694 2.181 0.793 2.676 0.297 1.586 2.082 2.478 2.974 1.586 0.496-0.496 0.099-2.082-0.793-3.47z"></path>
<path d="M465.608 230.078c-0.991-2.577 1.19-11.598 3.073-13.283 4.758-4.263 8.327-0.991 6.84 6.146-0.496 2.478-1.289 5.056-1.883 5.65-0.892 1.19-7.732 2.379-8.029 1.487zM471.853 223.833c0-0.694 0.297-2.28 0.595-3.47 0.892-3.172-1.388-2.875-2.577 0.297-0.991 2.577-0.595 4.362 1.090 4.362 0.496 0 0.892-0.595 0.892-1.19z"></path>
<path d="M301.748 219.471c-3.073-3.668-3.569-4.857-2.676-6.245 1.289-1.983 0-5.056-2.082-5.056-0.793 0-2.478-2.181-3.965-4.857-2.379-4.659-2.478-4.956-0.793-6.939 2.974-3.47 5.254-2.974 7.732 1.784 2.577 4.659 2.974 7.534 1.388 8.525-1.487 0.892 0.793 4.758 2.478 4.064 0.694-0.198 2.28 0.595 3.569 1.983 1.19 1.289 1.883 2.379 1.388 2.379s-0.198 0.595 0.694 1.289c2.181 1.685 0.595 5.948-1.784 4.956-1.090-0.397-1.487-0.297-0.991 0.496 0.297 0.595 0.198 1.289-0.297 1.586-0.496 0.397-2.577-1.388-4.659-3.965zM307.299 218.381c-0.099-1.586-2.577-3.965-4.163-3.965-1.487 0-1.487 0.198 0 2.28 1.586 2.181 4.163 3.172 4.163 1.685zM297.287 199.943c-1.289-2.974-2.875-3.569-2.875-1.19 0 2.28 2.28 5.551 3.271 4.56 0.397-0.397 0.297-1.983-0.397-3.37z"></path>
<path d="M472.943 209.558c-1.487-1.883-1.685-3.073-1.090-6.047 0.496-1.983 0.694-3.965 0.397-4.362-0.198-0.397 1.19-1.883 2.974-3.271l3.47-2.577 1.487 3.073c1.586 3.172 1.289 9.318-0.496 12.887-1.388 2.776-4.659 2.974-6.741 0.297zM477.801 202.817c-0.099-2.875-0.099-2.974-1.487-1.19-1.983 2.577-1.983 5.65 0 4.956 0.892-0.397 1.487-1.883 1.487-3.767z"></path>
<path d="M322.862 190.228c-1.784-1.388-1.983-2.082-1.19-4.461 0.892-2.478 1.784-2.974 6.245-3.767 4.758-0.793 5.551-0.694 7.435 1.19l2.082 2.181-1.983 2.676c-2.676 3.569-9.417 4.758-12.589 2.181zM332.379 186.858c0.099-0.496-1.487-1.090-3.47-1.289-3.37-0.297-4.659 0.496-3.271 1.983 0.892 0.892 6.443 0.297 6.741-0.694z"></path>
<path d="M476.314 190.327c-1.090-1.19-1.388-2.379-0.892-3.172 0.496-0.694 0.892-2.082 0.892-2.974 0-0.991 0.496-1.784 0.991-1.784 0.595 0.099 0.892 1.19 0.793 2.478-0.198 1.883 0.297 2.478 1.685 2.478 2.379 0 2.577-2.181 0.397-5.452-2.478-3.866 0.694-6.344 3.668-2.875 1.487 1.883 1.586 4.857 0.099 8.525-1.784 4.362-5.056 5.551-7.633 2.776z"></path>
<path d="M287.87 190.327c-1.983-0.793-3.767-4.461-4.857-9.715-0.198-1.388 0.496-2.577 2.28-3.767 2.478-1.586 2.577-1.586 4.758 0.991 3.767 4.362 4.263 12.193 0.793 13.085-0.496 0.198-1.883-0.099-2.974-0.595zM289.059 182.793c-0.892-3.47-2.577-1.784-1.883 1.883 0.397 1.883 0.892 2.478 1.586 1.784 0.496-0.496 0.595-2.181 0.297-3.668z"></path>
<path d="M308.489 184.479c-5.254-3.866-5.65-4.659-3.767-7.534 1.784-2.776 3.569-3.073 6.84-1.19 6.542 3.569 8.129 6.939 4.857 9.913-2.478 2.28-3.271 2.181-7.93-1.19zM314.635 182.496c0.496-0.793-3.37-4.064-4.857-4.064-1.289 0-0.297 2.974 1.289 3.866 2.082 1.289 2.875 1.289 3.569 0.198z"></path>
<path d="M339.912 184.379c-0.397-1.685 0.496-4.659 1.685-6.047s8.922-4.263 11.499-4.362c0.397 0 1.289-0.595 1.983-1.19 0.595-0.694 1.883-1.289 2.776-1.289 2.181 0 5.551 3.767 4.362 4.857-2.577 2.28-10.508 6.939-13.482 7.93-3.271 1.090-8.624 1.19-8.822 0.099zM348.438 180.414c0.297-0.496-0.297-0.991-1.388-0.991s-2.28 0.496-2.577 0.991c-0.297 0.595 0.297 0.991 1.388 0.991s2.28-0.397 2.577-0.991zM357.657 176.251c-0.496-1.289-2.577-1.784-4.064-0.991-1.289 0.595 0.397 2.181 2.379 2.181 1.19 0 1.883-0.496 1.685-1.19z"></path>
<path d="M482.261 172.484c-1.388-1.586-1.586-2.28-0.694-3.172 0.991-0.991 1.685-0.991 3.073-0.099 1.685 0.991 1.983 0.892 2.478-1.289 0.892-3.47-0.198-4.857-2.379-2.875-2.776 2.577-3.073 0.297-0.595-4.659 1.487-2.974 1.983-5.056 1.487-6.047-0.496-0.892-0.496-3.569 0-6.344 0.595-2.577 1.487-8.525 1.983-13.184 1.883-14.77 2.181-16.257 3.569-20.321 0.793-2.181 1.586-5.551 1.784-7.435 0.694-5.65 2.577-11.598 4.263-12.986 1.289-0.991 1.883-0.793 3.866 1.19 2.28 2.181 2.28 2.676 1.289 6.84-0.595 2.478-1.685 5.155-2.379 5.948-0.694 0.892-1.586 4.461-1.883 7.93-0.397 3.569-1.289 8.228-1.983 10.508-0.694 2.181-1.487 6.84-1.586 10.409-0.297 8.129-2.974 18.24-4.758 18.24-0.793 0-1.487 0.793-1.685 1.685-0.099 0.991 0.297 1.586 0.892 1.487 1.883-0.297 1.289 10.706-0.694 13.68s-3.668 3.172-6.047 0.496zM494.355 120.937c-0.099-2.181-1.685-2.776-1.685-0.694 0 1.19 0.892 2.676 1.586 2.676 0.198 0 0.198-0.892 0.099-1.983zM499.609 100.814c0-1.983-0.099-1.983-1.586-0.496-0.892 0.892-1.289 2.082-0.892 2.676 0.991 1.586 2.478 0.297 2.478-2.181z"></path>
<path d="M365.389 171.592c-2.478-2.776-1.289-5.452 3.965-8.525 4.956-2.875 6.939-2.676 8.228 0.694 1.19 3.271 0.397 4.461-4.362 7.236-4.956 2.974-5.65 2.974-7.831 0.595zM373.319 167.131c0.991-0.793 1.586-1.685 1.289-2.082-0.793-0.694-5.849 1.487-5.849 2.676 0 1.289 2.379 0.991 4.56-0.595z"></path>
<path d="M379.663 161.58c-1.090-1.090-1.983-2.577-1.983-3.271 0-1.487 3.767-5.155 8.723-8.525 2.875-1.983 3.668-1.983 3.271 0.198-0.099 0.397 0.397 1.685 0.991 2.776 0.892 1.685 0.694 2.478-1.289 4.56-1.19 1.388-3.47 3.37-4.956 4.362-2.676 1.983-2.676 1.983-4.758-0.099zM386.999 154.542c-0.297-0.496-1.586-0.198-2.875 0.694-1.388 0.892-2.181 1.983-1.883 2.478s1.586 0.198 2.875-0.694c1.388-0.892 2.181-1.983 1.883-2.478z"></path>
<path d="M391.261 147.9c-2.478-2.676-2.082-4.163 2.28-9.12 3.271-3.767 4.163-4.263 5.65-3.37 0.991 0.595 2.181 2.28 2.676 3.668 0.793 2.28 0.496 3.271-2.082 6.344-3.47 4.362-6.146 5.155-8.525 2.478zM397.209 142.745c0.099-1.090-0.198-1.983-0.694-1.983s-1.388 0.892-1.983 1.983c-0.892 1.685-0.793 1.983 0.793 1.983 1.090 0 1.784-0.793 1.883-1.983z"></path>
<path d="M403.157 135.013c-2.181-2.379-2.082-3.37 0.397-7.633 2.875-4.857 5.056-5.849 7.93-3.668 2.676 2.28 2.181 5.551-1.685 10.012-2.974 3.569-4.362 3.767-6.642 1.289zM408.113 130.057c0.297-2.478-1.19-2.974-2.082-0.595s-0.694 3.569 0.595 3.172c0.595-0.198 1.289-1.388 1.487-2.577z"></path>
<path d="M224.031 134.022c-1.586-1.289-2.082-2.478-1.685-3.668 0.595-1.289 0.991-1.487 2.082-0.595 0.991 0.793 1.586 0.892 2.082 0.099 0.892-1.487 2.478-0.198 2.478 1.883 0 3.271-2.478 4.362-4.956 2.28z"></path>
<path d="M225.419 126.488c-0.297-0.892-0.991-1.388-1.388-1.090-1.388 0.892-2.181-1.388-2.676-7.93-0.397-6.245-0.397-6.344 2.577-7.93 3.073-1.487 3.073-1.487 4.163 1.090 1.388 3.668 0.793 16.455-0.793 17.050-0.694 0.198-1.586-0.297-1.883-1.19zM226.014 118.062c0-0.892-0.496-2.28-1.090-3.073-0.793-1.19-0.892-1.19-0.694 0.496 0.099 1.090-0.099 2.478-0.397 3.073-0.397 0.595-0.099 1.090 0.694 1.090s1.487-0.694 1.487-1.586z"></path>
<path d="M257.536 122.226c-1.883-2.082-4.461-7.336-4.263-8.723 0-0.496 0.892-1.983 1.883-3.172 1.586-1.784 2.181-1.883 3.767-0.991 1.784 1.090 4.461 6.146 5.254 9.814 0.198 0.991-0.595 2.478-1.784 3.271-2.676 1.883-3.073 1.883-4.857-0.198zM260.312 115.882c-0.892-1.289-1.586-1.983-1.586-1.487s-0.793 0.198-1.685-0.496c-1.586-1.289-1.685-1.19-0.397 0.397 0.694 0.892 0.991 1.685 0.595 1.685-0.496 0 0 0.892 0.991 1.983 2.478 2.776 4.263 0.991 2.082-2.082z"></path>
<path d="M247.822 102.4c-3.47-5.452-3.668-7.336-0.991-9.715 1.090-0.991 1.983-1.487 1.983-0.991 0 0.397 0.694 0.198 1.487-0.496 1.388-1.090 1.883-0.694 1.586 1.289-0.099 0.496 1.289 2.776 2.974 5.155 3.073 4.263 3.073 4.461 1.487 6.939-2.478 3.866-5.155 3.172-8.525-2.181zM252.184 98.831c-0.297-0.892-1.19-1.685-1.883-1.685-1.388 0-1.487 1.685-0.099 3.767 1.090 1.883 2.776 0 1.983-2.082z"></path>
<path d="M498.32 89.117c-1.388-0.793-1.586-1.784-1.090-4.659 0.397-1.983 1.090-4.263 1.685-4.956 0.496-0.694 0.694-1.487 0.397-1.883-1.090-0.991 1.388-3.271 3.37-3.271 0.991 0 2.577 1.090 3.47 2.478 1.487 2.181 1.487 3.172 0.397 6.741-1.883 6.642-3.965 8.029-8.228 5.551zM503.971 83.665c0.793-2.181 0.793-2.28-0.892-1.983-1.983 0.297-2.776 1.289-1.983 2.478 0.892 1.586 2.181 1.289 2.875-0.496z"></path>
<path d="M237.215 85.052c-1.487-2.379-3.47-4.758-4.263-5.452-1.289-0.991-1.289-1.19 0.297-1.883 0.991-0.297 1.586-1.289 1.289-1.983-0.595-1.586 0.991-2.776 1.883-1.388 0.397 0.595 0.991 0.793 1.487 0.496 1.784-1.090 4.758 1.487 6.741 5.749 2.776 5.849 2.28 8.029-1.586 8.426-2.676 0.297-3.47-0.198-5.849-3.965zM241.775 81.087c-0.793-1.388-1.388-1.685-2.181-0.892-0.694 0.694-0.595 1.487 0.297 2.478 1.685 2.181 3.172 0.892 1.883-1.586z"></path>
<path d="M51.943 914.562c-0.297-0.892-0.297-2.379 0.099-3.271 0.496-0.991 0.694-2.776 0.595-3.965-0.099-1.090 0.198-2.379 0.694-2.676s0.694-1.586 0.496-2.974c-0.297-1.289 0-2.676 0.595-2.974 1.487-0.892 2.478 1.883 1.586 4.163-0.496 0.892-0.694 2.676-0.595 3.866 0.099 1.090-0.198 2.379-0.694 2.676s-0.694 1.586-0.496 2.974c0.595 2.676-1.388 4.461-2.28 2.181z"></path>
<path d="M61.856 856.076c-0.297-0.892-0.297-2.379 0.099-3.271 0.496-0.991 0.694-2.776 0.595-3.965-0.099-1.090 0.198-2.379 0.694-2.676s0.694-1.586 0.496-2.974c-0.297-1.289 0-2.676 0.595-2.974 1.487-0.892 2.478 1.883 1.586 4.163-0.496 0.892-0.694 2.676-0.595 3.866 0.099 1.090-0.198 2.379-0.694 2.676s-0.694 1.586-0.496 2.974c0.595 2.676-1.388 4.461-2.28 2.181z"></path>
<path d="M132.337 819.696c-0.991-2.478-0.099-23.692 0.991-23.989 1.388-0.297 1.883 23.097 0.595 24.386-0.694 0.694-1.19 0.496-1.586-0.397z"></path>
<path d="M68.894 815.929c-0.595-0.991 1.090-13.085 2.181-15.96 0.297-0.793 0.496-2.478 0.397-3.668-0.099-1.090 0.198-2.379 0.793-2.676 0.595-0.397 0.793-1.289 0.397-2.082-0.297-0.793-0.198-2.28 0.198-3.172 0.496-0.991 0.694-2.776 0.595-3.965-0.099-1.090 0.198-2.379 0.793-2.676 0.595-0.397 0.793-1.289 0.397-2.082-0.297-0.793-0.198-2.28 0.198-3.172 0.496-0.991 0.694-2.776 0.595-3.965-0.099-1.090 0.198-2.379 0.694-2.676 0.595-0.297 0.793-1.487 0.496-2.478s0-2.181 0.595-2.577c1.388-0.793 2.478 1.983 1.487 3.668-0.496 0.694-0.694 2.28-0.595 3.47 0.198 1.090-0.099 2.379-0.694 2.676-0.595 0.397-0.793 1.289-0.397 2.082 0.297 0.793 0.198 2.28-0.198 3.271-0.496 0.892-0.694 2.676-0.595 3.866 0.099 1.090-0.198 2.379-0.793 2.676-0.595 0.397-0.793 1.289-0.397 2.082 0.297 0.793 0.198 2.28-0.198 3.271-0.496 0.892-0.694 2.676-0.595 3.866 0.099 1.090-0.297 2.379-0.892 2.776-0.496 0.297-0.793 1.090-0.397 1.586 0.694 1.19-1.586 15.662-2.676 16.257-0.397 0.297-0.991 0.099-1.388-0.397z"></path>
<path d="M131.346 788.966c-0.991-2.577-0.099-23.196 0.991-22.998 1.289 0.397 1.883 22.106 0.595 23.394-0.694 0.694-1.19 0.496-1.586-0.397z"></path>
<path d="M77.717 761.904c-0.397-0.991-0.198-2.181 0.397-2.776 0.793-0.793 1.289-0.694 1.784 0.595 0.397 0.991 0.198 2.181-0.397 2.776-0.793 0.793-1.289 0.694-1.784-0.595z"></path>
<path d="M130.354 759.227c-0.991-2.478-0.099-23.692 0.991-23.989 1.388-0.297 1.883 23.097 0.595 24.386-0.694 0.694-1.19 0.496-1.586-0.397z"></path>
<path d="M78.708 755.956c-0.397-0.991-0.198-2.181 0.397-2.776 0.793-0.793 1.289-0.694 1.784 0.595 0.397 0.991 0.198 2.181-0.397 2.776-0.793 0.793-1.289 0.694-1.784-0.595z"></path>
<path d="M79.7 750.008c-0.397-0.991-0.198-2.181 0.397-2.776 0.793-0.793 1.289-0.694 1.784 0.595 0.397 0.991 0.198 2.181-0.397 2.776-0.793 0.793-1.289 0.694-1.784-0.595z"></path>
<path d="M80.691 744.060c-0.397-0.991-0.198-2.181 0.397-2.776 0.793-0.793 1.289-0.694 1.784 0.595 0.397 0.991 0.198 2.181-0.397 2.776-0.793 0.793-1.289 0.694-1.784-0.595z"></path>
<path d="M81.781 737.518c-0.397-0.595-0.297-1.586 0.297-2.181s1.19-0.595 1.685 0.198c0.397 0.595 0.297 1.586-0.297 2.181s-1.19 0.595-1.685-0.198z"></path>
<path d="M82.773 731.57c-0.397-0.595-0.297-1.586 0.297-2.181s1.19-0.595 1.685 0.198c0.397 0.595 0.297 1.586-0.297 2.181s-1.19 0.595-1.685-0.198z"></path>
<path d="M129.363 727.506c-0.991-2.577-0.099-23.196 0.991-22.998 1.289 0.397 1.883 22.106 0.595 23.394-0.694 0.694-1.19 0.496-1.586-0.397z"></path>
<path d="M83.764 725.622c-0.397-0.595-0.297-1.586 0.297-2.181s1.19-0.595 1.685 0.198c0.397 0.595 0.297 1.586-0.297 2.181s-1.19 0.595-1.685-0.198z"></path>
<path d="M128.372 697.668c-0.991-2.478-0.099-20.123 0.991-19.925 1.289 0.397 1.883 19.132 0.595 20.421-0.694 0.694-1.19 0.496-1.586-0.496z"></path>
<path d="M127.38 666.938c-0.991-2.379-0.099-17.645 0.991-17.645 1.289 0 1.883 16.852 0.595 18.141-0.694 0.694-1.19 0.496-1.586-0.496z"></path>
<path d="M672.589 616.383c-0.892-2.379-0.198-9.219 0.991-9.219 1.388 0 1.883 8.426 0.595 9.715-0.694 0.694-1.19 0.496-1.586-0.496z"></path>
</svg>
