<!-- Generated by IcoMoon.io -->
<svg version="1.1" xmlns="http://www.w3.org/2000/svg" width="1077" height="1024" viewBox="0 0 1077 1024">
<title></title>
<g id="icomoon-ignore">
</g>
<path fill="#000" d="M605.795 445.741l108.424-108.424q-27.536-75.724-17.21-125.634 13.768-56.793 46.467-87.771 34.42-36.141 87.771-48.188 51.63-10.326 104.981 12.047l-87.771 86.050 25.815 80.887 77.445 24.094 87.771-87.771q22.373 49.909 12.047 101.539t-46.467 87.771q-34.42 34.42-91.213 48.188-55.072 10.326-123.913-17.21l-108.424 108.424 344.202 344.202-115.308 115.308-344.202-344.202-297.734 287.408q-1.721 29.257-24.094 53.351-25.815 24.094-58.514 25.815t-53.351-18.931q-20.652-18.931-20.652-53.351 1.721-30.978 27.536-58.514 24.094-24.094 56.793-27.536l296.013-283.966-225.452-223.731-125.634 123.913-10.326 1.721-108.424-110.145 1.721-10.326 239.22-239.22q70.561-13.768 123.913-32.699l127.355-46.467 30.978 32.699-163.496 165.217 223.731 225.452zM218.568 900.087q-18.931-22.373-49.909 5.163-25.815 27.536-5.163 48.188 22.373 20.652 48.188-5.163 27.536-27.536 6.884-48.188z"></path>
</svg>
