<?xml version="1.0" encoding="UTF-8" standalone="no"?>
<!-- Generated by IcoMoon.io -->

<svg
   xmlns:osb="http://www.openswatchbook.org/uri/2009/osb"
   xmlns:dc="http://purl.org/dc/elements/1.1/"
   xmlns:cc="http://creativecommons.org/ns#"
   xmlns:rdf="http://www.w3.org/1999/02/22-rdf-syntax-ns#"
   xmlns:svg="http://www.w3.org/2000/svg"
   xmlns="http://www.w3.org/2000/svg"
   xmlns:sodipodi="http://sodipodi.sourceforge.net/DTD/sodipodi-0.dtd"
   xmlns:inkscape="http://www.inkscape.org/namespaces/inkscape"
   version="1.1"
   width="1024"
   height="1024"
   viewBox="0 0 1024 1024"
   id="svg17"
   sodipodi:docname="workbench_new.svg"
   inkscape:version="0.92.4 (5da689c313, 2019-01-14)">
  <metadata
     id="metadata23">
    <rdf:RDF>
      <cc:Work
         rdf:about="">
        <dc:format>image/svg+xml</dc:format>
        <dc:type
           rdf:resource="http://purl.org/dc/dcmitype/StillImage" />
        <dc:title />
      </cc:Work>
    </rdf:RDF>
  </metadata>
  <defs
     id="defs21">
    <linearGradient
       id="linearGradient2284"
       osb:paint="gradient">
      <stop
         style="stop-color:#000000;stop-opacity:1;"
         offset="0"
         id="stop2280" />
      <stop
         style="stop-color:#000000;stop-opacity:0;"
         offset="1"
         id="stop2282" />
    </linearGradient>
  </defs>
  <sodipodi:namedview
     pagecolor="#ffffff"
     bordercolor="#666666"
     borderopacity="1"
     objecttolerance="10"
     gridtolerance="10"
     guidetolerance="10"
     inkscape:pageopacity="0"
     inkscape:pageshadow="2"
     inkscape:window-width="2560"
     inkscape:window-height="1506"
     id="namedview19"
     showgrid="false"
     inkscape:zoom="0.65186406"
     inkscape:cx="-116.96549"
     inkscape:cy="512"
     inkscape:window-x="-11"
     inkscape:window-y="-11"
     inkscape:window-maximized="1"
     inkscape:current-layer="svg17" />
  <g
     id="icomoon-ignore" />
  <path
     style="color:#000000;font-style:normal;font-variant:normal;font-weight:normal;font-stretch:normal;font-size:medium;line-height:normal;font-family:sans-serif;font-variant-ligatures:normal;font-variant-position:normal;font-variant-caps:normal;font-variant-numeric:normal;font-variant-alternates:normal;font-feature-settings:normal;text-indent:0;text-align:start;text-decoration:none;text-decoration-line:none;text-decoration-style:solid;text-decoration-color:#000000;letter-spacing:normal;word-spacing:normal;text-transform:none;writing-mode:lr-tb;direction:ltr;text-orientation:mixed;dominant-baseline:auto;baseline-shift:baseline;text-anchor:start;white-space:normal;shape-padding:0;clip-rule:nonzero;display:inline;overflow:visible;visibility:visible;opacity:1;isolation:auto;mix-blend-mode:normal;color-interpolation:sRGB;color-interpolation-filters:linearRGB;solid-color:#000000;solid-opacity:1;vector-effect:none;fill:#000000;fill-opacity:1;fill-rule:nonzero;stroke:none;stroke-width:10;stroke-linecap:butt;stroke-linejoin:miter;stroke-miterlimit:4;stroke-dasharray:none;stroke-dashoffset:0;stroke-opacity:1;color-rendering:auto;image-rendering:auto;shape-rendering:auto;text-rendering:auto;enable-background:accumulate"
     d="m 512,26.03125 c -133.9095,0 -249.18892,47.160475 -344.83594,141.06836 l -0.0332,0.0332 -0.0312,0.0332 C 73.191725,262.81303 26.03125,378.09246 26.03125,512.00195 c 0,133.9095 47.160475,249.18892 141.06836,344.83594 l 0.0312,0.0312 0.0332,0.0332 C 262.81108,950.81023 378.0905,997.9707 512,997.9707 c 133.9095,0 249.18892,-47.16047 344.83594,-141.06836 l 0.0332,-0.0332 0.0312,-0.0312 c 93.90789,-95.64702 141.06836,-210.92644 141.06836,-344.83594 0,-133.90949 -47.16047,-249.18892 -141.06836,-344.83593 l -0.0312,-0.0332 -0.0332,-0.0332 C 761.18892,73.191725 645.9095,26.03125 512,26.03125 Z m 0,10 c 131.55652,0 243.82124,45.921914 337.79688,138.17383 92.25191,93.97563 138.17187,206.24036 138.17187,337.79687 0,131.55652 -45.91996,243.81929 -138.17187,337.79493 C 755.82124,942.04879 643.55652,987.9707 512,987.9707 380.44348,987.9707 268.17876,942.04879 174.20312,849.79688 81.951212,755.82124 36.03125,643.55847 36.03125,512.00195 36.03125,380.44544 81.951212,268.18071 174.20312,174.20508 268.17876,81.953164 380.44348,36.03125 512,36.03125 Z m -2.58594,5.513672 c -128.76302,0 -238.91366,46.335804 -329.38672,138.548828 C 87.859974,270.55478 41.546875,380.6817 41.546875,509.41211 c 0,128.76236 46.324279,239.74939 138.513675,331.93945 90.48188,90.48189 200.61367,135.92969 329.35351,135.92969 128.73985,0 238.87163,-45.4478 329.35352,-135.92969 92.1894,-92.1894 138.51367,-203.17643 138.51367,-331.93945 0,-128.71486 -46.30303,-238.82927 -138.44727,-329.2832 C 750.06555,87.879844 639.8845,41.544922 509.41406,41.544922 Z m 0,10 c 128.11489,0 235.14461,45.033307 322.21485,135.517578 l 0.0508,0.0508 0.0508,0.0508 c 90.52031,88.81228 135.55078,195.8724 135.55078,322.24805 0,126.37565 -45.04006,234.32521 -135.58398,324.86914 -88.80479,88.80478 -195.88572,133 -322.28321,133 -126.39749,0 -233.47842,-44.19522 -322.2832,-133 C 96.586919,743.73665 51.546875,635.78708 51.546875,509.41211 c 0,-126.37497 45.030458,-233.43509 135.550785,-322.24805 l 0.0332,-0.0332 0.0352,-0.0332 C 275.9783,96.577347 383.03842,51.544922 509.41406,51.544922 Z"
     id="path5"
     inkscape:connector-curvature="0" />
  <path
     d="M426.416 205.883c-37.447 0.756-78.824 14.748-124.127 41.93l-0.037 0.022-0.031 0.029c-11.993 10.28-22.987 13.63-33.133 10.248l-0.158-0.053-15.789 5.264-62.186 64.775-7.84 13.064-5.18 36.254c-5.134 17.088-16.172 28.124-33.266 33.254h-0.002c-0.001 0-0.002 0.002-0.004 0.002l-18.211 5.203-41.621 39.018v26.283l77.687 77.682c3.505 4.381 7.315 6.652 11.379 6.652s8.274-2.249 12.637-6.611l0.008-0.006 33.648-36.238 15.51-23.266 30.922-30.922 25.764-10.305 23.361-7.787 57.059-59.652 7.813-26.045v-20.643l25.684-51.363 79.809-7.725 36.283 7.775 18.438-7.902 5.371-13.426-10.555-10.555c-22.481-32.828-53.667-51.013-93.424-54.471h-0.002c-5.189-0.432-10.457-0.594-15.807-0.486zM426.434 206.883c5.317-0.108 10.553 0.055 15.707 0.484l-0.002-0.002c39.522 3.437 70.383 21.441 92.721 54.088l0.027 0.039 10.143 10.143-4.973 12.43-17.764 7.615-36.123-7.742-80.514 7.793-26.037 52.070v20.73l-7.701 25.674-56.721 59.299-23.156 7.719 0.148 0.91-0.174-0.9-25.953 10.381-31.139 31.139-15.52 23.279-33.576 36.16c-4.257 4.257-8.236 6.318-11.93 6.318s-7.209-2.039-10.6-6.277l-0.018-0.021-77.449-77.449v-25.436l41.129-38.557 17.99-5.141c17.373-5.212 28.74-16.579 33.951-33.951l0.012-0.035 5.162-36.141 7.678-12.793 61.936-64.518 15.264-5.088c10.471 3.408 21.803-0.131 33.85-10.434l0.006-0.004c45.2-27.119 86.408-41.030 123.625-41.783zM708.498 211.541l-0.027 0.004c-46.654 5.184-77.894 24.252-93.488 57.172l-0.004 0.008c-15.545 34.545-21.601 68.256-18.143 101.105l0.002 0.016 0.002 0.014c5.153 30.917-1.694 54.829-20.529 71.953l-46.959 41.74 80.93 73.098 36.537-36.539c18.877-18.878 41.117-27.428 66.846-25.713l49.258-0.008c36.242-6.903 62.161-16.386 77.789-28.541l0.006-0.004 0.004-0.004c19.073-15.605 32.048-39.856 38.959-72.682l0.002-0.006c6.91-31.1 6.908-63.067 0-95.883l-0.188-0.889-98.787 96.188-53.91 5.135-25.676-23.109c-10.275-10.275-15.369-21.337-15.369-33.262 0-13.659 5.117-27.331 15.4-41.051l93.963-88.742zM708.555 212.541h84.047l-92.234 87.119c-10.391 13.855-15.615 27.757-15.615 41.674 0 12.21 5.25 23.557 15.662 33.969l0.008 0.010 26.033 23.43 54.697-5.211 97.719-95.146c6.691 32.37 6.648 63.886-0.168 94.559v0.004c-6.88 32.679-19.762 56.696-38.615 72.121-15.398 11.971-41.18 21.444-77.311 28.33l-49.047 0.002c-25.988-1.733-48.571 6.955-67.619 26.004l-35.865 35.865-79.396-71.709 46.133-41.008c19.083-17.349 26.028-41.699 20.848-72.826-3.438-32.655 2.575-66.174 18.057-100.582 15.434-32.582 46.246-51.439 92.668-56.604zM403.381 418.215l-54.982 54.982 326.143 354.615c6.073 7.798 12.832 12.823 20.268 15.010 7.447 2.19 15.548 1.524 24.246-1.955l0.051-0.021 41.568-28.576 10.447-36.563-18.23-36.459-0.068-0.063-56.889-51.717-224.969-206.867zM403.408 419.602l66.879 61.734 224.971 206.871 56.82 51.656 17.975 35.943-10.24 35.842-41.174 28.307c-8.523 3.4-16.355 4.024-23.549 1.908-7.206-2.119-13.8-6.998-19.787-14.695l-0.012-0.018-325.508-353.926zM411.18 604.391l-139.998 127.035c-19.078 12.18-26.893 33.108-23.436 62.492l0.004 0.033 0.008 0.029c6.93 27.72 23.525 43.45 49.551 46.92 14.699 3.451 27.501 3.243 38.375-0.672 10.864-3.911 19.778-11.525 26.715-22.768l124.427-132.207zM411.123 605.793l74.332 79.459-123.861 131.617c-6.848 11.128-15.586 18.58-26.248 22.418s-23.272 4.063-37.857 0.631l-0.023-0.006-0.025-0.002c-25.681-3.424-41.836-18.717-48.701-46.141-3.425-29.176 4.257-49.592 23.047-61.549l0.525-0.334-0.070-0.070zM312.91 739.025l-34.037 10.473-10.463 34.008 7.869 28.857 35.656 10.188-0.254 0.252h1.207c8.753 0 17.488-3.507 26.172-10.453l0.104-0.082 10.455-26.139-10.457-36.604zM312.867 740.086l25.467 10.186 10.229 35.803-10.227 25.564c-8.505 6.777-16.957 10.144-25.393 10.158l-35.848-10.242-7.645-28.031 10.223-33.225z"
     id="path7" />
  <path
     d="M692.553 840.677c-5.599-2.302-9.205-4.939-14.488-10.595-2.148-2.299-75.894-82.513-163.879-178.253s-160.922-175.094-162.080-176.343l-2.107-2.271 26.527-26.536c14.59-14.595 26.713-26.535 26.94-26.534s14.020 12.565 30.651 27.92c63.006 58.172 262.694 241.643 289.711 266.185l28.195 25.611 17.903 35.661-4.865 17.356c-2.676 9.546-5.417 17.992-6.091 18.769s-10.085 7.489-20.913 14.914c-13.779 9.449-20.997 13.889-24.053 14.797-6.603 1.961-15.731 1.671-21.452-0.681z"
     id="path9" />
  <path
     d="M570.806 519.604c-21.46-19.42-39.040-35.607-39.067-35.971s8.888-8.585 19.812-18.268c10.924-9.683 22.755-20.418 26.291-23.855 11.531-11.208 18.066-23.521 20.523-38.674 1.58-9.74 1.563-16.818-0.072-30.746-3.853-32.82 2.839-71.583 17.735-102.729 6.301-13.174 16.177-25.306 27.669-33.987 12.475-9.424 33.548-17.664 53.98-21.108 9.608-1.619 12.717-1.709 52.255-1.508l42.039 0.213-44.899 42.32c-24.695 23.276-46.294 44.055-47.998 46.174-3.973 4.942-10.834 18.772-12.452 25.102-1.795 7.022-2.348 16.381-1.304 22.065 1.19 6.478 6.433 16.911 11.239 22.364 2.126 2.412 9.749 9.707 16.942 16.211 13.055 11.806 13.083 11.826 16.403 11.379 1.829-0.246 13.991-1.431 27.026-2.634l23.7-2.187 4.903-4.578c2.697-2.518 24.528-23.706 48.514-47.084s43.886-42.612 44.223-42.742c0.763-0.293 2.034 6.204 3.801 19.44 1.838 13.768 1.838 40.219 0 53.804-5.211 38.509-16.485 66.242-34.665 85.271-14.424 15.097-36.654 25.003-74.958 33.401l-11.431 2.506-66.196-0.329-7.99 2.119c-10.383 2.754-21.433 8.071-29.603 14.244-3.596 2.717-15.545 13.991-26.554 25.053s-20.203 20.096-20.431 20.076c-0.228-0.020-17.973-15.926-39.432-35.346z"
     id="path11" />
  <path
     d="M298.492 840.132c-18.575-3.525-29.598-9.543-37.754-20.613-8.26-11.212-11.721-20.903-12.312-34.48-0.962-22.081 5.286-38.624 18.519-49.034 2.857-2.247 36.227-32.22 74.155-66.605s69.286-62.631 69.682-62.768c0.397-0.137 17.322 17.48 37.611 39.148l36.89 39.397-2.78 2.94c-44.823 47.396-122.167 130.372-125.209 134.326-7.226 9.392-16.129 15.392-26.933 18.15-6.681 1.706-21.586 1.49-31.869-0.462zM319.459 822.149c4.836-0.996 14.645-5.565 17.891-8.334 1.421-1.212 3.808-6.054 7.251-14.709l5.132-12.902-10.415-36.703-26.472-10.598-16.877 5.237c-9.283 2.88-16.987 5.354-17.121 5.498-0.522 0.559-10.221 32.807-10.221 33.984 0 1.387 7.259 28.154 7.775 28.67 0.526 0.526 35.813 10.632 37.337 10.693 0.764 0.031 3.339-0.345 5.721-0.836z"
     id="path13" />
  <path
     d="M127.467 522.104l-41.902-41.873v-24.584l15.323-14.333c8.428-7.883 17.754-16.601 20.724-19.372 5.256-4.904 5.672-5.117 15.528-7.921 20.882-5.941 31.492-13.588 38.265-27.58 3.12-6.446 3.476-7.97 6.075-26.006l2.761-19.159 3.837-6.32c2.991-4.926 10.667-13.423 34.805-38.529l30.968-32.208 7.478-2.508c6.675-2.239 7.9-2.417 11.409-1.665 7.507 1.61 17.343-1.574 26.783-8.671 2.614-1.965 10.33-6.674 17.148-10.465 72.222-40.159 138.030-44.664 185.467-12.698 7.871 5.304 21.66 18.603 27.799 26.811 2.537 3.392 6.938 8.573 9.78 11.513l5.166 5.346-4.969 12.191-8.631 3.678c-4.747 2.023-9.33 3.563-10.184 3.424s-9.031-1.853-18.17-3.808l-16.616-3.554-40.219 3.902c-22.12 2.146-40.35 4.043-40.511 4.217s-6.033 11.805-13.050 25.848l-12.758 25.534-0.023 10.425c-0.022 10.085-0.151 10.848-3.958 23.4l-3.935 12.975-56.681 59.327-11.628 3.848c-6.396 2.116-17.513 6.216-24.704 9.11l-13.076 5.262-14.993 14.856c-13.351 13.229-15.905 16.215-23.325 27.264-6.761 10.067-11.637 15.977-25.856 31.337-9.638 10.411-19.033 19.814-20.878 20.895-2.305 1.351-4.604 1.966-7.35 1.966h-3.996z"
     id="path15" />
  <path
     style="fill:#000000;fill-opacity:1;stroke:#000000;stroke-width:15.34062195;stroke-miterlimit:4;stroke-dasharray:none;stroke-opacity:1"
     d="M 503.27323,35.946948 C 398.72914,34.715027 295.06132,72.498301 213.87238,137.95562 118.66913,213.5397 52.832764,326.44292 39.00143,447.67743 31.309613,521.9153 35.55962,598.43198 60.109028,669.3768 115.83904,833.94137 268.76206,962.79186 441.99293,984.06098 c 44.53296,6.89184 89.85906,5.01125 134.54975,0.85623 82.59384,-9.62753 161.83495,-42.83243 227.35879,-93.91037 C 848.66828,854.91817 889.08595,812.61252 919.23479,763.425 970.89194,681.55271 993.28515,583.05669 987.72672,486.79025 984.62633,378.70297 941.21036,272.39742 867.99418,192.83013 806.87585,124.56873 726.41621,72.981564 637.18345,50.74081 595.603,39.486749 552.51365,34.917958 509.48741,35.918866 c -2.0714,0.0094 -4.14279,0.01872 -6.21418,0.02808 z m 4.07184,7.002155 c 82.66735,-0.942784 166.05683,18.775574 236.91053,62.142187 58.7868,36.471 108.97995,86.09744 150.12543,141.46375 52.84273,73.02375 81.60335,163.07328 81.02037,253.18194 1.54249,54.04888 -5.13383,108.33452 -22.76388,159.58298 C 917.31584,763.5489 842.50517,852.88255 749.45939,910.85772 670.19331,960.19925 575.22732,980.30855 482.60105,975.56475 370.1106,971.14395 260.21635,922.07981 181.89601,841.15516 107.43561,769.40787 57.538541,671.82455 46.222115,568.75978 34.590362,473.35584 50.225413,373.75559 97.743351,289.53345 127.56403,233.70827 171.38102,186.81639 218.8448,145.52271 287.93833,87.778695 374.7454,51.53041 464.60707,44.761813 c 14.23135,-1.207483 28.46432,-1.785012 42.738,-1.81271 z"
     id="path1548"
     inkscape:connector-curvature="0" />
</svg>
